G04 #@! TF.GenerationSoftware,KiCad,Pcbnew,(5.1.4)-1*
G04 #@! TF.CreationDate,2021-01-17T19:38:40-03:30*
G04 #@! TF.ProjectId,Eth_Breakout,4574685f-4272-4656-916b-6f75742e6b69,V1.0*
G04 #@! TF.SameCoordinates,Original*
G04 #@! TF.FileFunction,Legend,Top*
G04 #@! TF.FilePolarity,Positive*
%FSLAX46Y46*%
G04 Gerber Fmt 4.6, Leading zero omitted, Abs format (unit mm)*
G04 Created by KiCad (PCBNEW (5.1.4)-1) date 2021-01-17 19:38:40*
%MOMM*%
%LPD*%
G04 APERTURE LIST*
%ADD10C,0.120000*%
%ADD11C,0.150000*%
G04 APERTURE END LIST*
D10*
X51440000Y-114150000D02*
X67170000Y-114150000D01*
X51440000Y-135040000D02*
X51440000Y-114150000D01*
X67170000Y-135040000D02*
X67170000Y-114150000D01*
X51450000Y-135040000D02*
X67170000Y-135040000D01*
X67250000Y-131250000D02*
X67750000Y-131750000D01*
X67750000Y-131750000D02*
X67750000Y-130750000D01*
X67750000Y-130750000D02*
X67250000Y-131250000D01*
D11*
X58966666Y-112552380D02*
X58966666Y-113266666D01*
X58919047Y-113409523D01*
X58823809Y-113504761D01*
X58680952Y-113552380D01*
X58585714Y-113552380D01*
X59966666Y-113552380D02*
X59395238Y-113552380D01*
X59680952Y-113552380D02*
X59680952Y-112552380D01*
X59585714Y-112695238D01*
X59490476Y-112790476D01*
X59395238Y-112838095D01*
X53116666Y-133302380D02*
X53116666Y-134016666D01*
X53069047Y-134159523D01*
X52973809Y-134254761D01*
X52830952Y-134302380D01*
X52735714Y-134302380D01*
X53545238Y-133397619D02*
X53592857Y-133350000D01*
X53688095Y-133302380D01*
X53926190Y-133302380D01*
X54021428Y-133350000D01*
X54069047Y-133397619D01*
X54116666Y-133492857D01*
X54116666Y-133588095D01*
X54069047Y-133730952D01*
X53497619Y-134302380D01*
X54116666Y-134302380D01*
M02*
