G04 #@! TF.GenerationSoftware,KiCad,Pcbnew,(5.1.4)-1*
G04 #@! TF.CreationDate,2021-01-17T20:12:36-03:30*
G04 #@! TF.ProjectId,Eth_Breakout,4574685f-4272-4656-916b-6f75742e6b69,V1.0*
G04 #@! TF.SameCoordinates,Original*
G04 #@! TF.FileFunction,Copper,L1,Top*
G04 #@! TF.FilePolarity,Positive*
%FSLAX46Y46*%
G04 Gerber Fmt 4.6, Leading zero omitted, Abs format (unit mm)*
G04 Created by KiCad (PCBNEW (5.1.4)-1) date 2021-01-17 20:12:36*
%MOMM*%
%LPD*%
G04 APERTURE LIST*
%ADD10C,1.500000*%
%ADD11R,1.500000X1.500000*%
%ADD12C,3.650000*%
%ADD13R,3.000000X5.000000*%
%ADD14C,0.254000*%
G04 APERTURE END LIST*
D10*
X54860000Y-133790000D03*
X56130000Y-131250000D03*
X57400000Y-133790000D03*
X58670000Y-131250000D03*
X59940000Y-133790000D03*
X61210000Y-131250000D03*
X62480000Y-133790000D03*
D11*
X63750000Y-131250000D03*
D12*
X65020000Y-124900000D03*
X53590000Y-124900000D03*
D13*
X54250000Y-139250000D03*
X58250000Y-139250000D03*
X62250000Y-139250000D03*
X66250000Y-139250000D03*
X52250000Y-146750000D03*
X56250000Y-146750000D03*
X60250000Y-146750000D03*
X64250000Y-146750000D03*
D14*
X52250000Y-143996000D02*
X52250000Y-146750000D01*
X52250000Y-135339340D02*
X52250000Y-143996000D01*
X54860000Y-133790000D02*
X53799340Y-133790000D01*
X53799340Y-133790000D02*
X52250000Y-135339340D01*
X56130000Y-132310660D02*
X56130000Y-131250000D01*
X56130000Y-134616000D02*
X56130000Y-132310660D01*
X54250000Y-136496000D02*
X56130000Y-134616000D01*
X54250000Y-139250000D02*
X54250000Y-136496000D01*
X56250000Y-136000660D02*
X56250000Y-143996000D01*
X56250000Y-143996000D02*
X56250000Y-146750000D01*
X57400000Y-134850660D02*
X56250000Y-136000660D01*
X57400000Y-133790000D02*
X57400000Y-134850660D01*
X58670000Y-132310660D02*
X58670000Y-131250000D01*
X58670000Y-136076000D02*
X58670000Y-132310660D01*
X58250000Y-136496000D02*
X58670000Y-136076000D01*
X58250000Y-139250000D02*
X58250000Y-136496000D01*
X60250000Y-143996000D02*
X60250000Y-146750000D01*
X60250000Y-135160660D02*
X60250000Y-143996000D01*
X59940000Y-134850660D02*
X60250000Y-135160660D01*
X59940000Y-133790000D02*
X59940000Y-134850660D01*
X61210000Y-132310660D02*
X61210000Y-131250000D01*
X61210000Y-135456000D02*
X61210000Y-132310660D01*
X62250000Y-136496000D02*
X61210000Y-135456000D01*
X62250000Y-139250000D02*
X62250000Y-136496000D01*
X64250000Y-137000000D02*
X64250000Y-146750000D01*
X64250000Y-136620660D02*
X64250000Y-137000000D01*
X62480000Y-133790000D02*
X62480000Y-134850660D01*
X62480000Y-134850660D02*
X64250000Y-136620660D01*
X66250000Y-136496000D02*
X66250000Y-139250000D01*
X66250000Y-134754000D02*
X66250000Y-136496000D01*
X63750000Y-132254000D02*
X66250000Y-134754000D01*
X63750000Y-131250000D02*
X63750000Y-132254000D01*
M02*
