G04 #@! TF.GenerationSoftware,KiCad,Pcbnew,(5.1.4)-1*
G04 #@! TF.CreationDate,2021-01-17T20:16:46-03:30*
G04 #@! TF.ProjectId,LEAK,4c45414b-2e6b-4696-9361-645f70636258,rev?*
G04 #@! TF.SameCoordinates,Original*
G04 #@! TF.FileFunction,Legend,Top*
G04 #@! TF.FilePolarity,Positive*
%FSLAX46Y46*%
G04 Gerber Fmt 4.6, Leading zero omitted, Abs format (unit mm)*
G04 Created by KiCad (PCBNEW (5.1.4)-1) date 2021-01-17 20:16:46*
%MOMM*%
%LPD*%
G04 APERTURE LIST*
%ADD10C,0.150000*%
G04 APERTURE END LIST*
D10*
X51369047Y-149202380D02*
X50892857Y-149202380D01*
X50892857Y-148202380D01*
X52083333Y-149154761D02*
X51988095Y-149202380D01*
X51797619Y-149202380D01*
X51702380Y-149154761D01*
X51654761Y-149059523D01*
X51654761Y-148678571D01*
X51702380Y-148583333D01*
X51797619Y-148535714D01*
X51988095Y-148535714D01*
X52083333Y-148583333D01*
X52130952Y-148678571D01*
X52130952Y-148773809D01*
X51654761Y-148869047D01*
X52988095Y-149202380D02*
X52988095Y-148678571D01*
X52940476Y-148583333D01*
X52845238Y-148535714D01*
X52654761Y-148535714D01*
X52559523Y-148583333D01*
X52988095Y-149154761D02*
X52892857Y-149202380D01*
X52654761Y-149202380D01*
X52559523Y-149154761D01*
X52511904Y-149059523D01*
X52511904Y-148964285D01*
X52559523Y-148869047D01*
X52654761Y-148821428D01*
X52892857Y-148821428D01*
X52988095Y-148773809D01*
X53464285Y-149202380D02*
X53464285Y-148202380D01*
X53559523Y-148821428D02*
X53845238Y-149202380D01*
X53845238Y-148535714D02*
X53464285Y-148916666D01*
X54988095Y-149154761D02*
X55130952Y-149202380D01*
X55369047Y-149202380D01*
X55464285Y-149154761D01*
X55511904Y-149107142D01*
X55559523Y-149011904D01*
X55559523Y-148916666D01*
X55511904Y-148821428D01*
X55464285Y-148773809D01*
X55369047Y-148726190D01*
X55178571Y-148678571D01*
X55083333Y-148630952D01*
X55035714Y-148583333D01*
X54988095Y-148488095D01*
X54988095Y-148392857D01*
X55035714Y-148297619D01*
X55083333Y-148250000D01*
X55178571Y-148202380D01*
X55416666Y-148202380D01*
X55559523Y-148250000D01*
X56369047Y-149154761D02*
X56273809Y-149202380D01*
X56083333Y-149202380D01*
X55988095Y-149154761D01*
X55940476Y-149059523D01*
X55940476Y-148678571D01*
X55988095Y-148583333D01*
X56083333Y-148535714D01*
X56273809Y-148535714D01*
X56369047Y-148583333D01*
X56416666Y-148678571D01*
X56416666Y-148773809D01*
X55940476Y-148869047D01*
X56845238Y-148535714D02*
X56845238Y-149202380D01*
X56845238Y-148630952D02*
X56892857Y-148583333D01*
X56988095Y-148535714D01*
X57130952Y-148535714D01*
X57226190Y-148583333D01*
X57273809Y-148678571D01*
X57273809Y-149202380D01*
X57702380Y-149154761D02*
X57797619Y-149202380D01*
X57988095Y-149202380D01*
X58083333Y-149154761D01*
X58130952Y-149059523D01*
X58130952Y-149011904D01*
X58083333Y-148916666D01*
X57988095Y-148869047D01*
X57845238Y-148869047D01*
X57750000Y-148821428D01*
X57702380Y-148726190D01*
X57702380Y-148678571D01*
X57750000Y-148583333D01*
X57845238Y-148535714D01*
X57988095Y-148535714D01*
X58083333Y-148583333D01*
X58702380Y-149202380D02*
X58607142Y-149154761D01*
X58559523Y-149107142D01*
X58511904Y-149011904D01*
X58511904Y-148726190D01*
X58559523Y-148630952D01*
X58607142Y-148583333D01*
X58702380Y-148535714D01*
X58845238Y-148535714D01*
X58940476Y-148583333D01*
X58988095Y-148630952D01*
X59035714Y-148726190D01*
X59035714Y-149011904D01*
X58988095Y-149107142D01*
X58940476Y-149154761D01*
X58845238Y-149202380D01*
X58702380Y-149202380D01*
X59464285Y-149202380D02*
X59464285Y-148535714D01*
X59464285Y-148726190D02*
X59511904Y-148630952D01*
X59559523Y-148583333D01*
X59654761Y-148535714D01*
X59750000Y-148535714D01*
X68869047Y-145571428D02*
X69630952Y-145571428D01*
X69250000Y-145952380D02*
X69250000Y-145190476D01*
X64369047Y-145571428D02*
X65130952Y-145571428D01*
X64369047Y-141321428D02*
X65130952Y-141321428D01*
X54869047Y-141321428D02*
X55630952Y-141321428D01*
X50369047Y-141321428D02*
X51130952Y-141321428D01*
X50750000Y-141702380D02*
X50750000Y-140940476D01*
X68869047Y-141321428D02*
X69630952Y-141321428D01*
X69250000Y-141702380D02*
X69250000Y-140940476D01*
X50800000Y-147750000D02*
X56200000Y-147750000D01*
X56200000Y-147650000D02*
X50800000Y-147650000D01*
X50800000Y-147550000D02*
X56200000Y-147550000D01*
X56200000Y-147450000D02*
X50800000Y-147450000D01*
X50800000Y-147350000D02*
X56200000Y-147350000D01*
X56200000Y-147250000D02*
X50800000Y-147250000D01*
X50800000Y-147150000D02*
X56200000Y-147150000D01*
X56200000Y-147050000D02*
X50800000Y-147050000D01*
X50800000Y-146950000D02*
X56200000Y-146950000D01*
X56200000Y-146850000D02*
X50800000Y-146850000D01*
X50800000Y-146750000D02*
X56200000Y-146750000D01*
X56200000Y-146650000D02*
X50800000Y-146650000D01*
X50800000Y-146550000D02*
X56200000Y-146550000D01*
X56200000Y-146450000D02*
X50800000Y-146450000D01*
X50800000Y-146350000D02*
X56200000Y-146350000D01*
X56200000Y-146250000D02*
X50800000Y-146250000D01*
X50800000Y-146150000D02*
X56200000Y-146150000D01*
X56200000Y-146050000D02*
X50800000Y-146050000D01*
X50800000Y-145950000D02*
X56200000Y-145950000D01*
X56200000Y-145850000D02*
X50800000Y-145850000D01*
X50800000Y-145750000D02*
X56200000Y-145750000D01*
X56200000Y-145650000D02*
X50800000Y-145650000D01*
X50800000Y-145550000D02*
X56200000Y-145550000D01*
X56200000Y-145450000D02*
X50800000Y-145450000D01*
X50800000Y-145350000D02*
X56200000Y-145350000D01*
X56200000Y-145250000D02*
X50800000Y-145250000D01*
X50800000Y-145150000D02*
X56200000Y-145150000D01*
X56200000Y-145050000D02*
X50800000Y-145050000D01*
X50800000Y-144950000D02*
X56200000Y-144950000D01*
X56200000Y-144850000D02*
X50800000Y-144850000D01*
X50800000Y-144750000D02*
X56200000Y-144750000D01*
X50750000Y-144750000D02*
X50750000Y-147750000D01*
X56250000Y-144750000D02*
X56250000Y-147750000D01*
M02*
