G04 #@! TF.GenerationSoftware,KiCad,Pcbnew,(5.1.4)-1*
G04 #@! TF.CreationDate,2021-01-17T20:16:46-03:30*
G04 #@! TF.ProjectId,LEAK,4c45414b-2e6b-4696-9361-645f70636258,rev?*
G04 #@! TF.SameCoordinates,Original*
G04 #@! TF.FileFunction,Legend,Bot*
G04 #@! TF.FilePolarity,Positive*
%FSLAX46Y46*%
G04 Gerber Fmt 4.6, Leading zero omitted, Abs format (unit mm)*
G04 Created by KiCad (PCBNEW (5.1.4)-1) date 2021-01-17 20:16:46*
%MOMM*%
%LPD*%
G04 APERTURE LIST*
%ADD10C,0.010000*%
G04 APERTURE END LIST*
D10*
G36*
X65430385Y-147831101D02*
G01*
X65442126Y-147894142D01*
X65549257Y-148239250D01*
X65720008Y-148558058D01*
X65948143Y-148843928D01*
X66227424Y-149090221D01*
X66551616Y-149290296D01*
X66882341Y-149427240D01*
X67057763Y-149465921D01*
X67278687Y-149487367D01*
X67520105Y-149491513D01*
X67757010Y-149478297D01*
X67964392Y-149447655D01*
X68034686Y-149430154D01*
X68394005Y-149289823D01*
X68719546Y-149090313D01*
X69002002Y-148838459D01*
X69220200Y-148559650D01*
X69365833Y-148278003D01*
X69465927Y-147963143D01*
X69515397Y-147637940D01*
X69509158Y-147325265D01*
X69503669Y-147284591D01*
X69416378Y-146925246D01*
X69266409Y-146599560D01*
X69051101Y-146302533D01*
X68895671Y-146141828D01*
X68590555Y-145902611D01*
X68255497Y-145727351D01*
X67897762Y-145617697D01*
X67524617Y-145575299D01*
X67514902Y-145575974D01*
X67514902Y-145660416D01*
X67741056Y-145671958D01*
X67937343Y-145700252D01*
X68033286Y-145726299D01*
X68303676Y-145833415D01*
X68525108Y-145950776D01*
X68721128Y-146091727D01*
X68803071Y-146162553D01*
X69062516Y-146441002D01*
X69256024Y-146744779D01*
X69382257Y-147069175D01*
X69439874Y-147409476D01*
X69427535Y-147760971D01*
X69352243Y-148093339D01*
X69212431Y-148415700D01*
X69012493Y-148706200D01*
X68760723Y-148957170D01*
X68465415Y-149160942D01*
X68134864Y-149309849D01*
X67988861Y-149353836D01*
X67776825Y-149390758D01*
X67526555Y-149406820D01*
X67269386Y-149401824D01*
X67036653Y-149375569D01*
X66962857Y-149360390D01*
X66629642Y-149244220D01*
X66320072Y-149065391D01*
X66045051Y-148832686D01*
X65815479Y-148554889D01*
X65683220Y-148329402D01*
X65529572Y-148019328D01*
X65529572Y-147064957D01*
X65682997Y-146755333D01*
X65870413Y-146446197D01*
X66104093Y-146185948D01*
X66389224Y-145970228D01*
X66730995Y-145794680D01*
X66908429Y-145726299D01*
X67073468Y-145687586D01*
X67283999Y-145665625D01*
X67514902Y-145660416D01*
X67514902Y-145575974D01*
X67143328Y-145601807D01*
X66835857Y-145674187D01*
X66496875Y-145814068D01*
X66194593Y-146006873D01*
X65933990Y-146244674D01*
X65720044Y-146519541D01*
X65557733Y-146823546D01*
X65452034Y-147148760D01*
X65407925Y-147487255D01*
X65430385Y-147831101D01*
X65430385Y-147831101D01*
G37*
X65430385Y-147831101D02*
X65442126Y-147894142D01*
X65549257Y-148239250D01*
X65720008Y-148558058D01*
X65948143Y-148843928D01*
X66227424Y-149090221D01*
X66551616Y-149290296D01*
X66882341Y-149427240D01*
X67057763Y-149465921D01*
X67278687Y-149487367D01*
X67520105Y-149491513D01*
X67757010Y-149478297D01*
X67964392Y-149447655D01*
X68034686Y-149430154D01*
X68394005Y-149289823D01*
X68719546Y-149090313D01*
X69002002Y-148838459D01*
X69220200Y-148559650D01*
X69365833Y-148278003D01*
X69465927Y-147963143D01*
X69515397Y-147637940D01*
X69509158Y-147325265D01*
X69503669Y-147284591D01*
X69416378Y-146925246D01*
X69266409Y-146599560D01*
X69051101Y-146302533D01*
X68895671Y-146141828D01*
X68590555Y-145902611D01*
X68255497Y-145727351D01*
X67897762Y-145617697D01*
X67524617Y-145575299D01*
X67514902Y-145575974D01*
X67514902Y-145660416D01*
X67741056Y-145671958D01*
X67937343Y-145700252D01*
X68033286Y-145726299D01*
X68303676Y-145833415D01*
X68525108Y-145950776D01*
X68721128Y-146091727D01*
X68803071Y-146162553D01*
X69062516Y-146441002D01*
X69256024Y-146744779D01*
X69382257Y-147069175D01*
X69439874Y-147409476D01*
X69427535Y-147760971D01*
X69352243Y-148093339D01*
X69212431Y-148415700D01*
X69012493Y-148706200D01*
X68760723Y-148957170D01*
X68465415Y-149160942D01*
X68134864Y-149309849D01*
X67988861Y-149353836D01*
X67776825Y-149390758D01*
X67526555Y-149406820D01*
X67269386Y-149401824D01*
X67036653Y-149375569D01*
X66962857Y-149360390D01*
X66629642Y-149244220D01*
X66320072Y-149065391D01*
X66045051Y-148832686D01*
X65815479Y-148554889D01*
X65683220Y-148329402D01*
X65529572Y-148019328D01*
X65529572Y-147064957D01*
X65682997Y-146755333D01*
X65870413Y-146446197D01*
X66104093Y-146185948D01*
X66389224Y-145970228D01*
X66730995Y-145794680D01*
X66908429Y-145726299D01*
X67073468Y-145687586D01*
X67283999Y-145665625D01*
X67514902Y-145660416D01*
X67514902Y-145575974D01*
X67143328Y-145601807D01*
X66835857Y-145674187D01*
X66496875Y-145814068D01*
X66194593Y-146006873D01*
X65933990Y-146244674D01*
X65720044Y-146519541D01*
X65557733Y-146823546D01*
X65452034Y-147148760D01*
X65407925Y-147487255D01*
X65430385Y-147831101D01*
G36*
X61599455Y-144584969D02*
G01*
X61706847Y-144916362D01*
X61753601Y-145015833D01*
X61825783Y-145135095D01*
X61926782Y-145273868D01*
X62026491Y-145392726D01*
X62292572Y-145633938D01*
X62588795Y-145814529D01*
X62906347Y-145934229D01*
X63236416Y-145992765D01*
X63570189Y-145989865D01*
X63898854Y-145925259D01*
X64213599Y-145798675D01*
X64505610Y-145609841D01*
X64658901Y-145473857D01*
X64892075Y-145194449D01*
X65061542Y-144884277D01*
X65164936Y-144550103D01*
X65199897Y-144198689D01*
X65185249Y-143967725D01*
X65120377Y-143651863D01*
X65005953Y-143372815D01*
X64833322Y-143112564D01*
X64702141Y-142962102D01*
X64582006Y-142845641D01*
X64450424Y-142734171D01*
X64353815Y-142663979D01*
X64066776Y-142520460D01*
X63745666Y-142430541D01*
X63454111Y-142401080D01*
X63454111Y-142549712D01*
X63777263Y-142594021D01*
X64101128Y-142702669D01*
X64207252Y-142753519D01*
X64401174Y-142884820D01*
X64591432Y-143068578D01*
X64763126Y-143285552D01*
X64901356Y-143516502D01*
X64991221Y-143742189D01*
X65000382Y-143777650D01*
X65025633Y-143950715D01*
X65034248Y-144162728D01*
X65026701Y-144382113D01*
X65003466Y-144577293D01*
X64987257Y-144651702D01*
X64873531Y-144942918D01*
X64700010Y-145206654D01*
X64476664Y-145435416D01*
X64213464Y-145621715D01*
X63920378Y-145758057D01*
X63607378Y-145836953D01*
X63387267Y-145853970D01*
X63177536Y-145835841D01*
X62941387Y-145785073D01*
X62712437Y-145709795D01*
X62614650Y-145667188D01*
X62373220Y-145513938D01*
X62154329Y-145304448D01*
X61968284Y-145054009D01*
X61825393Y-144777913D01*
X61735963Y-144491452D01*
X61712850Y-144329249D01*
X61720036Y-143990039D01*
X61789844Y-143676061D01*
X61915396Y-143391660D01*
X62089813Y-143141181D01*
X62306215Y-142928971D01*
X62557725Y-142759373D01*
X62837463Y-142636734D01*
X63138552Y-142565399D01*
X63454111Y-142549712D01*
X63454111Y-142401080D01*
X63407602Y-142396380D01*
X63069704Y-142420136D01*
X62840073Y-142473103D01*
X62513475Y-142608311D01*
X62228892Y-142796672D01*
X61989820Y-143030006D01*
X61799754Y-143300132D01*
X61662190Y-143598871D01*
X61580622Y-143918044D01*
X61558545Y-144249470D01*
X61599455Y-144584969D01*
X61599455Y-144584969D01*
G37*
X61599455Y-144584969D02*
X61706847Y-144916362D01*
X61753601Y-145015833D01*
X61825783Y-145135095D01*
X61926782Y-145273868D01*
X62026491Y-145392726D01*
X62292572Y-145633938D01*
X62588795Y-145814529D01*
X62906347Y-145934229D01*
X63236416Y-145992765D01*
X63570189Y-145989865D01*
X63898854Y-145925259D01*
X64213599Y-145798675D01*
X64505610Y-145609841D01*
X64658901Y-145473857D01*
X64892075Y-145194449D01*
X65061542Y-144884277D01*
X65164936Y-144550103D01*
X65199897Y-144198689D01*
X65185249Y-143967725D01*
X65120377Y-143651863D01*
X65005953Y-143372815D01*
X64833322Y-143112564D01*
X64702141Y-142962102D01*
X64582006Y-142845641D01*
X64450424Y-142734171D01*
X64353815Y-142663979D01*
X64066776Y-142520460D01*
X63745666Y-142430541D01*
X63454111Y-142401080D01*
X63454111Y-142549712D01*
X63777263Y-142594021D01*
X64101128Y-142702669D01*
X64207252Y-142753519D01*
X64401174Y-142884820D01*
X64591432Y-143068578D01*
X64763126Y-143285552D01*
X64901356Y-143516502D01*
X64991221Y-143742189D01*
X65000382Y-143777650D01*
X65025633Y-143950715D01*
X65034248Y-144162728D01*
X65026701Y-144382113D01*
X65003466Y-144577293D01*
X64987257Y-144651702D01*
X64873531Y-144942918D01*
X64700010Y-145206654D01*
X64476664Y-145435416D01*
X64213464Y-145621715D01*
X63920378Y-145758057D01*
X63607378Y-145836953D01*
X63387267Y-145853970D01*
X63177536Y-145835841D01*
X62941387Y-145785073D01*
X62712437Y-145709795D01*
X62614650Y-145667188D01*
X62373220Y-145513938D01*
X62154329Y-145304448D01*
X61968284Y-145054009D01*
X61825393Y-144777913D01*
X61735963Y-144491452D01*
X61712850Y-144329249D01*
X61720036Y-143990039D01*
X61789844Y-143676061D01*
X61915396Y-143391660D01*
X62089813Y-143141181D01*
X62306215Y-142928971D01*
X62557725Y-142759373D01*
X62837463Y-142636734D01*
X63138552Y-142565399D01*
X63454111Y-142549712D01*
X63454111Y-142401080D01*
X63407602Y-142396380D01*
X63069704Y-142420136D01*
X62840073Y-142473103D01*
X62513475Y-142608311D01*
X62228892Y-142796672D01*
X61989820Y-143030006D01*
X61799754Y-143300132D01*
X61662190Y-143598871D01*
X61580622Y-143918044D01*
X61558545Y-144249470D01*
X61599455Y-144584969D01*
G36*
X60828675Y-147756674D02*
G01*
X60876776Y-147889215D01*
X60988224Y-148098548D01*
X61120156Y-148255488D01*
X61291446Y-148380197D01*
X61382107Y-148429037D01*
X61631267Y-148518206D01*
X61876624Y-148541603D01*
X62111223Y-148505957D01*
X62328111Y-148418000D01*
X62520336Y-148284461D01*
X62680942Y-148112071D01*
X62802978Y-147907560D01*
X62879490Y-147677660D01*
X62903523Y-147429099D01*
X62868126Y-147168609D01*
X62824707Y-147032706D01*
X62702410Y-146809061D01*
X62527952Y-146620665D01*
X62315190Y-146477224D01*
X62077983Y-146388445D01*
X61898635Y-146366799D01*
X61898635Y-146508481D01*
X62115243Y-146551474D01*
X62313788Y-146647139D01*
X62485052Y-146789057D01*
X62619820Y-146970806D01*
X62708873Y-147185966D01*
X62742995Y-147428116D01*
X62741026Y-147506924D01*
X62718818Y-147663896D01*
X62677787Y-147812285D01*
X62652589Y-147871701D01*
X62509210Y-148080907D01*
X62322188Y-148243158D01*
X62104237Y-148350310D01*
X61868070Y-148394219D01*
X61835949Y-148394857D01*
X61602227Y-148360658D01*
X61388993Y-148264864D01*
X61206181Y-148117682D01*
X61063729Y-147929317D01*
X60971572Y-147709975D01*
X60939631Y-147474211D01*
X60970654Y-147200680D01*
X61062710Y-146966023D01*
X61215236Y-146771202D01*
X61427668Y-146617181D01*
X61448092Y-146606198D01*
X61673179Y-146524582D01*
X61898635Y-146508481D01*
X61898635Y-146366799D01*
X61868924Y-146363212D01*
X61635582Y-146379909D01*
X61439619Y-146436931D01*
X61252906Y-146543375D01*
X61205970Y-146577570D01*
X61021179Y-146760513D01*
X60887491Y-146984091D01*
X60808469Y-147234109D01*
X60787676Y-147496369D01*
X60828675Y-147756674D01*
X60828675Y-147756674D01*
G37*
X60828675Y-147756674D02*
X60876776Y-147889215D01*
X60988224Y-148098548D01*
X61120156Y-148255488D01*
X61291446Y-148380197D01*
X61382107Y-148429037D01*
X61631267Y-148518206D01*
X61876624Y-148541603D01*
X62111223Y-148505957D01*
X62328111Y-148418000D01*
X62520336Y-148284461D01*
X62680942Y-148112071D01*
X62802978Y-147907560D01*
X62879490Y-147677660D01*
X62903523Y-147429099D01*
X62868126Y-147168609D01*
X62824707Y-147032706D01*
X62702410Y-146809061D01*
X62527952Y-146620665D01*
X62315190Y-146477224D01*
X62077983Y-146388445D01*
X61898635Y-146366799D01*
X61898635Y-146508481D01*
X62115243Y-146551474D01*
X62313788Y-146647139D01*
X62485052Y-146789057D01*
X62619820Y-146970806D01*
X62708873Y-147185966D01*
X62742995Y-147428116D01*
X62741026Y-147506924D01*
X62718818Y-147663896D01*
X62677787Y-147812285D01*
X62652589Y-147871701D01*
X62509210Y-148080907D01*
X62322188Y-148243158D01*
X62104237Y-148350310D01*
X61868070Y-148394219D01*
X61835949Y-148394857D01*
X61602227Y-148360658D01*
X61388993Y-148264864D01*
X61206181Y-148117682D01*
X61063729Y-147929317D01*
X60971572Y-147709975D01*
X60939631Y-147474211D01*
X60970654Y-147200680D01*
X61062710Y-146966023D01*
X61215236Y-146771202D01*
X61427668Y-146617181D01*
X61448092Y-146606198D01*
X61673179Y-146524582D01*
X61898635Y-146508481D01*
X61898635Y-146366799D01*
X61868924Y-146363212D01*
X61635582Y-146379909D01*
X61439619Y-146436931D01*
X61252906Y-146543375D01*
X61205970Y-146577570D01*
X61021179Y-146760513D01*
X60887491Y-146984091D01*
X60808469Y-147234109D01*
X60787676Y-147496369D01*
X60828675Y-147756674D01*
G36*
X58360568Y-143795813D02*
G01*
X58377923Y-143929137D01*
X58412916Y-144046487D01*
X58444826Y-144121754D01*
X58588779Y-144366012D01*
X58766166Y-144553826D01*
X58968616Y-144683213D01*
X59187756Y-144752192D01*
X59415211Y-144758782D01*
X59642608Y-144701002D01*
X59861575Y-144576870D01*
X59971777Y-144483086D01*
X60147575Y-144265169D01*
X60262263Y-144013762D01*
X60314004Y-143737248D01*
X60300963Y-143444011D01*
X60248349Y-143220620D01*
X60135572Y-142969402D01*
X59975650Y-142767977D01*
X59775171Y-142621416D01*
X59540723Y-142534789D01*
X59327908Y-142512036D01*
X59303069Y-142515023D01*
X59303069Y-142590604D01*
X59524151Y-142609009D01*
X59738231Y-142689395D01*
X59858575Y-142768844D01*
X60028200Y-142946498D01*
X60149881Y-143167022D01*
X60220619Y-143416305D01*
X60237414Y-143680239D01*
X60197266Y-143944713D01*
X60142260Y-144103239D01*
X60054648Y-144255460D01*
X59931345Y-144406071D01*
X59792452Y-144534098D01*
X59658072Y-144618567D01*
X59641936Y-144625273D01*
X59479798Y-144660299D01*
X59286669Y-144661767D01*
X59094873Y-144631589D01*
X58962297Y-144585070D01*
X58771638Y-144454198D01*
X58618215Y-144271145D01*
X58506874Y-144048669D01*
X58442460Y-143799533D01*
X58429819Y-143536494D01*
X58469586Y-143287536D01*
X58564126Y-143056362D01*
X58705514Y-142867060D01*
X58882980Y-142723651D01*
X59085755Y-142630159D01*
X59303069Y-142590604D01*
X59303069Y-142515023D01*
X59069638Y-142543100D01*
X58846787Y-142636884D01*
X58658014Y-142794271D01*
X58501977Y-143016146D01*
X58470010Y-143077544D01*
X58411590Y-143205139D01*
X58377197Y-143312856D01*
X58360698Y-143429755D01*
X58355962Y-143584896D01*
X58355886Y-143618422D01*
X58360568Y-143795813D01*
X58360568Y-143795813D01*
G37*
X58360568Y-143795813D02*
X58377923Y-143929137D01*
X58412916Y-144046487D01*
X58444826Y-144121754D01*
X58588779Y-144366012D01*
X58766166Y-144553826D01*
X58968616Y-144683213D01*
X59187756Y-144752192D01*
X59415211Y-144758782D01*
X59642608Y-144701002D01*
X59861575Y-144576870D01*
X59971777Y-144483086D01*
X60147575Y-144265169D01*
X60262263Y-144013762D01*
X60314004Y-143737248D01*
X60300963Y-143444011D01*
X60248349Y-143220620D01*
X60135572Y-142969402D01*
X59975650Y-142767977D01*
X59775171Y-142621416D01*
X59540723Y-142534789D01*
X59327908Y-142512036D01*
X59303069Y-142515023D01*
X59303069Y-142590604D01*
X59524151Y-142609009D01*
X59738231Y-142689395D01*
X59858575Y-142768844D01*
X60028200Y-142946498D01*
X60149881Y-143167022D01*
X60220619Y-143416305D01*
X60237414Y-143680239D01*
X60197266Y-143944713D01*
X60142260Y-144103239D01*
X60054648Y-144255460D01*
X59931345Y-144406071D01*
X59792452Y-144534098D01*
X59658072Y-144618567D01*
X59641936Y-144625273D01*
X59479798Y-144660299D01*
X59286669Y-144661767D01*
X59094873Y-144631589D01*
X58962297Y-144585070D01*
X58771638Y-144454198D01*
X58618215Y-144271145D01*
X58506874Y-144048669D01*
X58442460Y-143799533D01*
X58429819Y-143536494D01*
X58469586Y-143287536D01*
X58564126Y-143056362D01*
X58705514Y-142867060D01*
X58882980Y-142723651D01*
X59085755Y-142630159D01*
X59303069Y-142590604D01*
X59303069Y-142515023D01*
X59069638Y-142543100D01*
X58846787Y-142636884D01*
X58658014Y-142794271D01*
X58501977Y-143016146D01*
X58470010Y-143077544D01*
X58411590Y-143205139D01*
X58377197Y-143312856D01*
X58360698Y-143429755D01*
X58355962Y-143584896D01*
X58355886Y-143618422D01*
X58360568Y-143795813D01*
G36*
X57686993Y-149026444D02*
G01*
X57786518Y-149225003D01*
X57931673Y-149391529D01*
X58116346Y-149515983D01*
X58334424Y-149588327D01*
X58492741Y-149602653D01*
X58716378Y-149568886D01*
X58918119Y-149475090D01*
X59089667Y-149332522D01*
X59222726Y-149152438D01*
X59309000Y-148946095D01*
X59340192Y-148724749D01*
X59308006Y-148499658D01*
X59307332Y-148497414D01*
X59207438Y-148276382D01*
X59056546Y-148082724D01*
X58947940Y-147989616D01*
X58836561Y-147918778D01*
X58731292Y-147879385D01*
X58598381Y-147860340D01*
X58567911Y-147858304D01*
X58567911Y-147930276D01*
X58777904Y-147989533D01*
X58782454Y-147991582D01*
X58895771Y-148062059D01*
X59013676Y-148165144D01*
X59117681Y-148281207D01*
X59189301Y-148390618D01*
X59208947Y-148444445D01*
X59225650Y-148588770D01*
X59227832Y-148754407D01*
X59216612Y-148912907D01*
X59193109Y-149035824D01*
X59184755Y-149059333D01*
X59073186Y-149240929D01*
X58915342Y-149382562D01*
X58726282Y-149478412D01*
X58521063Y-149522661D01*
X58314742Y-149509490D01*
X58161262Y-149454861D01*
X57994567Y-149345807D01*
X57869945Y-149203567D01*
X57785621Y-149048000D01*
X57721759Y-148832350D01*
X57720020Y-148621505D01*
X57772435Y-148423911D01*
X57871035Y-148248012D01*
X58007852Y-148102254D01*
X58174916Y-147995082D01*
X58364258Y-147934941D01*
X58567911Y-147930276D01*
X58567911Y-147858304D01*
X58543668Y-147856683D01*
X58288049Y-147872792D01*
X58068904Y-147951385D01*
X57887819Y-148091530D01*
X57746380Y-148292295D01*
X57723313Y-148338946D01*
X57649278Y-148573377D01*
X57639209Y-148805889D01*
X57686993Y-149026444D01*
X57686993Y-149026444D01*
G37*
X57686993Y-149026444D02*
X57786518Y-149225003D01*
X57931673Y-149391529D01*
X58116346Y-149515983D01*
X58334424Y-149588327D01*
X58492741Y-149602653D01*
X58716378Y-149568886D01*
X58918119Y-149475090D01*
X59089667Y-149332522D01*
X59222726Y-149152438D01*
X59309000Y-148946095D01*
X59340192Y-148724749D01*
X59308006Y-148499658D01*
X59307332Y-148497414D01*
X59207438Y-148276382D01*
X59056546Y-148082724D01*
X58947940Y-147989616D01*
X58836561Y-147918778D01*
X58731292Y-147879385D01*
X58598381Y-147860340D01*
X58567911Y-147858304D01*
X58567911Y-147930276D01*
X58777904Y-147989533D01*
X58782454Y-147991582D01*
X58895771Y-148062059D01*
X59013676Y-148165144D01*
X59117681Y-148281207D01*
X59189301Y-148390618D01*
X59208947Y-148444445D01*
X59225650Y-148588770D01*
X59227832Y-148754407D01*
X59216612Y-148912907D01*
X59193109Y-149035824D01*
X59184755Y-149059333D01*
X59073186Y-149240929D01*
X58915342Y-149382562D01*
X58726282Y-149478412D01*
X58521063Y-149522661D01*
X58314742Y-149509490D01*
X58161262Y-149454861D01*
X57994567Y-149345807D01*
X57869945Y-149203567D01*
X57785621Y-149048000D01*
X57721759Y-148832350D01*
X57720020Y-148621505D01*
X57772435Y-148423911D01*
X57871035Y-148248012D01*
X58007852Y-148102254D01*
X58174916Y-147995082D01*
X58364258Y-147934941D01*
X58567911Y-147930276D01*
X58567911Y-147858304D01*
X58543668Y-147856683D01*
X58288049Y-147872792D01*
X58068904Y-147951385D01*
X57887819Y-148091530D01*
X57746380Y-148292295D01*
X57723313Y-148338946D01*
X57649278Y-148573377D01*
X57639209Y-148805889D01*
X57686993Y-149026444D01*
G36*
X56243289Y-146139526D02*
G01*
X56254775Y-146267632D01*
X56279243Y-146372771D01*
X56321050Y-146479682D01*
X56337677Y-146515913D01*
X56492554Y-146770708D01*
X56695661Y-146987997D01*
X56932374Y-147152898D01*
X56993927Y-147183657D01*
X57118231Y-147236395D01*
X57227678Y-147267922D01*
X57349704Y-147283418D01*
X57511746Y-147288060D01*
X57547478Y-147288143D01*
X57714033Y-147285538D01*
X57835293Y-147273922D01*
X57938456Y-147247593D01*
X58050722Y-147200851D01*
X58117529Y-147168654D01*
X58379803Y-147001708D01*
X58588123Y-146787732D01*
X58739629Y-146531237D01*
X58831458Y-146236730D01*
X58859180Y-146000000D01*
X58860044Y-145823598D01*
X58840957Y-145680119D01*
X58796183Y-145531323D01*
X58783901Y-145498248D01*
X58646839Y-145227014D01*
X58466388Y-145006033D01*
X58251541Y-144835661D01*
X58011291Y-144716256D01*
X57754631Y-144648173D01*
X57490554Y-144631771D01*
X57453917Y-144636744D01*
X57453917Y-144783326D01*
X57715207Y-144791513D01*
X57971766Y-144861698D01*
X58181715Y-144974984D01*
X58406179Y-145169580D01*
X58571012Y-145399937D01*
X58673688Y-145657033D01*
X58711682Y-145931845D01*
X58682466Y-146215351D01*
X58598946Y-146465328D01*
X58452190Y-146712563D01*
X58263471Y-146907259D01*
X58042683Y-147047648D01*
X57799722Y-147131958D01*
X57544481Y-147158421D01*
X57286855Y-147125265D01*
X57036738Y-147030723D01*
X56804024Y-146873023D01*
X56726263Y-146800297D01*
X56539868Y-146564620D01*
X56419649Y-146306937D01*
X56367273Y-146034550D01*
X56384408Y-145754763D01*
X56441210Y-145551524D01*
X56569852Y-145301505D01*
X56745864Y-145096224D01*
X56958825Y-144939132D01*
X57198317Y-144833682D01*
X57453917Y-144783326D01*
X57453917Y-144636744D01*
X57228054Y-144667407D01*
X56976123Y-144755438D01*
X56743755Y-144896220D01*
X56539943Y-145090111D01*
X56373680Y-145337468D01*
X56342011Y-145401286D01*
X56292245Y-145517297D01*
X56261809Y-145620864D01*
X56246159Y-145737157D01*
X56240747Y-145891346D01*
X56240429Y-145963714D01*
X56243289Y-146139526D01*
X56243289Y-146139526D01*
G37*
X56243289Y-146139526D02*
X56254775Y-146267632D01*
X56279243Y-146372771D01*
X56321050Y-146479682D01*
X56337677Y-146515913D01*
X56492554Y-146770708D01*
X56695661Y-146987997D01*
X56932374Y-147152898D01*
X56993927Y-147183657D01*
X57118231Y-147236395D01*
X57227678Y-147267922D01*
X57349704Y-147283418D01*
X57511746Y-147288060D01*
X57547478Y-147288143D01*
X57714033Y-147285538D01*
X57835293Y-147273922D01*
X57938456Y-147247593D01*
X58050722Y-147200851D01*
X58117529Y-147168654D01*
X58379803Y-147001708D01*
X58588123Y-146787732D01*
X58739629Y-146531237D01*
X58831458Y-146236730D01*
X58859180Y-146000000D01*
X58860044Y-145823598D01*
X58840957Y-145680119D01*
X58796183Y-145531323D01*
X58783901Y-145498248D01*
X58646839Y-145227014D01*
X58466388Y-145006033D01*
X58251541Y-144835661D01*
X58011291Y-144716256D01*
X57754631Y-144648173D01*
X57490554Y-144631771D01*
X57453917Y-144636744D01*
X57453917Y-144783326D01*
X57715207Y-144791513D01*
X57971766Y-144861698D01*
X58181715Y-144974984D01*
X58406179Y-145169580D01*
X58571012Y-145399937D01*
X58673688Y-145657033D01*
X58711682Y-145931845D01*
X58682466Y-146215351D01*
X58598946Y-146465328D01*
X58452190Y-146712563D01*
X58263471Y-146907259D01*
X58042683Y-147047648D01*
X57799722Y-147131958D01*
X57544481Y-147158421D01*
X57286855Y-147125265D01*
X57036738Y-147030723D01*
X56804024Y-146873023D01*
X56726263Y-146800297D01*
X56539868Y-146564620D01*
X56419649Y-146306937D01*
X56367273Y-146034550D01*
X56384408Y-145754763D01*
X56441210Y-145551524D01*
X56569852Y-145301505D01*
X56745864Y-145096224D01*
X56958825Y-144939132D01*
X57198317Y-144833682D01*
X57453917Y-144783326D01*
X57453917Y-144636744D01*
X57228054Y-144667407D01*
X56976123Y-144755438D01*
X56743755Y-144896220D01*
X56539943Y-145090111D01*
X56373680Y-145337468D01*
X56342011Y-145401286D01*
X56292245Y-145517297D01*
X56261809Y-145620864D01*
X56246159Y-145737157D01*
X56240747Y-145891346D01*
X56240429Y-145963714D01*
X56243289Y-146139526D01*
G36*
X54405759Y-144707024D02*
G01*
X54495414Y-144880481D01*
X54630122Y-145016509D01*
X54798526Y-145100346D01*
X54832567Y-145108978D01*
X54983872Y-145108045D01*
X55137774Y-145051977D01*
X55269967Y-144953039D01*
X55343894Y-144850985D01*
X55414569Y-144668184D01*
X55440957Y-144499714D01*
X55434781Y-144421571D01*
X55382435Y-144257812D01*
X55299902Y-144113695D01*
X55201964Y-144014366D01*
X55191425Y-144007581D01*
X55031133Y-143931423D01*
X54887019Y-143915360D01*
X54885876Y-143915684D01*
X54885876Y-143990760D01*
X55033705Y-144021753D01*
X55060664Y-144033904D01*
X55211152Y-144144626D01*
X55310607Y-144300543D01*
X55350945Y-144488353D01*
X55351429Y-144512286D01*
X55323923Y-144695814D01*
X55269307Y-144806277D01*
X55163856Y-144921546D01*
X55033207Y-145003407D01*
X54899951Y-145040231D01*
X54824801Y-145035064D01*
X54739395Y-144994403D01*
X54640457Y-144921260D01*
X54605679Y-144888974D01*
X54494923Y-144731609D01*
X54447942Y-144555120D01*
X54464740Y-144374982D01*
X54545317Y-144206673D01*
X54605582Y-144135695D01*
X54745922Y-144028125D01*
X54885876Y-143990760D01*
X54885876Y-143915684D01*
X54736756Y-143957975D01*
X54698286Y-143976276D01*
X54548484Y-144089697D01*
X54437301Y-144248862D01*
X54378383Y-144431379D01*
X54372512Y-144510903D01*
X54405759Y-144707024D01*
X54405759Y-144707024D01*
G37*
X54405759Y-144707024D02*
X54495414Y-144880481D01*
X54630122Y-145016509D01*
X54798526Y-145100346D01*
X54832567Y-145108978D01*
X54983872Y-145108045D01*
X55137774Y-145051977D01*
X55269967Y-144953039D01*
X55343894Y-144850985D01*
X55414569Y-144668184D01*
X55440957Y-144499714D01*
X55434781Y-144421571D01*
X55382435Y-144257812D01*
X55299902Y-144113695D01*
X55201964Y-144014366D01*
X55191425Y-144007581D01*
X55031133Y-143931423D01*
X54887019Y-143915360D01*
X54885876Y-143915684D01*
X54885876Y-143990760D01*
X55033705Y-144021753D01*
X55060664Y-144033904D01*
X55211152Y-144144626D01*
X55310607Y-144300543D01*
X55350945Y-144488353D01*
X55351429Y-144512286D01*
X55323923Y-144695814D01*
X55269307Y-144806277D01*
X55163856Y-144921546D01*
X55033207Y-145003407D01*
X54899951Y-145040231D01*
X54824801Y-145035064D01*
X54739395Y-144994403D01*
X54640457Y-144921260D01*
X54605679Y-144888974D01*
X54494923Y-144731609D01*
X54447942Y-144555120D01*
X54464740Y-144374982D01*
X54545317Y-144206673D01*
X54605582Y-144135695D01*
X54745922Y-144028125D01*
X54885876Y-143990760D01*
X54885876Y-143915684D01*
X54736756Y-143957975D01*
X54698286Y-143976276D01*
X54548484Y-144089697D01*
X54437301Y-144248862D01*
X54378383Y-144431379D01*
X54372512Y-144510903D01*
X54405759Y-144707024D01*
G36*
X52952287Y-147827337D02*
G01*
X52968690Y-147899453D01*
X53066774Y-148150704D01*
X53211779Y-148357141D01*
X53393986Y-148517862D01*
X53603674Y-148631964D01*
X53831123Y-148698544D01*
X54066613Y-148716700D01*
X54300424Y-148685529D01*
X54522836Y-148604127D01*
X54724129Y-148471593D01*
X54894584Y-148287022D01*
X55007832Y-148088844D01*
X55084416Y-147862926D01*
X55109346Y-147632290D01*
X55094230Y-147422049D01*
X55029727Y-147197602D01*
X54904426Y-146985827D01*
X54730101Y-146799968D01*
X54518523Y-146653268D01*
X54343247Y-146577164D01*
X54181318Y-146547621D01*
X54140314Y-146547321D01*
X54140314Y-146620634D01*
X54384841Y-146684275D01*
X54432344Y-146704927D01*
X54620585Y-146819095D01*
X54787374Y-146969456D01*
X54913895Y-147136945D01*
X54965180Y-147244704D01*
X55009657Y-147439870D01*
X55020584Y-147658230D01*
X54998560Y-147869523D01*
X54949558Y-148032000D01*
X54879768Y-148153801D01*
X54782847Y-148284732D01*
X54724745Y-148349847D01*
X54525252Y-148508067D01*
X54306219Y-148603905D01*
X54077321Y-148641410D01*
X53848233Y-148624629D01*
X53628632Y-148557612D01*
X53428192Y-148444407D01*
X53256587Y-148289064D01*
X53123495Y-148095630D01*
X53038589Y-147868155D01*
X53011351Y-147632857D01*
X53043567Y-147375581D01*
X53134668Y-147145502D01*
X53275137Y-146948838D01*
X53455455Y-146791803D01*
X53666102Y-146680613D01*
X53897562Y-146621485D01*
X54140314Y-146620634D01*
X54140314Y-146547321D01*
X53984332Y-146546178D01*
X53780631Y-146569996D01*
X53598560Y-146616238D01*
X53496619Y-146661917D01*
X53268003Y-146835213D01*
X53095367Y-147047534D01*
X52982606Y-147289748D01*
X52933614Y-147552726D01*
X52952287Y-147827337D01*
X52952287Y-147827337D01*
G37*
X52952287Y-147827337D02*
X52968690Y-147899453D01*
X53066774Y-148150704D01*
X53211779Y-148357141D01*
X53393986Y-148517862D01*
X53603674Y-148631964D01*
X53831123Y-148698544D01*
X54066613Y-148716700D01*
X54300424Y-148685529D01*
X54522836Y-148604127D01*
X54724129Y-148471593D01*
X54894584Y-148287022D01*
X55007832Y-148088844D01*
X55084416Y-147862926D01*
X55109346Y-147632290D01*
X55094230Y-147422049D01*
X55029727Y-147197602D01*
X54904426Y-146985827D01*
X54730101Y-146799968D01*
X54518523Y-146653268D01*
X54343247Y-146577164D01*
X54181318Y-146547621D01*
X54140314Y-146547321D01*
X54140314Y-146620634D01*
X54384841Y-146684275D01*
X54432344Y-146704927D01*
X54620585Y-146819095D01*
X54787374Y-146969456D01*
X54913895Y-147136945D01*
X54965180Y-147244704D01*
X55009657Y-147439870D01*
X55020584Y-147658230D01*
X54998560Y-147869523D01*
X54949558Y-148032000D01*
X54879768Y-148153801D01*
X54782847Y-148284732D01*
X54724745Y-148349847D01*
X54525252Y-148508067D01*
X54306219Y-148603905D01*
X54077321Y-148641410D01*
X53848233Y-148624629D01*
X53628632Y-148557612D01*
X53428192Y-148444407D01*
X53256587Y-148289064D01*
X53123495Y-148095630D01*
X53038589Y-147868155D01*
X53011351Y-147632857D01*
X53043567Y-147375581D01*
X53134668Y-147145502D01*
X53275137Y-146948838D01*
X53455455Y-146791803D01*
X53666102Y-146680613D01*
X53897562Y-146621485D01*
X54140314Y-146620634D01*
X54140314Y-146547321D01*
X53984332Y-146546178D01*
X53780631Y-146569996D01*
X53598560Y-146616238D01*
X53496619Y-146661917D01*
X53268003Y-146835213D01*
X53095367Y-147047534D01*
X52982606Y-147289748D01*
X52933614Y-147552726D01*
X52952287Y-147827337D01*
G36*
X51016442Y-146211566D02*
G01*
X51119283Y-146380382D01*
X51157289Y-146421403D01*
X51324295Y-146543423D01*
X51510588Y-146595787D01*
X51714427Y-146578297D01*
X51904286Y-146506304D01*
X52039184Y-146400357D01*
X52132540Y-146249824D01*
X52176502Y-146074400D01*
X52163214Y-145893780D01*
X52157219Y-145872091D01*
X52084083Y-145735198D01*
X51962877Y-145611378D01*
X51817657Y-145521744D01*
X51724518Y-145492304D01*
X51557745Y-145484828D01*
X51557745Y-145637143D01*
X51748772Y-145660651D01*
X51889228Y-145733911D01*
X51984961Y-145861027D01*
X52023048Y-145963714D01*
X52021736Y-146074537D01*
X51972615Y-146201379D01*
X51886711Y-146317771D01*
X51868112Y-146335643D01*
X51780742Y-146400087D01*
X51685282Y-146429420D01*
X51573514Y-146435428D01*
X51452345Y-146428561D01*
X51367974Y-146398552D01*
X51285191Y-146331290D01*
X51265657Y-146312057D01*
X51184720Y-146217319D01*
X51148929Y-146127240D01*
X51142286Y-146036286D01*
X51153458Y-145925132D01*
X51197405Y-145836973D01*
X51265658Y-145760514D01*
X51357236Y-145681159D01*
X51444130Y-145645285D01*
X51557745Y-145637143D01*
X51557745Y-145484828D01*
X51503341Y-145482389D01*
X51310142Y-145536841D01*
X51150403Y-145653951D01*
X51128339Y-145678362D01*
X51020634Y-145851920D01*
X50983447Y-146032534D01*
X51016442Y-146211566D01*
X51016442Y-146211566D01*
G37*
X51016442Y-146211566D02*
X51119283Y-146380382D01*
X51157289Y-146421403D01*
X51324295Y-146543423D01*
X51510588Y-146595787D01*
X51714427Y-146578297D01*
X51904286Y-146506304D01*
X52039184Y-146400357D01*
X52132540Y-146249824D01*
X52176502Y-146074400D01*
X52163214Y-145893780D01*
X52157219Y-145872091D01*
X52084083Y-145735198D01*
X51962877Y-145611378D01*
X51817657Y-145521744D01*
X51724518Y-145492304D01*
X51557745Y-145484828D01*
X51557745Y-145637143D01*
X51748772Y-145660651D01*
X51889228Y-145733911D01*
X51984961Y-145861027D01*
X52023048Y-145963714D01*
X52021736Y-146074537D01*
X51972615Y-146201379D01*
X51886711Y-146317771D01*
X51868112Y-146335643D01*
X51780742Y-146400087D01*
X51685282Y-146429420D01*
X51573514Y-146435428D01*
X51452345Y-146428561D01*
X51367974Y-146398552D01*
X51285191Y-146331290D01*
X51265657Y-146312057D01*
X51184720Y-146217319D01*
X51148929Y-146127240D01*
X51142286Y-146036286D01*
X51153458Y-145925132D01*
X51197405Y-145836973D01*
X51265658Y-145760514D01*
X51357236Y-145681159D01*
X51444130Y-145645285D01*
X51557745Y-145637143D01*
X51557745Y-145484828D01*
X51503341Y-145482389D01*
X51310142Y-145536841D01*
X51150403Y-145653951D01*
X51128339Y-145678362D01*
X51020634Y-145851920D01*
X50983447Y-146032534D01*
X51016442Y-146211566D01*
M02*
