G04 #@! TF.GenerationSoftware,KiCad,Pcbnew,(5.1.8)-1*
G04 #@! TF.CreationDate,2020-11-24T12:39:14-03:30*
G04 #@! TF.ProjectId,chum-bucket,6368756d-2d62-4756-936b-65742e6b6963,rev?*
G04 #@! TF.SameCoordinates,Original*
G04 #@! TF.FileFunction,Paste,Top*
G04 #@! TF.FilePolarity,Positive*
%FSLAX46Y46*%
G04 Gerber Fmt 4.6, Leading zero omitted, Abs format (unit mm)*
G04 Created by KiCad (PCBNEW (5.1.8)-1) date 2020-11-24 12:39:14*
%MOMM*%
%LPD*%
G01*
G04 APERTURE LIST*
%ADD10C,0.100000*%
%ADD11R,1.200000X0.900000*%
%ADD12R,6.470000X7.460000*%
%ADD13R,0.600000X0.450000*%
%ADD14R,0.450000X0.600000*%
%ADD15R,0.900000X1.200000*%
%ADD16R,0.900000X1.700000*%
%ADD17R,1.000000X1.600000*%
%ADD18R,1.060000X0.650000*%
%ADD19R,0.520000X0.470000*%
%ADD20R,1.100000X1.100000*%
G04 APERTURE END LIST*
D10*
G36*
X145501640Y-227197241D02*
G01*
X145497276Y-227211626D01*
X145490190Y-227224884D01*
X145480653Y-227236504D01*
X145417127Y-227300030D01*
X145405507Y-227309567D01*
X145392249Y-227316653D01*
X145377864Y-227321017D01*
X145362904Y-227322490D01*
X144837096Y-227322490D01*
X144822136Y-227321017D01*
X144807751Y-227316653D01*
X144794493Y-227309567D01*
X144782873Y-227300030D01*
X144719347Y-227236504D01*
X144709810Y-227224884D01*
X144702724Y-227211626D01*
X144698360Y-227197241D01*
X144696887Y-227182281D01*
X144696887Y-226754193D01*
X144698360Y-226739233D01*
X144702724Y-226724848D01*
X144709810Y-226711590D01*
X144719347Y-226699970D01*
X144730967Y-226690433D01*
X144744225Y-226683347D01*
X144758610Y-226678983D01*
X144773570Y-226677510D01*
X145426430Y-226677510D01*
X145441390Y-226678983D01*
X145455775Y-226683347D01*
X145469033Y-226690433D01*
X145480653Y-226699970D01*
X145490190Y-226711590D01*
X145497276Y-226724848D01*
X145501640Y-226739233D01*
X145503113Y-226754193D01*
X145503113Y-227182281D01*
X145501640Y-227197241D01*
G37*
G36*
G01*
X144898443Y-227496887D02*
X145301557Y-227496887D01*
G75*
G02*
X145503113Y-227698443I0J-201556D01*
G01*
X145503113Y-228101557D01*
G75*
G02*
X145301557Y-228303113I-201556J0D01*
G01*
X144898443Y-228303113D01*
G75*
G02*
X144696887Y-228101557I0J201556D01*
G01*
X144696887Y-227698443D01*
G75*
G02*
X144898443Y-227496887I201556J0D01*
G01*
G37*
G36*
G01*
X148100000Y-226500000D02*
X149425000Y-226500000D01*
G75*
G02*
X149500000Y-226575000I0J-75000D01*
G01*
X149500000Y-226725000D01*
G75*
G02*
X149425000Y-226800000I-75000J0D01*
G01*
X148100000Y-226800000D01*
G75*
G02*
X148025000Y-226725000I0J75000D01*
G01*
X148025000Y-226575000D01*
G75*
G02*
X148100000Y-226500000I75000J0D01*
G01*
G37*
G36*
G01*
X148100000Y-227000000D02*
X149425000Y-227000000D01*
G75*
G02*
X149500000Y-227075000I0J-75000D01*
G01*
X149500000Y-227225000D01*
G75*
G02*
X149425000Y-227300000I-75000J0D01*
G01*
X148100000Y-227300000D01*
G75*
G02*
X148025000Y-227225000I0J75000D01*
G01*
X148025000Y-227075000D01*
G75*
G02*
X148100000Y-227000000I75000J0D01*
G01*
G37*
G36*
G01*
X148100000Y-228000000D02*
X149425000Y-228000000D01*
G75*
G02*
X149500000Y-228075000I0J-75000D01*
G01*
X149500000Y-228225000D01*
G75*
G02*
X149425000Y-228300000I-75000J0D01*
G01*
X148100000Y-228300000D01*
G75*
G02*
X148025000Y-228225000I0J75000D01*
G01*
X148025000Y-228075000D01*
G75*
G02*
X148100000Y-228000000I75000J0D01*
G01*
G37*
G36*
G01*
X148100000Y-231000000D02*
X149425000Y-231000000D01*
G75*
G02*
X149500000Y-231075000I0J-75000D01*
G01*
X149500000Y-231225000D01*
G75*
G02*
X149425000Y-231300000I-75000J0D01*
G01*
X148100000Y-231300000D01*
G75*
G02*
X148025000Y-231225000I0J75000D01*
G01*
X148025000Y-231075000D01*
G75*
G02*
X148100000Y-231000000I75000J0D01*
G01*
G37*
G36*
X143520753Y-227174861D02*
G01*
X143515610Y-227191816D01*
X143507258Y-227207443D01*
X143496017Y-227221139D01*
X143421139Y-227296017D01*
X143407443Y-227307258D01*
X143391816Y-227315610D01*
X143374861Y-227320753D01*
X143357228Y-227322490D01*
X142967894Y-227322490D01*
X142950261Y-227320753D01*
X142933306Y-227315610D01*
X142917679Y-227307258D01*
X142903983Y-227296017D01*
X142892742Y-227282321D01*
X142884390Y-227266694D01*
X142879247Y-227249739D01*
X142877510Y-227232106D01*
X142877510Y-226767894D01*
X142879247Y-226750261D01*
X142884390Y-226733306D01*
X142892742Y-226717679D01*
X142903983Y-226703983D01*
X142917679Y-226692742D01*
X142933306Y-226684390D01*
X142950261Y-226679247D01*
X142967894Y-226677510D01*
X143432106Y-226677510D01*
X143449739Y-226679247D01*
X143466694Y-226684390D01*
X143482321Y-226692742D01*
X143496017Y-226703983D01*
X143507258Y-226717679D01*
X143515610Y-226733306D01*
X143520753Y-226750261D01*
X143522490Y-226767894D01*
X143522490Y-227157228D01*
X143520753Y-227174861D01*
G37*
G36*
X143521017Y-228177864D02*
G01*
X143516653Y-228192249D01*
X143509567Y-228205507D01*
X143500030Y-228217127D01*
X143436504Y-228280653D01*
X143424884Y-228290190D01*
X143411626Y-228297276D01*
X143397241Y-228301640D01*
X143382281Y-228303113D01*
X142954193Y-228303113D01*
X142939233Y-228301640D01*
X142924848Y-228297276D01*
X142911590Y-228290190D01*
X142899970Y-228280653D01*
X142890433Y-228269033D01*
X142883347Y-228255775D01*
X142878983Y-228241390D01*
X142877510Y-228226430D01*
X142877510Y-227573570D01*
X142878983Y-227558610D01*
X142883347Y-227544225D01*
X142890433Y-227530967D01*
X142899970Y-227519347D01*
X142911590Y-227509810D01*
X142924848Y-227502724D01*
X142939233Y-227498360D01*
X142954193Y-227496887D01*
X143382281Y-227496887D01*
X143397241Y-227498360D01*
X143411626Y-227502724D01*
X143424884Y-227509810D01*
X143436504Y-227519347D01*
X143500030Y-227582873D01*
X143509567Y-227594493D01*
X143516653Y-227607751D01*
X143521017Y-227622136D01*
X143522490Y-227637096D01*
X143522490Y-228162904D01*
X143521017Y-228177864D01*
G37*
G36*
X145501640Y-230060767D02*
G01*
X145497276Y-230075152D01*
X145490190Y-230088410D01*
X145480653Y-230100030D01*
X145469033Y-230109567D01*
X145455775Y-230116653D01*
X145441390Y-230121017D01*
X145426430Y-230122490D01*
X144773570Y-230122490D01*
X144758610Y-230121017D01*
X144744225Y-230116653D01*
X144730967Y-230109567D01*
X144719347Y-230100030D01*
X144709810Y-230088410D01*
X144702724Y-230075152D01*
X144698360Y-230060767D01*
X144696887Y-230045807D01*
X144696887Y-229617719D01*
X144698360Y-229602759D01*
X144702724Y-229588374D01*
X144709810Y-229575116D01*
X144719347Y-229563496D01*
X144782873Y-229499970D01*
X144794493Y-229490433D01*
X144807751Y-229483347D01*
X144822136Y-229478983D01*
X144837096Y-229477510D01*
X145362904Y-229477510D01*
X145377864Y-229478983D01*
X145392249Y-229483347D01*
X145405507Y-229490433D01*
X145417127Y-229499970D01*
X145480653Y-229563496D01*
X145490190Y-229575116D01*
X145497276Y-229588374D01*
X145501640Y-229602759D01*
X145503113Y-229617719D01*
X145503113Y-230045807D01*
X145501640Y-230060767D01*
G37*
G36*
G01*
X148100000Y-230000000D02*
X149425000Y-230000000D01*
G75*
G02*
X149500000Y-230075000I0J-75000D01*
G01*
X149500000Y-230225000D01*
G75*
G02*
X149425000Y-230300000I-75000J0D01*
G01*
X148100000Y-230300000D01*
G75*
G02*
X148025000Y-230225000I0J75000D01*
G01*
X148025000Y-230075000D01*
G75*
G02*
X148100000Y-230000000I75000J0D01*
G01*
G37*
G36*
X146321017Y-229241390D02*
G01*
X146316653Y-229255775D01*
X146309567Y-229269033D01*
X146300030Y-229280653D01*
X146288410Y-229290190D01*
X146275152Y-229297276D01*
X146260767Y-229301640D01*
X146245807Y-229303113D01*
X145817719Y-229303113D01*
X145802759Y-229301640D01*
X145788374Y-229297276D01*
X145775116Y-229290190D01*
X145763496Y-229280653D01*
X145699970Y-229217127D01*
X145690433Y-229205507D01*
X145683347Y-229192249D01*
X145678983Y-229177864D01*
X145677510Y-229162904D01*
X145677510Y-228637096D01*
X145678983Y-228622136D01*
X145683347Y-228607751D01*
X145690433Y-228594493D01*
X145699970Y-228582873D01*
X145763496Y-228519347D01*
X145775116Y-228509810D01*
X145788374Y-228502724D01*
X145802759Y-228498360D01*
X145817719Y-228496887D01*
X146245807Y-228496887D01*
X146260767Y-228498360D01*
X146275152Y-228502724D01*
X146288410Y-228509810D01*
X146300030Y-228519347D01*
X146309567Y-228530967D01*
X146316653Y-228544225D01*
X146321017Y-228558610D01*
X146322490Y-228573570D01*
X146322490Y-229226430D01*
X146321017Y-229241390D01*
G37*
G36*
G01*
X143898443Y-227496887D02*
X144301557Y-227496887D01*
G75*
G02*
X144503113Y-227698443I0J-201556D01*
G01*
X144503113Y-228101557D01*
G75*
G02*
X144301557Y-228303113I-201556J0D01*
G01*
X143898443Y-228303113D01*
G75*
G02*
X143696887Y-228101557I0J201556D01*
G01*
X143696887Y-227698443D01*
G75*
G02*
X143898443Y-227496887I201556J0D01*
G01*
G37*
G36*
G01*
X148100000Y-228500000D02*
X149425000Y-228500000D01*
G75*
G02*
X149500000Y-228575000I0J-75000D01*
G01*
X149500000Y-228725000D01*
G75*
G02*
X149425000Y-228800000I-75000J0D01*
G01*
X148100000Y-228800000D01*
G75*
G02*
X148025000Y-228725000I0J75000D01*
G01*
X148025000Y-228575000D01*
G75*
G02*
X148100000Y-228500000I75000J0D01*
G01*
G37*
G36*
X146320753Y-227249739D02*
G01*
X146315610Y-227266694D01*
X146307258Y-227282321D01*
X146296017Y-227296017D01*
X146282321Y-227307258D01*
X146266694Y-227315610D01*
X146249739Y-227320753D01*
X146232106Y-227322490D01*
X145842772Y-227322490D01*
X145825139Y-227320753D01*
X145808184Y-227315610D01*
X145792557Y-227307258D01*
X145778861Y-227296017D01*
X145703983Y-227221139D01*
X145692742Y-227207443D01*
X145684390Y-227191816D01*
X145679247Y-227174861D01*
X145677510Y-227157228D01*
X145677510Y-226767894D01*
X145679247Y-226750261D01*
X145684390Y-226733306D01*
X145692742Y-226717679D01*
X145703983Y-226703983D01*
X145717679Y-226692742D01*
X145733306Y-226684390D01*
X145750261Y-226679247D01*
X145767894Y-226677510D01*
X146232106Y-226677510D01*
X146249739Y-226679247D01*
X146266694Y-226684390D01*
X146282321Y-226692742D01*
X146296017Y-226703983D01*
X146307258Y-226717679D01*
X146315610Y-226733306D01*
X146320753Y-226750261D01*
X146322490Y-226767894D01*
X146322490Y-227232106D01*
X146320753Y-227249739D01*
G37*
G36*
X144501640Y-227197241D02*
G01*
X144497276Y-227211626D01*
X144490190Y-227224884D01*
X144480653Y-227236504D01*
X144417127Y-227300030D01*
X144405507Y-227309567D01*
X144392249Y-227316653D01*
X144377864Y-227321017D01*
X144362904Y-227322490D01*
X143837096Y-227322490D01*
X143822136Y-227321017D01*
X143807751Y-227316653D01*
X143794493Y-227309567D01*
X143782873Y-227300030D01*
X143719347Y-227236504D01*
X143709810Y-227224884D01*
X143702724Y-227211626D01*
X143698360Y-227197241D01*
X143696887Y-227182281D01*
X143696887Y-226754193D01*
X143698360Y-226739233D01*
X143702724Y-226724848D01*
X143709810Y-226711590D01*
X143719347Y-226699970D01*
X143730967Y-226690433D01*
X143744225Y-226683347D01*
X143758610Y-226678983D01*
X143773570Y-226677510D01*
X144426430Y-226677510D01*
X144441390Y-226678983D01*
X144455775Y-226683347D01*
X144469033Y-226690433D01*
X144480653Y-226699970D01*
X144490190Y-226711590D01*
X144497276Y-226724848D01*
X144501640Y-226739233D01*
X144503113Y-226754193D01*
X144503113Y-227182281D01*
X144501640Y-227197241D01*
G37*
G36*
G01*
X148100000Y-227500000D02*
X149425000Y-227500000D01*
G75*
G02*
X149500000Y-227575000I0J-75000D01*
G01*
X149500000Y-227725000D01*
G75*
G02*
X149425000Y-227800000I-75000J0D01*
G01*
X148100000Y-227800000D01*
G75*
G02*
X148025000Y-227725000I0J75000D01*
G01*
X148025000Y-227575000D01*
G75*
G02*
X148100000Y-227500000I75000J0D01*
G01*
G37*
G36*
G01*
X148100000Y-226000000D02*
X149425000Y-226000000D01*
G75*
G02*
X149500000Y-226075000I0J-75000D01*
G01*
X149500000Y-226225000D01*
G75*
G02*
X149425000Y-226300000I-75000J0D01*
G01*
X148100000Y-226300000D01*
G75*
G02*
X148025000Y-226225000I0J75000D01*
G01*
X148025000Y-226075000D01*
G75*
G02*
X148100000Y-226000000I75000J0D01*
G01*
G37*
G36*
X143520753Y-230049739D02*
G01*
X143515610Y-230066694D01*
X143507258Y-230082321D01*
X143496017Y-230096017D01*
X143482321Y-230107258D01*
X143466694Y-230115610D01*
X143449739Y-230120753D01*
X143432106Y-230122490D01*
X142967894Y-230122490D01*
X142950261Y-230120753D01*
X142933306Y-230115610D01*
X142917679Y-230107258D01*
X142903983Y-230096017D01*
X142892742Y-230082321D01*
X142884390Y-230066694D01*
X142879247Y-230049739D01*
X142877510Y-230032106D01*
X142877510Y-229567894D01*
X142879247Y-229550261D01*
X142884390Y-229533306D01*
X142892742Y-229517679D01*
X142903983Y-229503983D01*
X142917679Y-229492742D01*
X142933306Y-229484390D01*
X142950261Y-229479247D01*
X142967894Y-229477510D01*
X143357228Y-229477510D01*
X143374861Y-229479247D01*
X143391816Y-229484390D01*
X143407443Y-229492742D01*
X143421139Y-229503983D01*
X143496017Y-229578861D01*
X143507258Y-229592557D01*
X143515610Y-229608184D01*
X143520753Y-229625139D01*
X143522490Y-229642772D01*
X143522490Y-230032106D01*
X143520753Y-230049739D01*
G37*
G36*
X146320753Y-230049739D02*
G01*
X146315610Y-230066694D01*
X146307258Y-230082321D01*
X146296017Y-230096017D01*
X146282321Y-230107258D01*
X146266694Y-230115610D01*
X146249739Y-230120753D01*
X146232106Y-230122490D01*
X145767894Y-230122490D01*
X145750261Y-230120753D01*
X145733306Y-230115610D01*
X145717679Y-230107258D01*
X145703983Y-230096017D01*
X145692742Y-230082321D01*
X145684390Y-230066694D01*
X145679247Y-230049739D01*
X145677510Y-230032106D01*
X145677510Y-229642772D01*
X145679247Y-229625139D01*
X145684390Y-229608184D01*
X145692742Y-229592557D01*
X145703983Y-229578861D01*
X145778861Y-229503983D01*
X145792557Y-229492742D01*
X145808184Y-229484390D01*
X145825139Y-229479247D01*
X145842772Y-229477510D01*
X146232106Y-229477510D01*
X146249739Y-229479247D01*
X146266694Y-229484390D01*
X146282321Y-229492742D01*
X146296017Y-229503983D01*
X146307258Y-229517679D01*
X146315610Y-229533306D01*
X146320753Y-229550261D01*
X146322490Y-229567894D01*
X146322490Y-230032106D01*
X146320753Y-230049739D01*
G37*
G36*
X144501640Y-230060767D02*
G01*
X144497276Y-230075152D01*
X144490190Y-230088410D01*
X144480653Y-230100030D01*
X144469033Y-230109567D01*
X144455775Y-230116653D01*
X144441390Y-230121017D01*
X144426430Y-230122490D01*
X143773570Y-230122490D01*
X143758610Y-230121017D01*
X143744225Y-230116653D01*
X143730967Y-230109567D01*
X143719347Y-230100030D01*
X143709810Y-230088410D01*
X143702724Y-230075152D01*
X143698360Y-230060767D01*
X143696887Y-230045807D01*
X143696887Y-229617719D01*
X143698360Y-229602759D01*
X143702724Y-229588374D01*
X143709810Y-229575116D01*
X143719347Y-229563496D01*
X143782873Y-229499970D01*
X143794493Y-229490433D01*
X143807751Y-229483347D01*
X143822136Y-229478983D01*
X143837096Y-229477510D01*
X144362904Y-229477510D01*
X144377864Y-229478983D01*
X144392249Y-229483347D01*
X144405507Y-229490433D01*
X144417127Y-229499970D01*
X144480653Y-229563496D01*
X144490190Y-229575116D01*
X144497276Y-229588374D01*
X144501640Y-229602759D01*
X144503113Y-229617719D01*
X144503113Y-230045807D01*
X144501640Y-230060767D01*
G37*
G36*
G01*
X144898443Y-228496887D02*
X145301557Y-228496887D01*
G75*
G02*
X145503113Y-228698443I0J-201556D01*
G01*
X145503113Y-229101557D01*
G75*
G02*
X145301557Y-229303113I-201556J0D01*
G01*
X144898443Y-229303113D01*
G75*
G02*
X144696887Y-229101557I0J201556D01*
G01*
X144696887Y-228698443D01*
G75*
G02*
X144898443Y-228496887I201556J0D01*
G01*
G37*
G36*
G01*
X148100000Y-230500000D02*
X149425000Y-230500000D01*
G75*
G02*
X149500000Y-230575000I0J-75000D01*
G01*
X149500000Y-230725000D01*
G75*
G02*
X149425000Y-230800000I-75000J0D01*
G01*
X148100000Y-230800000D01*
G75*
G02*
X148025000Y-230725000I0J75000D01*
G01*
X148025000Y-230575000D01*
G75*
G02*
X148100000Y-230500000I75000J0D01*
G01*
G37*
G36*
G01*
X148100000Y-229000000D02*
X149425000Y-229000000D01*
G75*
G02*
X149500000Y-229075000I0J-75000D01*
G01*
X149500000Y-229225000D01*
G75*
G02*
X149425000Y-229300000I-75000J0D01*
G01*
X148100000Y-229300000D01*
G75*
G02*
X148025000Y-229225000I0J75000D01*
G01*
X148025000Y-229075000D01*
G75*
G02*
X148100000Y-229000000I75000J0D01*
G01*
G37*
G36*
G01*
X148100000Y-229500000D02*
X149425000Y-229500000D01*
G75*
G02*
X149500000Y-229575000I0J-75000D01*
G01*
X149500000Y-229725000D01*
G75*
G02*
X149425000Y-229800000I-75000J0D01*
G01*
X148100000Y-229800000D01*
G75*
G02*
X148025000Y-229725000I0J75000D01*
G01*
X148025000Y-229575000D01*
G75*
G02*
X148100000Y-229500000I75000J0D01*
G01*
G37*
G36*
G01*
X148100000Y-225500000D02*
X149425000Y-225500000D01*
G75*
G02*
X149500000Y-225575000I0J-75000D01*
G01*
X149500000Y-225725000D01*
G75*
G02*
X149425000Y-225800000I-75000J0D01*
G01*
X148100000Y-225800000D01*
G75*
G02*
X148025000Y-225725000I0J75000D01*
G01*
X148025000Y-225575000D01*
G75*
G02*
X148100000Y-225500000I75000J0D01*
G01*
G37*
G36*
G01*
X143898443Y-228496887D02*
X144301557Y-228496887D01*
G75*
G02*
X144503113Y-228698443I0J-201556D01*
G01*
X144503113Y-229101557D01*
G75*
G02*
X144301557Y-229303113I-201556J0D01*
G01*
X143898443Y-229303113D01*
G75*
G02*
X143696887Y-229101557I0J201556D01*
G01*
X143696887Y-228698443D01*
G75*
G02*
X143898443Y-228496887I201556J0D01*
G01*
G37*
G36*
X143521017Y-229177864D02*
G01*
X143516653Y-229192249D01*
X143509567Y-229205507D01*
X143500030Y-229217127D01*
X143436504Y-229280653D01*
X143424884Y-229290190D01*
X143411626Y-229297276D01*
X143397241Y-229301640D01*
X143382281Y-229303113D01*
X142954193Y-229303113D01*
X142939233Y-229301640D01*
X142924848Y-229297276D01*
X142911590Y-229290190D01*
X142899970Y-229280653D01*
X142890433Y-229269033D01*
X142883347Y-229255775D01*
X142878983Y-229241390D01*
X142877510Y-229226430D01*
X142877510Y-228573570D01*
X142878983Y-228558610D01*
X142883347Y-228544225D01*
X142890433Y-228530967D01*
X142899970Y-228519347D01*
X142911590Y-228509810D01*
X142924848Y-228502724D01*
X142939233Y-228498360D01*
X142954193Y-228496887D01*
X143382281Y-228496887D01*
X143397241Y-228498360D01*
X143411626Y-228502724D01*
X143424884Y-228509810D01*
X143436504Y-228519347D01*
X143500030Y-228582873D01*
X143509567Y-228594493D01*
X143516653Y-228607751D01*
X143521017Y-228622136D01*
X143522490Y-228637096D01*
X143522490Y-229162904D01*
X143521017Y-229177864D01*
G37*
G36*
X146321017Y-228241390D02*
G01*
X146316653Y-228255775D01*
X146309567Y-228269033D01*
X146300030Y-228280653D01*
X146288410Y-228290190D01*
X146275152Y-228297276D01*
X146260767Y-228301640D01*
X146245807Y-228303113D01*
X145817719Y-228303113D01*
X145802759Y-228301640D01*
X145788374Y-228297276D01*
X145775116Y-228290190D01*
X145763496Y-228280653D01*
X145699970Y-228217127D01*
X145690433Y-228205507D01*
X145683347Y-228192249D01*
X145678983Y-228177864D01*
X145677510Y-228162904D01*
X145677510Y-227637096D01*
X145678983Y-227622136D01*
X145683347Y-227607751D01*
X145690433Y-227594493D01*
X145699970Y-227582873D01*
X145763496Y-227519347D01*
X145775116Y-227509810D01*
X145788374Y-227502724D01*
X145802759Y-227498360D01*
X145817719Y-227496887D01*
X146245807Y-227496887D01*
X146260767Y-227498360D01*
X146275152Y-227502724D01*
X146288410Y-227509810D01*
X146300030Y-227519347D01*
X146309567Y-227530967D01*
X146316653Y-227544225D01*
X146321017Y-227558610D01*
X146322490Y-227573570D01*
X146322490Y-228226430D01*
X146321017Y-228241390D01*
G37*
G36*
G01*
X139775000Y-228000000D02*
X141100000Y-228000000D01*
G75*
G02*
X141175000Y-228075000I0J-75000D01*
G01*
X141175000Y-228225000D01*
G75*
G02*
X141100000Y-228300000I-75000J0D01*
G01*
X139775000Y-228300000D01*
G75*
G02*
X139700000Y-228225000I0J75000D01*
G01*
X139700000Y-228075000D01*
G75*
G02*
X139775000Y-228000000I75000J0D01*
G01*
G37*
G36*
G01*
X141775000Y-231825000D02*
X141925000Y-231825000D01*
G75*
G02*
X142000000Y-231900000I0J-75000D01*
G01*
X142000000Y-233225000D01*
G75*
G02*
X141925000Y-233300000I-75000J0D01*
G01*
X141775000Y-233300000D01*
G75*
G02*
X141700000Y-233225000I0J75000D01*
G01*
X141700000Y-231900000D01*
G75*
G02*
X141775000Y-231825000I75000J0D01*
G01*
G37*
G36*
G01*
X143775000Y-231825000D02*
X143925000Y-231825000D01*
G75*
G02*
X144000000Y-231900000I0J-75000D01*
G01*
X144000000Y-233225000D01*
G75*
G02*
X143925000Y-233300000I-75000J0D01*
G01*
X143775000Y-233300000D01*
G75*
G02*
X143700000Y-233225000I0J75000D01*
G01*
X143700000Y-231900000D01*
G75*
G02*
X143775000Y-231825000I75000J0D01*
G01*
G37*
G36*
G01*
X142775000Y-231825000D02*
X142925000Y-231825000D01*
G75*
G02*
X143000000Y-231900000I0J-75000D01*
G01*
X143000000Y-233225000D01*
G75*
G02*
X142925000Y-233300000I-75000J0D01*
G01*
X142775000Y-233300000D01*
G75*
G02*
X142700000Y-233225000I0J75000D01*
G01*
X142700000Y-231900000D01*
G75*
G02*
X142775000Y-231825000I75000J0D01*
G01*
G37*
G36*
G01*
X142275000Y-231825000D02*
X142425000Y-231825000D01*
G75*
G02*
X142500000Y-231900000I0J-75000D01*
G01*
X142500000Y-233225000D01*
G75*
G02*
X142425000Y-233300000I-75000J0D01*
G01*
X142275000Y-233300000D01*
G75*
G02*
X142200000Y-233225000I0J75000D01*
G01*
X142200000Y-231900000D01*
G75*
G02*
X142275000Y-231825000I75000J0D01*
G01*
G37*
G36*
G01*
X139775000Y-228500000D02*
X141100000Y-228500000D01*
G75*
G02*
X141175000Y-228575000I0J-75000D01*
G01*
X141175000Y-228725000D01*
G75*
G02*
X141100000Y-228800000I-75000J0D01*
G01*
X139775000Y-228800000D01*
G75*
G02*
X139700000Y-228725000I0J75000D01*
G01*
X139700000Y-228575000D01*
G75*
G02*
X139775000Y-228500000I75000J0D01*
G01*
G37*
G36*
G01*
X139775000Y-230500000D02*
X141100000Y-230500000D01*
G75*
G02*
X141175000Y-230575000I0J-75000D01*
G01*
X141175000Y-230725000D01*
G75*
G02*
X141100000Y-230800000I-75000J0D01*
G01*
X139775000Y-230800000D01*
G75*
G02*
X139700000Y-230725000I0J75000D01*
G01*
X139700000Y-230575000D01*
G75*
G02*
X139775000Y-230500000I75000J0D01*
G01*
G37*
G36*
G01*
X139775000Y-230000000D02*
X141100000Y-230000000D01*
G75*
G02*
X141175000Y-230075000I0J-75000D01*
G01*
X141175000Y-230225000D01*
G75*
G02*
X141100000Y-230300000I-75000J0D01*
G01*
X139775000Y-230300000D01*
G75*
G02*
X139700000Y-230225000I0J75000D01*
G01*
X139700000Y-230075000D01*
G75*
G02*
X139775000Y-230000000I75000J0D01*
G01*
G37*
G36*
G01*
X139775000Y-229500000D02*
X141100000Y-229500000D01*
G75*
G02*
X141175000Y-229575000I0J-75000D01*
G01*
X141175000Y-229725000D01*
G75*
G02*
X141100000Y-229800000I-75000J0D01*
G01*
X139775000Y-229800000D01*
G75*
G02*
X139700000Y-229725000I0J75000D01*
G01*
X139700000Y-229575000D01*
G75*
G02*
X139775000Y-229500000I75000J0D01*
G01*
G37*
G36*
G01*
X139775000Y-229000000D02*
X141100000Y-229000000D01*
G75*
G02*
X141175000Y-229075000I0J-75000D01*
G01*
X141175000Y-229225000D01*
G75*
G02*
X141100000Y-229300000I-75000J0D01*
G01*
X139775000Y-229300000D01*
G75*
G02*
X139700000Y-229225000I0J75000D01*
G01*
X139700000Y-229075000D01*
G75*
G02*
X139775000Y-229000000I75000J0D01*
G01*
G37*
G36*
G01*
X139775000Y-227500000D02*
X141100000Y-227500000D01*
G75*
G02*
X141175000Y-227575000I0J-75000D01*
G01*
X141175000Y-227725000D01*
G75*
G02*
X141100000Y-227800000I-75000J0D01*
G01*
X139775000Y-227800000D01*
G75*
G02*
X139700000Y-227725000I0J75000D01*
G01*
X139700000Y-227575000D01*
G75*
G02*
X139775000Y-227500000I75000J0D01*
G01*
G37*
G36*
G01*
X141775000Y-223500000D02*
X141925000Y-223500000D01*
G75*
G02*
X142000000Y-223575000I0J-75000D01*
G01*
X142000000Y-224900000D01*
G75*
G02*
X141925000Y-224975000I-75000J0D01*
G01*
X141775000Y-224975000D01*
G75*
G02*
X141700000Y-224900000I0J75000D01*
G01*
X141700000Y-223575000D01*
G75*
G02*
X141775000Y-223500000I75000J0D01*
G01*
G37*
G36*
G01*
X144275000Y-223500000D02*
X144425000Y-223500000D01*
G75*
G02*
X144500000Y-223575000I0J-75000D01*
G01*
X144500000Y-224900000D01*
G75*
G02*
X144425000Y-224975000I-75000J0D01*
G01*
X144275000Y-224975000D01*
G75*
G02*
X144200000Y-224900000I0J75000D01*
G01*
X144200000Y-223575000D01*
G75*
G02*
X144275000Y-223500000I75000J0D01*
G01*
G37*
G36*
G01*
X142775000Y-223500000D02*
X142925000Y-223500000D01*
G75*
G02*
X143000000Y-223575000I0J-75000D01*
G01*
X143000000Y-224900000D01*
G75*
G02*
X142925000Y-224975000I-75000J0D01*
G01*
X142775000Y-224975000D01*
G75*
G02*
X142700000Y-224900000I0J75000D01*
G01*
X142700000Y-223575000D01*
G75*
G02*
X142775000Y-223500000I75000J0D01*
G01*
G37*
G36*
G01*
X144775000Y-223500000D02*
X144925000Y-223500000D01*
G75*
G02*
X145000000Y-223575000I0J-75000D01*
G01*
X145000000Y-224900000D01*
G75*
G02*
X144925000Y-224975000I-75000J0D01*
G01*
X144775000Y-224975000D01*
G75*
G02*
X144700000Y-224900000I0J75000D01*
G01*
X144700000Y-223575000D01*
G75*
G02*
X144775000Y-223500000I75000J0D01*
G01*
G37*
G36*
G01*
X146275000Y-231825000D02*
X146425000Y-231825000D01*
G75*
G02*
X146500000Y-231900000I0J-75000D01*
G01*
X146500000Y-233225000D01*
G75*
G02*
X146425000Y-233300000I-75000J0D01*
G01*
X146275000Y-233300000D01*
G75*
G02*
X146200000Y-233225000I0J75000D01*
G01*
X146200000Y-231900000D01*
G75*
G02*
X146275000Y-231825000I75000J0D01*
G01*
G37*
G36*
G01*
X139775000Y-227000000D02*
X141100000Y-227000000D01*
G75*
G02*
X141175000Y-227075000I0J-75000D01*
G01*
X141175000Y-227225000D01*
G75*
G02*
X141100000Y-227300000I-75000J0D01*
G01*
X139775000Y-227300000D01*
G75*
G02*
X139700000Y-227225000I0J75000D01*
G01*
X139700000Y-227075000D01*
G75*
G02*
X139775000Y-227000000I75000J0D01*
G01*
G37*
G36*
G01*
X144775000Y-231825000D02*
X144925000Y-231825000D01*
G75*
G02*
X145000000Y-231900000I0J-75000D01*
G01*
X145000000Y-233225000D01*
G75*
G02*
X144925000Y-233300000I-75000J0D01*
G01*
X144775000Y-233300000D01*
G75*
G02*
X144700000Y-233225000I0J75000D01*
G01*
X144700000Y-231900000D01*
G75*
G02*
X144775000Y-231825000I75000J0D01*
G01*
G37*
G36*
G01*
X143275000Y-231825000D02*
X143425000Y-231825000D01*
G75*
G02*
X143500000Y-231900000I0J-75000D01*
G01*
X143500000Y-233225000D01*
G75*
G02*
X143425000Y-233300000I-75000J0D01*
G01*
X143275000Y-233300000D01*
G75*
G02*
X143200000Y-233225000I0J75000D01*
G01*
X143200000Y-231900000D01*
G75*
G02*
X143275000Y-231825000I75000J0D01*
G01*
G37*
G36*
G01*
X146275000Y-223500000D02*
X146425000Y-223500000D01*
G75*
G02*
X146500000Y-223575000I0J-75000D01*
G01*
X146500000Y-224900000D01*
G75*
G02*
X146425000Y-224975000I-75000J0D01*
G01*
X146275000Y-224975000D01*
G75*
G02*
X146200000Y-224900000I0J75000D01*
G01*
X146200000Y-223575000D01*
G75*
G02*
X146275000Y-223500000I75000J0D01*
G01*
G37*
G36*
G01*
X139775000Y-226000000D02*
X141100000Y-226000000D01*
G75*
G02*
X141175000Y-226075000I0J-75000D01*
G01*
X141175000Y-226225000D01*
G75*
G02*
X141100000Y-226300000I-75000J0D01*
G01*
X139775000Y-226300000D01*
G75*
G02*
X139700000Y-226225000I0J75000D01*
G01*
X139700000Y-226075000D01*
G75*
G02*
X139775000Y-226000000I75000J0D01*
G01*
G37*
G36*
G01*
X139775000Y-225500000D02*
X141100000Y-225500000D01*
G75*
G02*
X141175000Y-225575000I0J-75000D01*
G01*
X141175000Y-225725000D01*
G75*
G02*
X141100000Y-225800000I-75000J0D01*
G01*
X139775000Y-225800000D01*
G75*
G02*
X139700000Y-225725000I0J75000D01*
G01*
X139700000Y-225575000D01*
G75*
G02*
X139775000Y-225500000I75000J0D01*
G01*
G37*
G36*
G01*
X145775000Y-223500000D02*
X145925000Y-223500000D01*
G75*
G02*
X146000000Y-223575000I0J-75000D01*
G01*
X146000000Y-224900000D01*
G75*
G02*
X145925000Y-224975000I-75000J0D01*
G01*
X145775000Y-224975000D01*
G75*
G02*
X145700000Y-224900000I0J75000D01*
G01*
X145700000Y-223575000D01*
G75*
G02*
X145775000Y-223500000I75000J0D01*
G01*
G37*
G36*
G01*
X147275000Y-231825000D02*
X147425000Y-231825000D01*
G75*
G02*
X147500000Y-231900000I0J-75000D01*
G01*
X147500000Y-233225000D01*
G75*
G02*
X147425000Y-233300000I-75000J0D01*
G01*
X147275000Y-233300000D01*
G75*
G02*
X147200000Y-233225000I0J75000D01*
G01*
X147200000Y-231900000D01*
G75*
G02*
X147275000Y-231825000I75000J0D01*
G01*
G37*
G36*
G01*
X143775000Y-223500000D02*
X143925000Y-223500000D01*
G75*
G02*
X144000000Y-223575000I0J-75000D01*
G01*
X144000000Y-224900000D01*
G75*
G02*
X143925000Y-224975000I-75000J0D01*
G01*
X143775000Y-224975000D01*
G75*
G02*
X143700000Y-224900000I0J75000D01*
G01*
X143700000Y-223575000D01*
G75*
G02*
X143775000Y-223500000I75000J0D01*
G01*
G37*
G36*
G01*
X146775000Y-231825000D02*
X146925000Y-231825000D01*
G75*
G02*
X147000000Y-231900000I0J-75000D01*
G01*
X147000000Y-233225000D01*
G75*
G02*
X146925000Y-233300000I-75000J0D01*
G01*
X146775000Y-233300000D01*
G75*
G02*
X146700000Y-233225000I0J75000D01*
G01*
X146700000Y-231900000D01*
G75*
G02*
X146775000Y-231825000I75000J0D01*
G01*
G37*
G36*
G01*
X146775000Y-223500000D02*
X146925000Y-223500000D01*
G75*
G02*
X147000000Y-223575000I0J-75000D01*
G01*
X147000000Y-224900000D01*
G75*
G02*
X146925000Y-224975000I-75000J0D01*
G01*
X146775000Y-224975000D01*
G75*
G02*
X146700000Y-224900000I0J75000D01*
G01*
X146700000Y-223575000D01*
G75*
G02*
X146775000Y-223500000I75000J0D01*
G01*
G37*
G36*
G01*
X145275000Y-231825000D02*
X145425000Y-231825000D01*
G75*
G02*
X145500000Y-231900000I0J-75000D01*
G01*
X145500000Y-233225000D01*
G75*
G02*
X145425000Y-233300000I-75000J0D01*
G01*
X145275000Y-233300000D01*
G75*
G02*
X145200000Y-233225000I0J75000D01*
G01*
X145200000Y-231900000D01*
G75*
G02*
X145275000Y-231825000I75000J0D01*
G01*
G37*
G36*
G01*
X139775000Y-226500000D02*
X141100000Y-226500000D01*
G75*
G02*
X141175000Y-226575000I0J-75000D01*
G01*
X141175000Y-226725000D01*
G75*
G02*
X141100000Y-226800000I-75000J0D01*
G01*
X139775000Y-226800000D01*
G75*
G02*
X139700000Y-226725000I0J75000D01*
G01*
X139700000Y-226575000D01*
G75*
G02*
X139775000Y-226500000I75000J0D01*
G01*
G37*
G36*
G01*
X147275000Y-223500000D02*
X147425000Y-223500000D01*
G75*
G02*
X147500000Y-223575000I0J-75000D01*
G01*
X147500000Y-224900000D01*
G75*
G02*
X147425000Y-224975000I-75000J0D01*
G01*
X147275000Y-224975000D01*
G75*
G02*
X147200000Y-224900000I0J75000D01*
G01*
X147200000Y-223575000D01*
G75*
G02*
X147275000Y-223500000I75000J0D01*
G01*
G37*
G36*
G01*
X139775000Y-231000000D02*
X141100000Y-231000000D01*
G75*
G02*
X141175000Y-231075000I0J-75000D01*
G01*
X141175000Y-231225000D01*
G75*
G02*
X141100000Y-231300000I-75000J0D01*
G01*
X139775000Y-231300000D01*
G75*
G02*
X139700000Y-231225000I0J75000D01*
G01*
X139700000Y-231075000D01*
G75*
G02*
X139775000Y-231000000I75000J0D01*
G01*
G37*
G36*
G01*
X145775000Y-231825000D02*
X145925000Y-231825000D01*
G75*
G02*
X146000000Y-231900000I0J-75000D01*
G01*
X146000000Y-233225000D01*
G75*
G02*
X145925000Y-233300000I-75000J0D01*
G01*
X145775000Y-233300000D01*
G75*
G02*
X145700000Y-233225000I0J75000D01*
G01*
X145700000Y-231900000D01*
G75*
G02*
X145775000Y-231825000I75000J0D01*
G01*
G37*
G36*
G01*
X142275000Y-223500000D02*
X142425000Y-223500000D01*
G75*
G02*
X142500000Y-223575000I0J-75000D01*
G01*
X142500000Y-224900000D01*
G75*
G02*
X142425000Y-224975000I-75000J0D01*
G01*
X142275000Y-224975000D01*
G75*
G02*
X142200000Y-224900000I0J75000D01*
G01*
X142200000Y-223575000D01*
G75*
G02*
X142275000Y-223500000I75000J0D01*
G01*
G37*
G36*
G01*
X144275000Y-231825000D02*
X144425000Y-231825000D01*
G75*
G02*
X144500000Y-231900000I0J-75000D01*
G01*
X144500000Y-233225000D01*
G75*
G02*
X144425000Y-233300000I-75000J0D01*
G01*
X144275000Y-233300000D01*
G75*
G02*
X144200000Y-233225000I0J75000D01*
G01*
X144200000Y-231900000D01*
G75*
G02*
X144275000Y-231825000I75000J0D01*
G01*
G37*
G36*
G01*
X143275000Y-223500000D02*
X143425000Y-223500000D01*
G75*
G02*
X143500000Y-223575000I0J-75000D01*
G01*
X143500000Y-224900000D01*
G75*
G02*
X143425000Y-224975000I-75000J0D01*
G01*
X143275000Y-224975000D01*
G75*
G02*
X143200000Y-224900000I0J75000D01*
G01*
X143200000Y-223575000D01*
G75*
G02*
X143275000Y-223500000I75000J0D01*
G01*
G37*
G36*
G01*
X145275000Y-223500000D02*
X145425000Y-223500000D01*
G75*
G02*
X145500000Y-223575000I0J-75000D01*
G01*
X145500000Y-224900000D01*
G75*
G02*
X145425000Y-224975000I-75000J0D01*
G01*
X145275000Y-224975000D01*
G75*
G02*
X145200000Y-224900000I0J75000D01*
G01*
X145200000Y-223575000D01*
G75*
G02*
X145275000Y-223500000I75000J0D01*
G01*
G37*
G36*
G01*
X139450000Y-234243750D02*
X139450000Y-234756250D01*
G75*
G02*
X139231250Y-234975000I-218750J0D01*
G01*
X138793750Y-234975000D01*
G75*
G02*
X138575000Y-234756250I0J218750D01*
G01*
X138575000Y-234243750D01*
G75*
G02*
X138793750Y-234025000I218750J0D01*
G01*
X139231250Y-234025000D01*
G75*
G02*
X139450000Y-234243750I0J-218750D01*
G01*
G37*
G36*
G01*
X141025000Y-234243750D02*
X141025000Y-234756250D01*
G75*
G02*
X140806250Y-234975000I-218750J0D01*
G01*
X140368750Y-234975000D01*
G75*
G02*
X140150000Y-234756250I0J218750D01*
G01*
X140150000Y-234243750D01*
G75*
G02*
X140368750Y-234025000I218750J0D01*
G01*
X140806250Y-234025000D01*
G75*
G02*
X141025000Y-234243750I0J-218750D01*
G01*
G37*
D11*
X106527600Y-234011200D03*
X106527600Y-237311200D03*
G36*
G01*
X108327350Y-235121200D02*
X108839850Y-235121200D01*
G75*
G02*
X109058600Y-235339950I0J-218750D01*
G01*
X109058600Y-235777450D01*
G75*
G02*
X108839850Y-235996200I-218750J0D01*
G01*
X108327350Y-235996200D01*
G75*
G02*
X108108600Y-235777450I0J218750D01*
G01*
X108108600Y-235339950D01*
G75*
G02*
X108327350Y-235121200I218750J0D01*
G01*
G37*
G36*
G01*
X108327350Y-233546200D02*
X108839850Y-233546200D01*
G75*
G02*
X109058600Y-233764950I0J-218750D01*
G01*
X109058600Y-234202450D01*
G75*
G02*
X108839850Y-234421200I-218750J0D01*
G01*
X108327350Y-234421200D01*
G75*
G02*
X108108600Y-234202450I0J218750D01*
G01*
X108108600Y-233764950D01*
G75*
G02*
X108327350Y-233546200I218750J0D01*
G01*
G37*
D12*
X111650000Y-199340000D03*
X111650000Y-120000000D03*
X90000000Y-199340000D03*
X90000000Y-120000000D03*
X90000000Y-38660000D03*
X90000000Y-118000000D03*
X111650000Y-38660000D03*
X111650000Y-118000000D03*
X133300000Y-38660000D03*
X133300000Y-118000000D03*
X133300000Y-199340000D03*
X133300000Y-120000000D03*
X154950000Y-38660000D03*
X154950000Y-118000000D03*
X154950000Y-199340000D03*
X154950000Y-120000000D03*
X176600000Y-38660000D03*
X176600000Y-118000000D03*
X176600000Y-199340000D03*
X176600000Y-120000000D03*
X198250000Y-199340000D03*
X198250000Y-120000000D03*
X198250000Y-38660000D03*
X198250000Y-118000000D03*
G36*
G01*
X83417000Y-237183400D02*
X84667000Y-237183400D01*
G75*
G02*
X84817000Y-237333400I0J-150000D01*
G01*
X84817000Y-237633400D01*
G75*
G02*
X84667000Y-237783400I-150000J0D01*
G01*
X83417000Y-237783400D01*
G75*
G02*
X83267000Y-237633400I0J150000D01*
G01*
X83267000Y-237333400D01*
G75*
G02*
X83417000Y-237183400I150000J0D01*
G01*
G37*
G36*
G01*
X83417000Y-238183400D02*
X84667000Y-238183400D01*
G75*
G02*
X84817000Y-238333400I0J-150000D01*
G01*
X84817000Y-238633400D01*
G75*
G02*
X84667000Y-238783400I-150000J0D01*
G01*
X83417000Y-238783400D01*
G75*
G02*
X83267000Y-238633400I0J150000D01*
G01*
X83267000Y-238333400D01*
G75*
G02*
X83417000Y-238183400I150000J0D01*
G01*
G37*
G36*
G01*
X83417000Y-239183400D02*
X84667000Y-239183400D01*
G75*
G02*
X84817000Y-239333400I0J-150000D01*
G01*
X84817000Y-239633400D01*
G75*
G02*
X84667000Y-239783400I-150000J0D01*
G01*
X83417000Y-239783400D01*
G75*
G02*
X83267000Y-239633400I0J150000D01*
G01*
X83267000Y-239333400D01*
G75*
G02*
X83417000Y-239183400I150000J0D01*
G01*
G37*
G36*
G01*
X83417000Y-240183400D02*
X84667000Y-240183400D01*
G75*
G02*
X84817000Y-240333400I0J-150000D01*
G01*
X84817000Y-240633400D01*
G75*
G02*
X84667000Y-240783400I-150000J0D01*
G01*
X83417000Y-240783400D01*
G75*
G02*
X83267000Y-240633400I0J150000D01*
G01*
X83267000Y-240333400D01*
G75*
G02*
X83417000Y-240183400I150000J0D01*
G01*
G37*
G36*
G01*
X79516999Y-235583400D02*
X80817001Y-235583400D01*
G75*
G02*
X81067000Y-235833399I0J-249999D01*
G01*
X81067000Y-236533401D01*
G75*
G02*
X80817001Y-236783400I-249999J0D01*
G01*
X79516999Y-236783400D01*
G75*
G02*
X79267000Y-236533401I0J249999D01*
G01*
X79267000Y-235833399D01*
G75*
G02*
X79516999Y-235583400I249999J0D01*
G01*
G37*
G36*
G01*
X79516999Y-241183400D02*
X80817001Y-241183400D01*
G75*
G02*
X81067000Y-241433399I0J-249999D01*
G01*
X81067000Y-242133401D01*
G75*
G02*
X80817001Y-242383400I-249999J0D01*
G01*
X79516999Y-242383400D01*
G75*
G02*
X79267000Y-242133401I0J249999D01*
G01*
X79267000Y-241433399D01*
G75*
G02*
X79516999Y-241183400I249999J0D01*
G01*
G37*
G36*
G01*
X88637500Y-249756250D02*
X88637500Y-249243750D01*
G75*
G02*
X88856250Y-249025000I218750J0D01*
G01*
X89293750Y-249025000D01*
G75*
G02*
X89512500Y-249243750I0J-218750D01*
G01*
X89512500Y-249756250D01*
G75*
G02*
X89293750Y-249975000I-218750J0D01*
G01*
X88856250Y-249975000D01*
G75*
G02*
X88637500Y-249756250I0J218750D01*
G01*
G37*
G36*
G01*
X87062500Y-249756250D02*
X87062500Y-249243750D01*
G75*
G02*
X87281250Y-249025000I218750J0D01*
G01*
X87718750Y-249025000D01*
G75*
G02*
X87937500Y-249243750I0J-218750D01*
G01*
X87937500Y-249756250D01*
G75*
G02*
X87718750Y-249975000I-218750J0D01*
G01*
X87281250Y-249975000D01*
G75*
G02*
X87062500Y-249756250I0J218750D01*
G01*
G37*
G36*
G01*
X199650000Y-249243750D02*
X199650000Y-249756250D01*
G75*
G02*
X199431250Y-249975000I-218750J0D01*
G01*
X198993750Y-249975000D01*
G75*
G02*
X198775000Y-249756250I0J218750D01*
G01*
X198775000Y-249243750D01*
G75*
G02*
X198993750Y-249025000I218750J0D01*
G01*
X199431250Y-249025000D01*
G75*
G02*
X199650000Y-249243750I0J-218750D01*
G01*
G37*
G36*
G01*
X201225000Y-249243750D02*
X201225000Y-249756250D01*
G75*
G02*
X201006250Y-249975000I-218750J0D01*
G01*
X200568750Y-249975000D01*
G75*
G02*
X200350000Y-249756250I0J218750D01*
G01*
X200350000Y-249243750D01*
G75*
G02*
X200568750Y-249025000I218750J0D01*
G01*
X201006250Y-249025000D01*
G75*
G02*
X201225000Y-249243750I0J-218750D01*
G01*
G37*
G36*
G01*
X197419250Y-231236000D02*
X197931750Y-231236000D01*
G75*
G02*
X198150500Y-231454750I0J-218750D01*
G01*
X198150500Y-231892250D01*
G75*
G02*
X197931750Y-232111000I-218750J0D01*
G01*
X197419250Y-232111000D01*
G75*
G02*
X197200500Y-231892250I0J218750D01*
G01*
X197200500Y-231454750D01*
G75*
G02*
X197419250Y-231236000I218750J0D01*
G01*
G37*
G36*
G01*
X197419250Y-229661000D02*
X197931750Y-229661000D01*
G75*
G02*
X198150500Y-229879750I0J-218750D01*
G01*
X198150500Y-230317250D01*
G75*
G02*
X197931750Y-230536000I-218750J0D01*
G01*
X197419250Y-230536000D01*
G75*
G02*
X197200500Y-230317250I0J218750D01*
G01*
X197200500Y-229879750D01*
G75*
G02*
X197419250Y-229661000I218750J0D01*
G01*
G37*
G36*
G01*
X104288197Y-233596047D02*
X104800697Y-233596047D01*
G75*
G02*
X105019447Y-233814797I0J-218750D01*
G01*
X105019447Y-234252297D01*
G75*
G02*
X104800697Y-234471047I-218750J0D01*
G01*
X104288197Y-234471047D01*
G75*
G02*
X104069447Y-234252297I0J218750D01*
G01*
X104069447Y-233814797D01*
G75*
G02*
X104288197Y-233596047I218750J0D01*
G01*
G37*
G36*
G01*
X104288197Y-235171047D02*
X104800697Y-235171047D01*
G75*
G02*
X105019447Y-235389797I0J-218750D01*
G01*
X105019447Y-235827297D01*
G75*
G02*
X104800697Y-236046047I-218750J0D01*
G01*
X104288197Y-236046047D01*
G75*
G02*
X104069447Y-235827297I0J218750D01*
G01*
X104069447Y-235389797D01*
G75*
G02*
X104288197Y-235171047I218750J0D01*
G01*
G37*
G36*
G01*
X112277350Y-235133700D02*
X112789850Y-235133700D01*
G75*
G02*
X113008600Y-235352450I0J-218750D01*
G01*
X113008600Y-235789950D01*
G75*
G02*
X112789850Y-236008700I-218750J0D01*
G01*
X112277350Y-236008700D01*
G75*
G02*
X112058600Y-235789950I0J218750D01*
G01*
X112058600Y-235352450D01*
G75*
G02*
X112277350Y-235133700I218750J0D01*
G01*
G37*
G36*
G01*
X112277350Y-233558700D02*
X112789850Y-233558700D01*
G75*
G02*
X113008600Y-233777450I0J-218750D01*
G01*
X113008600Y-234214950D01*
G75*
G02*
X112789850Y-234433700I-218750J0D01*
G01*
X112277350Y-234433700D01*
G75*
G02*
X112058600Y-234214950I0J218750D01*
G01*
X112058600Y-233777450D01*
G75*
G02*
X112277350Y-233558700I218750J0D01*
G01*
G37*
G36*
G01*
X162650500Y-203982750D02*
X162650500Y-204495250D01*
G75*
G02*
X162431750Y-204714000I-218750J0D01*
G01*
X161994250Y-204714000D01*
G75*
G02*
X161775500Y-204495250I0J218750D01*
G01*
X161775500Y-203982750D01*
G75*
G02*
X161994250Y-203764000I218750J0D01*
G01*
X162431750Y-203764000D01*
G75*
G02*
X162650500Y-203982750I0J-218750D01*
G01*
G37*
G36*
G01*
X164225500Y-203982750D02*
X164225500Y-204495250D01*
G75*
G02*
X164006750Y-204714000I-218750J0D01*
G01*
X163569250Y-204714000D01*
G75*
G02*
X163350500Y-204495250I0J218750D01*
G01*
X163350500Y-203982750D01*
G75*
G02*
X163569250Y-203764000I218750J0D01*
G01*
X164006750Y-203764000D01*
G75*
G02*
X164225500Y-203982750I0J-218750D01*
G01*
G37*
G36*
G01*
X169693750Y-217737500D02*
X170206250Y-217737500D01*
G75*
G02*
X170425000Y-217956250I0J-218750D01*
G01*
X170425000Y-218393750D01*
G75*
G02*
X170206250Y-218612500I-218750J0D01*
G01*
X169693750Y-218612500D01*
G75*
G02*
X169475000Y-218393750I0J218750D01*
G01*
X169475000Y-217956250D01*
G75*
G02*
X169693750Y-217737500I218750J0D01*
G01*
G37*
G36*
G01*
X169693750Y-219312500D02*
X170206250Y-219312500D01*
G75*
G02*
X170425000Y-219531250I0J-218750D01*
G01*
X170425000Y-219968750D01*
G75*
G02*
X170206250Y-220187500I-218750J0D01*
G01*
X169693750Y-220187500D01*
G75*
G02*
X169475000Y-219968750I0J218750D01*
G01*
X169475000Y-219531250D01*
G75*
G02*
X169693750Y-219312500I218750J0D01*
G01*
G37*
G36*
G01*
X101250000Y-228216750D02*
X101250000Y-228729250D01*
G75*
G02*
X101031250Y-228948000I-218750J0D01*
G01*
X100593750Y-228948000D01*
G75*
G02*
X100375000Y-228729250I0J218750D01*
G01*
X100375000Y-228216750D01*
G75*
G02*
X100593750Y-227998000I218750J0D01*
G01*
X101031250Y-227998000D01*
G75*
G02*
X101250000Y-228216750I0J-218750D01*
G01*
G37*
G36*
G01*
X102825000Y-228216750D02*
X102825000Y-228729250D01*
G75*
G02*
X102606250Y-228948000I-218750J0D01*
G01*
X102168750Y-228948000D01*
G75*
G02*
X101950000Y-228729250I0J218750D01*
G01*
X101950000Y-228216750D01*
G75*
G02*
X102168750Y-227998000I218750J0D01*
G01*
X102606250Y-227998000D01*
G75*
G02*
X102825000Y-228216750I0J-218750D01*
G01*
G37*
G36*
G01*
X105475000Y-245456250D02*
X105475000Y-244943750D01*
G75*
G02*
X105693750Y-244725000I218750J0D01*
G01*
X106131250Y-244725000D01*
G75*
G02*
X106350000Y-244943750I0J-218750D01*
G01*
X106350000Y-245456250D01*
G75*
G02*
X106131250Y-245675000I-218750J0D01*
G01*
X105693750Y-245675000D01*
G75*
G02*
X105475000Y-245456250I0J218750D01*
G01*
G37*
G36*
G01*
X107050000Y-245456250D02*
X107050000Y-244943750D01*
G75*
G02*
X107268750Y-244725000I218750J0D01*
G01*
X107706250Y-244725000D01*
G75*
G02*
X107925000Y-244943750I0J-218750D01*
G01*
X107925000Y-245456250D01*
G75*
G02*
X107706250Y-245675000I-218750J0D01*
G01*
X107268750Y-245675000D01*
G75*
G02*
X107050000Y-245456250I0J218750D01*
G01*
G37*
G36*
G01*
X102799500Y-231899750D02*
X102799500Y-232412250D01*
G75*
G02*
X102580750Y-232631000I-218750J0D01*
G01*
X102143250Y-232631000D01*
G75*
G02*
X101924500Y-232412250I0J218750D01*
G01*
X101924500Y-231899750D01*
G75*
G02*
X102143250Y-231681000I218750J0D01*
G01*
X102580750Y-231681000D01*
G75*
G02*
X102799500Y-231899750I0J-218750D01*
G01*
G37*
G36*
G01*
X101224500Y-231899750D02*
X101224500Y-232412250D01*
G75*
G02*
X101005750Y-232631000I-218750J0D01*
G01*
X100568250Y-232631000D01*
G75*
G02*
X100349500Y-232412250I0J218750D01*
G01*
X100349500Y-231899750D01*
G75*
G02*
X100568250Y-231681000I218750J0D01*
G01*
X101005750Y-231681000D01*
G75*
G02*
X101224500Y-231899750I0J-218750D01*
G01*
G37*
G36*
G01*
X118948500Y-219507750D02*
X118948500Y-220420250D01*
G75*
G02*
X118704750Y-220664000I-243750J0D01*
G01*
X118217250Y-220664000D01*
G75*
G02*
X117973500Y-220420250I0J243750D01*
G01*
X117973500Y-219507750D01*
G75*
G02*
X118217250Y-219264000I243750J0D01*
G01*
X118704750Y-219264000D01*
G75*
G02*
X118948500Y-219507750I0J-243750D01*
G01*
G37*
G36*
G01*
X117073500Y-219507750D02*
X117073500Y-220420250D01*
G75*
G02*
X116829750Y-220664000I-243750J0D01*
G01*
X116342250Y-220664000D01*
G75*
G02*
X116098500Y-220420250I0J243750D01*
G01*
X116098500Y-219507750D01*
G75*
G02*
X116342250Y-219264000I243750J0D01*
G01*
X116829750Y-219264000D01*
G75*
G02*
X117073500Y-219507750I0J-243750D01*
G01*
G37*
G36*
G01*
X105509000Y-229564250D02*
X105509000Y-228651750D01*
G75*
G02*
X105752750Y-228408000I243750J0D01*
G01*
X106240250Y-228408000D01*
G75*
G02*
X106484000Y-228651750I0J-243750D01*
G01*
X106484000Y-229564250D01*
G75*
G02*
X106240250Y-229808000I-243750J0D01*
G01*
X105752750Y-229808000D01*
G75*
G02*
X105509000Y-229564250I0J243750D01*
G01*
G37*
G36*
G01*
X107384000Y-229564250D02*
X107384000Y-228651750D01*
G75*
G02*
X107627750Y-228408000I243750J0D01*
G01*
X108115250Y-228408000D01*
G75*
G02*
X108359000Y-228651750I0J-243750D01*
G01*
X108359000Y-229564250D01*
G75*
G02*
X108115250Y-229808000I-243750J0D01*
G01*
X107627750Y-229808000D01*
G75*
G02*
X107384000Y-229564250I0J243750D01*
G01*
G37*
G36*
G01*
X99675000Y-245256250D02*
X99675000Y-244743750D01*
G75*
G02*
X99893750Y-244525000I218750J0D01*
G01*
X100331250Y-244525000D01*
G75*
G02*
X100550000Y-244743750I0J-218750D01*
G01*
X100550000Y-245256250D01*
G75*
G02*
X100331250Y-245475000I-218750J0D01*
G01*
X99893750Y-245475000D01*
G75*
G02*
X99675000Y-245256250I0J218750D01*
G01*
G37*
G36*
G01*
X101250000Y-245256250D02*
X101250000Y-244743750D01*
G75*
G02*
X101468750Y-244525000I218750J0D01*
G01*
X101906250Y-244525000D01*
G75*
G02*
X102125000Y-244743750I0J-218750D01*
G01*
X102125000Y-245256250D01*
G75*
G02*
X101906250Y-245475000I-218750J0D01*
G01*
X101468750Y-245475000D01*
G75*
G02*
X101250000Y-245256250I0J218750D01*
G01*
G37*
G36*
G01*
X157906250Y-215500000D02*
X157393750Y-215500000D01*
G75*
G02*
X157175000Y-215281250I0J218750D01*
G01*
X157175000Y-214843750D01*
G75*
G02*
X157393750Y-214625000I218750J0D01*
G01*
X157906250Y-214625000D01*
G75*
G02*
X158125000Y-214843750I0J-218750D01*
G01*
X158125000Y-215281250D01*
G75*
G02*
X157906250Y-215500000I-218750J0D01*
G01*
G37*
G36*
G01*
X157906250Y-217075000D02*
X157393750Y-217075000D01*
G75*
G02*
X157175000Y-216856250I0J218750D01*
G01*
X157175000Y-216418750D01*
G75*
G02*
X157393750Y-216200000I218750J0D01*
G01*
X157906250Y-216200000D01*
G75*
G02*
X158125000Y-216418750I0J-218750D01*
G01*
X158125000Y-216856250D01*
G75*
G02*
X157906250Y-217075000I-218750J0D01*
G01*
G37*
G36*
G01*
X95051750Y-238287500D02*
X95564250Y-238287500D01*
G75*
G02*
X95783000Y-238506250I0J-218750D01*
G01*
X95783000Y-238943750D01*
G75*
G02*
X95564250Y-239162500I-218750J0D01*
G01*
X95051750Y-239162500D01*
G75*
G02*
X94833000Y-238943750I0J218750D01*
G01*
X94833000Y-238506250D01*
G75*
G02*
X95051750Y-238287500I218750J0D01*
G01*
G37*
G36*
G01*
X95051750Y-239862500D02*
X95564250Y-239862500D01*
G75*
G02*
X95783000Y-240081250I0J-218750D01*
G01*
X95783000Y-240518750D01*
G75*
G02*
X95564250Y-240737500I-218750J0D01*
G01*
X95051750Y-240737500D01*
G75*
G02*
X94833000Y-240518750I0J218750D01*
G01*
X94833000Y-240081250D01*
G75*
G02*
X95051750Y-239862500I218750J0D01*
G01*
G37*
G36*
G01*
X123794000Y-228475250D02*
X123794000Y-227962750D01*
G75*
G02*
X124012750Y-227744000I218750J0D01*
G01*
X124450250Y-227744000D01*
G75*
G02*
X124669000Y-227962750I0J-218750D01*
G01*
X124669000Y-228475250D01*
G75*
G02*
X124450250Y-228694000I-218750J0D01*
G01*
X124012750Y-228694000D01*
G75*
G02*
X123794000Y-228475250I0J218750D01*
G01*
G37*
G36*
G01*
X122219000Y-228475250D02*
X122219000Y-227962750D01*
G75*
G02*
X122437750Y-227744000I218750J0D01*
G01*
X122875250Y-227744000D01*
G75*
G02*
X123094000Y-227962750I0J-218750D01*
G01*
X123094000Y-228475250D01*
G75*
G02*
X122875250Y-228694000I-218750J0D01*
G01*
X122437750Y-228694000D01*
G75*
G02*
X122219000Y-228475250I0J218750D01*
G01*
G37*
G36*
G01*
X123794000Y-225249450D02*
X123794000Y-224736950D01*
G75*
G02*
X124012750Y-224518200I218750J0D01*
G01*
X124450250Y-224518200D01*
G75*
G02*
X124669000Y-224736950I0J-218750D01*
G01*
X124669000Y-225249450D01*
G75*
G02*
X124450250Y-225468200I-218750J0D01*
G01*
X124012750Y-225468200D01*
G75*
G02*
X123794000Y-225249450I0J218750D01*
G01*
G37*
G36*
G01*
X122219000Y-225249450D02*
X122219000Y-224736950D01*
G75*
G02*
X122437750Y-224518200I218750J0D01*
G01*
X122875250Y-224518200D01*
G75*
G02*
X123094000Y-224736950I0J-218750D01*
G01*
X123094000Y-225249450D01*
G75*
G02*
X122875250Y-225468200I-218750J0D01*
G01*
X122437750Y-225468200D01*
G75*
G02*
X122219000Y-225249450I0J218750D01*
G01*
G37*
G36*
G01*
X123068700Y-218323450D02*
X123068700Y-218835950D01*
G75*
G02*
X122849950Y-219054700I-218750J0D01*
G01*
X122412450Y-219054700D01*
G75*
G02*
X122193700Y-218835950I0J218750D01*
G01*
X122193700Y-218323450D01*
G75*
G02*
X122412450Y-218104700I218750J0D01*
G01*
X122849950Y-218104700D01*
G75*
G02*
X123068700Y-218323450I0J-218750D01*
G01*
G37*
G36*
G01*
X124643700Y-218323450D02*
X124643700Y-218835950D01*
G75*
G02*
X124424950Y-219054700I-218750J0D01*
G01*
X123987450Y-219054700D01*
G75*
G02*
X123768700Y-218835950I0J218750D01*
G01*
X123768700Y-218323450D01*
G75*
G02*
X123987450Y-218104700I218750J0D01*
G01*
X124424950Y-218104700D01*
G75*
G02*
X124643700Y-218323450I0J-218750D01*
G01*
G37*
G36*
G01*
X124669000Y-221511150D02*
X124669000Y-222023650D01*
G75*
G02*
X124450250Y-222242400I-218750J0D01*
G01*
X124012750Y-222242400D01*
G75*
G02*
X123794000Y-222023650I0J218750D01*
G01*
X123794000Y-221511150D01*
G75*
G02*
X124012750Y-221292400I218750J0D01*
G01*
X124450250Y-221292400D01*
G75*
G02*
X124669000Y-221511150I0J-218750D01*
G01*
G37*
G36*
G01*
X123094000Y-221511150D02*
X123094000Y-222023650D01*
G75*
G02*
X122875250Y-222242400I-218750J0D01*
G01*
X122437750Y-222242400D01*
G75*
G02*
X122219000Y-222023650I0J218750D01*
G01*
X122219000Y-221511150D01*
G75*
G02*
X122437750Y-221292400I218750J0D01*
G01*
X122875250Y-221292400D01*
G75*
G02*
X123094000Y-221511150I0J-218750D01*
G01*
G37*
G36*
G01*
X123794000Y-234088650D02*
X123794000Y-233576150D01*
G75*
G02*
X124012750Y-233357400I218750J0D01*
G01*
X124450250Y-233357400D01*
G75*
G02*
X124669000Y-233576150I0J-218750D01*
G01*
X124669000Y-234088650D01*
G75*
G02*
X124450250Y-234307400I-218750J0D01*
G01*
X124012750Y-234307400D01*
G75*
G02*
X123794000Y-234088650I0J218750D01*
G01*
G37*
G36*
G01*
X122219000Y-234088650D02*
X122219000Y-233576150D01*
G75*
G02*
X122437750Y-233357400I218750J0D01*
G01*
X122875250Y-233357400D01*
G75*
G02*
X123094000Y-233576150I0J-218750D01*
G01*
X123094000Y-234088650D01*
G75*
G02*
X122875250Y-234307400I-218750J0D01*
G01*
X122437750Y-234307400D01*
G75*
G02*
X122219000Y-234088650I0J218750D01*
G01*
G37*
G36*
G01*
X148062500Y-233156250D02*
X148062500Y-232643750D01*
G75*
G02*
X148281250Y-232425000I218750J0D01*
G01*
X148718750Y-232425000D01*
G75*
G02*
X148937500Y-232643750I0J-218750D01*
G01*
X148937500Y-233156250D01*
G75*
G02*
X148718750Y-233375000I-218750J0D01*
G01*
X148281250Y-233375000D01*
G75*
G02*
X148062500Y-233156250I0J218750D01*
G01*
G37*
G36*
G01*
X149637500Y-233156250D02*
X149637500Y-232643750D01*
G75*
G02*
X149856250Y-232425000I218750J0D01*
G01*
X150293750Y-232425000D01*
G75*
G02*
X150512500Y-232643750I0J-218750D01*
G01*
X150512500Y-233156250D01*
G75*
G02*
X150293750Y-233375000I-218750J0D01*
G01*
X149856250Y-233375000D01*
G75*
G02*
X149637500Y-233156250I0J218750D01*
G01*
G37*
G36*
G01*
X137353750Y-240827500D02*
X137866250Y-240827500D01*
G75*
G02*
X138085000Y-241046250I0J-218750D01*
G01*
X138085000Y-241483750D01*
G75*
G02*
X137866250Y-241702500I-218750J0D01*
G01*
X137353750Y-241702500D01*
G75*
G02*
X137135000Y-241483750I0J218750D01*
G01*
X137135000Y-241046250D01*
G75*
G02*
X137353750Y-240827500I218750J0D01*
G01*
G37*
G36*
G01*
X137353750Y-239252500D02*
X137866250Y-239252500D01*
G75*
G02*
X138085000Y-239471250I0J-218750D01*
G01*
X138085000Y-239908750D01*
G75*
G02*
X137866250Y-240127500I-218750J0D01*
G01*
X137353750Y-240127500D01*
G75*
G02*
X137135000Y-239908750I0J218750D01*
G01*
X137135000Y-239471250D01*
G75*
G02*
X137353750Y-239252500I218750J0D01*
G01*
G37*
G36*
G01*
X147028750Y-240837500D02*
X147541250Y-240837500D01*
G75*
G02*
X147760000Y-241056250I0J-218750D01*
G01*
X147760000Y-241493750D01*
G75*
G02*
X147541250Y-241712500I-218750J0D01*
G01*
X147028750Y-241712500D01*
G75*
G02*
X146810000Y-241493750I0J218750D01*
G01*
X146810000Y-241056250D01*
G75*
G02*
X147028750Y-240837500I218750J0D01*
G01*
G37*
G36*
G01*
X147028750Y-239262500D02*
X147541250Y-239262500D01*
G75*
G02*
X147760000Y-239481250I0J-218750D01*
G01*
X147760000Y-239918750D01*
G75*
G02*
X147541250Y-240137500I-218750J0D01*
G01*
X147028750Y-240137500D01*
G75*
G02*
X146810000Y-239918750I0J218750D01*
G01*
X146810000Y-239481250D01*
G75*
G02*
X147028750Y-239262500I218750J0D01*
G01*
G37*
G36*
G01*
X151937500Y-226256250D02*
X151937500Y-225743750D01*
G75*
G02*
X152156250Y-225525000I218750J0D01*
G01*
X152593750Y-225525000D01*
G75*
G02*
X152812500Y-225743750I0J-218750D01*
G01*
X152812500Y-226256250D01*
G75*
G02*
X152593750Y-226475000I-218750J0D01*
G01*
X152156250Y-226475000D01*
G75*
G02*
X151937500Y-226256250I0J218750D01*
G01*
G37*
G36*
G01*
X150362500Y-226256250D02*
X150362500Y-225743750D01*
G75*
G02*
X150581250Y-225525000I218750J0D01*
G01*
X151018750Y-225525000D01*
G75*
G02*
X151237500Y-225743750I0J-218750D01*
G01*
X151237500Y-226256250D01*
G75*
G02*
X151018750Y-226475000I-218750J0D01*
G01*
X150581250Y-226475000D01*
G75*
G02*
X150362500Y-226256250I0J218750D01*
G01*
G37*
G36*
G01*
X150375000Y-227856250D02*
X150375000Y-227343750D01*
G75*
G02*
X150593750Y-227125000I218750J0D01*
G01*
X151031250Y-227125000D01*
G75*
G02*
X151250000Y-227343750I0J-218750D01*
G01*
X151250000Y-227856250D01*
G75*
G02*
X151031250Y-228075000I-218750J0D01*
G01*
X150593750Y-228075000D01*
G75*
G02*
X150375000Y-227856250I0J218750D01*
G01*
G37*
G36*
G01*
X151950000Y-227856250D02*
X151950000Y-227343750D01*
G75*
G02*
X152168750Y-227125000I218750J0D01*
G01*
X152606250Y-227125000D01*
G75*
G02*
X152825000Y-227343750I0J-218750D01*
G01*
X152825000Y-227856250D01*
G75*
G02*
X152606250Y-228075000I-218750J0D01*
G01*
X152168750Y-228075000D01*
G75*
G02*
X151950000Y-227856250I0J218750D01*
G01*
G37*
G36*
G01*
X151837500Y-230656250D02*
X151837500Y-230143750D01*
G75*
G02*
X152056250Y-229925000I218750J0D01*
G01*
X152493750Y-229925000D01*
G75*
G02*
X152712500Y-230143750I0J-218750D01*
G01*
X152712500Y-230656250D01*
G75*
G02*
X152493750Y-230875000I-218750J0D01*
G01*
X152056250Y-230875000D01*
G75*
G02*
X151837500Y-230656250I0J218750D01*
G01*
G37*
G36*
G01*
X150262500Y-230656250D02*
X150262500Y-230143750D01*
G75*
G02*
X150481250Y-229925000I218750J0D01*
G01*
X150918750Y-229925000D01*
G75*
G02*
X151137500Y-230143750I0J-218750D01*
G01*
X151137500Y-230656250D01*
G75*
G02*
X150918750Y-230875000I-218750J0D01*
G01*
X150481250Y-230875000D01*
G75*
G02*
X150262500Y-230656250I0J218750D01*
G01*
G37*
G36*
G01*
X140663750Y-240860000D02*
X141176250Y-240860000D01*
G75*
G02*
X141395000Y-241078750I0J-218750D01*
G01*
X141395000Y-241516250D01*
G75*
G02*
X141176250Y-241735000I-218750J0D01*
G01*
X140663750Y-241735000D01*
G75*
G02*
X140445000Y-241516250I0J218750D01*
G01*
X140445000Y-241078750D01*
G75*
G02*
X140663750Y-240860000I218750J0D01*
G01*
G37*
G36*
G01*
X140663750Y-239285000D02*
X141176250Y-239285000D01*
G75*
G02*
X141395000Y-239503750I0J-218750D01*
G01*
X141395000Y-239941250D01*
G75*
G02*
X141176250Y-240160000I-218750J0D01*
G01*
X140663750Y-240160000D01*
G75*
G02*
X140445000Y-239941250I0J218750D01*
G01*
X140445000Y-239503750D01*
G75*
G02*
X140663750Y-239285000I218750J0D01*
G01*
G37*
G36*
G01*
X150226750Y-239236500D02*
X150739250Y-239236500D01*
G75*
G02*
X150958000Y-239455250I0J-218750D01*
G01*
X150958000Y-239892750D01*
G75*
G02*
X150739250Y-240111500I-218750J0D01*
G01*
X150226750Y-240111500D01*
G75*
G02*
X150008000Y-239892750I0J218750D01*
G01*
X150008000Y-239455250D01*
G75*
G02*
X150226750Y-239236500I218750J0D01*
G01*
G37*
G36*
G01*
X150226750Y-240811500D02*
X150739250Y-240811500D01*
G75*
G02*
X150958000Y-241030250I0J-218750D01*
G01*
X150958000Y-241467750D01*
G75*
G02*
X150739250Y-241686500I-218750J0D01*
G01*
X150226750Y-241686500D01*
G75*
G02*
X150008000Y-241467750I0J218750D01*
G01*
X150008000Y-241030250D01*
G75*
G02*
X150226750Y-240811500I218750J0D01*
G01*
G37*
G36*
G01*
X141037500Y-232743750D02*
X141037500Y-233256250D01*
G75*
G02*
X140818750Y-233475000I-218750J0D01*
G01*
X140381250Y-233475000D01*
G75*
G02*
X140162500Y-233256250I0J218750D01*
G01*
X140162500Y-232743750D01*
G75*
G02*
X140381250Y-232525000I218750J0D01*
G01*
X140818750Y-232525000D01*
G75*
G02*
X141037500Y-232743750I0J-218750D01*
G01*
G37*
G36*
G01*
X139462500Y-232743750D02*
X139462500Y-233256250D01*
G75*
G02*
X139243750Y-233475000I-218750J0D01*
G01*
X138806250Y-233475000D01*
G75*
G02*
X138587500Y-233256250I0J218750D01*
G01*
X138587500Y-232743750D01*
G75*
G02*
X138806250Y-232525000I218750J0D01*
G01*
X139243750Y-232525000D01*
G75*
G02*
X139462500Y-232743750I0J-218750D01*
G01*
G37*
G36*
G01*
X143761750Y-239338500D02*
X144274250Y-239338500D01*
G75*
G02*
X144493000Y-239557250I0J-218750D01*
G01*
X144493000Y-239994750D01*
G75*
G02*
X144274250Y-240213500I-218750J0D01*
G01*
X143761750Y-240213500D01*
G75*
G02*
X143543000Y-239994750I0J218750D01*
G01*
X143543000Y-239557250D01*
G75*
G02*
X143761750Y-239338500I218750J0D01*
G01*
G37*
G36*
G01*
X143761750Y-240913500D02*
X144274250Y-240913500D01*
G75*
G02*
X144493000Y-241132250I0J-218750D01*
G01*
X144493000Y-241569750D01*
G75*
G02*
X144274250Y-241788500I-218750J0D01*
G01*
X143761750Y-241788500D01*
G75*
G02*
X143543000Y-241569750I0J218750D01*
G01*
X143543000Y-241132250D01*
G75*
G02*
X143761750Y-240913500I218750J0D01*
G01*
G37*
G36*
G01*
X153515250Y-239275000D02*
X154027750Y-239275000D01*
G75*
G02*
X154246500Y-239493750I0J-218750D01*
G01*
X154246500Y-239931250D01*
G75*
G02*
X154027750Y-240150000I-218750J0D01*
G01*
X153515250Y-240150000D01*
G75*
G02*
X153296500Y-239931250I0J218750D01*
G01*
X153296500Y-239493750D01*
G75*
G02*
X153515250Y-239275000I218750J0D01*
G01*
G37*
G36*
G01*
X153515250Y-240850000D02*
X154027750Y-240850000D01*
G75*
G02*
X154246500Y-241068750I0J-218750D01*
G01*
X154246500Y-241506250D01*
G75*
G02*
X154027750Y-241725000I-218750J0D01*
G01*
X153515250Y-241725000D01*
G75*
G02*
X153296500Y-241506250I0J218750D01*
G01*
X153296500Y-241068750D01*
G75*
G02*
X153515250Y-240850000I218750J0D01*
G01*
G37*
G36*
G01*
X151343750Y-218450000D02*
X151856250Y-218450000D01*
G75*
G02*
X152075000Y-218668750I0J-218750D01*
G01*
X152075000Y-219106250D01*
G75*
G02*
X151856250Y-219325000I-218750J0D01*
G01*
X151343750Y-219325000D01*
G75*
G02*
X151125000Y-219106250I0J218750D01*
G01*
X151125000Y-218668750D01*
G75*
G02*
X151343750Y-218450000I218750J0D01*
G01*
G37*
G36*
G01*
X151343750Y-216875000D02*
X151856250Y-216875000D01*
G75*
G02*
X152075000Y-217093750I0J-218750D01*
G01*
X152075000Y-217531250D01*
G75*
G02*
X151856250Y-217750000I-218750J0D01*
G01*
X151343750Y-217750000D01*
G75*
G02*
X151125000Y-217531250I0J218750D01*
G01*
X151125000Y-217093750D01*
G75*
G02*
X151343750Y-216875000I218750J0D01*
G01*
G37*
G36*
G01*
X145043750Y-218437500D02*
X145556250Y-218437500D01*
G75*
G02*
X145775000Y-218656250I0J-218750D01*
G01*
X145775000Y-219093750D01*
G75*
G02*
X145556250Y-219312500I-218750J0D01*
G01*
X145043750Y-219312500D01*
G75*
G02*
X144825000Y-219093750I0J218750D01*
G01*
X144825000Y-218656250D01*
G75*
G02*
X145043750Y-218437500I218750J0D01*
G01*
G37*
G36*
G01*
X145043750Y-216862500D02*
X145556250Y-216862500D01*
G75*
G02*
X145775000Y-217081250I0J-218750D01*
G01*
X145775000Y-217518750D01*
G75*
G02*
X145556250Y-217737500I-218750J0D01*
G01*
X145043750Y-217737500D01*
G75*
G02*
X144825000Y-217518750I0J218750D01*
G01*
X144825000Y-217081250D01*
G75*
G02*
X145043750Y-216862500I218750J0D01*
G01*
G37*
G36*
G01*
X138843750Y-216887500D02*
X139356250Y-216887500D01*
G75*
G02*
X139575000Y-217106250I0J-218750D01*
G01*
X139575000Y-217543750D01*
G75*
G02*
X139356250Y-217762500I-218750J0D01*
G01*
X138843750Y-217762500D01*
G75*
G02*
X138625000Y-217543750I0J218750D01*
G01*
X138625000Y-217106250D01*
G75*
G02*
X138843750Y-216887500I218750J0D01*
G01*
G37*
G36*
G01*
X138843750Y-218462500D02*
X139356250Y-218462500D01*
G75*
G02*
X139575000Y-218681250I0J-218750D01*
G01*
X139575000Y-219118750D01*
G75*
G02*
X139356250Y-219337500I-218750J0D01*
G01*
X138843750Y-219337500D01*
G75*
G02*
X138625000Y-219118750I0J218750D01*
G01*
X138625000Y-218681250D01*
G75*
G02*
X138843750Y-218462500I218750J0D01*
G01*
G37*
G36*
G01*
X149962500Y-231956250D02*
X149962500Y-231443750D01*
G75*
G02*
X150181250Y-231225000I218750J0D01*
G01*
X150618750Y-231225000D01*
G75*
G02*
X150837500Y-231443750I0J-218750D01*
G01*
X150837500Y-231956250D01*
G75*
G02*
X150618750Y-232175000I-218750J0D01*
G01*
X150181250Y-232175000D01*
G75*
G02*
X149962500Y-231956250I0J218750D01*
G01*
G37*
G36*
G01*
X151537500Y-231956250D02*
X151537500Y-231443750D01*
G75*
G02*
X151756250Y-231225000I218750J0D01*
G01*
X152193750Y-231225000D01*
G75*
G02*
X152412500Y-231443750I0J-218750D01*
G01*
X152412500Y-231956250D01*
G75*
G02*
X152193750Y-232175000I-218750J0D01*
G01*
X151756250Y-232175000D01*
G75*
G02*
X151537500Y-231956250I0J218750D01*
G01*
G37*
G36*
G01*
X148775000Y-224656250D02*
X148775000Y-224143750D01*
G75*
G02*
X148993750Y-223925000I218750J0D01*
G01*
X149431250Y-223925000D01*
G75*
G02*
X149650000Y-224143750I0J-218750D01*
G01*
X149650000Y-224656250D01*
G75*
G02*
X149431250Y-224875000I-218750J0D01*
G01*
X148993750Y-224875000D01*
G75*
G02*
X148775000Y-224656250I0J218750D01*
G01*
G37*
G36*
G01*
X150350000Y-224656250D02*
X150350000Y-224143750D01*
G75*
G02*
X150568750Y-223925000I218750J0D01*
G01*
X151006250Y-223925000D01*
G75*
G02*
X151225000Y-224143750I0J-218750D01*
G01*
X151225000Y-224656250D01*
G75*
G02*
X151006250Y-224875000I-218750J0D01*
G01*
X150568750Y-224875000D01*
G75*
G02*
X150350000Y-224656250I0J218750D01*
G01*
G37*
G36*
G01*
X147212500Y-220093750D02*
X147212500Y-220606250D01*
G75*
G02*
X146993750Y-220825000I-218750J0D01*
G01*
X146556250Y-220825000D01*
G75*
G02*
X146337500Y-220606250I0J218750D01*
G01*
X146337500Y-220093750D01*
G75*
G02*
X146556250Y-219875000I218750J0D01*
G01*
X146993750Y-219875000D01*
G75*
G02*
X147212500Y-220093750I0J-218750D01*
G01*
G37*
G36*
G01*
X148787500Y-220093750D02*
X148787500Y-220606250D01*
G75*
G02*
X148568750Y-220825000I-218750J0D01*
G01*
X148131250Y-220825000D01*
G75*
G02*
X147912500Y-220606250I0J218750D01*
G01*
X147912500Y-220093750D01*
G75*
G02*
X148131250Y-219875000I218750J0D01*
G01*
X148568750Y-219875000D01*
G75*
G02*
X148787500Y-220093750I0J-218750D01*
G01*
G37*
G36*
G01*
X142737500Y-220143750D02*
X142737500Y-220656250D01*
G75*
G02*
X142518750Y-220875000I-218750J0D01*
G01*
X142081250Y-220875000D01*
G75*
G02*
X141862500Y-220656250I0J218750D01*
G01*
X141862500Y-220143750D01*
G75*
G02*
X142081250Y-219925000I218750J0D01*
G01*
X142518750Y-219925000D01*
G75*
G02*
X142737500Y-220143750I0J-218750D01*
G01*
G37*
G36*
G01*
X141162500Y-220143750D02*
X141162500Y-220656250D01*
G75*
G02*
X140943750Y-220875000I-218750J0D01*
G01*
X140506250Y-220875000D01*
G75*
G02*
X140287500Y-220656250I0J218750D01*
G01*
X140287500Y-220143750D01*
G75*
G02*
X140506250Y-219925000I218750J0D01*
G01*
X140943750Y-219925000D01*
G75*
G02*
X141162500Y-220143750I0J-218750D01*
G01*
G37*
G36*
G01*
X136150000Y-220043750D02*
X136150000Y-220556250D01*
G75*
G02*
X135931250Y-220775000I-218750J0D01*
G01*
X135493750Y-220775000D01*
G75*
G02*
X135275000Y-220556250I0J218750D01*
G01*
X135275000Y-220043750D01*
G75*
G02*
X135493750Y-219825000I218750J0D01*
G01*
X135931250Y-219825000D01*
G75*
G02*
X136150000Y-220043750I0J-218750D01*
G01*
G37*
G36*
G01*
X137725000Y-220043750D02*
X137725000Y-220556250D01*
G75*
G02*
X137506250Y-220775000I-218750J0D01*
G01*
X137068750Y-220775000D01*
G75*
G02*
X136850000Y-220556250I0J218750D01*
G01*
X136850000Y-220043750D01*
G75*
G02*
X137068750Y-219825000I218750J0D01*
G01*
X137506250Y-219825000D01*
G75*
G02*
X137725000Y-220043750I0J-218750D01*
G01*
G37*
G36*
G01*
X134725000Y-220043750D02*
X134725000Y-220556250D01*
G75*
G02*
X134506250Y-220775000I-218750J0D01*
G01*
X134068750Y-220775000D01*
G75*
G02*
X133850000Y-220556250I0J218750D01*
G01*
X133850000Y-220043750D01*
G75*
G02*
X134068750Y-219825000I218750J0D01*
G01*
X134506250Y-219825000D01*
G75*
G02*
X134725000Y-220043750I0J-218750D01*
G01*
G37*
G36*
G01*
X133150000Y-220043750D02*
X133150000Y-220556250D01*
G75*
G02*
X132931250Y-220775000I-218750J0D01*
G01*
X132493750Y-220775000D01*
G75*
G02*
X132275000Y-220556250I0J218750D01*
G01*
X132275000Y-220043750D01*
G75*
G02*
X132493750Y-219825000I218750J0D01*
G01*
X132931250Y-219825000D01*
G75*
G02*
X133150000Y-220043750I0J-218750D01*
G01*
G37*
G36*
G01*
X148650000Y-213443750D02*
X148650000Y-213956250D01*
G75*
G02*
X148431250Y-214175000I-218750J0D01*
G01*
X147993750Y-214175000D01*
G75*
G02*
X147775000Y-213956250I0J218750D01*
G01*
X147775000Y-213443750D01*
G75*
G02*
X147993750Y-213225000I218750J0D01*
G01*
X148431250Y-213225000D01*
G75*
G02*
X148650000Y-213443750I0J-218750D01*
G01*
G37*
G36*
G01*
X150225000Y-213443750D02*
X150225000Y-213956250D01*
G75*
G02*
X150006250Y-214175000I-218750J0D01*
G01*
X149568750Y-214175000D01*
G75*
G02*
X149350000Y-213956250I0J218750D01*
G01*
X149350000Y-213443750D01*
G75*
G02*
X149568750Y-213225000I218750J0D01*
G01*
X150006250Y-213225000D01*
G75*
G02*
X150225000Y-213443750I0J-218750D01*
G01*
G37*
G36*
G01*
X144025000Y-213443750D02*
X144025000Y-213956250D01*
G75*
G02*
X143806250Y-214175000I-218750J0D01*
G01*
X143368750Y-214175000D01*
G75*
G02*
X143150000Y-213956250I0J218750D01*
G01*
X143150000Y-213443750D01*
G75*
G02*
X143368750Y-213225000I218750J0D01*
G01*
X143806250Y-213225000D01*
G75*
G02*
X144025000Y-213443750I0J-218750D01*
G01*
G37*
G36*
G01*
X142450000Y-213443750D02*
X142450000Y-213956250D01*
G75*
G02*
X142231250Y-214175000I-218750J0D01*
G01*
X141793750Y-214175000D01*
G75*
G02*
X141575000Y-213956250I0J218750D01*
G01*
X141575000Y-213443750D01*
G75*
G02*
X141793750Y-213225000I218750J0D01*
G01*
X142231250Y-213225000D01*
G75*
G02*
X142450000Y-213443750I0J-218750D01*
G01*
G37*
G36*
G01*
X136350000Y-213543750D02*
X136350000Y-214056250D01*
G75*
G02*
X136131250Y-214275000I-218750J0D01*
G01*
X135693750Y-214275000D01*
G75*
G02*
X135475000Y-214056250I0J218750D01*
G01*
X135475000Y-213543750D01*
G75*
G02*
X135693750Y-213325000I218750J0D01*
G01*
X136131250Y-213325000D01*
G75*
G02*
X136350000Y-213543750I0J-218750D01*
G01*
G37*
G36*
G01*
X137925000Y-213543750D02*
X137925000Y-214056250D01*
G75*
G02*
X137706250Y-214275000I-218750J0D01*
G01*
X137268750Y-214275000D01*
G75*
G02*
X137050000Y-214056250I0J218750D01*
G01*
X137050000Y-213543750D01*
G75*
G02*
X137268750Y-213325000I218750J0D01*
G01*
X137706250Y-213325000D01*
G75*
G02*
X137925000Y-213543750I0J-218750D01*
G01*
G37*
G36*
G01*
X162591000Y-207071250D02*
X162591000Y-207583750D01*
G75*
G02*
X162372250Y-207802500I-218750J0D01*
G01*
X161934750Y-207802500D01*
G75*
G02*
X161716000Y-207583750I0J218750D01*
G01*
X161716000Y-207071250D01*
G75*
G02*
X161934750Y-206852500I218750J0D01*
G01*
X162372250Y-206852500D01*
G75*
G02*
X162591000Y-207071250I0J-218750D01*
G01*
G37*
G36*
G01*
X164166000Y-207071250D02*
X164166000Y-207583750D01*
G75*
G02*
X163947250Y-207802500I-218750J0D01*
G01*
X163509750Y-207802500D01*
G75*
G02*
X163291000Y-207583750I0J218750D01*
G01*
X163291000Y-207071250D01*
G75*
G02*
X163509750Y-206852500I218750J0D01*
G01*
X163947250Y-206852500D01*
G75*
G02*
X164166000Y-207071250I0J-218750D01*
G01*
G37*
G36*
G01*
X191391250Y-240772500D02*
X190878750Y-240772500D01*
G75*
G02*
X190660000Y-240553750I0J218750D01*
G01*
X190660000Y-240116250D01*
G75*
G02*
X190878750Y-239897500I218750J0D01*
G01*
X191391250Y-239897500D01*
G75*
G02*
X191610000Y-240116250I0J-218750D01*
G01*
X191610000Y-240553750D01*
G75*
G02*
X191391250Y-240772500I-218750J0D01*
G01*
G37*
G36*
G01*
X191391250Y-239197500D02*
X190878750Y-239197500D01*
G75*
G02*
X190660000Y-238978750I0J218750D01*
G01*
X190660000Y-238541250D01*
G75*
G02*
X190878750Y-238322500I218750J0D01*
G01*
X191391250Y-238322500D01*
G75*
G02*
X191610000Y-238541250I0J-218750D01*
G01*
X191610000Y-238978750D01*
G75*
G02*
X191391250Y-239197500I-218750J0D01*
G01*
G37*
G36*
G01*
X196057000Y-219458250D02*
X196057000Y-218945750D01*
G75*
G02*
X196275750Y-218727000I218750J0D01*
G01*
X196713250Y-218727000D01*
G75*
G02*
X196932000Y-218945750I0J-218750D01*
G01*
X196932000Y-219458250D01*
G75*
G02*
X196713250Y-219677000I-218750J0D01*
G01*
X196275750Y-219677000D01*
G75*
G02*
X196057000Y-219458250I0J218750D01*
G01*
G37*
G36*
G01*
X194482000Y-219458250D02*
X194482000Y-218945750D01*
G75*
G02*
X194700750Y-218727000I218750J0D01*
G01*
X195138250Y-218727000D01*
G75*
G02*
X195357000Y-218945750I0J-218750D01*
G01*
X195357000Y-219458250D01*
G75*
G02*
X195138250Y-219677000I-218750J0D01*
G01*
X194700750Y-219677000D01*
G75*
G02*
X194482000Y-219458250I0J218750D01*
G01*
G37*
G36*
G01*
X197530000Y-219521750D02*
X197530000Y-219009250D01*
G75*
G02*
X197748750Y-218790500I218750J0D01*
G01*
X198186250Y-218790500D01*
G75*
G02*
X198405000Y-219009250I0J-218750D01*
G01*
X198405000Y-219521750D01*
G75*
G02*
X198186250Y-219740500I-218750J0D01*
G01*
X197748750Y-219740500D01*
G75*
G02*
X197530000Y-219521750I0J218750D01*
G01*
G37*
G36*
G01*
X199105000Y-219521750D02*
X199105000Y-219009250D01*
G75*
G02*
X199323750Y-218790500I218750J0D01*
G01*
X199761250Y-218790500D01*
G75*
G02*
X199980000Y-219009250I0J-218750D01*
G01*
X199980000Y-219521750D01*
G75*
G02*
X199761250Y-219740500I-218750J0D01*
G01*
X199323750Y-219740500D01*
G75*
G02*
X199105000Y-219521750I0J218750D01*
G01*
G37*
G36*
G01*
X195895250Y-233585500D02*
X196407750Y-233585500D01*
G75*
G02*
X196626500Y-233804250I0J-218750D01*
G01*
X196626500Y-234241750D01*
G75*
G02*
X196407750Y-234460500I-218750J0D01*
G01*
X195895250Y-234460500D01*
G75*
G02*
X195676500Y-234241750I0J218750D01*
G01*
X195676500Y-233804250D01*
G75*
G02*
X195895250Y-233585500I218750J0D01*
G01*
G37*
G36*
G01*
X195895250Y-232010500D02*
X196407750Y-232010500D01*
G75*
G02*
X196626500Y-232229250I0J-218750D01*
G01*
X196626500Y-232666750D01*
G75*
G02*
X196407750Y-232885500I-218750J0D01*
G01*
X195895250Y-232885500D01*
G75*
G02*
X195676500Y-232666750I0J218750D01*
G01*
X195676500Y-232229250D01*
G75*
G02*
X195895250Y-232010500I218750J0D01*
G01*
G37*
G36*
G01*
X195739500Y-217680250D02*
X195739500Y-217167750D01*
G75*
G02*
X195958250Y-216949000I218750J0D01*
G01*
X196395750Y-216949000D01*
G75*
G02*
X196614500Y-217167750I0J-218750D01*
G01*
X196614500Y-217680250D01*
G75*
G02*
X196395750Y-217899000I-218750J0D01*
G01*
X195958250Y-217899000D01*
G75*
G02*
X195739500Y-217680250I0J218750D01*
G01*
G37*
G36*
G01*
X194164500Y-217680250D02*
X194164500Y-217167750D01*
G75*
G02*
X194383250Y-216949000I218750J0D01*
G01*
X194820750Y-216949000D01*
G75*
G02*
X195039500Y-217167750I0J-218750D01*
G01*
X195039500Y-217680250D01*
G75*
G02*
X194820750Y-217899000I-218750J0D01*
G01*
X194383250Y-217899000D01*
G75*
G02*
X194164500Y-217680250I0J218750D01*
G01*
G37*
G36*
G01*
X96243750Y-245587500D02*
X96756250Y-245587500D01*
G75*
G02*
X96975000Y-245806250I0J-218750D01*
G01*
X96975000Y-246243750D01*
G75*
G02*
X96756250Y-246462500I-218750J0D01*
G01*
X96243750Y-246462500D01*
G75*
G02*
X96025000Y-246243750I0J218750D01*
G01*
X96025000Y-245806250D01*
G75*
G02*
X96243750Y-245587500I218750J0D01*
G01*
G37*
G36*
G01*
X96243750Y-247162500D02*
X96756250Y-247162500D01*
G75*
G02*
X96975000Y-247381250I0J-218750D01*
G01*
X96975000Y-247818750D01*
G75*
G02*
X96756250Y-248037500I-218750J0D01*
G01*
X96243750Y-248037500D01*
G75*
G02*
X96025000Y-247818750I0J218750D01*
G01*
X96025000Y-247381250D01*
G75*
G02*
X96243750Y-247162500I218750J0D01*
G01*
G37*
G36*
G01*
X94643750Y-245612500D02*
X95156250Y-245612500D01*
G75*
G02*
X95375000Y-245831250I0J-218750D01*
G01*
X95375000Y-246268750D01*
G75*
G02*
X95156250Y-246487500I-218750J0D01*
G01*
X94643750Y-246487500D01*
G75*
G02*
X94425000Y-246268750I0J218750D01*
G01*
X94425000Y-245831250D01*
G75*
G02*
X94643750Y-245612500I218750J0D01*
G01*
G37*
G36*
G01*
X94643750Y-247187500D02*
X95156250Y-247187500D01*
G75*
G02*
X95375000Y-247406250I0J-218750D01*
G01*
X95375000Y-247843750D01*
G75*
G02*
X95156250Y-248062500I-218750J0D01*
G01*
X94643750Y-248062500D01*
G75*
G02*
X94425000Y-247843750I0J218750D01*
G01*
X94425000Y-247406250D01*
G75*
G02*
X94643750Y-247187500I218750J0D01*
G01*
G37*
D13*
X89908000Y-235700000D03*
X87808000Y-235700000D03*
D11*
X114583600Y-237271200D03*
X114583600Y-233971200D03*
G36*
G01*
X173642750Y-248692500D02*
X173130250Y-248692500D01*
G75*
G02*
X172911500Y-248473750I0J218750D01*
G01*
X172911500Y-248036250D01*
G75*
G02*
X173130250Y-247817500I218750J0D01*
G01*
X173642750Y-247817500D01*
G75*
G02*
X173861500Y-248036250I0J-218750D01*
G01*
X173861500Y-248473750D01*
G75*
G02*
X173642750Y-248692500I-218750J0D01*
G01*
G37*
G36*
G01*
X173642750Y-247117500D02*
X173130250Y-247117500D01*
G75*
G02*
X172911500Y-246898750I0J218750D01*
G01*
X172911500Y-246461250D01*
G75*
G02*
X173130250Y-246242500I218750J0D01*
G01*
X173642750Y-246242500D01*
G75*
G02*
X173861500Y-246461250I0J-218750D01*
G01*
X173861500Y-246898750D01*
G75*
G02*
X173642750Y-247117500I-218750J0D01*
G01*
G37*
G36*
G01*
X180730250Y-247117500D02*
X180217750Y-247117500D01*
G75*
G02*
X179999000Y-246898750I0J218750D01*
G01*
X179999000Y-246461250D01*
G75*
G02*
X180217750Y-246242500I218750J0D01*
G01*
X180730250Y-246242500D01*
G75*
G02*
X180949000Y-246461250I0J-218750D01*
G01*
X180949000Y-246898750D01*
G75*
G02*
X180730250Y-247117500I-218750J0D01*
G01*
G37*
G36*
G01*
X180730250Y-248692500D02*
X180217750Y-248692500D01*
G75*
G02*
X179999000Y-248473750I0J218750D01*
G01*
X179999000Y-248036250D01*
G75*
G02*
X180217750Y-247817500I218750J0D01*
G01*
X180730250Y-247817500D01*
G75*
G02*
X180949000Y-248036250I0J-218750D01*
G01*
X180949000Y-248473750D01*
G75*
G02*
X180730250Y-248692500I-218750J0D01*
G01*
G37*
G36*
G01*
X177317750Y-248692500D02*
X176805250Y-248692500D01*
G75*
G02*
X176586500Y-248473750I0J218750D01*
G01*
X176586500Y-248036250D01*
G75*
G02*
X176805250Y-247817500I218750J0D01*
G01*
X177317750Y-247817500D01*
G75*
G02*
X177536500Y-248036250I0J-218750D01*
G01*
X177536500Y-248473750D01*
G75*
G02*
X177317750Y-248692500I-218750J0D01*
G01*
G37*
G36*
G01*
X177317750Y-247117500D02*
X176805250Y-247117500D01*
G75*
G02*
X176586500Y-246898750I0J218750D01*
G01*
X176586500Y-246461250D01*
G75*
G02*
X176805250Y-246242500I218750J0D01*
G01*
X177317750Y-246242500D01*
G75*
G02*
X177536500Y-246461250I0J-218750D01*
G01*
X177536500Y-246898750D01*
G75*
G02*
X177317750Y-247117500I-218750J0D01*
G01*
G37*
D13*
X192300000Y-225900000D03*
X190200000Y-225900000D03*
D14*
X162300000Y-210450000D03*
X162300000Y-212550000D03*
X160250000Y-210450000D03*
X160250000Y-212550000D03*
D13*
X190200000Y-227900000D03*
X192300000Y-227900000D03*
D11*
X110583600Y-233971200D03*
X110583600Y-237271200D03*
D15*
X122657600Y-231851200D03*
X125957600Y-231851200D03*
D13*
X81850000Y-228150000D03*
X79750000Y-228150000D03*
X150050000Y-215500000D03*
X147950000Y-215500000D03*
X143750000Y-215500000D03*
X141650000Y-215500000D03*
X137650000Y-215600000D03*
X135550000Y-215600000D03*
G36*
G01*
X193212500Y-226206250D02*
X193212500Y-225693750D01*
G75*
G02*
X193431250Y-225475000I218750J0D01*
G01*
X193868750Y-225475000D01*
G75*
G02*
X194087500Y-225693750I0J-218750D01*
G01*
X194087500Y-226206250D01*
G75*
G02*
X193868750Y-226425000I-218750J0D01*
G01*
X193431250Y-226425000D01*
G75*
G02*
X193212500Y-226206250I0J218750D01*
G01*
G37*
G36*
G01*
X194787500Y-226206250D02*
X194787500Y-225693750D01*
G75*
G02*
X195006250Y-225475000I218750J0D01*
G01*
X195443750Y-225475000D01*
G75*
G02*
X195662500Y-225693750I0J-218750D01*
G01*
X195662500Y-226206250D01*
G75*
G02*
X195443750Y-226425000I-218750J0D01*
G01*
X195006250Y-226425000D01*
G75*
G02*
X194787500Y-226206250I0J218750D01*
G01*
G37*
G36*
G01*
X163793750Y-210175000D02*
X164306250Y-210175000D01*
G75*
G02*
X164525000Y-210393750I0J-218750D01*
G01*
X164525000Y-210831250D01*
G75*
G02*
X164306250Y-211050000I-218750J0D01*
G01*
X163793750Y-211050000D01*
G75*
G02*
X163575000Y-210831250I0J218750D01*
G01*
X163575000Y-210393750D01*
G75*
G02*
X163793750Y-210175000I218750J0D01*
G01*
G37*
G36*
G01*
X163793750Y-211750000D02*
X164306250Y-211750000D01*
G75*
G02*
X164525000Y-211968750I0J-218750D01*
G01*
X164525000Y-212406250D01*
G75*
G02*
X164306250Y-212625000I-218750J0D01*
G01*
X163793750Y-212625000D01*
G75*
G02*
X163575000Y-212406250I0J218750D01*
G01*
X163575000Y-211968750D01*
G75*
G02*
X163793750Y-211750000I218750J0D01*
G01*
G37*
G36*
G01*
X163316500Y-209107750D02*
X163316500Y-208595250D01*
G75*
G02*
X163535250Y-208376500I218750J0D01*
G01*
X163972750Y-208376500D01*
G75*
G02*
X164191500Y-208595250I0J-218750D01*
G01*
X164191500Y-209107750D01*
G75*
G02*
X163972750Y-209326500I-218750J0D01*
G01*
X163535250Y-209326500D01*
G75*
G02*
X163316500Y-209107750I0J218750D01*
G01*
G37*
G36*
G01*
X161741500Y-209107750D02*
X161741500Y-208595250D01*
G75*
G02*
X161960250Y-208376500I218750J0D01*
G01*
X162397750Y-208376500D01*
G75*
G02*
X162616500Y-208595250I0J-218750D01*
G01*
X162616500Y-209107750D01*
G75*
G02*
X162397750Y-209326500I-218750J0D01*
G01*
X161960250Y-209326500D01*
G75*
G02*
X161741500Y-209107750I0J218750D01*
G01*
G37*
G36*
G01*
X193175000Y-228306250D02*
X193175000Y-227793750D01*
G75*
G02*
X193393750Y-227575000I218750J0D01*
G01*
X193831250Y-227575000D01*
G75*
G02*
X194050000Y-227793750I0J-218750D01*
G01*
X194050000Y-228306250D01*
G75*
G02*
X193831250Y-228525000I-218750J0D01*
G01*
X193393750Y-228525000D01*
G75*
G02*
X193175000Y-228306250I0J218750D01*
G01*
G37*
G36*
G01*
X194750000Y-228306250D02*
X194750000Y-227793750D01*
G75*
G02*
X194968750Y-227575000I218750J0D01*
G01*
X195406250Y-227575000D01*
G75*
G02*
X195625000Y-227793750I0J-218750D01*
G01*
X195625000Y-228306250D01*
G75*
G02*
X195406250Y-228525000I-218750J0D01*
G01*
X194968750Y-228525000D01*
G75*
G02*
X194750000Y-228306250I0J218750D01*
G01*
G37*
G36*
G01*
X157477750Y-206471000D02*
X157990250Y-206471000D01*
G75*
G02*
X158209000Y-206689750I0J-218750D01*
G01*
X158209000Y-207127250D01*
G75*
G02*
X157990250Y-207346000I-218750J0D01*
G01*
X157477750Y-207346000D01*
G75*
G02*
X157259000Y-207127250I0J218750D01*
G01*
X157259000Y-206689750D01*
G75*
G02*
X157477750Y-206471000I218750J0D01*
G01*
G37*
G36*
G01*
X157477750Y-204896000D02*
X157990250Y-204896000D01*
G75*
G02*
X158209000Y-205114750I0J-218750D01*
G01*
X158209000Y-205552250D01*
G75*
G02*
X157990250Y-205771000I-218750J0D01*
G01*
X157477750Y-205771000D01*
G75*
G02*
X157259000Y-205552250I0J218750D01*
G01*
X157259000Y-205114750D01*
G75*
G02*
X157477750Y-204896000I218750J0D01*
G01*
G37*
G36*
G01*
X155893750Y-214637500D02*
X156406250Y-214637500D01*
G75*
G02*
X156625000Y-214856250I0J-218750D01*
G01*
X156625000Y-215293750D01*
G75*
G02*
X156406250Y-215512500I-218750J0D01*
G01*
X155893750Y-215512500D01*
G75*
G02*
X155675000Y-215293750I0J218750D01*
G01*
X155675000Y-214856250D01*
G75*
G02*
X155893750Y-214637500I218750J0D01*
G01*
G37*
G36*
G01*
X155893750Y-216212500D02*
X156406250Y-216212500D01*
G75*
G02*
X156625000Y-216431250I0J-218750D01*
G01*
X156625000Y-216868750D01*
G75*
G02*
X156406250Y-217087500I-218750J0D01*
G01*
X155893750Y-217087500D01*
G75*
G02*
X155675000Y-216868750I0J218750D01*
G01*
X155675000Y-216431250D01*
G75*
G02*
X155893750Y-216212500I218750J0D01*
G01*
G37*
G36*
G01*
X96756250Y-244975000D02*
X96243750Y-244975000D01*
G75*
G02*
X96025000Y-244756250I0J218750D01*
G01*
X96025000Y-244318750D01*
G75*
G02*
X96243750Y-244100000I218750J0D01*
G01*
X96756250Y-244100000D01*
G75*
G02*
X96975000Y-244318750I0J-218750D01*
G01*
X96975000Y-244756250D01*
G75*
G02*
X96756250Y-244975000I-218750J0D01*
G01*
G37*
G36*
G01*
X96756250Y-243400000D02*
X96243750Y-243400000D01*
G75*
G02*
X96025000Y-243181250I0J218750D01*
G01*
X96025000Y-242743750D01*
G75*
G02*
X96243750Y-242525000I218750J0D01*
G01*
X96756250Y-242525000D01*
G75*
G02*
X96975000Y-242743750I0J-218750D01*
G01*
X96975000Y-243181250D01*
G75*
G02*
X96756250Y-243400000I-218750J0D01*
G01*
G37*
G36*
G01*
X95206250Y-243362500D02*
X94693750Y-243362500D01*
G75*
G02*
X94475000Y-243143750I0J218750D01*
G01*
X94475000Y-242706250D01*
G75*
G02*
X94693750Y-242487500I218750J0D01*
G01*
X95206250Y-242487500D01*
G75*
G02*
X95425000Y-242706250I0J-218750D01*
G01*
X95425000Y-243143750D01*
G75*
G02*
X95206250Y-243362500I-218750J0D01*
G01*
G37*
G36*
G01*
X95206250Y-244937500D02*
X94693750Y-244937500D01*
G75*
G02*
X94475000Y-244718750I0J218750D01*
G01*
X94475000Y-244281250D01*
G75*
G02*
X94693750Y-244062500I218750J0D01*
G01*
X95206250Y-244062500D01*
G75*
G02*
X95425000Y-244281250I0J-218750D01*
G01*
X95425000Y-244718750D01*
G75*
G02*
X95206250Y-244937500I-218750J0D01*
G01*
G37*
G36*
G01*
X93606250Y-243400000D02*
X93093750Y-243400000D01*
G75*
G02*
X92875000Y-243181250I0J218750D01*
G01*
X92875000Y-242743750D01*
G75*
G02*
X93093750Y-242525000I218750J0D01*
G01*
X93606250Y-242525000D01*
G75*
G02*
X93825000Y-242743750I0J-218750D01*
G01*
X93825000Y-243181250D01*
G75*
G02*
X93606250Y-243400000I-218750J0D01*
G01*
G37*
G36*
G01*
X93606250Y-244975000D02*
X93093750Y-244975000D01*
G75*
G02*
X92875000Y-244756250I0J218750D01*
G01*
X92875000Y-244318750D01*
G75*
G02*
X93093750Y-244100000I218750J0D01*
G01*
X93606250Y-244100000D01*
G75*
G02*
X93825000Y-244318750I0J-218750D01*
G01*
X93825000Y-244756250D01*
G75*
G02*
X93606250Y-244975000I-218750J0D01*
G01*
G37*
G36*
G01*
X183199750Y-244730500D02*
X183712250Y-244730500D01*
G75*
G02*
X183931000Y-244949250I0J-218750D01*
G01*
X183931000Y-245386750D01*
G75*
G02*
X183712250Y-245605500I-218750J0D01*
G01*
X183199750Y-245605500D01*
G75*
G02*
X182981000Y-245386750I0J218750D01*
G01*
X182981000Y-244949250D01*
G75*
G02*
X183199750Y-244730500I218750J0D01*
G01*
G37*
G36*
G01*
X183199750Y-243155500D02*
X183712250Y-243155500D01*
G75*
G02*
X183931000Y-243374250I0J-218750D01*
G01*
X183931000Y-243811750D01*
G75*
G02*
X183712250Y-244030500I-218750J0D01*
G01*
X183199750Y-244030500D01*
G75*
G02*
X182981000Y-243811750I0J218750D01*
G01*
X182981000Y-243374250D01*
G75*
G02*
X183199750Y-243155500I218750J0D01*
G01*
G37*
G36*
G01*
X129360000Y-242243750D02*
X129360000Y-242756250D01*
G75*
G02*
X129141250Y-242975000I-218750J0D01*
G01*
X128703750Y-242975000D01*
G75*
G02*
X128485000Y-242756250I0J218750D01*
G01*
X128485000Y-242243750D01*
G75*
G02*
X128703750Y-242025000I218750J0D01*
G01*
X129141250Y-242025000D01*
G75*
G02*
X129360000Y-242243750I0J-218750D01*
G01*
G37*
G36*
G01*
X127785000Y-242243750D02*
X127785000Y-242756250D01*
G75*
G02*
X127566250Y-242975000I-218750J0D01*
G01*
X127128750Y-242975000D01*
G75*
G02*
X126910000Y-242756250I0J218750D01*
G01*
X126910000Y-242243750D01*
G75*
G02*
X127128750Y-242025000I218750J0D01*
G01*
X127566250Y-242025000D01*
G75*
G02*
X127785000Y-242243750I0J-218750D01*
G01*
G37*
G36*
G01*
X129360000Y-239043750D02*
X129360000Y-239556250D01*
G75*
G02*
X129141250Y-239775000I-218750J0D01*
G01*
X128703750Y-239775000D01*
G75*
G02*
X128485000Y-239556250I0J218750D01*
G01*
X128485000Y-239043750D01*
G75*
G02*
X128703750Y-238825000I218750J0D01*
G01*
X129141250Y-238825000D01*
G75*
G02*
X129360000Y-239043750I0J-218750D01*
G01*
G37*
G36*
G01*
X127785000Y-239043750D02*
X127785000Y-239556250D01*
G75*
G02*
X127566250Y-239775000I-218750J0D01*
G01*
X127128750Y-239775000D01*
G75*
G02*
X126910000Y-239556250I0J218750D01*
G01*
X126910000Y-239043750D01*
G75*
G02*
X127128750Y-238825000I218750J0D01*
G01*
X127566250Y-238825000D01*
G75*
G02*
X127785000Y-239043750I0J-218750D01*
G01*
G37*
G36*
G01*
X164200500Y-205532750D02*
X164200500Y-206045250D01*
G75*
G02*
X163981750Y-206264000I-218750J0D01*
G01*
X163544250Y-206264000D01*
G75*
G02*
X163325500Y-206045250I0J218750D01*
G01*
X163325500Y-205532750D01*
G75*
G02*
X163544250Y-205314000I218750J0D01*
G01*
X163981750Y-205314000D01*
G75*
G02*
X164200500Y-205532750I0J-218750D01*
G01*
G37*
G36*
G01*
X162625500Y-205532750D02*
X162625500Y-206045250D01*
G75*
G02*
X162406750Y-206264000I-218750J0D01*
G01*
X161969250Y-206264000D01*
G75*
G02*
X161750500Y-206045250I0J218750D01*
G01*
X161750500Y-205532750D01*
G75*
G02*
X161969250Y-205314000I218750J0D01*
G01*
X162406750Y-205314000D01*
G75*
G02*
X162625500Y-205532750I0J-218750D01*
G01*
G37*
G36*
G01*
X159670000Y-205582750D02*
X159670000Y-206095250D01*
G75*
G02*
X159451250Y-206314000I-218750J0D01*
G01*
X159013750Y-206314000D01*
G75*
G02*
X158795000Y-206095250I0J218750D01*
G01*
X158795000Y-205582750D01*
G75*
G02*
X159013750Y-205364000I218750J0D01*
G01*
X159451250Y-205364000D01*
G75*
G02*
X159670000Y-205582750I0J-218750D01*
G01*
G37*
G36*
G01*
X161245000Y-205582750D02*
X161245000Y-206095250D01*
G75*
G02*
X161026250Y-206314000I-218750J0D01*
G01*
X160588750Y-206314000D01*
G75*
G02*
X160370000Y-206095250I0J218750D01*
G01*
X160370000Y-205582750D01*
G75*
G02*
X160588750Y-205364000I218750J0D01*
G01*
X161026250Y-205364000D01*
G75*
G02*
X161245000Y-205582750I0J-218750D01*
G01*
G37*
G36*
G01*
X162556250Y-215550000D02*
X162043750Y-215550000D01*
G75*
G02*
X161825000Y-215331250I0J218750D01*
G01*
X161825000Y-214893750D01*
G75*
G02*
X162043750Y-214675000I218750J0D01*
G01*
X162556250Y-214675000D01*
G75*
G02*
X162775000Y-214893750I0J-218750D01*
G01*
X162775000Y-215331250D01*
G75*
G02*
X162556250Y-215550000I-218750J0D01*
G01*
G37*
G36*
G01*
X162556250Y-217125000D02*
X162043750Y-217125000D01*
G75*
G02*
X161825000Y-216906250I0J218750D01*
G01*
X161825000Y-216468750D01*
G75*
G02*
X162043750Y-216250000I218750J0D01*
G01*
X162556250Y-216250000D01*
G75*
G02*
X162775000Y-216468750I0J-218750D01*
G01*
X162775000Y-216906250D01*
G75*
G02*
X162556250Y-217125000I-218750J0D01*
G01*
G37*
G36*
G01*
X173119750Y-243137000D02*
X173632250Y-243137000D01*
G75*
G02*
X173851000Y-243355750I0J-218750D01*
G01*
X173851000Y-243793250D01*
G75*
G02*
X173632250Y-244012000I-218750J0D01*
G01*
X173119750Y-244012000D01*
G75*
G02*
X172901000Y-243793250I0J218750D01*
G01*
X172901000Y-243355750D01*
G75*
G02*
X173119750Y-243137000I218750J0D01*
G01*
G37*
G36*
G01*
X173119750Y-244712000D02*
X173632250Y-244712000D01*
G75*
G02*
X173851000Y-244930750I0J-218750D01*
G01*
X173851000Y-245368250D01*
G75*
G02*
X173632250Y-245587000I-218750J0D01*
G01*
X173119750Y-245587000D01*
G75*
G02*
X172901000Y-245368250I0J218750D01*
G01*
X172901000Y-244930750D01*
G75*
G02*
X173119750Y-244712000I218750J0D01*
G01*
G37*
G36*
G01*
X180217750Y-244706000D02*
X180730250Y-244706000D01*
G75*
G02*
X180949000Y-244924750I0J-218750D01*
G01*
X180949000Y-245362250D01*
G75*
G02*
X180730250Y-245581000I-218750J0D01*
G01*
X180217750Y-245581000D01*
G75*
G02*
X179999000Y-245362250I0J218750D01*
G01*
X179999000Y-244924750D01*
G75*
G02*
X180217750Y-244706000I218750J0D01*
G01*
G37*
G36*
G01*
X180217750Y-243131000D02*
X180730250Y-243131000D01*
G75*
G02*
X180949000Y-243349750I0J-218750D01*
G01*
X180949000Y-243787250D01*
G75*
G02*
X180730250Y-244006000I-218750J0D01*
G01*
X180217750Y-244006000D01*
G75*
G02*
X179999000Y-243787250I0J218750D01*
G01*
X179999000Y-243349750D01*
G75*
G02*
X180217750Y-243131000I218750J0D01*
G01*
G37*
G36*
G01*
X176805250Y-243131000D02*
X177317750Y-243131000D01*
G75*
G02*
X177536500Y-243349750I0J-218750D01*
G01*
X177536500Y-243787250D01*
G75*
G02*
X177317750Y-244006000I-218750J0D01*
G01*
X176805250Y-244006000D01*
G75*
G02*
X176586500Y-243787250I0J218750D01*
G01*
X176586500Y-243349750D01*
G75*
G02*
X176805250Y-243131000I218750J0D01*
G01*
G37*
G36*
G01*
X176805250Y-244706000D02*
X177317750Y-244706000D01*
G75*
G02*
X177536500Y-244924750I0J-218750D01*
G01*
X177536500Y-245362250D01*
G75*
G02*
X177317750Y-245581000I-218750J0D01*
G01*
X176805250Y-245581000D01*
G75*
G02*
X176586500Y-245362250I0J218750D01*
G01*
X176586500Y-244924750D01*
G75*
G02*
X176805250Y-244706000I218750J0D01*
G01*
G37*
G36*
G01*
X176450000Y-221206250D02*
X176450000Y-220693750D01*
G75*
G02*
X176668750Y-220475000I218750J0D01*
G01*
X177106250Y-220475000D01*
G75*
G02*
X177325000Y-220693750I0J-218750D01*
G01*
X177325000Y-221206250D01*
G75*
G02*
X177106250Y-221425000I-218750J0D01*
G01*
X176668750Y-221425000D01*
G75*
G02*
X176450000Y-221206250I0J218750D01*
G01*
G37*
G36*
G01*
X174875000Y-221206250D02*
X174875000Y-220693750D01*
G75*
G02*
X175093750Y-220475000I218750J0D01*
G01*
X175531250Y-220475000D01*
G75*
G02*
X175750000Y-220693750I0J-218750D01*
G01*
X175750000Y-221206250D01*
G75*
G02*
X175531250Y-221425000I-218750J0D01*
G01*
X175093750Y-221425000D01*
G75*
G02*
X174875000Y-221206250I0J218750D01*
G01*
G37*
G36*
G01*
X174875000Y-218056250D02*
X174875000Y-217543750D01*
G75*
G02*
X175093750Y-217325000I218750J0D01*
G01*
X175531250Y-217325000D01*
G75*
G02*
X175750000Y-217543750I0J-218750D01*
G01*
X175750000Y-218056250D01*
G75*
G02*
X175531250Y-218275000I-218750J0D01*
G01*
X175093750Y-218275000D01*
G75*
G02*
X174875000Y-218056250I0J218750D01*
G01*
G37*
G36*
G01*
X176450000Y-218056250D02*
X176450000Y-217543750D01*
G75*
G02*
X176668750Y-217325000I218750J0D01*
G01*
X177106250Y-217325000D01*
G75*
G02*
X177325000Y-217543750I0J-218750D01*
G01*
X177325000Y-218056250D01*
G75*
G02*
X177106250Y-218275000I-218750J0D01*
G01*
X176668750Y-218275000D01*
G75*
G02*
X176450000Y-218056250I0J218750D01*
G01*
G37*
G36*
G01*
X170022750Y-243986000D02*
X169510250Y-243986000D01*
G75*
G02*
X169291500Y-243767250I0J218750D01*
G01*
X169291500Y-243329750D01*
G75*
G02*
X169510250Y-243111000I218750J0D01*
G01*
X170022750Y-243111000D01*
G75*
G02*
X170241500Y-243329750I0J-218750D01*
G01*
X170241500Y-243767250D01*
G75*
G02*
X170022750Y-243986000I-218750J0D01*
G01*
G37*
G36*
G01*
X170022750Y-245561000D02*
X169510250Y-245561000D01*
G75*
G02*
X169291500Y-245342250I0J218750D01*
G01*
X169291500Y-244904750D01*
G75*
G02*
X169510250Y-244686000I218750J0D01*
G01*
X170022750Y-244686000D01*
G75*
G02*
X170241500Y-244904750I0J-218750D01*
G01*
X170241500Y-245342250D01*
G75*
G02*
X170022750Y-245561000I-218750J0D01*
G01*
G37*
G36*
G01*
X105475000Y-246956250D02*
X105475000Y-246443750D01*
G75*
G02*
X105693750Y-246225000I218750J0D01*
G01*
X106131250Y-246225000D01*
G75*
G02*
X106350000Y-246443750I0J-218750D01*
G01*
X106350000Y-246956250D01*
G75*
G02*
X106131250Y-247175000I-218750J0D01*
G01*
X105693750Y-247175000D01*
G75*
G02*
X105475000Y-246956250I0J218750D01*
G01*
G37*
G36*
G01*
X107050000Y-246956250D02*
X107050000Y-246443750D01*
G75*
G02*
X107268750Y-246225000I218750J0D01*
G01*
X107706250Y-246225000D01*
G75*
G02*
X107925000Y-246443750I0J-218750D01*
G01*
X107925000Y-246956250D01*
G75*
G02*
X107706250Y-247175000I-218750J0D01*
G01*
X107268750Y-247175000D01*
G75*
G02*
X107050000Y-246956250I0J218750D01*
G01*
G37*
G36*
G01*
X166018750Y-243131000D02*
X166531250Y-243131000D01*
G75*
G02*
X166750000Y-243349750I0J-218750D01*
G01*
X166750000Y-243787250D01*
G75*
G02*
X166531250Y-244006000I-218750J0D01*
G01*
X166018750Y-244006000D01*
G75*
G02*
X165800000Y-243787250I0J218750D01*
G01*
X165800000Y-243349750D01*
G75*
G02*
X166018750Y-243131000I218750J0D01*
G01*
G37*
G36*
G01*
X166018750Y-244706000D02*
X166531250Y-244706000D01*
G75*
G02*
X166750000Y-244924750I0J-218750D01*
G01*
X166750000Y-245362250D01*
G75*
G02*
X166531250Y-245581000I-218750J0D01*
G01*
X166018750Y-245581000D01*
G75*
G02*
X165800000Y-245362250I0J218750D01*
G01*
X165800000Y-244924750D01*
G75*
G02*
X166018750Y-244706000I218750J0D01*
G01*
G37*
G36*
G01*
X162431250Y-244706000D02*
X162943750Y-244706000D01*
G75*
G02*
X163162500Y-244924750I0J-218750D01*
G01*
X163162500Y-245362250D01*
G75*
G02*
X162943750Y-245581000I-218750J0D01*
G01*
X162431250Y-245581000D01*
G75*
G02*
X162212500Y-245362250I0J218750D01*
G01*
X162212500Y-244924750D01*
G75*
G02*
X162431250Y-244706000I218750J0D01*
G01*
G37*
G36*
G01*
X162431250Y-243131000D02*
X162943750Y-243131000D01*
G75*
G02*
X163162500Y-243349750I0J-218750D01*
G01*
X163162500Y-243787250D01*
G75*
G02*
X162943750Y-244006000I-218750J0D01*
G01*
X162431250Y-244006000D01*
G75*
G02*
X162212500Y-243787250I0J218750D01*
G01*
X162212500Y-243349750D01*
G75*
G02*
X162431250Y-243131000I218750J0D01*
G01*
G37*
G36*
G01*
X101237500Y-246856250D02*
X101237500Y-246343750D01*
G75*
G02*
X101456250Y-246125000I218750J0D01*
G01*
X101893750Y-246125000D01*
G75*
G02*
X102112500Y-246343750I0J-218750D01*
G01*
X102112500Y-246856250D01*
G75*
G02*
X101893750Y-247075000I-218750J0D01*
G01*
X101456250Y-247075000D01*
G75*
G02*
X101237500Y-246856250I0J218750D01*
G01*
G37*
G36*
G01*
X99662500Y-246856250D02*
X99662500Y-246343750D01*
G75*
G02*
X99881250Y-246125000I218750J0D01*
G01*
X100318750Y-246125000D01*
G75*
G02*
X100537500Y-246343750I0J-218750D01*
G01*
X100537500Y-246856250D01*
G75*
G02*
X100318750Y-247075000I-218750J0D01*
G01*
X99881250Y-247075000D01*
G75*
G02*
X99662500Y-246856250I0J218750D01*
G01*
G37*
G36*
G01*
X123794000Y-230126250D02*
X123794000Y-229613750D01*
G75*
G02*
X124012750Y-229395000I218750J0D01*
G01*
X124450250Y-229395000D01*
G75*
G02*
X124669000Y-229613750I0J-218750D01*
G01*
X124669000Y-230126250D01*
G75*
G02*
X124450250Y-230345000I-218750J0D01*
G01*
X124012750Y-230345000D01*
G75*
G02*
X123794000Y-230126250I0J218750D01*
G01*
G37*
G36*
G01*
X122219000Y-230126250D02*
X122219000Y-229613750D01*
G75*
G02*
X122437750Y-229395000I218750J0D01*
G01*
X122875250Y-229395000D01*
G75*
G02*
X123094000Y-229613750I0J-218750D01*
G01*
X123094000Y-230126250D01*
G75*
G02*
X122875250Y-230345000I-218750J0D01*
G01*
X122437750Y-230345000D01*
G75*
G02*
X122219000Y-230126250I0J218750D01*
G01*
G37*
G36*
G01*
X86489250Y-240594500D02*
X85976750Y-240594500D01*
G75*
G02*
X85758000Y-240375750I0J218750D01*
G01*
X85758000Y-239938250D01*
G75*
G02*
X85976750Y-239719500I218750J0D01*
G01*
X86489250Y-239719500D01*
G75*
G02*
X86708000Y-239938250I0J-218750D01*
G01*
X86708000Y-240375750D01*
G75*
G02*
X86489250Y-240594500I-218750J0D01*
G01*
G37*
G36*
G01*
X86489250Y-239019500D02*
X85976750Y-239019500D01*
G75*
G02*
X85758000Y-238800750I0J218750D01*
G01*
X85758000Y-238363250D01*
G75*
G02*
X85976750Y-238144500I218750J0D01*
G01*
X86489250Y-238144500D01*
G75*
G02*
X86708000Y-238363250I0J-218750D01*
G01*
X86708000Y-238800750D01*
G75*
G02*
X86489250Y-239019500I-218750J0D01*
G01*
G37*
G36*
G01*
X123794000Y-226951250D02*
X123794000Y-226438750D01*
G75*
G02*
X124012750Y-226220000I218750J0D01*
G01*
X124450250Y-226220000D01*
G75*
G02*
X124669000Y-226438750I0J-218750D01*
G01*
X124669000Y-226951250D01*
G75*
G02*
X124450250Y-227170000I-218750J0D01*
G01*
X124012750Y-227170000D01*
G75*
G02*
X123794000Y-226951250I0J218750D01*
G01*
G37*
G36*
G01*
X122219000Y-226951250D02*
X122219000Y-226438750D01*
G75*
G02*
X122437750Y-226220000I218750J0D01*
G01*
X122875250Y-226220000D01*
G75*
G02*
X123094000Y-226438750I0J-218750D01*
G01*
X123094000Y-226951250D01*
G75*
G02*
X122875250Y-227170000I-218750J0D01*
G01*
X122437750Y-227170000D01*
G75*
G02*
X122219000Y-226951250I0J218750D01*
G01*
G37*
G36*
G01*
X124669000Y-219987150D02*
X124669000Y-220499650D01*
G75*
G02*
X124450250Y-220718400I-218750J0D01*
G01*
X124012750Y-220718400D01*
G75*
G02*
X123794000Y-220499650I0J218750D01*
G01*
X123794000Y-219987150D01*
G75*
G02*
X124012750Y-219768400I218750J0D01*
G01*
X124450250Y-219768400D01*
G75*
G02*
X124669000Y-219987150I0J-218750D01*
G01*
G37*
G36*
G01*
X123094000Y-219987150D02*
X123094000Y-220499650D01*
G75*
G02*
X122875250Y-220718400I-218750J0D01*
G01*
X122437750Y-220718400D01*
G75*
G02*
X122219000Y-220499650I0J218750D01*
G01*
X122219000Y-219987150D01*
G75*
G02*
X122437750Y-219768400I218750J0D01*
G01*
X122875250Y-219768400D01*
G75*
G02*
X123094000Y-219987150I0J-218750D01*
G01*
G37*
G36*
G01*
X123094000Y-223212950D02*
X123094000Y-223725450D01*
G75*
G02*
X122875250Y-223944200I-218750J0D01*
G01*
X122437750Y-223944200D01*
G75*
G02*
X122219000Y-223725450I0J218750D01*
G01*
X122219000Y-223212950D01*
G75*
G02*
X122437750Y-222994200I218750J0D01*
G01*
X122875250Y-222994200D01*
G75*
G02*
X123094000Y-223212950I0J-218750D01*
G01*
G37*
G36*
G01*
X124669000Y-223212950D02*
X124669000Y-223725450D01*
G75*
G02*
X124450250Y-223944200I-218750J0D01*
G01*
X124012750Y-223944200D01*
G75*
G02*
X123794000Y-223725450I0J218750D01*
G01*
X123794000Y-223212950D01*
G75*
G02*
X124012750Y-222994200I218750J0D01*
G01*
X124450250Y-222994200D01*
G75*
G02*
X124669000Y-223212950I0J-218750D01*
G01*
G37*
G36*
G01*
X127717000Y-224736950D02*
X127717000Y-225249450D01*
G75*
G02*
X127498250Y-225468200I-218750J0D01*
G01*
X127060750Y-225468200D01*
G75*
G02*
X126842000Y-225249450I0J218750D01*
G01*
X126842000Y-224736950D01*
G75*
G02*
X127060750Y-224518200I218750J0D01*
G01*
X127498250Y-224518200D01*
G75*
G02*
X127717000Y-224736950I0J-218750D01*
G01*
G37*
G36*
G01*
X126142000Y-224736950D02*
X126142000Y-225249450D01*
G75*
G02*
X125923250Y-225468200I-218750J0D01*
G01*
X125485750Y-225468200D01*
G75*
G02*
X125267000Y-225249450I0J218750D01*
G01*
X125267000Y-224736950D01*
G75*
G02*
X125485750Y-224518200I218750J0D01*
G01*
X125923250Y-224518200D01*
G75*
G02*
X126142000Y-224736950I0J-218750D01*
G01*
G37*
G36*
G01*
X127785000Y-240643750D02*
X127785000Y-241156250D01*
G75*
G02*
X127566250Y-241375000I-218750J0D01*
G01*
X127128750Y-241375000D01*
G75*
G02*
X126910000Y-241156250I0J218750D01*
G01*
X126910000Y-240643750D01*
G75*
G02*
X127128750Y-240425000I218750J0D01*
G01*
X127566250Y-240425000D01*
G75*
G02*
X127785000Y-240643750I0J-218750D01*
G01*
G37*
G36*
G01*
X129360000Y-240643750D02*
X129360000Y-241156250D01*
G75*
G02*
X129141250Y-241375000I-218750J0D01*
G01*
X128703750Y-241375000D01*
G75*
G02*
X128485000Y-241156250I0J218750D01*
G01*
X128485000Y-240643750D01*
G75*
G02*
X128703750Y-240425000I218750J0D01*
G01*
X129141250Y-240425000D01*
G75*
G02*
X129360000Y-240643750I0J-218750D01*
G01*
G37*
G36*
G01*
X127818500Y-233550750D02*
X127818500Y-234063250D01*
G75*
G02*
X127599750Y-234282000I-218750J0D01*
G01*
X127162250Y-234282000D01*
G75*
G02*
X126943500Y-234063250I0J218750D01*
G01*
X126943500Y-233550750D01*
G75*
G02*
X127162250Y-233332000I218750J0D01*
G01*
X127599750Y-233332000D01*
G75*
G02*
X127818500Y-233550750I0J-218750D01*
G01*
G37*
G36*
G01*
X126243500Y-233550750D02*
X126243500Y-234063250D01*
G75*
G02*
X126024750Y-234282000I-218750J0D01*
G01*
X125587250Y-234282000D01*
G75*
G02*
X125368500Y-234063250I0J218750D01*
G01*
X125368500Y-233550750D01*
G75*
G02*
X125587250Y-233332000I218750J0D01*
G01*
X126024750Y-233332000D01*
G75*
G02*
X126243500Y-233550750I0J-218750D01*
G01*
G37*
G36*
G01*
X111694250Y-216631000D02*
X112206750Y-216631000D01*
G75*
G02*
X112425500Y-216849750I0J-218750D01*
G01*
X112425500Y-217287250D01*
G75*
G02*
X112206750Y-217506000I-218750J0D01*
G01*
X111694250Y-217506000D01*
G75*
G02*
X111475500Y-217287250I0J218750D01*
G01*
X111475500Y-216849750D01*
G75*
G02*
X111694250Y-216631000I218750J0D01*
G01*
G37*
G36*
G01*
X111694250Y-215056000D02*
X112206750Y-215056000D01*
G75*
G02*
X112425500Y-215274750I0J-218750D01*
G01*
X112425500Y-215712250D01*
G75*
G02*
X112206750Y-215931000I-218750J0D01*
G01*
X111694250Y-215931000D01*
G75*
G02*
X111475500Y-215712250I0J218750D01*
G01*
X111475500Y-215274750D01*
G75*
G02*
X111694250Y-215056000I218750J0D01*
G01*
G37*
G36*
G01*
X113218250Y-216631000D02*
X113730750Y-216631000D01*
G75*
G02*
X113949500Y-216849750I0J-218750D01*
G01*
X113949500Y-217287250D01*
G75*
G02*
X113730750Y-217506000I-218750J0D01*
G01*
X113218250Y-217506000D01*
G75*
G02*
X112999500Y-217287250I0J218750D01*
G01*
X112999500Y-216849750D01*
G75*
G02*
X113218250Y-216631000I218750J0D01*
G01*
G37*
G36*
G01*
X113218250Y-215056000D02*
X113730750Y-215056000D01*
G75*
G02*
X113949500Y-215274750I0J-218750D01*
G01*
X113949500Y-215712250D01*
G75*
G02*
X113730750Y-215931000I-218750J0D01*
G01*
X113218250Y-215931000D01*
G75*
G02*
X112999500Y-215712250I0J218750D01*
G01*
X112999500Y-215274750D01*
G75*
G02*
X113218250Y-215056000I218750J0D01*
G01*
G37*
G36*
G01*
X127704200Y-218323450D02*
X127704200Y-218835950D01*
G75*
G02*
X127485450Y-219054700I-218750J0D01*
G01*
X127047950Y-219054700D01*
G75*
G02*
X126829200Y-218835950I0J218750D01*
G01*
X126829200Y-218323450D01*
G75*
G02*
X127047950Y-218104700I218750J0D01*
G01*
X127485450Y-218104700D01*
G75*
G02*
X127704200Y-218323450I0J-218750D01*
G01*
G37*
G36*
G01*
X126129200Y-218323450D02*
X126129200Y-218835950D01*
G75*
G02*
X125910450Y-219054700I-218750J0D01*
G01*
X125472950Y-219054700D01*
G75*
G02*
X125254200Y-218835950I0J218750D01*
G01*
X125254200Y-218323450D01*
G75*
G02*
X125472950Y-218104700I218750J0D01*
G01*
X125910450Y-218104700D01*
G75*
G02*
X126129200Y-218323450I0J-218750D01*
G01*
G37*
G36*
G01*
X126142000Y-221511150D02*
X126142000Y-222023650D01*
G75*
G02*
X125923250Y-222242400I-218750J0D01*
G01*
X125485750Y-222242400D01*
G75*
G02*
X125267000Y-222023650I0J218750D01*
G01*
X125267000Y-221511150D01*
G75*
G02*
X125485750Y-221292400I218750J0D01*
G01*
X125923250Y-221292400D01*
G75*
G02*
X126142000Y-221511150I0J-218750D01*
G01*
G37*
G36*
G01*
X127717000Y-221511150D02*
X127717000Y-222023650D01*
G75*
G02*
X127498250Y-222242400I-218750J0D01*
G01*
X127060750Y-222242400D01*
G75*
G02*
X126842000Y-222023650I0J218750D01*
G01*
X126842000Y-221511150D01*
G75*
G02*
X127060750Y-221292400I218750J0D01*
G01*
X127498250Y-221292400D01*
G75*
G02*
X127717000Y-221511150I0J-218750D01*
G01*
G37*
G36*
G01*
X126142000Y-227962750D02*
X126142000Y-228475250D01*
G75*
G02*
X125923250Y-228694000I-218750J0D01*
G01*
X125485750Y-228694000D01*
G75*
G02*
X125267000Y-228475250I0J218750D01*
G01*
X125267000Y-227962750D01*
G75*
G02*
X125485750Y-227744000I218750J0D01*
G01*
X125923250Y-227744000D01*
G75*
G02*
X126142000Y-227962750I0J-218750D01*
G01*
G37*
G36*
G01*
X127717000Y-227962750D02*
X127717000Y-228475250D01*
G75*
G02*
X127498250Y-228694000I-218750J0D01*
G01*
X127060750Y-228694000D01*
G75*
G02*
X126842000Y-228475250I0J218750D01*
G01*
X126842000Y-227962750D01*
G75*
G02*
X127060750Y-227744000I218750J0D01*
G01*
X127498250Y-227744000D01*
G75*
G02*
X127717000Y-227962750I0J-218750D01*
G01*
G37*
G36*
G01*
X137886250Y-237110000D02*
X137373750Y-237110000D01*
G75*
G02*
X137155000Y-236891250I0J218750D01*
G01*
X137155000Y-236453750D01*
G75*
G02*
X137373750Y-236235000I218750J0D01*
G01*
X137886250Y-236235000D01*
G75*
G02*
X138105000Y-236453750I0J-218750D01*
G01*
X138105000Y-236891250D01*
G75*
G02*
X137886250Y-237110000I-218750J0D01*
G01*
G37*
G36*
G01*
X137886250Y-238685000D02*
X137373750Y-238685000D01*
G75*
G02*
X137155000Y-238466250I0J218750D01*
G01*
X137155000Y-238028750D01*
G75*
G02*
X137373750Y-237810000I218750J0D01*
G01*
X137886250Y-237810000D01*
G75*
G02*
X138105000Y-238028750I0J-218750D01*
G01*
X138105000Y-238466250D01*
G75*
G02*
X137886250Y-238685000I-218750J0D01*
G01*
G37*
G36*
G01*
X135743750Y-236275000D02*
X136256250Y-236275000D01*
G75*
G02*
X136475000Y-236493750I0J-218750D01*
G01*
X136475000Y-236931250D01*
G75*
G02*
X136256250Y-237150000I-218750J0D01*
G01*
X135743750Y-237150000D01*
G75*
G02*
X135525000Y-236931250I0J218750D01*
G01*
X135525000Y-236493750D01*
G75*
G02*
X135743750Y-236275000I218750J0D01*
G01*
G37*
G36*
G01*
X135743750Y-237850000D02*
X136256250Y-237850000D01*
G75*
G02*
X136475000Y-238068750I0J-218750D01*
G01*
X136475000Y-238506250D01*
G75*
G02*
X136256250Y-238725000I-218750J0D01*
G01*
X135743750Y-238725000D01*
G75*
G02*
X135525000Y-238506250I0J218750D01*
G01*
X135525000Y-238068750D01*
G75*
G02*
X135743750Y-237850000I218750J0D01*
G01*
G37*
G36*
G01*
X147541250Y-237100000D02*
X147028750Y-237100000D01*
G75*
G02*
X146810000Y-236881250I0J218750D01*
G01*
X146810000Y-236443750D01*
G75*
G02*
X147028750Y-236225000I218750J0D01*
G01*
X147541250Y-236225000D01*
G75*
G02*
X147760000Y-236443750I0J-218750D01*
G01*
X147760000Y-236881250D01*
G75*
G02*
X147541250Y-237100000I-218750J0D01*
G01*
G37*
G36*
G01*
X147541250Y-238675000D02*
X147028750Y-238675000D01*
G75*
G02*
X146810000Y-238456250I0J218750D01*
G01*
X146810000Y-238018750D01*
G75*
G02*
X147028750Y-237800000I218750J0D01*
G01*
X147541250Y-237800000D01*
G75*
G02*
X147760000Y-238018750I0J-218750D01*
G01*
X147760000Y-238456250D01*
G75*
G02*
X147541250Y-238675000I-218750J0D01*
G01*
G37*
G36*
G01*
X145343750Y-236212500D02*
X145856250Y-236212500D01*
G75*
G02*
X146075000Y-236431250I0J-218750D01*
G01*
X146075000Y-236868750D01*
G75*
G02*
X145856250Y-237087500I-218750J0D01*
G01*
X145343750Y-237087500D01*
G75*
G02*
X145125000Y-236868750I0J218750D01*
G01*
X145125000Y-236431250D01*
G75*
G02*
X145343750Y-236212500I218750J0D01*
G01*
G37*
G36*
G01*
X145343750Y-237787500D02*
X145856250Y-237787500D01*
G75*
G02*
X146075000Y-238006250I0J-218750D01*
G01*
X146075000Y-238443750D01*
G75*
G02*
X145856250Y-238662500I-218750J0D01*
G01*
X145343750Y-238662500D01*
G75*
G02*
X145125000Y-238443750I0J218750D01*
G01*
X145125000Y-238006250D01*
G75*
G02*
X145343750Y-237787500I218750J0D01*
G01*
G37*
G36*
G01*
X110170250Y-216605500D02*
X110682750Y-216605500D01*
G75*
G02*
X110901500Y-216824250I0J-218750D01*
G01*
X110901500Y-217261750D01*
G75*
G02*
X110682750Y-217480500I-218750J0D01*
G01*
X110170250Y-217480500D01*
G75*
G02*
X109951500Y-217261750I0J218750D01*
G01*
X109951500Y-216824250D01*
G75*
G02*
X110170250Y-216605500I218750J0D01*
G01*
G37*
G36*
G01*
X110170250Y-215030500D02*
X110682750Y-215030500D01*
G75*
G02*
X110901500Y-215249250I0J-218750D01*
G01*
X110901500Y-215686750D01*
G75*
G02*
X110682750Y-215905500I-218750J0D01*
G01*
X110170250Y-215905500D01*
G75*
G02*
X109951500Y-215686750I0J218750D01*
G01*
X109951500Y-215249250D01*
G75*
G02*
X110170250Y-215030500I218750J0D01*
G01*
G37*
G36*
G01*
X114742250Y-216631000D02*
X115254750Y-216631000D01*
G75*
G02*
X115473500Y-216849750I0J-218750D01*
G01*
X115473500Y-217287250D01*
G75*
G02*
X115254750Y-217506000I-218750J0D01*
G01*
X114742250Y-217506000D01*
G75*
G02*
X114523500Y-217287250I0J218750D01*
G01*
X114523500Y-216849750D01*
G75*
G02*
X114742250Y-216631000I218750J0D01*
G01*
G37*
G36*
G01*
X114742250Y-215056000D02*
X115254750Y-215056000D01*
G75*
G02*
X115473500Y-215274750I0J-218750D01*
G01*
X115473500Y-215712250D01*
G75*
G02*
X115254750Y-215931000I-218750J0D01*
G01*
X114742250Y-215931000D01*
G75*
G02*
X114523500Y-215712250I0J218750D01*
G01*
X114523500Y-215274750D01*
G75*
G02*
X114742250Y-215056000I218750J0D01*
G01*
G37*
G36*
G01*
X141166250Y-238700000D02*
X140653750Y-238700000D01*
G75*
G02*
X140435000Y-238481250I0J218750D01*
G01*
X140435000Y-238043750D01*
G75*
G02*
X140653750Y-237825000I218750J0D01*
G01*
X141166250Y-237825000D01*
G75*
G02*
X141385000Y-238043750I0J-218750D01*
G01*
X141385000Y-238481250D01*
G75*
G02*
X141166250Y-238700000I-218750J0D01*
G01*
G37*
G36*
G01*
X141166250Y-237125000D02*
X140653750Y-237125000D01*
G75*
G02*
X140435000Y-236906250I0J218750D01*
G01*
X140435000Y-236468750D01*
G75*
G02*
X140653750Y-236250000I218750J0D01*
G01*
X141166250Y-236250000D01*
G75*
G02*
X141385000Y-236468750I0J-218750D01*
G01*
X141385000Y-236906250D01*
G75*
G02*
X141166250Y-237125000I-218750J0D01*
G01*
G37*
G36*
G01*
X138943750Y-237850000D02*
X139456250Y-237850000D01*
G75*
G02*
X139675000Y-238068750I0J-218750D01*
G01*
X139675000Y-238506250D01*
G75*
G02*
X139456250Y-238725000I-218750J0D01*
G01*
X138943750Y-238725000D01*
G75*
G02*
X138725000Y-238506250I0J218750D01*
G01*
X138725000Y-238068750D01*
G75*
G02*
X138943750Y-237850000I218750J0D01*
G01*
G37*
G36*
G01*
X138943750Y-236275000D02*
X139456250Y-236275000D01*
G75*
G02*
X139675000Y-236493750I0J-218750D01*
G01*
X139675000Y-236931250D01*
G75*
G02*
X139456250Y-237150000I-218750J0D01*
G01*
X138943750Y-237150000D01*
G75*
G02*
X138725000Y-236931250I0J218750D01*
G01*
X138725000Y-236493750D01*
G75*
G02*
X138943750Y-236275000I218750J0D01*
G01*
G37*
G36*
G01*
X150714250Y-237061500D02*
X150201750Y-237061500D01*
G75*
G02*
X149983000Y-236842750I0J218750D01*
G01*
X149983000Y-236405250D01*
G75*
G02*
X150201750Y-236186500I218750J0D01*
G01*
X150714250Y-236186500D01*
G75*
G02*
X150933000Y-236405250I0J-218750D01*
G01*
X150933000Y-236842750D01*
G75*
G02*
X150714250Y-237061500I-218750J0D01*
G01*
G37*
G36*
G01*
X150714250Y-238636500D02*
X150201750Y-238636500D01*
G75*
G02*
X149983000Y-238417750I0J218750D01*
G01*
X149983000Y-237980250D01*
G75*
G02*
X150201750Y-237761500I218750J0D01*
G01*
X150714250Y-237761500D01*
G75*
G02*
X150933000Y-237980250I0J-218750D01*
G01*
X150933000Y-238417750D01*
G75*
G02*
X150714250Y-238636500I-218750J0D01*
G01*
G37*
G36*
G01*
X148543750Y-236187500D02*
X149056250Y-236187500D01*
G75*
G02*
X149275000Y-236406250I0J-218750D01*
G01*
X149275000Y-236843750D01*
G75*
G02*
X149056250Y-237062500I-218750J0D01*
G01*
X148543750Y-237062500D01*
G75*
G02*
X148325000Y-236843750I0J218750D01*
G01*
X148325000Y-236406250D01*
G75*
G02*
X148543750Y-236187500I218750J0D01*
G01*
G37*
G36*
G01*
X148543750Y-237762500D02*
X149056250Y-237762500D01*
G75*
G02*
X149275000Y-237981250I0J-218750D01*
G01*
X149275000Y-238418750D01*
G75*
G02*
X149056250Y-238637500I-218750J0D01*
G01*
X148543750Y-238637500D01*
G75*
G02*
X148325000Y-238418750I0J218750D01*
G01*
X148325000Y-237981250D01*
G75*
G02*
X148543750Y-237762500I218750J0D01*
G01*
G37*
G36*
G01*
X144266250Y-238687500D02*
X143753750Y-238687500D01*
G75*
G02*
X143535000Y-238468750I0J218750D01*
G01*
X143535000Y-238031250D01*
G75*
G02*
X143753750Y-237812500I218750J0D01*
G01*
X144266250Y-237812500D01*
G75*
G02*
X144485000Y-238031250I0J-218750D01*
G01*
X144485000Y-238468750D01*
G75*
G02*
X144266250Y-238687500I-218750J0D01*
G01*
G37*
G36*
G01*
X144266250Y-237112500D02*
X143753750Y-237112500D01*
G75*
G02*
X143535000Y-236893750I0J218750D01*
G01*
X143535000Y-236456250D01*
G75*
G02*
X143753750Y-236237500I218750J0D01*
G01*
X144266250Y-236237500D01*
G75*
G02*
X144485000Y-236456250I0J-218750D01*
G01*
X144485000Y-236893750D01*
G75*
G02*
X144266250Y-237112500I-218750J0D01*
G01*
G37*
G36*
G01*
X142110750Y-236303000D02*
X142623250Y-236303000D01*
G75*
G02*
X142842000Y-236521750I0J-218750D01*
G01*
X142842000Y-236959250D01*
G75*
G02*
X142623250Y-237178000I-218750J0D01*
G01*
X142110750Y-237178000D01*
G75*
G02*
X141892000Y-236959250I0J218750D01*
G01*
X141892000Y-236521750D01*
G75*
G02*
X142110750Y-236303000I218750J0D01*
G01*
G37*
G36*
G01*
X142110750Y-237878000D02*
X142623250Y-237878000D01*
G75*
G02*
X142842000Y-238096750I0J-218750D01*
G01*
X142842000Y-238534250D01*
G75*
G02*
X142623250Y-238753000I-218750J0D01*
G01*
X142110750Y-238753000D01*
G75*
G02*
X141892000Y-238534250I0J218750D01*
G01*
X141892000Y-238096750D01*
G75*
G02*
X142110750Y-237878000I218750J0D01*
G01*
G37*
G36*
G01*
X154027750Y-237100000D02*
X153515250Y-237100000D01*
G75*
G02*
X153296500Y-236881250I0J218750D01*
G01*
X153296500Y-236443750D01*
G75*
G02*
X153515250Y-236225000I218750J0D01*
G01*
X154027750Y-236225000D01*
G75*
G02*
X154246500Y-236443750I0J-218750D01*
G01*
X154246500Y-236881250D01*
G75*
G02*
X154027750Y-237100000I-218750J0D01*
G01*
G37*
G36*
G01*
X154027750Y-238675000D02*
X153515250Y-238675000D01*
G75*
G02*
X153296500Y-238456250I0J218750D01*
G01*
X153296500Y-238018750D01*
G75*
G02*
X153515250Y-237800000I218750J0D01*
G01*
X154027750Y-237800000D01*
G75*
G02*
X154246500Y-238018750I0J-218750D01*
G01*
X154246500Y-238456250D01*
G75*
G02*
X154027750Y-238675000I-218750J0D01*
G01*
G37*
G36*
G01*
X151780250Y-237800000D02*
X152292750Y-237800000D01*
G75*
G02*
X152511500Y-238018750I0J-218750D01*
G01*
X152511500Y-238456250D01*
G75*
G02*
X152292750Y-238675000I-218750J0D01*
G01*
X151780250Y-238675000D01*
G75*
G02*
X151561500Y-238456250I0J218750D01*
G01*
X151561500Y-238018750D01*
G75*
G02*
X151780250Y-237800000I218750J0D01*
G01*
G37*
G36*
G01*
X151780250Y-236225000D02*
X152292750Y-236225000D01*
G75*
G02*
X152511500Y-236443750I0J-218750D01*
G01*
X152511500Y-236881250D01*
G75*
G02*
X152292750Y-237100000I-218750J0D01*
G01*
X151780250Y-237100000D01*
G75*
G02*
X151561500Y-236881250I0J218750D01*
G01*
X151561500Y-236443750D01*
G75*
G02*
X151780250Y-236225000I218750J0D01*
G01*
G37*
G36*
G01*
X135643750Y-216875000D02*
X136156250Y-216875000D01*
G75*
G02*
X136375000Y-217093750I0J-218750D01*
G01*
X136375000Y-217531250D01*
G75*
G02*
X136156250Y-217750000I-218750J0D01*
G01*
X135643750Y-217750000D01*
G75*
G02*
X135425000Y-217531250I0J218750D01*
G01*
X135425000Y-217093750D01*
G75*
G02*
X135643750Y-216875000I218750J0D01*
G01*
G37*
G36*
G01*
X135643750Y-218450000D02*
X136156250Y-218450000D01*
G75*
G02*
X136375000Y-218668750I0J-218750D01*
G01*
X136375000Y-219106250D01*
G75*
G02*
X136156250Y-219325000I-218750J0D01*
G01*
X135643750Y-219325000D01*
G75*
G02*
X135425000Y-219106250I0J218750D01*
G01*
X135425000Y-218668750D01*
G75*
G02*
X135643750Y-218450000I218750J0D01*
G01*
G37*
G36*
G01*
X153412500Y-215443750D02*
X153412500Y-215956250D01*
G75*
G02*
X153193750Y-216175000I-218750J0D01*
G01*
X152756250Y-216175000D01*
G75*
G02*
X152537500Y-215956250I0J218750D01*
G01*
X152537500Y-215443750D01*
G75*
G02*
X152756250Y-215225000I218750J0D01*
G01*
X153193750Y-215225000D01*
G75*
G02*
X153412500Y-215443750I0J-218750D01*
G01*
G37*
G36*
G01*
X151837500Y-215443750D02*
X151837500Y-215956250D01*
G75*
G02*
X151618750Y-216175000I-218750J0D01*
G01*
X151181250Y-216175000D01*
G75*
G02*
X150962500Y-215956250I0J218750D01*
G01*
X150962500Y-215443750D01*
G75*
G02*
X151181250Y-215225000I218750J0D01*
G01*
X151618750Y-215225000D01*
G75*
G02*
X151837500Y-215443750I0J-218750D01*
G01*
G37*
G36*
G01*
X148043750Y-216862500D02*
X148556250Y-216862500D01*
G75*
G02*
X148775000Y-217081250I0J-218750D01*
G01*
X148775000Y-217518750D01*
G75*
G02*
X148556250Y-217737500I-218750J0D01*
G01*
X148043750Y-217737500D01*
G75*
G02*
X147825000Y-217518750I0J218750D01*
G01*
X147825000Y-217081250D01*
G75*
G02*
X148043750Y-216862500I218750J0D01*
G01*
G37*
G36*
G01*
X148043750Y-218437500D02*
X148556250Y-218437500D01*
G75*
G02*
X148775000Y-218656250I0J-218750D01*
G01*
X148775000Y-219093750D01*
G75*
G02*
X148556250Y-219312500I-218750J0D01*
G01*
X148043750Y-219312500D01*
G75*
G02*
X147825000Y-219093750I0J218750D01*
G01*
X147825000Y-218656250D01*
G75*
G02*
X148043750Y-218437500I218750J0D01*
G01*
G37*
G36*
G01*
X142043750Y-218450000D02*
X142556250Y-218450000D01*
G75*
G02*
X142775000Y-218668750I0J-218750D01*
G01*
X142775000Y-219106250D01*
G75*
G02*
X142556250Y-219325000I-218750J0D01*
G01*
X142043750Y-219325000D01*
G75*
G02*
X141825000Y-219106250I0J218750D01*
G01*
X141825000Y-218668750D01*
G75*
G02*
X142043750Y-218450000I218750J0D01*
G01*
G37*
G36*
G01*
X142043750Y-216875000D02*
X142556250Y-216875000D01*
G75*
G02*
X142775000Y-217093750I0J-218750D01*
G01*
X142775000Y-217531250D01*
G75*
G02*
X142556250Y-217750000I-218750J0D01*
G01*
X142043750Y-217750000D01*
G75*
G02*
X141825000Y-217531250I0J218750D01*
G01*
X141825000Y-217093750D01*
G75*
G02*
X142043750Y-216875000I218750J0D01*
G01*
G37*
G36*
G01*
X149643750Y-216875000D02*
X150156250Y-216875000D01*
G75*
G02*
X150375000Y-217093750I0J-218750D01*
G01*
X150375000Y-217531250D01*
G75*
G02*
X150156250Y-217750000I-218750J0D01*
G01*
X149643750Y-217750000D01*
G75*
G02*
X149425000Y-217531250I0J218750D01*
G01*
X149425000Y-217093750D01*
G75*
G02*
X149643750Y-216875000I218750J0D01*
G01*
G37*
G36*
G01*
X149643750Y-218450000D02*
X150156250Y-218450000D01*
G75*
G02*
X150375000Y-218668750I0J-218750D01*
G01*
X150375000Y-219106250D01*
G75*
G02*
X150156250Y-219325000I-218750J0D01*
G01*
X149643750Y-219325000D01*
G75*
G02*
X149425000Y-219106250I0J218750D01*
G01*
X149425000Y-218668750D01*
G75*
G02*
X149643750Y-218450000I218750J0D01*
G01*
G37*
G36*
G01*
X143543750Y-216862500D02*
X144056250Y-216862500D01*
G75*
G02*
X144275000Y-217081250I0J-218750D01*
G01*
X144275000Y-217518750D01*
G75*
G02*
X144056250Y-217737500I-218750J0D01*
G01*
X143543750Y-217737500D01*
G75*
G02*
X143325000Y-217518750I0J218750D01*
G01*
X143325000Y-217081250D01*
G75*
G02*
X143543750Y-216862500I218750J0D01*
G01*
G37*
G36*
G01*
X143543750Y-218437500D02*
X144056250Y-218437500D01*
G75*
G02*
X144275000Y-218656250I0J-218750D01*
G01*
X144275000Y-219093750D01*
G75*
G02*
X144056250Y-219312500I-218750J0D01*
G01*
X143543750Y-219312500D01*
G75*
G02*
X143325000Y-219093750I0J218750D01*
G01*
X143325000Y-218656250D01*
G75*
G02*
X143543750Y-218437500I218750J0D01*
G01*
G37*
G36*
G01*
X137243750Y-218450000D02*
X137756250Y-218450000D01*
G75*
G02*
X137975000Y-218668750I0J-218750D01*
G01*
X137975000Y-219106250D01*
G75*
G02*
X137756250Y-219325000I-218750J0D01*
G01*
X137243750Y-219325000D01*
G75*
G02*
X137025000Y-219106250I0J218750D01*
G01*
X137025000Y-218668750D01*
G75*
G02*
X137243750Y-218450000I218750J0D01*
G01*
G37*
G36*
G01*
X137243750Y-216875000D02*
X137756250Y-216875000D01*
G75*
G02*
X137975000Y-217093750I0J-218750D01*
G01*
X137975000Y-217531250D01*
G75*
G02*
X137756250Y-217750000I-218750J0D01*
G01*
X137243750Y-217750000D01*
G75*
G02*
X137025000Y-217531250I0J218750D01*
G01*
X137025000Y-217093750D01*
G75*
G02*
X137243750Y-216875000I218750J0D01*
G01*
G37*
G36*
G01*
X156491050Y-209390500D02*
X157003550Y-209390500D01*
G75*
G02*
X157222300Y-209609250I0J-218750D01*
G01*
X157222300Y-210046750D01*
G75*
G02*
X157003550Y-210265500I-218750J0D01*
G01*
X156491050Y-210265500D01*
G75*
G02*
X156272300Y-210046750I0J218750D01*
G01*
X156272300Y-209609250D01*
G75*
G02*
X156491050Y-209390500I218750J0D01*
G01*
G37*
G36*
G01*
X156491050Y-207815500D02*
X157003550Y-207815500D01*
G75*
G02*
X157222300Y-208034250I0J-218750D01*
G01*
X157222300Y-208471750D01*
G75*
G02*
X157003550Y-208690500I-218750J0D01*
G01*
X156491050Y-208690500D01*
G75*
G02*
X156272300Y-208471750I0J218750D01*
G01*
X156272300Y-208034250D01*
G75*
G02*
X156491050Y-207815500I218750J0D01*
G01*
G37*
G36*
G01*
X154977050Y-207826800D02*
X155489550Y-207826800D01*
G75*
G02*
X155708300Y-208045550I0J-218750D01*
G01*
X155708300Y-208483050D01*
G75*
G02*
X155489550Y-208701800I-218750J0D01*
G01*
X154977050Y-208701800D01*
G75*
G02*
X154758300Y-208483050I0J218750D01*
G01*
X154758300Y-208045550D01*
G75*
G02*
X154977050Y-207826800I218750J0D01*
G01*
G37*
G36*
G01*
X154977050Y-209401800D02*
X155489550Y-209401800D01*
G75*
G02*
X155708300Y-209620550I0J-218750D01*
G01*
X155708300Y-210058050D01*
G75*
G02*
X155489550Y-210276800I-218750J0D01*
G01*
X154977050Y-210276800D01*
G75*
G02*
X154758300Y-210058050I0J218750D01*
G01*
X154758300Y-209620550D01*
G75*
G02*
X154977050Y-209401800I218750J0D01*
G01*
G37*
G36*
G01*
X152743750Y-216862500D02*
X153256250Y-216862500D01*
G75*
G02*
X153475000Y-217081250I0J-218750D01*
G01*
X153475000Y-217518750D01*
G75*
G02*
X153256250Y-217737500I-218750J0D01*
G01*
X152743750Y-217737500D01*
G75*
G02*
X152525000Y-217518750I0J218750D01*
G01*
X152525000Y-217081250D01*
G75*
G02*
X152743750Y-216862500I218750J0D01*
G01*
G37*
G36*
G01*
X152743750Y-218437500D02*
X153256250Y-218437500D01*
G75*
G02*
X153475000Y-218656250I0J-218750D01*
G01*
X153475000Y-219093750D01*
G75*
G02*
X153256250Y-219312500I-218750J0D01*
G01*
X152743750Y-219312500D01*
G75*
G02*
X152525000Y-219093750I0J218750D01*
G01*
X152525000Y-218656250D01*
G75*
G02*
X152743750Y-218437500I218750J0D01*
G01*
G37*
G36*
G01*
X146543750Y-218450000D02*
X147056250Y-218450000D01*
G75*
G02*
X147275000Y-218668750I0J-218750D01*
G01*
X147275000Y-219106250D01*
G75*
G02*
X147056250Y-219325000I-218750J0D01*
G01*
X146543750Y-219325000D01*
G75*
G02*
X146325000Y-219106250I0J218750D01*
G01*
X146325000Y-218668750D01*
G75*
G02*
X146543750Y-218450000I218750J0D01*
G01*
G37*
G36*
G01*
X146543750Y-216875000D02*
X147056250Y-216875000D01*
G75*
G02*
X147275000Y-217093750I0J-218750D01*
G01*
X147275000Y-217531250D01*
G75*
G02*
X147056250Y-217750000I-218750J0D01*
G01*
X146543750Y-217750000D01*
G75*
G02*
X146325000Y-217531250I0J218750D01*
G01*
X146325000Y-217093750D01*
G75*
G02*
X146543750Y-216875000I218750J0D01*
G01*
G37*
G36*
G01*
X140443750Y-216875000D02*
X140956250Y-216875000D01*
G75*
G02*
X141175000Y-217093750I0J-218750D01*
G01*
X141175000Y-217531250D01*
G75*
G02*
X140956250Y-217750000I-218750J0D01*
G01*
X140443750Y-217750000D01*
G75*
G02*
X140225000Y-217531250I0J218750D01*
G01*
X140225000Y-217093750D01*
G75*
G02*
X140443750Y-216875000I218750J0D01*
G01*
G37*
G36*
G01*
X140443750Y-218450000D02*
X140956250Y-218450000D01*
G75*
G02*
X141175000Y-218668750I0J-218750D01*
G01*
X141175000Y-219106250D01*
G75*
G02*
X140956250Y-219325000I-218750J0D01*
G01*
X140443750Y-219325000D01*
G75*
G02*
X140225000Y-219106250I0J218750D01*
G01*
X140225000Y-218668750D01*
G75*
G02*
X140443750Y-218450000I218750J0D01*
G01*
G37*
G36*
G01*
X134043750Y-218437500D02*
X134556250Y-218437500D01*
G75*
G02*
X134775000Y-218656250I0J-218750D01*
G01*
X134775000Y-219093750D01*
G75*
G02*
X134556250Y-219312500I-218750J0D01*
G01*
X134043750Y-219312500D01*
G75*
G02*
X133825000Y-219093750I0J218750D01*
G01*
X133825000Y-218656250D01*
G75*
G02*
X134043750Y-218437500I218750J0D01*
G01*
G37*
G36*
G01*
X134043750Y-216862500D02*
X134556250Y-216862500D01*
G75*
G02*
X134775000Y-217081250I0J-218750D01*
G01*
X134775000Y-217518750D01*
G75*
G02*
X134556250Y-217737500I-218750J0D01*
G01*
X134043750Y-217737500D01*
G75*
G02*
X133825000Y-217518750I0J218750D01*
G01*
X133825000Y-217081250D01*
G75*
G02*
X134043750Y-216862500I218750J0D01*
G01*
G37*
G36*
G01*
X193926750Y-236519000D02*
X194439250Y-236519000D01*
G75*
G02*
X194658000Y-236737750I0J-218750D01*
G01*
X194658000Y-237175250D01*
G75*
G02*
X194439250Y-237394000I-218750J0D01*
G01*
X193926750Y-237394000D01*
G75*
G02*
X193708000Y-237175250I0J218750D01*
G01*
X193708000Y-236737750D01*
G75*
G02*
X193926750Y-236519000I218750J0D01*
G01*
G37*
G36*
G01*
X193926750Y-238094000D02*
X194439250Y-238094000D01*
G75*
G02*
X194658000Y-238312750I0J-218750D01*
G01*
X194658000Y-238750250D01*
G75*
G02*
X194439250Y-238969000I-218750J0D01*
G01*
X193926750Y-238969000D01*
G75*
G02*
X193708000Y-238750250I0J218750D01*
G01*
X193708000Y-238312750D01*
G75*
G02*
X193926750Y-238094000I218750J0D01*
G01*
G37*
G36*
G01*
X192402750Y-239897500D02*
X192915250Y-239897500D01*
G75*
G02*
X193134000Y-240116250I0J-218750D01*
G01*
X193134000Y-240553750D01*
G75*
G02*
X192915250Y-240772500I-218750J0D01*
G01*
X192402750Y-240772500D01*
G75*
G02*
X192184000Y-240553750I0J218750D01*
G01*
X192184000Y-240116250D01*
G75*
G02*
X192402750Y-239897500I218750J0D01*
G01*
G37*
G36*
G01*
X192402750Y-238322500D02*
X192915250Y-238322500D01*
G75*
G02*
X193134000Y-238541250I0J-218750D01*
G01*
X193134000Y-238978750D01*
G75*
G02*
X192915250Y-239197500I-218750J0D01*
G01*
X192402750Y-239197500D01*
G75*
G02*
X192184000Y-238978750I0J218750D01*
G01*
X192184000Y-238541250D01*
G75*
G02*
X192402750Y-238322500I218750J0D01*
G01*
G37*
G36*
G01*
X199980000Y-220533250D02*
X199980000Y-221045750D01*
G75*
G02*
X199761250Y-221264500I-218750J0D01*
G01*
X199323750Y-221264500D01*
G75*
G02*
X199105000Y-221045750I0J218750D01*
G01*
X199105000Y-220533250D01*
G75*
G02*
X199323750Y-220314500I218750J0D01*
G01*
X199761250Y-220314500D01*
G75*
G02*
X199980000Y-220533250I0J-218750D01*
G01*
G37*
G36*
G01*
X198405000Y-220533250D02*
X198405000Y-221045750D01*
G75*
G02*
X198186250Y-221264500I-218750J0D01*
G01*
X197748750Y-221264500D01*
G75*
G02*
X197530000Y-221045750I0J218750D01*
G01*
X197530000Y-220533250D01*
G75*
G02*
X197748750Y-220314500I218750J0D01*
G01*
X198186250Y-220314500D01*
G75*
G02*
X198405000Y-220533250I0J-218750D01*
G01*
G37*
G36*
G01*
X195357000Y-220469750D02*
X195357000Y-220982250D01*
G75*
G02*
X195138250Y-221201000I-218750J0D01*
G01*
X194700750Y-221201000D01*
G75*
G02*
X194482000Y-220982250I0J218750D01*
G01*
X194482000Y-220469750D01*
G75*
G02*
X194700750Y-220251000I218750J0D01*
G01*
X195138250Y-220251000D01*
G75*
G02*
X195357000Y-220469750I0J-218750D01*
G01*
G37*
G36*
G01*
X196932000Y-220469750D02*
X196932000Y-220982250D01*
G75*
G02*
X196713250Y-221201000I-218750J0D01*
G01*
X196275750Y-221201000D01*
G75*
G02*
X196057000Y-220982250I0J218750D01*
G01*
X196057000Y-220469750D01*
G75*
G02*
X196275750Y-220251000I218750J0D01*
G01*
X196713250Y-220251000D01*
G75*
G02*
X196932000Y-220469750I0J-218750D01*
G01*
G37*
D16*
X104100000Y-249200000D03*
X107500000Y-249200000D03*
D17*
X80650000Y-225650000D03*
X80650000Y-220570000D03*
D16*
X101600000Y-249200000D03*
X98200000Y-249200000D03*
G36*
G01*
X133506250Y-159225000D02*
X132993750Y-159225000D01*
G75*
G02*
X132775000Y-159006250I0J218750D01*
G01*
X132775000Y-158568750D01*
G75*
G02*
X132993750Y-158350000I218750J0D01*
G01*
X133506250Y-158350000D01*
G75*
G02*
X133725000Y-158568750I0J-218750D01*
G01*
X133725000Y-159006250D01*
G75*
G02*
X133506250Y-159225000I-218750J0D01*
G01*
G37*
G36*
G01*
X133506250Y-157650000D02*
X132993750Y-157650000D01*
G75*
G02*
X132775000Y-157431250I0J218750D01*
G01*
X132775000Y-156993750D01*
G75*
G02*
X132993750Y-156775000I218750J0D01*
G01*
X133506250Y-156775000D01*
G75*
G02*
X133725000Y-156993750I0J-218750D01*
G01*
X133725000Y-157431250D01*
G75*
G02*
X133506250Y-157650000I-218750J0D01*
G01*
G37*
G36*
G01*
X111743750Y-156775000D02*
X112256250Y-156775000D01*
G75*
G02*
X112475000Y-156993750I0J-218750D01*
G01*
X112475000Y-157431250D01*
G75*
G02*
X112256250Y-157650000I-218750J0D01*
G01*
X111743750Y-157650000D01*
G75*
G02*
X111525000Y-157431250I0J218750D01*
G01*
X111525000Y-156993750D01*
G75*
G02*
X111743750Y-156775000I218750J0D01*
G01*
G37*
G36*
G01*
X111743750Y-158350000D02*
X112256250Y-158350000D01*
G75*
G02*
X112475000Y-158568750I0J-218750D01*
G01*
X112475000Y-159006250D01*
G75*
G02*
X112256250Y-159225000I-218750J0D01*
G01*
X111743750Y-159225000D01*
G75*
G02*
X111525000Y-159006250I0J218750D01*
G01*
X111525000Y-158568750D01*
G75*
G02*
X111743750Y-158350000I218750J0D01*
G01*
G37*
G36*
G01*
X156756250Y-158150000D02*
X156243750Y-158150000D01*
G75*
G02*
X156025000Y-157931250I0J218750D01*
G01*
X156025000Y-157493750D01*
G75*
G02*
X156243750Y-157275000I218750J0D01*
G01*
X156756250Y-157275000D01*
G75*
G02*
X156975000Y-157493750I0J-218750D01*
G01*
X156975000Y-157931250D01*
G75*
G02*
X156756250Y-158150000I-218750J0D01*
G01*
G37*
G36*
G01*
X156756250Y-159725000D02*
X156243750Y-159725000D01*
G75*
G02*
X156025000Y-159506250I0J218750D01*
G01*
X156025000Y-159068750D01*
G75*
G02*
X156243750Y-158850000I218750J0D01*
G01*
X156756250Y-158850000D01*
G75*
G02*
X156975000Y-159068750I0J-218750D01*
G01*
X156975000Y-159506250D01*
G75*
G02*
X156756250Y-159725000I-218750J0D01*
G01*
G37*
G36*
G01*
X133243750Y-80137500D02*
X133756250Y-80137500D01*
G75*
G02*
X133975000Y-80356250I0J-218750D01*
G01*
X133975000Y-80793750D01*
G75*
G02*
X133756250Y-81012500I-218750J0D01*
G01*
X133243750Y-81012500D01*
G75*
G02*
X133025000Y-80793750I0J218750D01*
G01*
X133025000Y-80356250D01*
G75*
G02*
X133243750Y-80137500I218750J0D01*
G01*
G37*
G36*
G01*
X133243750Y-78562500D02*
X133756250Y-78562500D01*
G75*
G02*
X133975000Y-78781250I0J-218750D01*
G01*
X133975000Y-79218750D01*
G75*
G02*
X133756250Y-79437500I-218750J0D01*
G01*
X133243750Y-79437500D01*
G75*
G02*
X133025000Y-79218750I0J218750D01*
G01*
X133025000Y-78781250D01*
G75*
G02*
X133243750Y-78562500I218750J0D01*
G01*
G37*
G36*
G01*
X94308000Y-241205000D02*
X94308000Y-241505000D01*
G75*
G02*
X94158000Y-241655000I-150000J0D01*
G01*
X92508000Y-241655000D01*
G75*
G02*
X92358000Y-241505000I0J150000D01*
G01*
X92358000Y-241205000D01*
G75*
G02*
X92508000Y-241055000I150000J0D01*
G01*
X94158000Y-241055000D01*
G75*
G02*
X94308000Y-241205000I0J-150000D01*
G01*
G37*
G36*
G01*
X94308000Y-239935000D02*
X94308000Y-240235000D01*
G75*
G02*
X94158000Y-240385000I-150000J0D01*
G01*
X92508000Y-240385000D01*
G75*
G02*
X92358000Y-240235000I0J150000D01*
G01*
X92358000Y-239935000D01*
G75*
G02*
X92508000Y-239785000I150000J0D01*
G01*
X94158000Y-239785000D01*
G75*
G02*
X94308000Y-239935000I0J-150000D01*
G01*
G37*
G36*
G01*
X94308000Y-238665000D02*
X94308000Y-238965000D01*
G75*
G02*
X94158000Y-239115000I-150000J0D01*
G01*
X92508000Y-239115000D01*
G75*
G02*
X92358000Y-238965000I0J150000D01*
G01*
X92358000Y-238665000D01*
G75*
G02*
X92508000Y-238515000I150000J0D01*
G01*
X94158000Y-238515000D01*
G75*
G02*
X94308000Y-238665000I0J-150000D01*
G01*
G37*
G36*
G01*
X94308000Y-237395000D02*
X94308000Y-237695000D01*
G75*
G02*
X94158000Y-237845000I-150000J0D01*
G01*
X92508000Y-237845000D01*
G75*
G02*
X92358000Y-237695000I0J150000D01*
G01*
X92358000Y-237395000D01*
G75*
G02*
X92508000Y-237245000I150000J0D01*
G01*
X94158000Y-237245000D01*
G75*
G02*
X94308000Y-237395000I0J-150000D01*
G01*
G37*
G36*
G01*
X89358000Y-237395000D02*
X89358000Y-237695000D01*
G75*
G02*
X89208000Y-237845000I-150000J0D01*
G01*
X87558000Y-237845000D01*
G75*
G02*
X87408000Y-237695000I0J150000D01*
G01*
X87408000Y-237395000D01*
G75*
G02*
X87558000Y-237245000I150000J0D01*
G01*
X89208000Y-237245000D01*
G75*
G02*
X89358000Y-237395000I0J-150000D01*
G01*
G37*
G36*
G01*
X89358000Y-238665000D02*
X89358000Y-238965000D01*
G75*
G02*
X89208000Y-239115000I-150000J0D01*
G01*
X87558000Y-239115000D01*
G75*
G02*
X87408000Y-238965000I0J150000D01*
G01*
X87408000Y-238665000D01*
G75*
G02*
X87558000Y-238515000I150000J0D01*
G01*
X89208000Y-238515000D01*
G75*
G02*
X89358000Y-238665000I0J-150000D01*
G01*
G37*
G36*
G01*
X89358000Y-239935000D02*
X89358000Y-240235000D01*
G75*
G02*
X89208000Y-240385000I-150000J0D01*
G01*
X87558000Y-240385000D01*
G75*
G02*
X87408000Y-240235000I0J150000D01*
G01*
X87408000Y-239935000D01*
G75*
G02*
X87558000Y-239785000I150000J0D01*
G01*
X89208000Y-239785000D01*
G75*
G02*
X89358000Y-239935000I0J-150000D01*
G01*
G37*
G36*
G01*
X89358000Y-241205000D02*
X89358000Y-241505000D01*
G75*
G02*
X89208000Y-241655000I-150000J0D01*
G01*
X87558000Y-241655000D01*
G75*
G02*
X87408000Y-241505000I0J150000D01*
G01*
X87408000Y-241205000D01*
G75*
G02*
X87558000Y-241055000I150000J0D01*
G01*
X89208000Y-241055000D01*
G75*
G02*
X89358000Y-241205000I0J-150000D01*
G01*
G37*
D18*
X173750000Y-218500000D03*
X173750000Y-220400000D03*
X171550000Y-220400000D03*
X171550000Y-219450000D03*
X171550000Y-218500000D03*
G36*
G01*
X109325000Y-229325000D02*
X109075000Y-229325000D01*
G75*
G02*
X108950000Y-229200000I0J125000D01*
G01*
X108950000Y-227950000D01*
G75*
G02*
X109075000Y-227825000I125000J0D01*
G01*
X109325000Y-227825000D01*
G75*
G02*
X109450000Y-227950000I0J-125000D01*
G01*
X109450000Y-229200000D01*
G75*
G02*
X109325000Y-229325000I-125000J0D01*
G01*
G37*
G36*
G01*
X110125000Y-229325000D02*
X109875000Y-229325000D01*
G75*
G02*
X109750000Y-229200000I0J125000D01*
G01*
X109750000Y-227950000D01*
G75*
G02*
X109875000Y-227825000I125000J0D01*
G01*
X110125000Y-227825000D01*
G75*
G02*
X110250000Y-227950000I0J-125000D01*
G01*
X110250000Y-229200000D01*
G75*
G02*
X110125000Y-229325000I-125000J0D01*
G01*
G37*
G36*
G01*
X110925000Y-229325000D02*
X110675000Y-229325000D01*
G75*
G02*
X110550000Y-229200000I0J125000D01*
G01*
X110550000Y-227950000D01*
G75*
G02*
X110675000Y-227825000I125000J0D01*
G01*
X110925000Y-227825000D01*
G75*
G02*
X111050000Y-227950000I0J-125000D01*
G01*
X111050000Y-229200000D01*
G75*
G02*
X110925000Y-229325000I-125000J0D01*
G01*
G37*
G36*
G01*
X111725000Y-229325000D02*
X111475000Y-229325000D01*
G75*
G02*
X111350000Y-229200000I0J125000D01*
G01*
X111350000Y-227950000D01*
G75*
G02*
X111475000Y-227825000I125000J0D01*
G01*
X111725000Y-227825000D01*
G75*
G02*
X111850000Y-227950000I0J-125000D01*
G01*
X111850000Y-229200000D01*
G75*
G02*
X111725000Y-229325000I-125000J0D01*
G01*
G37*
G36*
G01*
X112525000Y-229325000D02*
X112275000Y-229325000D01*
G75*
G02*
X112150000Y-229200000I0J125000D01*
G01*
X112150000Y-227950000D01*
G75*
G02*
X112275000Y-227825000I125000J0D01*
G01*
X112525000Y-227825000D01*
G75*
G02*
X112650000Y-227950000I0J-125000D01*
G01*
X112650000Y-229200000D01*
G75*
G02*
X112525000Y-229325000I-125000J0D01*
G01*
G37*
G36*
G01*
X113325000Y-229325000D02*
X113075000Y-229325000D01*
G75*
G02*
X112950000Y-229200000I0J125000D01*
G01*
X112950000Y-227950000D01*
G75*
G02*
X113075000Y-227825000I125000J0D01*
G01*
X113325000Y-227825000D01*
G75*
G02*
X113450000Y-227950000I0J-125000D01*
G01*
X113450000Y-229200000D01*
G75*
G02*
X113325000Y-229325000I-125000J0D01*
G01*
G37*
G36*
G01*
X114125000Y-229325000D02*
X113875000Y-229325000D01*
G75*
G02*
X113750000Y-229200000I0J125000D01*
G01*
X113750000Y-227950000D01*
G75*
G02*
X113875000Y-227825000I125000J0D01*
G01*
X114125000Y-227825000D01*
G75*
G02*
X114250000Y-227950000I0J-125000D01*
G01*
X114250000Y-229200000D01*
G75*
G02*
X114125000Y-229325000I-125000J0D01*
G01*
G37*
G36*
G01*
X114925000Y-229325000D02*
X114675000Y-229325000D01*
G75*
G02*
X114550000Y-229200000I0J125000D01*
G01*
X114550000Y-227950000D01*
G75*
G02*
X114675000Y-227825000I125000J0D01*
G01*
X114925000Y-227825000D01*
G75*
G02*
X115050000Y-227950000I0J-125000D01*
G01*
X115050000Y-229200000D01*
G75*
G02*
X114925000Y-229325000I-125000J0D01*
G01*
G37*
G36*
G01*
X116800000Y-227450000D02*
X115550000Y-227450000D01*
G75*
G02*
X115425000Y-227325000I0J125000D01*
G01*
X115425000Y-227075000D01*
G75*
G02*
X115550000Y-226950000I125000J0D01*
G01*
X116800000Y-226950000D01*
G75*
G02*
X116925000Y-227075000I0J-125000D01*
G01*
X116925000Y-227325000D01*
G75*
G02*
X116800000Y-227450000I-125000J0D01*
G01*
G37*
G36*
G01*
X116800000Y-226650000D02*
X115550000Y-226650000D01*
G75*
G02*
X115425000Y-226525000I0J125000D01*
G01*
X115425000Y-226275000D01*
G75*
G02*
X115550000Y-226150000I125000J0D01*
G01*
X116800000Y-226150000D01*
G75*
G02*
X116925000Y-226275000I0J-125000D01*
G01*
X116925000Y-226525000D01*
G75*
G02*
X116800000Y-226650000I-125000J0D01*
G01*
G37*
G36*
G01*
X116800000Y-225850000D02*
X115550000Y-225850000D01*
G75*
G02*
X115425000Y-225725000I0J125000D01*
G01*
X115425000Y-225475000D01*
G75*
G02*
X115550000Y-225350000I125000J0D01*
G01*
X116800000Y-225350000D01*
G75*
G02*
X116925000Y-225475000I0J-125000D01*
G01*
X116925000Y-225725000D01*
G75*
G02*
X116800000Y-225850000I-125000J0D01*
G01*
G37*
G36*
G01*
X116800000Y-225050000D02*
X115550000Y-225050000D01*
G75*
G02*
X115425000Y-224925000I0J125000D01*
G01*
X115425000Y-224675000D01*
G75*
G02*
X115550000Y-224550000I125000J0D01*
G01*
X116800000Y-224550000D01*
G75*
G02*
X116925000Y-224675000I0J-125000D01*
G01*
X116925000Y-224925000D01*
G75*
G02*
X116800000Y-225050000I-125000J0D01*
G01*
G37*
G36*
G01*
X116800000Y-224250000D02*
X115550000Y-224250000D01*
G75*
G02*
X115425000Y-224125000I0J125000D01*
G01*
X115425000Y-223875000D01*
G75*
G02*
X115550000Y-223750000I125000J0D01*
G01*
X116800000Y-223750000D01*
G75*
G02*
X116925000Y-223875000I0J-125000D01*
G01*
X116925000Y-224125000D01*
G75*
G02*
X116800000Y-224250000I-125000J0D01*
G01*
G37*
G36*
G01*
X116800000Y-223450000D02*
X115550000Y-223450000D01*
G75*
G02*
X115425000Y-223325000I0J125000D01*
G01*
X115425000Y-223075000D01*
G75*
G02*
X115550000Y-222950000I125000J0D01*
G01*
X116800000Y-222950000D01*
G75*
G02*
X116925000Y-223075000I0J-125000D01*
G01*
X116925000Y-223325000D01*
G75*
G02*
X116800000Y-223450000I-125000J0D01*
G01*
G37*
G36*
G01*
X116800000Y-222650000D02*
X115550000Y-222650000D01*
G75*
G02*
X115425000Y-222525000I0J125000D01*
G01*
X115425000Y-222275000D01*
G75*
G02*
X115550000Y-222150000I125000J0D01*
G01*
X116800000Y-222150000D01*
G75*
G02*
X116925000Y-222275000I0J-125000D01*
G01*
X116925000Y-222525000D01*
G75*
G02*
X116800000Y-222650000I-125000J0D01*
G01*
G37*
G36*
G01*
X116800000Y-221850000D02*
X115550000Y-221850000D01*
G75*
G02*
X115425000Y-221725000I0J125000D01*
G01*
X115425000Y-221475000D01*
G75*
G02*
X115550000Y-221350000I125000J0D01*
G01*
X116800000Y-221350000D01*
G75*
G02*
X116925000Y-221475000I0J-125000D01*
G01*
X116925000Y-221725000D01*
G75*
G02*
X116800000Y-221850000I-125000J0D01*
G01*
G37*
G36*
G01*
X114925000Y-220975000D02*
X114675000Y-220975000D01*
G75*
G02*
X114550000Y-220850000I0J125000D01*
G01*
X114550000Y-219600000D01*
G75*
G02*
X114675000Y-219475000I125000J0D01*
G01*
X114925000Y-219475000D01*
G75*
G02*
X115050000Y-219600000I0J-125000D01*
G01*
X115050000Y-220850000D01*
G75*
G02*
X114925000Y-220975000I-125000J0D01*
G01*
G37*
G36*
G01*
X114125000Y-220975000D02*
X113875000Y-220975000D01*
G75*
G02*
X113750000Y-220850000I0J125000D01*
G01*
X113750000Y-219600000D01*
G75*
G02*
X113875000Y-219475000I125000J0D01*
G01*
X114125000Y-219475000D01*
G75*
G02*
X114250000Y-219600000I0J-125000D01*
G01*
X114250000Y-220850000D01*
G75*
G02*
X114125000Y-220975000I-125000J0D01*
G01*
G37*
G36*
G01*
X113325000Y-220975000D02*
X113075000Y-220975000D01*
G75*
G02*
X112950000Y-220850000I0J125000D01*
G01*
X112950000Y-219600000D01*
G75*
G02*
X113075000Y-219475000I125000J0D01*
G01*
X113325000Y-219475000D01*
G75*
G02*
X113450000Y-219600000I0J-125000D01*
G01*
X113450000Y-220850000D01*
G75*
G02*
X113325000Y-220975000I-125000J0D01*
G01*
G37*
G36*
G01*
X112525000Y-220975000D02*
X112275000Y-220975000D01*
G75*
G02*
X112150000Y-220850000I0J125000D01*
G01*
X112150000Y-219600000D01*
G75*
G02*
X112275000Y-219475000I125000J0D01*
G01*
X112525000Y-219475000D01*
G75*
G02*
X112650000Y-219600000I0J-125000D01*
G01*
X112650000Y-220850000D01*
G75*
G02*
X112525000Y-220975000I-125000J0D01*
G01*
G37*
G36*
G01*
X111725000Y-220975000D02*
X111475000Y-220975000D01*
G75*
G02*
X111350000Y-220850000I0J125000D01*
G01*
X111350000Y-219600000D01*
G75*
G02*
X111475000Y-219475000I125000J0D01*
G01*
X111725000Y-219475000D01*
G75*
G02*
X111850000Y-219600000I0J-125000D01*
G01*
X111850000Y-220850000D01*
G75*
G02*
X111725000Y-220975000I-125000J0D01*
G01*
G37*
G36*
G01*
X110925000Y-220975000D02*
X110675000Y-220975000D01*
G75*
G02*
X110550000Y-220850000I0J125000D01*
G01*
X110550000Y-219600000D01*
G75*
G02*
X110675000Y-219475000I125000J0D01*
G01*
X110925000Y-219475000D01*
G75*
G02*
X111050000Y-219600000I0J-125000D01*
G01*
X111050000Y-220850000D01*
G75*
G02*
X110925000Y-220975000I-125000J0D01*
G01*
G37*
G36*
G01*
X110125000Y-220975000D02*
X109875000Y-220975000D01*
G75*
G02*
X109750000Y-220850000I0J125000D01*
G01*
X109750000Y-219600000D01*
G75*
G02*
X109875000Y-219475000I125000J0D01*
G01*
X110125000Y-219475000D01*
G75*
G02*
X110250000Y-219600000I0J-125000D01*
G01*
X110250000Y-220850000D01*
G75*
G02*
X110125000Y-220975000I-125000J0D01*
G01*
G37*
G36*
G01*
X109325000Y-220975000D02*
X109075000Y-220975000D01*
G75*
G02*
X108950000Y-220850000I0J125000D01*
G01*
X108950000Y-219600000D01*
G75*
G02*
X109075000Y-219475000I125000J0D01*
G01*
X109325000Y-219475000D01*
G75*
G02*
X109450000Y-219600000I0J-125000D01*
G01*
X109450000Y-220850000D01*
G75*
G02*
X109325000Y-220975000I-125000J0D01*
G01*
G37*
G36*
G01*
X108450000Y-221850000D02*
X107200000Y-221850000D01*
G75*
G02*
X107075000Y-221725000I0J125000D01*
G01*
X107075000Y-221475000D01*
G75*
G02*
X107200000Y-221350000I125000J0D01*
G01*
X108450000Y-221350000D01*
G75*
G02*
X108575000Y-221475000I0J-125000D01*
G01*
X108575000Y-221725000D01*
G75*
G02*
X108450000Y-221850000I-125000J0D01*
G01*
G37*
G36*
G01*
X108450000Y-222650000D02*
X107200000Y-222650000D01*
G75*
G02*
X107075000Y-222525000I0J125000D01*
G01*
X107075000Y-222275000D01*
G75*
G02*
X107200000Y-222150000I125000J0D01*
G01*
X108450000Y-222150000D01*
G75*
G02*
X108575000Y-222275000I0J-125000D01*
G01*
X108575000Y-222525000D01*
G75*
G02*
X108450000Y-222650000I-125000J0D01*
G01*
G37*
G36*
G01*
X108450000Y-223450000D02*
X107200000Y-223450000D01*
G75*
G02*
X107075000Y-223325000I0J125000D01*
G01*
X107075000Y-223075000D01*
G75*
G02*
X107200000Y-222950000I125000J0D01*
G01*
X108450000Y-222950000D01*
G75*
G02*
X108575000Y-223075000I0J-125000D01*
G01*
X108575000Y-223325000D01*
G75*
G02*
X108450000Y-223450000I-125000J0D01*
G01*
G37*
G36*
G01*
X108450000Y-224250000D02*
X107200000Y-224250000D01*
G75*
G02*
X107075000Y-224125000I0J125000D01*
G01*
X107075000Y-223875000D01*
G75*
G02*
X107200000Y-223750000I125000J0D01*
G01*
X108450000Y-223750000D01*
G75*
G02*
X108575000Y-223875000I0J-125000D01*
G01*
X108575000Y-224125000D01*
G75*
G02*
X108450000Y-224250000I-125000J0D01*
G01*
G37*
G36*
G01*
X108450000Y-225050000D02*
X107200000Y-225050000D01*
G75*
G02*
X107075000Y-224925000I0J125000D01*
G01*
X107075000Y-224675000D01*
G75*
G02*
X107200000Y-224550000I125000J0D01*
G01*
X108450000Y-224550000D01*
G75*
G02*
X108575000Y-224675000I0J-125000D01*
G01*
X108575000Y-224925000D01*
G75*
G02*
X108450000Y-225050000I-125000J0D01*
G01*
G37*
G36*
G01*
X108450000Y-225850000D02*
X107200000Y-225850000D01*
G75*
G02*
X107075000Y-225725000I0J125000D01*
G01*
X107075000Y-225475000D01*
G75*
G02*
X107200000Y-225350000I125000J0D01*
G01*
X108450000Y-225350000D01*
G75*
G02*
X108575000Y-225475000I0J-125000D01*
G01*
X108575000Y-225725000D01*
G75*
G02*
X108450000Y-225850000I-125000J0D01*
G01*
G37*
G36*
G01*
X108450000Y-226650000D02*
X107200000Y-226650000D01*
G75*
G02*
X107075000Y-226525000I0J125000D01*
G01*
X107075000Y-226275000D01*
G75*
G02*
X107200000Y-226150000I125000J0D01*
G01*
X108450000Y-226150000D01*
G75*
G02*
X108575000Y-226275000I0J-125000D01*
G01*
X108575000Y-226525000D01*
G75*
G02*
X108450000Y-226650000I-125000J0D01*
G01*
G37*
G36*
G01*
X108450000Y-227450000D02*
X107200000Y-227450000D01*
G75*
G02*
X107075000Y-227325000I0J125000D01*
G01*
X107075000Y-227075000D01*
G75*
G02*
X107200000Y-226950000I125000J0D01*
G01*
X108450000Y-226950000D01*
G75*
G02*
X108575000Y-227075000I0J-125000D01*
G01*
X108575000Y-227325000D01*
G75*
G02*
X108450000Y-227450000I-125000J0D01*
G01*
G37*
G36*
G01*
X159495000Y-215910000D02*
X159495000Y-215590000D01*
G75*
G02*
X159655000Y-215430000I160000J0D01*
G01*
X160145000Y-215430000D01*
G75*
G02*
X160305000Y-215590000I0J-160000D01*
G01*
X160305000Y-215910000D01*
G75*
G02*
X160145000Y-216070000I-160000J0D01*
G01*
X159655000Y-216070000D01*
G75*
G02*
X159495000Y-215910000I0J160000D01*
G01*
G37*
G36*
G01*
X159495000Y-215110000D02*
X159495000Y-214790000D01*
G75*
G02*
X159655000Y-214630000I160000J0D01*
G01*
X160145000Y-214630000D01*
G75*
G02*
X160305000Y-214790000I0J-160000D01*
G01*
X160305000Y-215110000D01*
G75*
G02*
X160145000Y-215270000I-160000J0D01*
G01*
X159655000Y-215270000D01*
G75*
G02*
X159495000Y-215110000I0J160000D01*
G01*
G37*
G36*
G01*
X160600000Y-214806250D02*
X160600000Y-214593750D01*
G75*
G02*
X160693750Y-214500000I93750J0D01*
G01*
X160881250Y-214500000D01*
G75*
G02*
X160975000Y-214593750I0J-93750D01*
G01*
X160975000Y-214806250D01*
G75*
G02*
X160881250Y-214900000I-93750J0D01*
G01*
X160693750Y-214900000D01*
G75*
G02*
X160600000Y-214806250I0J93750D01*
G01*
G37*
G36*
G01*
X160600000Y-215456250D02*
X160600000Y-215243750D01*
G75*
G02*
X160693750Y-215150000I93750J0D01*
G01*
X160881250Y-215150000D01*
G75*
G02*
X160975000Y-215243750I0J-93750D01*
G01*
X160975000Y-215456250D01*
G75*
G02*
X160881250Y-215550000I-93750J0D01*
G01*
X160693750Y-215550000D01*
G75*
G02*
X160600000Y-215456250I0J93750D01*
G01*
G37*
G36*
G01*
X160600000Y-216106250D02*
X160600000Y-215893750D01*
G75*
G02*
X160693750Y-215800000I93750J0D01*
G01*
X160881250Y-215800000D01*
G75*
G02*
X160975000Y-215893750I0J-93750D01*
G01*
X160975000Y-216106250D01*
G75*
G02*
X160881250Y-216200000I-93750J0D01*
G01*
X160693750Y-216200000D01*
G75*
G02*
X160600000Y-216106250I0J93750D01*
G01*
G37*
G36*
G01*
X158825000Y-216106250D02*
X158825000Y-215893750D01*
G75*
G02*
X158918750Y-215800000I93750J0D01*
G01*
X159106250Y-215800000D01*
G75*
G02*
X159200000Y-215893750I0J-93750D01*
G01*
X159200000Y-216106250D01*
G75*
G02*
X159106250Y-216200000I-93750J0D01*
G01*
X158918750Y-216200000D01*
G75*
G02*
X158825000Y-216106250I0J93750D01*
G01*
G37*
G36*
G01*
X158825000Y-215456250D02*
X158825000Y-215243750D01*
G75*
G02*
X158918750Y-215150000I93750J0D01*
G01*
X159106250Y-215150000D01*
G75*
G02*
X159200000Y-215243750I0J-93750D01*
G01*
X159200000Y-215456250D01*
G75*
G02*
X159106250Y-215550000I-93750J0D01*
G01*
X158918750Y-215550000D01*
G75*
G02*
X158825000Y-215456250I0J93750D01*
G01*
G37*
G36*
G01*
X158825000Y-214806250D02*
X158825000Y-214593750D01*
G75*
G02*
X158918750Y-214500000I93750J0D01*
G01*
X159106250Y-214500000D01*
G75*
G02*
X159200000Y-214593750I0J-93750D01*
G01*
X159200000Y-214806250D01*
G75*
G02*
X159106250Y-214900000I-93750J0D01*
G01*
X158918750Y-214900000D01*
G75*
G02*
X158825000Y-214806250I0J93750D01*
G01*
G37*
G36*
G01*
X194667000Y-210652500D02*
X194667000Y-210352500D01*
G75*
G02*
X194817000Y-210202500I150000J0D01*
G01*
X196467000Y-210202500D01*
G75*
G02*
X196617000Y-210352500I0J-150000D01*
G01*
X196617000Y-210652500D01*
G75*
G02*
X196467000Y-210802500I-150000J0D01*
G01*
X194817000Y-210802500D01*
G75*
G02*
X194667000Y-210652500I0J150000D01*
G01*
G37*
G36*
G01*
X194667000Y-211922500D02*
X194667000Y-211622500D01*
G75*
G02*
X194817000Y-211472500I150000J0D01*
G01*
X196467000Y-211472500D01*
G75*
G02*
X196617000Y-211622500I0J-150000D01*
G01*
X196617000Y-211922500D01*
G75*
G02*
X196467000Y-212072500I-150000J0D01*
G01*
X194817000Y-212072500D01*
G75*
G02*
X194667000Y-211922500I0J150000D01*
G01*
G37*
G36*
G01*
X194667000Y-213192500D02*
X194667000Y-212892500D01*
G75*
G02*
X194817000Y-212742500I150000J0D01*
G01*
X196467000Y-212742500D01*
G75*
G02*
X196617000Y-212892500I0J-150000D01*
G01*
X196617000Y-213192500D01*
G75*
G02*
X196467000Y-213342500I-150000J0D01*
G01*
X194817000Y-213342500D01*
G75*
G02*
X194667000Y-213192500I0J150000D01*
G01*
G37*
G36*
G01*
X194667000Y-214462500D02*
X194667000Y-214162500D01*
G75*
G02*
X194817000Y-214012500I150000J0D01*
G01*
X196467000Y-214012500D01*
G75*
G02*
X196617000Y-214162500I0J-150000D01*
G01*
X196617000Y-214462500D01*
G75*
G02*
X196467000Y-214612500I-150000J0D01*
G01*
X194817000Y-214612500D01*
G75*
G02*
X194667000Y-214462500I0J150000D01*
G01*
G37*
G36*
G01*
X189717000Y-214462500D02*
X189717000Y-214162500D01*
G75*
G02*
X189867000Y-214012500I150000J0D01*
G01*
X191517000Y-214012500D01*
G75*
G02*
X191667000Y-214162500I0J-150000D01*
G01*
X191667000Y-214462500D01*
G75*
G02*
X191517000Y-214612500I-150000J0D01*
G01*
X189867000Y-214612500D01*
G75*
G02*
X189717000Y-214462500I0J150000D01*
G01*
G37*
G36*
G01*
X189717000Y-213192500D02*
X189717000Y-212892500D01*
G75*
G02*
X189867000Y-212742500I150000J0D01*
G01*
X191517000Y-212742500D01*
G75*
G02*
X191667000Y-212892500I0J-150000D01*
G01*
X191667000Y-213192500D01*
G75*
G02*
X191517000Y-213342500I-150000J0D01*
G01*
X189867000Y-213342500D01*
G75*
G02*
X189717000Y-213192500I0J150000D01*
G01*
G37*
G36*
G01*
X189717000Y-211922500D02*
X189717000Y-211622500D01*
G75*
G02*
X189867000Y-211472500I150000J0D01*
G01*
X191517000Y-211472500D01*
G75*
G02*
X191667000Y-211622500I0J-150000D01*
G01*
X191667000Y-211922500D01*
G75*
G02*
X191517000Y-212072500I-150000J0D01*
G01*
X189867000Y-212072500D01*
G75*
G02*
X189717000Y-211922500I0J150000D01*
G01*
G37*
G36*
G01*
X189717000Y-210652500D02*
X189717000Y-210352500D01*
G75*
G02*
X189867000Y-210202500I150000J0D01*
G01*
X191517000Y-210202500D01*
G75*
G02*
X191667000Y-210352500I0J-150000D01*
G01*
X191667000Y-210652500D01*
G75*
G02*
X191517000Y-210802500I-150000J0D01*
G01*
X189867000Y-210802500D01*
G75*
G02*
X189717000Y-210652500I0J150000D01*
G01*
G37*
D19*
X102586000Y-230593500D03*
X101766000Y-230593500D03*
X102586000Y-229923500D03*
X101766000Y-229923500D03*
G36*
G01*
X87383000Y-243156250D02*
X87383000Y-242643750D01*
G75*
G02*
X87601750Y-242425000I218750J0D01*
G01*
X88039250Y-242425000D01*
G75*
G02*
X88258000Y-242643750I0J-218750D01*
G01*
X88258000Y-243156250D01*
G75*
G02*
X88039250Y-243375000I-218750J0D01*
G01*
X87601750Y-243375000D01*
G75*
G02*
X87383000Y-243156250I0J218750D01*
G01*
G37*
G36*
G01*
X88958000Y-243156250D02*
X88958000Y-242643750D01*
G75*
G02*
X89176750Y-242425000I218750J0D01*
G01*
X89614250Y-242425000D01*
G75*
G02*
X89833000Y-242643750I0J-218750D01*
G01*
X89833000Y-243156250D01*
G75*
G02*
X89614250Y-243375000I-218750J0D01*
G01*
X89176750Y-243375000D01*
G75*
G02*
X88958000Y-243156250I0J218750D01*
G01*
G37*
G36*
G01*
X191358000Y-216156250D02*
X191358000Y-215643750D01*
G75*
G02*
X191576750Y-215425000I218750J0D01*
G01*
X192014250Y-215425000D01*
G75*
G02*
X192233000Y-215643750I0J-218750D01*
G01*
X192233000Y-216156250D01*
G75*
G02*
X192014250Y-216375000I-218750J0D01*
G01*
X191576750Y-216375000D01*
G75*
G02*
X191358000Y-216156250I0J218750D01*
G01*
G37*
G36*
G01*
X189783000Y-216156250D02*
X189783000Y-215643750D01*
G75*
G02*
X190001750Y-215425000I218750J0D01*
G01*
X190439250Y-215425000D01*
G75*
G02*
X190658000Y-215643750I0J-218750D01*
G01*
X190658000Y-216156250D01*
G75*
G02*
X190439250Y-216375000I-218750J0D01*
G01*
X190001750Y-216375000D01*
G75*
G02*
X189783000Y-216156250I0J218750D01*
G01*
G37*
G36*
G01*
X196614500Y-215643750D02*
X196614500Y-216156250D01*
G75*
G02*
X196395750Y-216375000I-218750J0D01*
G01*
X195958250Y-216375000D01*
G75*
G02*
X195739500Y-216156250I0J218750D01*
G01*
X195739500Y-215643750D01*
G75*
G02*
X195958250Y-215425000I218750J0D01*
G01*
X196395750Y-215425000D01*
G75*
G02*
X196614500Y-215643750I0J-218750D01*
G01*
G37*
G36*
G01*
X195039500Y-215643750D02*
X195039500Y-216156250D01*
G75*
G02*
X194820750Y-216375000I-218750J0D01*
G01*
X194383250Y-216375000D01*
G75*
G02*
X194164500Y-216156250I0J218750D01*
G01*
X194164500Y-215643750D01*
G75*
G02*
X194383250Y-215425000I218750J0D01*
G01*
X194820750Y-215425000D01*
G75*
G02*
X195039500Y-215643750I0J-218750D01*
G01*
G37*
D20*
X197231000Y-225739500D03*
X197231000Y-228539500D03*
X196215000Y-239842500D03*
X196215000Y-237042500D03*
X197993000Y-213420500D03*
X197993000Y-216220500D03*
G36*
G01*
X183691750Y-247167500D02*
X183179250Y-247167500D01*
G75*
G02*
X182960500Y-246948750I0J218750D01*
G01*
X182960500Y-246511250D01*
G75*
G02*
X183179250Y-246292500I218750J0D01*
G01*
X183691750Y-246292500D01*
G75*
G02*
X183910500Y-246511250I0J-218750D01*
G01*
X183910500Y-246948750D01*
G75*
G02*
X183691750Y-247167500I-218750J0D01*
G01*
G37*
G36*
G01*
X183691750Y-248742500D02*
X183179250Y-248742500D01*
G75*
G02*
X182960500Y-248523750I0J218750D01*
G01*
X182960500Y-248086250D01*
G75*
G02*
X183179250Y-247867500I218750J0D01*
G01*
X183691750Y-247867500D01*
G75*
G02*
X183910500Y-248086250I0J-218750D01*
G01*
X183910500Y-248523750D01*
G75*
G02*
X183691750Y-248742500I-218750J0D01*
G01*
G37*
G36*
G01*
X169546750Y-246241000D02*
X170059250Y-246241000D01*
G75*
G02*
X170278000Y-246459750I0J-218750D01*
G01*
X170278000Y-246897250D01*
G75*
G02*
X170059250Y-247116000I-218750J0D01*
G01*
X169546750Y-247116000D01*
G75*
G02*
X169328000Y-246897250I0J218750D01*
G01*
X169328000Y-246459750D01*
G75*
G02*
X169546750Y-246241000I218750J0D01*
G01*
G37*
G36*
G01*
X169546750Y-247816000D02*
X170059250Y-247816000D01*
G75*
G02*
X170278000Y-248034750I0J-218750D01*
G01*
X170278000Y-248472250D01*
G75*
G02*
X170059250Y-248691000I-218750J0D01*
G01*
X169546750Y-248691000D01*
G75*
G02*
X169328000Y-248472250I0J218750D01*
G01*
X169328000Y-248034750D01*
G75*
G02*
X169546750Y-247816000I218750J0D01*
G01*
G37*
G36*
G01*
X166490250Y-247116000D02*
X165977750Y-247116000D01*
G75*
G02*
X165759000Y-246897250I0J218750D01*
G01*
X165759000Y-246459750D01*
G75*
G02*
X165977750Y-246241000I218750J0D01*
G01*
X166490250Y-246241000D01*
G75*
G02*
X166709000Y-246459750I0J-218750D01*
G01*
X166709000Y-246897250D01*
G75*
G02*
X166490250Y-247116000I-218750J0D01*
G01*
G37*
G36*
G01*
X166490250Y-248691000D02*
X165977750Y-248691000D01*
G75*
G02*
X165759000Y-248472250I0J218750D01*
G01*
X165759000Y-248034750D01*
G75*
G02*
X165977750Y-247816000I218750J0D01*
G01*
X166490250Y-247816000D01*
G75*
G02*
X166709000Y-248034750I0J-218750D01*
G01*
X166709000Y-248472250D01*
G75*
G02*
X166490250Y-248691000I-218750J0D01*
G01*
G37*
G36*
G01*
X162894250Y-248691000D02*
X162381750Y-248691000D01*
G75*
G02*
X162163000Y-248472250I0J218750D01*
G01*
X162163000Y-248034750D01*
G75*
G02*
X162381750Y-247816000I218750J0D01*
G01*
X162894250Y-247816000D01*
G75*
G02*
X163113000Y-248034750I0J-218750D01*
G01*
X163113000Y-248472250D01*
G75*
G02*
X162894250Y-248691000I-218750J0D01*
G01*
G37*
G36*
G01*
X162894250Y-247116000D02*
X162381750Y-247116000D01*
G75*
G02*
X162163000Y-246897250I0J218750D01*
G01*
X162163000Y-246459750D01*
G75*
G02*
X162381750Y-246241000I218750J0D01*
G01*
X162894250Y-246241000D01*
G75*
G02*
X163113000Y-246459750I0J-218750D01*
G01*
X163113000Y-246897250D01*
G75*
G02*
X162894250Y-247116000I-218750J0D01*
G01*
G37*
M02*
