M48
; DRILL file {KiCad (5.1.8)-1} date 11/22/20 12:56:41
; FORMAT={-:-/ absolute / inch / decimal}
; #@! TF.CreationDate,2020-11-22T12:56:41-03:30
; #@! TF.GenerationSoftware,Kicad,Pcbnew,(5.1.8)-1
; #@! TF.FileFunction,Plated,1,4,PTH
FMAT,2
INCH
T1C0.0079
T2C0.0157
T3C0.0197
T4C0.0256
T5C0.0394
T6C0.0402
T7C0.0748
T8C0.1260
%
G90
G05
T1
X3.17Y-8.63
X3.26Y-8.985
X3.54Y-9.83
X3.58Y-9.28
X3.675Y-9.67
X3.735Y-9.795
X3.795Y-9.47
X3.8Y-9.795
X3.8177Y-9.8363
X3.82Y-9.385
X3.82Y-9.515
X3.8753Y-8.9303
X3.9Y-9.65
X3.9Y-9.71
X3.945Y-9.1
X3.965Y-8.875
X3.97Y-8.905
X3.97Y-9.035
X3.9843Y-8.7579
X3.995Y-8.85
X4.0121Y-9.1045
X4.025Y-8.725
X4.05Y-8.7
X4.055Y-9.815
X4.0689Y-8.6476
X4.0775Y-9.1225
X4.1Y-8.795
X4.105Y-8.875
X4.1114Y-8.903
X4.115Y-9.3175
X4.125Y-9.665
X4.125Y-9.715
X4.135Y-9.3475
X4.1553Y-8.9353
X4.175Y-8.775
X4.1796Y-8.8911
X4.18Y-8.82
X4.18Y-8.955
X4.1801Y-8.9166
X4.2Y-8.75
X4.205Y-9.42
X4.2267Y-9.3883
X4.25Y-9.415
X4.27Y-9.44
X4.2825Y-9.325
X4.3Y-8.5571
X4.3Y-8.95
X4.3181Y-8.9319
X4.3575Y-9.38
X4.375Y-9.0854
X4.3775Y-8.7775
X4.3897Y-9.0638
X4.4057Y-8.609
X4.425Y-9.055
X4.43Y-9.3175
X4.4528Y-6.252
X4.4575Y-6.19
X4.49Y-8.61
X4.5125Y-9.38
X4.515Y-8.93
X4.56Y-8.54
X4.58Y-8.56
X4.63Y-8.725
X4.6825Y-6.275
X4.6839Y-6.4027
X4.752Y-6.3031
X4.7913Y-8.1594
X4.86Y-8.83
X4.895Y-8.565
X4.895Y-9.2475
X4.9275Y-8.6675
X4.9275Y-9.05
X4.94Y-8.94
X4.9712Y-8.7912
X4.985Y-8.685
X5.0025Y-9.13
X5.015Y-8.6475
X5.025Y-8.3
X5.1375Y-8.6425
X5.1875Y-8.6575
X5.2008Y-3.1142
X5.2008Y-3.1732
X5.2047Y-6.2559
X5.2047Y-6.315
X5.205Y-6.19
X5.2087Y-6.378
X5.2375Y-8.9418
X5.2375Y-9.1825
X5.275Y-8.5125
X5.2975Y-8.4875
X5.3Y-8.4225
X5.3125Y-9.0525
X5.315Y-9.195
X5.3175Y-8.94
X5.3382Y-9.4134
X5.3627Y-9.6877
X5.37Y-9.78
X5.3898Y-8.1024
X5.4016Y-8.1535
X5.415Y-8.3125
X5.419Y-9.0525
X5.42Y-9.1825
X5.435Y-9.13
X5.4432Y-8.7964
X5.4475Y-8.2908
X5.4525Y-9.4725
X5.4583Y-9.6512
X5.4646Y-8.0551
X5.465Y-9.785
X5.5Y-9.4291
X5.5423Y-8.123
X5.5553Y-9.2797
X5.5775Y-9.47
X5.593Y-9.282
X5.626Y-8.126
X5.626Y-9.4291
X5.6378Y-9.2756
X5.6476Y-8.1535
X5.6925Y-9.28
X5.7025Y-9.4725
X5.711Y-8.7666
X5.7127Y-9.1106
X5.7361Y-8.7617
X5.74Y-8.655
X5.7515Y-9.2758
X5.752Y-9.4291
X5.7575Y-9.495
X5.76Y-8.475
X5.784Y-9.2542
X5.785Y-9.11
X5.815Y-8.31
X5.85Y-8.295
X5.8636Y-9.4252
X5.865Y-8.755
X5.8753Y-9.2161
X5.8821Y-8.6931
X5.9Y-9.24
X5.9001Y-9.21
X5.94Y-8.6437
X5.98Y-9.4725
X5.995Y-8.465
X6.0079Y-9.4291
X6.0175Y-9.11
X6.0226Y-9.5132
X6.0325Y-8.6514
X6.045Y-8.965
X6.045Y-9.24
X6.0551Y-9.5399
X6.0568Y-8.5182
X6.06Y-9.1682
X6.0825Y-9.28
X6.0865Y-9.1285
X6.0934Y-8.805
X6.0953Y-8.8347
X6.0956Y-8.9904
X6.1091Y-8.8791
X6.122Y-3.1299
X6.122Y-3.1929
X6.1715Y-9.5265
X6.1772Y-8.5039
X6.1794Y-9.5613
X6.2Y-8.575
X6.2Y-8.6
X6.2Y-8.625
X6.2005Y-8.3151
X6.2126Y-6.2126
X6.2126Y-6.2717
X6.225Y-8.335
X6.23Y-8.5
X6.2375Y-8.3125
X6.2417Y-8.5666
X6.2583Y-8.5472
X6.28Y-8.07
X6.28Y-8.42
X6.3Y-8.4
X6.3031Y-6.2362
X6.315Y-8.905
X6.32Y-8.42
X6.325Y-9.42
X6.325Y-9.45
X6.34Y-8.4
X6.34Y-8.74
X6.34Y-8.78
X6.355Y-9.78
X6.36Y-8.76
X6.374Y-6.315
X6.375Y-8.4875
X6.38Y-8.74
X6.38Y-8.78
X6.39Y-8.4
X6.39Y-8.42
X6.4Y-8.76
X6.41Y-8.42
X6.42Y-8.74
X6.42Y-8.78
X6.44Y-8.49
X6.495Y-9.775
X6.5Y-9.2
X6.525Y-9.225
X6.55Y-8.41
X6.55Y-9.2
X6.565Y-8.39
X6.575Y-9.225
X6.58Y-8.41
X6.595Y-8.39
X6.6Y-9.2
X6.61Y-8.41
X6.625Y-8.39
X6.625Y-9.225
X6.635Y-9.785
X6.64Y-8.41
X6.65Y-9.2
X6.6544Y-8.6602
X6.675Y-9.225
X6.6909Y-8.6887
X6.7Y-9.2
X6.715Y-9.535
X6.725Y-9.225
X6.75Y-9.2
X6.75Y-9.805
X6.7746Y-9.775
X6.775Y-9.225
X6.8Y-9.2
X6.825Y-9.225
X6.83Y-9.425
X6.85Y-9.2
X6.875Y-9.225
X6.9Y-9.2
X6.9055Y-6.2717
X6.9094Y-6.2165
X6.91Y-9.76
X6.925Y-9.225
X6.95Y-9.2
X6.965Y-9.53
X6.975Y-9.225
X6.98Y-8.74
X6.98Y-8.78
X6.98Y-8.82
X7.0Y-8.7008
X7.0Y-8.76
X7.0Y-8.8
X7.0Y-9.2
X7.02Y-8.74
X7.02Y-8.78
X7.02Y-8.82
X7.025Y-9.225
X7.037Y-8.5756
X7.04Y-8.76
X7.04Y-8.8
X7.045Y-9.78
X7.05Y-9.2
X7.06Y-8.74
X7.06Y-8.78
X7.06Y-8.82
X7.075Y-9.225
X7.08Y-8.76
X7.08Y-8.8
X7.1Y-8.74
X7.1Y-8.78
X7.1Y-8.82
X7.1Y-9.2
X7.12Y-8.76
X7.12Y-8.8
X7.125Y-9.225
X7.15Y-9.2
X7.175Y-9.775
X7.18Y-8.965
X7.185Y-8.995
X7.205Y-8.98
X7.205Y-9.01
X7.22Y-9.55
X7.225Y-8.965
X7.225Y-8.995
X7.27Y-8.96
X7.27Y-8.985
X7.27Y-9.01
X7.29Y-8.97
X7.29Y-9.0
X7.3025Y-9.07
X7.38Y-9.58
X7.42Y-8.34
X7.42Y-8.36
X7.42Y-8.38
X7.42Y-8.4
X7.42Y-8.46
X7.42Y-8.6
X7.42Y-8.62
X7.42Y-8.64
X7.44Y-8.34
X7.44Y-8.36
X7.44Y-8.38
X7.44Y-8.4
X7.44Y-8.58
X7.44Y-8.6
X7.44Y-8.62
X7.44Y-8.64
X7.515Y-8.75
X7.5276Y-9.5039
X7.57Y-8.385
X7.5827Y-9.5039
X7.615Y-8.795
X7.625Y-8.64
X7.635Y-8.685
X7.6464Y-8.3093
X7.7165Y-9.1102
X7.7244Y-9.4961
X7.7874Y-9.1575
X7.8Y-9.83
X7.825Y-8.67
X5.9439Y-8.7234
X5.9439Y-8.7618
X5.9439Y-8.8002
X5.9823Y-8.7234
X5.9823Y-8.7618
X5.9823Y-8.8002
X6.0207Y-8.7234
X6.0207Y-8.7618
X6.0207Y-8.8002
X5.622Y-8.9213
X5.622Y-8.9921
X5.622Y-9.063
X5.6535Y-8.9528
X5.6535Y-9.0315
X5.6929Y-8.9213
X5.6929Y-8.9921
X5.6929Y-9.063
X5.7244Y-8.9528
X5.7244Y-9.0315
X5.7638Y-8.9213
X5.7638Y-8.9921
X5.7638Y-9.063
T2
X3.15Y-8.15
X3.15Y-8.35
X3.2Y-1.6
X3.2Y-1.7
X3.2Y-1.8
X3.2Y-1.85
X3.2Y-2.05
X3.2Y-2.2
X3.2Y-2.4
X3.2Y-2.6
X3.2Y-2.8
X3.2Y-3.0
X3.2Y-3.2
X3.2Y-3.4
X3.2Y-3.6
X3.2Y-3.8
X3.2Y-4.0
X3.2Y-4.2
X3.2Y-4.4
X3.2Y-4.6
X3.2Y-4.8
X3.2Y-5.0
X3.2Y-5.2
X3.2Y-5.4
X3.2Y-5.6
X3.2Y-5.8
X3.2Y-6.0
X3.2Y-6.2
X3.2Y-6.4
X3.2Y-6.6
X3.2Y-6.8
X3.2Y-7.0
X3.2Y-7.2
X3.2Y-7.4
X3.2Y-7.6
X3.2Y-7.7
X3.2Y-7.8
X3.2Y-7.9
X3.2Y-8.0
X3.2Y-8.1
X3.2Y-8.4
X3.25Y-8.15
X3.25Y-8.35
X3.25Y-8.45
X3.25Y-8.6
X3.3Y-1.6
X3.3Y-1.7
X3.3Y-1.8
X3.3Y-1.95
X3.3Y-2.15
X3.3Y-2.3
X3.3Y-2.5
X3.3Y-2.7
X3.3Y-2.9
X3.3Y-3.1
X3.3Y-3.3
X3.3Y-3.5
X3.3Y-3.7
X3.3Y-3.9
X3.3Y-4.1
X3.3Y-4.3
X3.3Y-4.5
X3.3Y-4.7
X3.3Y-4.9
X3.3Y-5.1
X3.3Y-5.3
X3.3Y-5.5
X3.3Y-5.7
X3.3Y-5.9
X3.3Y-6.1
X3.3Y-6.3
X3.3Y-6.5
X3.3Y-6.7
X3.3Y-6.9
X3.3Y-7.1
X3.3Y-7.3
X3.3Y-7.5
X3.3Y-7.6
X3.3Y-7.7
X3.3Y-7.8
X3.3Y-7.9
X3.3Y-8.0
X3.3Y-8.1
X3.3Y-8.2
X3.3Y-8.3
X3.3Y-8.4
X3.3Y-8.5
X3.3Y-8.575
X3.3Y-8.65
X3.35Y-8.15
X3.35Y-8.35
X3.35Y-8.45
X3.35Y-8.625
X3.4Y-1.8
X3.4Y-1.85
X3.4Y-2.05
X3.4Y-2.2
X3.4Y-2.4
X3.4Y-2.6
X3.4Y-2.8
X3.4Y-3.0
X3.4Y-3.2
X3.4Y-3.4
X3.4Y-3.6
X3.4Y-3.8
X3.4Y-4.0
X3.4Y-4.2
X3.4Y-4.4
X3.4Y-5.0
X3.4Y-5.2
X3.4Y-5.4
X3.4Y-5.6
X3.4Y-5.8
X3.4Y-6.0
X3.4Y-6.2
X3.4Y-6.4
X3.4Y-6.6
X3.4Y-6.8
X3.4Y-7.0
X3.4Y-7.2
X3.4Y-7.4
X3.4Y-7.6
X3.4Y-8.1
X3.4Y-8.4
X3.4Y-8.7
X3.425Y-8.625
X3.45Y-8.45
X3.475Y-8.175
X3.475Y-8.375
X3.5Y-1.3
X3.5Y-1.8
X3.5Y-1.95
X3.5Y-2.15
X3.5Y-2.3
X3.5Y-2.5
X3.5Y-2.7
X3.5Y-2.9
X3.5Y-3.1
X3.5Y-3.3
X3.5Y-3.5
X3.5Y-3.7
X3.5Y-3.9
X3.5Y-4.1
X3.5Y-4.2
X3.5Y-5.2
X3.5Y-5.3
X3.5Y-5.5
X3.5Y-5.7
X3.5Y-5.9
X3.5Y-6.1
X3.5Y-6.3
X3.5Y-6.5
X3.5Y-6.7
X3.5Y-6.9
X3.5Y-7.1
X3.5Y-7.3
X3.5Y-7.5
X3.5Y-7.6
X3.5Y-8.1
X3.5Y-8.3
X3.5Y-8.55
X3.5Y-8.7
X3.55Y-8.2
X3.55Y-8.4
X3.55Y-8.6
X3.56Y-9.565
X3.6Y-1.3
X3.6Y-1.8
X3.6Y-2.05
X3.6Y-2.2
X3.6Y-2.4
X3.6Y-2.6
X3.6Y-2.8
X3.6Y-3.0
X3.6Y-3.2
X3.6Y-3.4
X3.6Y-3.6
X3.6Y-3.8
X3.6Y-4.0
X3.6Y-4.4
X3.6Y-4.9
X3.6Y-5.0
X3.6Y-5.3
X3.6Y-5.4
X3.6Y-5.6
X3.6Y-5.8
X3.6Y-6.0
X3.6Y-6.2
X3.6Y-6.4
X3.6Y-6.6
X3.6Y-6.8
X3.6Y-7.0
X3.6Y-7.2
X3.6Y-7.4
X3.6Y-7.6
X3.6Y-8.1
X3.6Y-8.3
X3.6Y-8.5
X3.6Y-8.7
X3.65Y-8.2
X3.65Y-8.4
X3.65Y-8.6
X3.7Y-1.3
X3.7Y-1.8
X3.7Y-1.95
X3.7Y-2.15
X3.7Y-2.3
X3.7Y-2.5
X3.7Y-2.7
X3.7Y-2.9
X3.7Y-3.1
X3.7Y-3.3
X3.7Y-3.5
X3.7Y-3.7
X3.7Y-3.9
X3.7Y-4.1
X3.7Y-4.3
X3.7Y-4.4
X3.7Y-4.9
X3.7Y-5.1
X3.7Y-5.3
X3.7Y-5.4
X3.7Y-5.5
X3.7Y-5.7
X3.7Y-5.9
X3.7Y-6.1
X3.7Y-6.3
X3.7Y-6.5
X3.7Y-6.7
X3.7Y-6.9
X3.7Y-7.1
X3.7Y-7.3
X3.7Y-7.5
X3.7Y-7.6
X3.7Y-8.1
X3.7Y-8.3
X3.7Y-8.5
X3.7Y-8.7
X3.75Y-8.2
X3.75Y-8.4
X3.75Y-8.6
X3.8Y-1.3
X3.8Y-1.4
X3.8Y-1.5
X3.8Y-1.6
X3.8Y-1.7
X3.8Y-1.8
X3.8Y-1.85
X3.8Y-2.05
X3.8Y-2.2
X3.8Y-2.4
X3.8Y-2.6
X3.8Y-2.8
X3.8Y-3.0
X3.8Y-3.2
X3.8Y-3.4
X3.8Y-3.6
X3.8Y-3.8
X3.8Y-4.0
X3.8Y-4.2
X3.8Y-4.4
X3.8Y-4.5
X3.8Y-4.6
X3.8Y-4.7
X3.8Y-4.8
X3.8Y-4.9
X3.8Y-5.0
X3.8Y-5.2
X3.8Y-5.4
X3.8Y-5.6
X3.8Y-5.8
X3.8Y-6.0
X3.8Y-6.2
X3.8Y-6.4
X3.8Y-6.6
X3.8Y-6.8
X3.8Y-7.0
X3.8Y-7.2
X3.8Y-7.4
X3.8Y-7.6
X3.8Y-7.7
X3.8Y-7.8
X3.8Y-7.9
X3.8Y-8.0
X3.8Y-8.1
X3.8Y-8.3
X3.8Y-8.5
X3.8Y-8.7
X3.85Y-8.2
X3.85Y-8.4
X3.85Y-8.6
X3.9Y-1.3
X3.9Y-1.4
X3.9Y-1.5
X3.9Y-1.6
X3.9Y-1.7
X3.9Y-1.8
X3.9Y-1.95
X3.9Y-2.15
X3.9Y-2.3
X3.9Y-2.5
X3.9Y-2.7
X3.9Y-2.9
X3.9Y-3.1
X3.9Y-3.3
X3.9Y-3.5
X3.9Y-3.7
X3.9Y-3.9
X3.9Y-4.0
X3.9Y-4.3
X3.9Y-4.4
X3.9Y-4.5
X3.9Y-4.6
X3.9Y-4.7
X3.9Y-4.8
X3.9Y-4.9
X3.9Y-5.1
X3.9Y-5.4
X3.9Y-5.5
X3.9Y-5.7
X3.9Y-5.9
X3.9Y-6.1
X3.9Y-6.3
X3.9Y-6.5
X3.9Y-6.7
X3.9Y-6.9
X3.9Y-7.1
X3.9Y-7.3
X3.9Y-7.5
X3.9Y-7.6
X3.9Y-7.7
X3.9Y-7.8
X3.9Y-7.9
X3.9Y-8.0
X3.9Y-8.1
X3.9Y-8.3
X3.95Y-8.2
X3.95Y-8.4
X4.0Y-1.3
X4.0Y-1.4
X4.0Y-1.5
X4.0Y-1.6
X4.0Y-1.7
X4.0Y-1.8
X4.0Y-1.85
X4.0Y-2.05
X4.0Y-2.2
X4.0Y-2.4
X4.0Y-2.6
X4.0Y-2.8
X4.0Y-3.0
X4.0Y-3.2
X4.0Y-3.4
X4.0Y-3.6
X4.0Y-3.8
X4.0Y-4.2
X4.0Y-4.4
X4.0Y-4.5
X4.0Y-4.6
X4.0Y-4.7
X4.0Y-4.8
X4.0Y-4.9
X4.0Y-5.0
X4.0Y-5.2
X4.0Y-5.5
X4.0Y-5.6
X4.0Y-5.8
X4.0Y-6.0
X4.0Y-6.2
X4.0Y-6.4
X4.0Y-6.6
X4.0Y-6.8
X4.0Y-7.0
X4.0Y-7.2
X4.0Y-7.4
X4.0Y-7.6
X4.0Y-7.7
X4.0Y-7.8
X4.0Y-7.9
X4.0Y-8.0
X4.0Y-8.1
X4.0Y-8.3
X4.0Y-8.5
X4.05Y-8.2
X4.05Y-8.4
X4.1Y-1.3
X4.1Y-1.4
X4.1Y-1.5
X4.1Y-1.6
X4.1Y-1.7
X4.1Y-1.8
X4.1Y-1.95
X4.1Y-2.15
X4.1Y-2.3
X4.1Y-2.5
X4.1Y-2.7
X4.1Y-2.9
X4.1Y-3.1
X4.1Y-3.3
X4.1Y-3.5
X4.1Y-3.7
X4.1Y-3.9
X4.1Y-4.1
X4.1Y-4.3
X4.1Y-4.4
X4.1Y-4.5
X4.1Y-4.6
X4.1Y-4.7
X4.1Y-4.8
X4.1Y-4.9
X4.1Y-5.1
X4.1Y-5.3
X4.1Y-5.5
X4.1Y-5.7
X4.1Y-5.9
X4.1Y-6.1
X4.1Y-6.3
X4.1Y-6.5
X4.1Y-6.7
X4.1Y-6.9
X4.1Y-7.1
X4.1Y-7.3
X4.1Y-7.5
X4.1Y-7.6
X4.1Y-7.7
X4.1Y-7.8
X4.1Y-7.9
X4.1Y-8.0
X4.1Y-8.1
X4.1Y-8.3
X4.1Y-8.5
X4.15Y-8.2
X4.15Y-8.4
X4.2Y-1.3
X4.2Y-1.4
X4.2Y-1.5
X4.2Y-1.6
X4.2Y-1.7
X4.2Y-1.8
X4.2Y-1.85
X4.2Y-2.05
X4.2Y-2.2
X4.2Y-2.4
X4.2Y-2.6
X4.2Y-2.8
X4.2Y-3.0
X4.2Y-3.2
X4.2Y-3.4
X4.2Y-3.6
X4.2Y-3.8
X4.2Y-4.0
X4.2Y-4.2
X4.2Y-4.4
X4.2Y-4.5
X4.2Y-4.6
X4.2Y-4.7
X4.2Y-4.8
X4.2Y-4.9
X4.2Y-5.0
X4.2Y-5.2
X4.2Y-5.4
X4.2Y-5.6
X4.2Y-5.8
X4.2Y-6.0
X4.2Y-6.2
X4.2Y-6.4
X4.2Y-6.6
X4.2Y-6.8
X4.2Y-7.0
X4.2Y-7.2
X4.2Y-7.4
X4.2Y-7.6
X4.2Y-7.7
X4.2Y-7.8
X4.2Y-7.9
X4.2Y-8.0
X4.2Y-8.1
X4.2Y-8.3
X4.2Y-8.5
X4.25Y-8.2
X4.25Y-8.4
X4.3Y-1.3
X4.3Y-1.8
X4.3Y-1.95
X4.3Y-2.15
X4.3Y-2.3
X4.3Y-2.5
X4.3Y-2.7
X4.3Y-2.9
X4.3Y-3.1
X4.3Y-3.3
X4.3Y-3.5
X4.3Y-3.7
X4.3Y-3.8
X4.3Y-4.1
X4.3Y-4.3
X4.3Y-4.4
X4.3Y-4.9
X4.3Y-5.1
X4.3Y-5.3
X4.3Y-5.6
X4.3Y-5.7
X4.3Y-5.9
X4.3Y-6.1
X4.3Y-6.3
X4.3Y-6.5
X4.3Y-6.7
X4.3Y-6.9
X4.3Y-7.1
X4.3Y-7.3
X4.3Y-7.5
X4.3Y-7.6
X4.3Y-8.1
X4.3Y-8.3
X4.35Y-8.2
X4.35Y-8.4
X4.4Y-1.3
X4.4Y-1.8
X4.4Y-2.05
X4.4Y-2.2
X4.4Y-2.4
X4.4Y-2.6
X4.4Y-2.8
X4.4Y-3.0
X4.4Y-3.2
X4.4Y-3.4
X4.4Y-3.6
X4.4Y-4.0
X4.4Y-4.2
X4.4Y-4.4
X4.4Y-4.9
X4.4Y-5.0
X4.4Y-5.2
X4.4Y-5.4
X4.4Y-5.7
X4.4Y-5.8
X4.4Y-6.0
X4.4Y-6.4
X4.4Y-6.6
X4.4Y-6.8
X4.4Y-7.0
X4.4Y-7.2
X4.4Y-7.4
X4.4Y-7.6
X4.4Y-8.1
X4.4Y-8.3
X4.4Y-9.6
X4.4Y-9.75
X4.45Y-8.2
X4.5Y-1.3
X4.5Y-1.8
X4.5Y-1.95
X4.5Y-2.15
X4.5Y-2.3
X4.5Y-2.5
X4.5Y-2.7
X4.5Y-2.9
X4.5Y-3.1
X4.5Y-3.3
X4.5Y-3.5
X4.5Y-3.7
X4.5Y-3.9
X4.5Y-4.1
X4.5Y-4.3
X4.5Y-4.4
X4.5Y-4.9
X4.5Y-5.1
X4.5Y-5.3
X4.5Y-5.5
X4.5Y-5.8
X4.5Y-5.9
X4.5Y-6.1
X4.5Y-6.5
X4.5Y-6.7
X4.5Y-6.9
X4.5Y-7.1
X4.5Y-7.3
X4.5Y-7.5
X4.5Y-7.6
X4.5Y-8.1
X4.5Y-8.3
X4.55Y-8.2
X4.6Y-1.3
X4.6Y-1.4
X4.6Y-1.5
X4.6Y-1.6
X4.6Y-1.7
X4.6Y-1.8
X4.6Y-1.85
X4.6Y-2.05
X4.6Y-2.2
X4.6Y-2.4
X4.6Y-2.6
X4.6Y-2.8
X4.6Y-3.0
X4.6Y-3.2
X4.6Y-3.4
X4.6Y-3.6
X4.6Y-3.8
X4.6Y-4.0
X4.6Y-4.2
X4.6Y-4.4
X4.6Y-4.5
X4.6Y-4.6
X4.6Y-4.7
X4.6Y-4.8
X4.6Y-4.9
X4.6Y-5.0
X4.6Y-5.2
X4.6Y-5.4
X4.6Y-5.8
X4.6Y-6.0
X4.6Y-6.4
X4.6Y-6.6
X4.6Y-6.8
X4.6Y-7.0
X4.6Y-7.2
X4.6Y-7.4
X4.6Y-7.6
X4.6Y-7.7
X4.6Y-7.8
X4.6Y-7.9
X4.6Y-8.0
X4.6Y-8.1
X4.6Y-8.3
X4.6Y-9.7
X4.65Y-8.2
X4.7Y-1.3
X4.7Y-1.4
X4.7Y-1.5
X4.7Y-1.6
X4.7Y-1.7
X4.7Y-1.8
X4.7Y-1.9
X4.7Y-2.1
X4.7Y-2.3
X4.7Y-2.5
X4.7Y-2.7
X4.7Y-2.9
X4.7Y-3.3
X4.7Y-3.5
X4.7Y-3.7
X4.7Y-3.9
X4.7Y-4.1
X4.7Y-4.3
X4.7Y-4.4
X4.7Y-4.5
X4.7Y-4.6
X4.7Y-4.7
X4.7Y-4.8
X4.7Y-4.9
X4.7Y-5.1
X4.7Y-5.3
X4.7Y-5.5
X4.8Y-1.3
X4.8Y-1.4
X4.8Y-1.5
X4.8Y-1.6
X4.8Y-1.7
X4.8Y-1.8
X4.8Y-2.0
X4.8Y-2.2
X4.8Y-2.4
X4.8Y-2.6
X4.8Y-2.8
X4.8Y-3.0
X4.8Y-3.2
X4.8Y-3.4
X4.8Y-3.6
X4.8Y-3.8
X4.8Y-4.0
X4.8Y-4.2
X4.8Y-4.4
X4.8Y-4.5
X4.8Y-4.6
X4.8Y-4.7
X4.8Y-4.8
X4.8Y-4.9
X4.8Y-5.0
X4.8Y-5.2
X4.8Y-5.4
X4.8Y-5.6
X4.8Y-5.8
X4.8Y-6.0
X4.8Y-6.4
X4.8Y-6.6
X4.8Y-6.8
X4.8Y-7.0
X4.8Y-7.2
X4.8Y-7.4
X4.8Y-7.6
X4.8Y-7.7
X4.8Y-7.8
X4.8Y-7.9
X4.8Y-9.75
X4.85Y-9.6
X4.9Y-1.3
X4.9Y-1.4
X4.9Y-1.4
X4.9Y-1.5
X4.9Y-1.6
X4.9Y-1.7
X4.9Y-1.8
X4.9Y-1.9
X4.9Y-2.1
X4.9Y-2.3
X4.9Y-2.5
X4.9Y-2.7
X4.9Y-2.9
X4.9Y-3.3
X4.9Y-3.5
X4.9Y-3.7
X4.9Y-3.9
X4.9Y-4.1
X4.9Y-4.3
X4.9Y-4.4
X4.9Y-4.5
X4.9Y-4.6
X4.9Y-4.7
X4.9Y-4.8
X4.9Y-4.9
X4.9Y-5.1
X4.9Y-5.3
X4.9Y-5.5
X4.9Y-5.7
X4.9Y-5.9
X4.9Y-6.1
X4.9Y-6.5
X4.9Y-6.7
X4.9Y-6.9
X4.9Y-7.1
X4.9Y-7.3
X4.9Y-7.5
X4.9Y-7.6
X4.9Y-7.7
X4.9Y-7.8
X4.9Y-7.9
X5.0Y-1.3
X5.0Y-1.4
X5.0Y-1.5
X5.0Y-1.6
X5.0Y-1.6
X5.0Y-1.7
X5.0Y-1.8
X5.0Y-2.0
X5.0Y-2.2
X5.0Y-2.4
X5.0Y-2.6
X5.0Y-2.8
X5.0Y-3.0
X5.0Y-3.2
X5.0Y-3.4
X5.0Y-3.6
X5.0Y-3.8
X5.0Y-4.0
X5.0Y-4.2
X5.0Y-4.4
X5.0Y-4.5
X5.0Y-4.6
X5.0Y-4.7
X5.0Y-4.8
X5.0Y-4.9
X5.0Y-5.0
X5.0Y-5.2
X5.0Y-5.4
X5.0Y-5.6
X5.0Y-5.8
X5.0Y-6.0
X5.0Y-6.4
X5.0Y-6.6
X5.0Y-6.8
X5.0Y-7.0
X5.0Y-7.2
X5.0Y-7.4
X5.0Y-7.6
X5.0Y-7.7
X5.0Y-7.8
X5.0Y-7.9
X5.1Y-1.3
X5.1Y-1.8
X5.1Y-1.9
X5.1Y-2.1
X5.1Y-2.3
X5.1Y-2.5
X5.1Y-2.7
X5.1Y-2.9
X5.1Y-3.3
X5.1Y-3.5
X5.1Y-3.7
X5.1Y-3.9
X5.1Y-4.1
X5.1Y-4.3
X5.1Y-5.1
X5.1Y-5.3
X5.1Y-5.5
X5.1Y-5.7
X5.1Y-5.9
X5.1Y-6.1
X5.1Y-6.5
X5.1Y-6.7
X5.1Y-6.9
X5.1Y-7.1
X5.1Y-7.3
X5.1Y-7.5
X5.1Y-7.6
X5.1Y-9.7
X5.2Y-1.3
X5.2Y-1.8
X5.2Y-2.0
X5.2Y-2.2
X5.2Y-2.4
X5.2Y-2.6
X5.2Y-2.8
X5.2Y-3.0
X5.2Y-3.4
X5.2Y-3.6
X5.2Y-3.8
X5.2Y-4.0
X5.2Y-4.2
X5.2Y-4.9
X5.2Y-5.2
X5.2Y-5.4
X5.2Y-5.6
X5.2Y-5.8
X5.2Y-6.0
X5.2Y-6.6
X5.2Y-6.8
X5.2Y-7.0
X5.2Y-7.2
X5.2Y-7.4
X5.2Y-7.6
X5.3Y-1.3
X5.3Y-1.8
X5.3Y-2.1
X5.3Y-2.3
X5.3Y-2.5
X5.3Y-2.7
X5.3Y-2.9
X5.3Y-3.3
X5.3Y-3.5
X5.3Y-3.7
X5.3Y-3.9
X5.3Y-4.1
X5.3Y-4.4
X5.3Y-4.9
X5.3Y-5.1
X5.3Y-5.3
X5.3Y-5.5
X5.3Y-5.7
X5.3Y-5.9
X5.3Y-6.1
X5.3Y-6.3
X5.3Y-6.5
X5.3Y-6.7
X5.3Y-6.9
X5.3Y-7.1
X5.3Y-7.3
X5.3Y-7.6
X5.4Y-1.3
X5.4Y-1.8
X5.4Y-2.0
X5.4Y-2.2
X5.4Y-2.4
X5.4Y-2.6
X5.4Y-2.8
X5.4Y-3.0
X5.4Y-3.2
X5.4Y-3.4
X5.4Y-3.6
X5.4Y-3.8
X5.4Y-4.0
X5.4Y-4.2
X5.4Y-4.4
X5.4Y-4.9
X5.4Y-5.0
X5.4Y-5.2
X5.4Y-5.4
X5.4Y-5.6
X5.4Y-5.8
X5.4Y-6.0
X5.4Y-6.2
X5.4Y-6.4
X5.4Y-6.6
X5.4Y-6.8
X5.4Y-7.0
X5.4Y-7.2
X5.4Y-7.4
X5.4Y-7.6
X5.4Y-7.7
X5.4Y-7.8
X5.4Y-7.9
X5.5Y-1.3
X5.5Y-1.4
X5.5Y-1.5
X5.5Y-1.6
X5.5Y-1.6
X5.5Y-1.7
X5.5Y-1.8
X5.5Y-1.9
X5.5Y-2.1
X5.5Y-2.3
X5.5Y-2.5
X5.5Y-2.7
X5.5Y-2.9
X5.5Y-3.1
X5.5Y-3.3
X5.5Y-3.5
X5.5Y-3.7
X5.5Y-3.9
X5.5Y-4.1
X5.5Y-4.3
X5.5Y-4.4
X5.5Y-4.5
X5.5Y-4.6
X5.5Y-4.7
X5.5Y-4.8
X5.5Y-4.9
X5.5Y-5.3
X5.5Y-5.5
X5.5Y-5.7
X5.5Y-5.9
X5.5Y-6.1
X5.5Y-6.3
X5.5Y-6.5
X5.5Y-6.7
X5.5Y-6.9
X5.5Y-7.1
X5.5Y-7.3
X5.5Y-7.5
X5.5Y-7.6
X5.5Y-7.7
X5.5Y-7.8
X5.5Y-7.9
X5.6Y-1.3
X5.6Y-1.4
X5.6Y-1.5
X5.6Y-1.6
X5.6Y-1.7
X5.6Y-1.8
X5.6Y-2.0
X5.6Y-2.2
X5.6Y-2.4
X5.6Y-2.6
X5.6Y-2.8
X5.6Y-3.0
X5.6Y-3.2
X5.6Y-3.4
X5.6Y-3.6
X5.6Y-3.8
X5.6Y-4.0
X5.6Y-4.4
X5.6Y-4.5
X5.6Y-4.6
X5.6Y-4.7
X5.6Y-4.8
X5.6Y-4.9
X5.6Y-5.0
X5.6Y-5.4
X5.6Y-5.6
X5.6Y-5.8
X5.6Y-6.0
X5.6Y-6.2
X5.6Y-6.4
X5.6Y-6.6
X5.6Y-6.8
X5.6Y-7.0
X5.6Y-7.2
X5.6Y-7.4
X5.6Y-7.6
X5.6Y-7.7
X5.6Y-7.8
X5.6Y-7.9
X5.7Y-1.3
X5.7Y-1.4
X5.7Y-1.5
X5.7Y-1.6
X5.7Y-1.7
X5.7Y-1.8
X5.7Y-1.9
X5.7Y-2.1
X5.7Y-2.3
X5.7Y-2.5
X5.7Y-2.7
X5.7Y-2.9
X5.7Y-3.1
X5.7Y-3.3
X5.7Y-3.5
X5.7Y-3.7
X5.7Y-3.9
X5.7Y-4.1
X5.7Y-4.3
X5.7Y-4.4
X5.7Y-4.5
X5.7Y-4.6
X5.7Y-4.7
X5.7Y-4.8
X5.7Y-4.9
X5.7Y-5.1
X5.7Y-5.5
X5.7Y-5.7
X5.7Y-5.9
X5.7Y-6.1
X5.7Y-6.3
X5.7Y-6.5
X5.7Y-6.7
X5.7Y-6.9
X5.7Y-7.1
X5.7Y-7.3
X5.7Y-7.5
X5.7Y-7.6
X5.7Y-7.7
X5.7Y-7.8
X5.7Y-7.9
X5.8Y-1.3
X5.8Y-1.4
X5.8Y-1.5
X5.8Y-1.6
X5.8Y-1.7
X5.8Y-1.8
X5.8Y-2.0
X5.8Y-2.2
X5.8Y-2.4
X5.8Y-2.6
X5.8Y-2.8
X5.8Y-3.0
X5.8Y-3.2
X5.8Y-3.4
X5.8Y-3.6
X5.8Y-3.8
X5.8Y-4.0
X5.8Y-4.2
X5.8Y-4.4
X5.8Y-4.5
X5.8Y-4.6
X5.8Y-4.7
X5.8Y-4.8
X5.8Y-4.9
X5.8Y-5.0
X5.8Y-5.2
X5.8Y-5.6
X5.8Y-5.8
X5.8Y-6.0
X5.8Y-6.2
X5.8Y-6.4
X5.8Y-6.6
X5.8Y-6.8
X5.8Y-7.0
X5.8Y-7.2
X5.8Y-7.4
X5.8Y-7.6
X5.8Y-7.6
X5.8Y-7.7
X5.8Y-7.8
X5.8Y-7.9
X5.9Y-1.3
X5.9Y-1.4
X5.9Y-1.5
X5.9Y-1.6
X5.9Y-1.7
X5.9Y-1.8
X5.9Y-1.9
X5.9Y-2.1
X5.9Y-2.3
X5.9Y-2.5
X5.9Y-2.7
X5.9Y-2.9
X5.9Y-3.1
X5.9Y-3.3
X5.9Y-3.5
X5.9Y-3.7
X5.9Y-3.9
X5.9Y-4.3
X5.9Y-4.4
X5.9Y-4.5
X5.9Y-4.6
X5.9Y-4.7
X5.9Y-4.8
X5.9Y-4.9
X5.9Y-5.1
X5.9Y-5.3
X5.9Y-5.5
X5.9Y-5.7
X5.9Y-5.9
X5.9Y-6.1
X5.9Y-6.3
X5.9Y-6.5
X5.9Y-6.7
X5.9Y-6.9
X5.9Y-7.1
X5.9Y-7.3
X5.9Y-7.5
X5.9Y-7.6
X5.9Y-7.7
X5.9Y-7.8
X5.9Y-7.9
X6.0Y-1.3
X6.0Y-1.8
X6.0Y-2.0
X6.0Y-2.2
X6.0Y-2.4
X6.0Y-2.6
X6.0Y-2.8
X6.0Y-3.0
X6.0Y-3.2
X6.0Y-3.4
X6.0Y-3.6
X6.0Y-3.8
X6.0Y-4.2
X6.0Y-4.4
X6.0Y-4.9
X6.0Y-5.0
X6.0Y-5.2
X6.0Y-5.4
X6.0Y-5.6
X6.0Y-5.8
X6.0Y-6.0
X6.0Y-6.2
X6.0Y-6.4
X6.0Y-6.6
X6.0Y-6.8
X6.0Y-7.0
X6.0Y-7.2
X6.0Y-7.4
X6.0Y-7.6
X6.1Y-1.3
X6.1Y-1.8
X6.1Y-2.1
X6.1Y-2.3
X6.1Y-2.5
X6.1Y-2.7
X6.1Y-2.9
X6.1Y-3.3
X6.1Y-3.5
X6.1Y-3.7
X6.1Y-3.9
X6.1Y-4.1
X6.1Y-4.4
X6.1Y-4.9
X6.1Y-5.3
X6.1Y-5.7
X6.1Y-5.9
X6.1Y-6.1
X6.1Y-6.3
X6.2Y-1.3
X6.2Y-1.8
X6.2Y-2.0
X6.2Y-2.2
X6.2Y-2.4
X6.2Y-2.6
X6.2Y-2.8
X6.2Y-3.0
X6.2Y-3.4
X6.2Y-3.6
X6.2Y-3.8
X6.2Y-4.0
X6.2Y-4.2
X6.2Y-4.4
X6.2Y-4.9
X6.2Y-5.0
X6.2Y-5.2
X6.2Y-5.4
X6.3Y-1.3
X6.3Y-1.4
X6.3Y-1.5
X6.3Y-1.6
X6.3Y-1.7
X6.3Y-1.7
X6.3Y-1.8
X6.3Y-1.9
X6.3Y-2.1
X6.3Y-2.3
X6.3Y-2.5
X6.3Y-2.7
X6.3Y-2.9
X6.3Y-3.1
X6.3Y-4.1
X6.3Y-4.3
X6.3Y-4.4
X6.3Y-4.5
X6.3Y-4.6
X6.3Y-4.7
X6.3Y-4.8
X6.3Y-4.9
X6.3Y-5.1
X6.3Y-5.3
X6.3Y-5.5
X6.3Y-5.7
X6.3Y-5.9
X6.3Y-6.1
X6.3Y-6.5
X6.3Y-6.7
X6.3Y-6.9
X6.3Y-7.1
X6.3Y-7.3
X6.3Y-7.5
X6.3Y-7.6
X6.3Y-7.7
X6.3Y-7.8
X6.3Y-7.9
X6.4Y-1.3
X6.4Y-1.4
X6.4Y-1.5
X6.4Y-1.6
X6.4Y-1.7
X6.4Y-1.8
X6.4Y-2.0
X6.4Y-2.2
X6.4Y-2.4
X6.4Y-2.6
X6.4Y-2.8
X6.4Y-3.0
X6.4Y-3.2
X6.4Y-3.4
X6.4Y-3.6
X6.4Y-3.8
X6.4Y-4.0
X6.4Y-4.2
X6.4Y-4.4
X6.4Y-4.5
X6.4Y-4.6
X6.4Y-4.7
X6.4Y-4.8
X6.4Y-4.9
X6.4Y-5.0
X6.4Y-5.2
X6.4Y-5.4
X6.4Y-5.6
X6.4Y-5.8
X6.4Y-6.0
X6.4Y-6.2
X6.4Y-6.4
X6.4Y-6.6
X6.4Y-6.8
X6.4Y-7.0
X6.4Y-7.2
X6.4Y-7.4
X6.4Y-7.6
X6.4Y-7.7
X6.4Y-7.8
X6.4Y-7.9
X6.5Y-1.3
X6.5Y-1.4
X6.5Y-1.5
X6.5Y-1.6
X6.5Y-1.7
X6.5Y-1.8
X6.5Y-1.9
X6.5Y-2.1
X6.5Y-2.3
X6.5Y-2.5
X6.5Y-2.7
X6.5Y-2.9
X6.5Y-3.1
X6.5Y-3.3
X6.5Y-3.5
X6.5Y-3.7
X6.5Y-3.9
X6.5Y-4.1
X6.5Y-4.3
X6.5Y-4.4
X6.5Y-4.5
X6.5Y-4.6
X6.5Y-4.7
X6.5Y-4.8
X6.5Y-4.9
X6.5Y-5.1
X6.5Y-5.3
X6.5Y-5.5
X6.5Y-5.7
X6.5Y-5.9
X6.5Y-6.1
X6.5Y-6.5
X6.5Y-6.7
X6.5Y-6.9
X6.5Y-7.1
X6.5Y-7.3
X6.5Y-7.5
X6.5Y-7.6
X6.5Y-7.7
X6.5Y-7.8
X6.5Y-7.9
X6.6Y-1.3
X6.6Y-1.4
X6.6Y-1.5
X6.6Y-1.6
X6.6Y-1.7
X6.6Y-1.8
X6.6Y-2.0
X6.6Y-2.2
X6.6Y-2.4
X6.6Y-2.6
X6.6Y-2.8
X6.6Y-3.0
X6.6Y-3.2
X6.6Y-3.4
X6.6Y-3.6
X6.6Y-3.8
X6.6Y-4.0
X6.6Y-4.2
X6.6Y-4.4
X6.6Y-4.5
X6.6Y-4.6
X6.6Y-4.7
X6.6Y-4.8
X6.6Y-4.9
X6.6Y-5.0
X6.6Y-5.2
X6.6Y-5.4
X6.6Y-5.6
X6.6Y-5.8
X6.6Y-6.0
X6.6Y-6.2
X6.6Y-6.4
X6.6Y-6.6
X6.6Y-6.8
X6.6Y-7.0
X6.6Y-7.2
X6.6Y-7.4
X6.6Y-7.6
X6.6Y-7.7
X6.6Y-7.8
X6.6Y-7.9
X6.7Y-1.3
X6.7Y-1.4
X6.7Y-1.5
X6.7Y-1.6
X6.7Y-1.7
X6.7Y-1.8
X6.7Y-1.9
X6.7Y-2.1
X6.7Y-2.3
X6.7Y-2.5
X6.7Y-2.7
X6.7Y-2.9
X6.7Y-3.1
X6.7Y-3.3
X6.7Y-3.5
X6.7Y-3.7
X6.7Y-3.9
X6.7Y-4.1
X6.7Y-4.3
X6.7Y-4.4
X6.7Y-4.5
X6.7Y-4.6
X6.7Y-4.7
X6.7Y-4.8
X6.7Y-4.9
X6.7Y-5.1
X6.7Y-5.3
X6.7Y-5.5
X6.7Y-5.7
X6.7Y-5.9
X6.7Y-6.1
X6.7Y-6.5
X6.7Y-6.7
X6.7Y-6.9
X6.7Y-7.1
X6.7Y-7.3
X6.7Y-7.5
X6.7Y-7.6
X6.7Y-7.7
X6.7Y-7.8
X6.7Y-7.9
X6.8Y-1.8
X6.8Y-2.0
X6.8Y-2.2
X6.8Y-2.4
X6.8Y-2.6
X6.8Y-2.8
X6.8Y-3.0
X6.8Y-3.2
X6.8Y-3.4
X6.8Y-3.6
X6.8Y-3.8
X6.8Y-4.0
X6.8Y-4.2
X6.8Y-4.4
X6.8Y-5.0
X6.8Y-5.2
X6.8Y-5.4
X6.8Y-5.6
X6.8Y-5.8
X6.8Y-6.0
X6.8Y-6.2
X6.8Y-6.4
X6.8Y-6.6
X6.8Y-6.8
X6.8Y-7.0
X6.8Y-7.2
X6.8Y-7.4
X6.8Y-7.6
X6.9Y-1.8
X6.9Y-2.1
X6.9Y-2.3
X6.9Y-2.5
X6.9Y-2.7
X6.9Y-2.9
X6.9Y-3.1
X6.9Y-3.3
X6.9Y-3.5
X6.9Y-3.7
X6.9Y-3.9
X6.9Y-4.1
X6.9Y-4.4
X6.9Y-5.0
X6.9Y-5.3
X6.9Y-5.5
X6.9Y-5.7
X6.9Y-5.9
X6.9Y-6.1
X6.9Y-6.5
X6.9Y-6.7
X6.9Y-6.9
X6.9Y-7.1
X6.9Y-7.3
X6.9Y-7.6
X7.0Y-1.8
X7.0Y-2.0
X7.0Y-2.2
X7.0Y-2.4
X7.0Y-2.6
X7.0Y-2.8
X7.0Y-3.0
X7.0Y-3.2
X7.0Y-3.4
X7.0Y-3.6
X7.0Y-3.8
X7.0Y-4.0
X7.0Y-4.2
X7.0Y-4.4
X7.0Y-5.0
X7.0Y-5.2
X7.0Y-5.4
X7.0Y-5.6
X7.0Y-5.8
X7.0Y-6.0
X7.0Y-6.2
X7.0Y-6.4
X7.0Y-6.6
X7.0Y-6.8
X7.0Y-7.0
X7.0Y-7.2
X7.0Y-7.4
X7.0Y-7.6
X7.1Y-1.8
X7.1Y-1.9
X7.1Y-2.1
X7.1Y-2.3
X7.1Y-2.5
X7.1Y-2.7
X7.1Y-2.9
X7.1Y-3.1
X7.1Y-3.3
X7.1Y-3.5
X7.1Y-3.7
X7.1Y-3.9
X7.1Y-4.1
X7.1Y-4.3
X7.1Y-4.4
X7.1Y-4.9
X7.1Y-5.0
X7.1Y-5.1
X7.1Y-5.3
X7.1Y-5.5
X7.1Y-5.7
X7.1Y-5.9
X7.1Y-6.1
X7.1Y-6.3
X7.1Y-6.5
X7.1Y-6.7
X7.1Y-6.9
X7.1Y-7.1
X7.1Y-7.3
X7.1Y-7.5
X7.1Y-7.6
X7.2Y-1.3
X7.2Y-1.4
X7.2Y-1.5
X7.2Y-1.6
X7.2Y-1.7
X7.2Y-1.7
X7.2Y-1.8
X7.2Y-2.0
X7.2Y-2.2
X7.2Y-2.4
X7.2Y-2.6
X7.2Y-2.8
X7.2Y-3.0
X7.2Y-3.2
X7.2Y-3.4
X7.2Y-3.6
X7.2Y-3.8
X7.2Y-4.0
X7.2Y-4.2
X7.2Y-4.4
X7.2Y-4.5
X7.2Y-4.6
X7.2Y-4.7
X7.2Y-4.8
X7.2Y-4.9
X7.2Y-5.0
X7.2Y-5.2
X7.2Y-5.4
X7.2Y-5.6
X7.2Y-5.8
X7.2Y-6.0
X7.2Y-6.2
X7.2Y-6.4
X7.2Y-6.6
X7.2Y-6.8
X7.2Y-7.0
X7.2Y-7.2
X7.2Y-7.4
X7.2Y-7.6
X7.2Y-7.7
X7.2Y-7.8
X7.2Y-7.9
X7.3Y-1.3
X7.3Y-1.4
X7.3Y-1.5
X7.3Y-1.6
X7.3Y-1.7
X7.3Y-1.8
X7.3Y-1.9
X7.3Y-2.1
X7.3Y-2.3
X7.3Y-2.5
X7.3Y-2.7
X7.3Y-2.9
X7.3Y-3.1
X7.3Y-3.3
X7.3Y-3.5
X7.3Y-3.7
X7.3Y-3.9
X7.3Y-4.1
X7.3Y-4.3
X7.3Y-4.4
X7.3Y-4.5
X7.3Y-4.6
X7.3Y-4.7
X7.3Y-4.8
X7.3Y-4.9
X7.3Y-5.0
X7.3Y-5.1
X7.3Y-5.5
X7.3Y-5.7
X7.3Y-5.9
X7.3Y-6.1
X7.3Y-6.3
X7.3Y-6.5
X7.3Y-6.7
X7.3Y-6.9
X7.3Y-7.1
X7.3Y-7.3
X7.3Y-7.5
X7.3Y-7.6
X7.3Y-7.7
X7.3Y-7.8
X7.3Y-7.9
X7.4Y-1.3
X7.4Y-1.4
X7.4Y-1.5
X7.4Y-1.6
X7.4Y-1.7
X7.4Y-1.8
X7.4Y-2.0
X7.4Y-2.2
X7.4Y-2.4
X7.4Y-2.6
X7.4Y-2.8
X7.4Y-3.0
X7.4Y-3.2
X7.4Y-3.4
X7.4Y-3.6
X7.4Y-3.8
X7.4Y-4.0
X7.4Y-4.2
X7.4Y-4.4
X7.4Y-4.5
X7.4Y-4.6
X7.4Y-4.7
X7.4Y-4.8
X7.4Y-4.9
X7.4Y-5.0
X7.4Y-5.2
X7.4Y-5.4
X7.4Y-5.6
X7.4Y-5.8
X7.4Y-6.0
X7.4Y-6.2
X7.4Y-6.4
X7.4Y-6.6
X7.4Y-6.8
X7.4Y-7.0
X7.4Y-7.4
X7.4Y-7.6
X7.4Y-7.7
X7.4Y-7.8
X7.4Y-7.9
X7.5Y-1.3
X7.5Y-1.4
X7.5Y-1.5
X7.5Y-1.6
X7.5Y-1.7
X7.5Y-1.8
X7.5Y-1.9
X7.5Y-2.1
X7.5Y-2.3
X7.5Y-2.7
X7.5Y-2.9
X7.5Y-3.1
X7.5Y-3.3
X7.5Y-3.5
X7.5Y-3.7
X7.5Y-3.9
X7.5Y-4.1
X7.5Y-4.3
X7.5Y-4.4
X7.5Y-4.5
X7.5Y-4.6
X7.5Y-4.7
X7.5Y-4.8
X7.5Y-4.9
X7.5Y-5.0
X7.5Y-5.1
X7.5Y-5.3
X7.5Y-5.5
X7.5Y-5.7
X7.5Y-5.9
X7.5Y-6.1
X7.5Y-6.3
X7.5Y-6.5
X7.5Y-6.7
X7.5Y-6.9
X7.5Y-7.1
X7.5Y-7.3
X7.5Y-7.5
X7.5Y-7.6
X7.5Y-7.7
X7.5Y-7.8
X7.5Y-7.9
X7.6Y-1.3
X7.6Y-1.4
X7.6Y-1.5
X7.6Y-1.6
X7.6Y-1.7
X7.6Y-1.8
X7.6Y-2.0
X7.6Y-2.2
X7.6Y-2.4
X7.6Y-2.6
X7.6Y-2.8
X7.6Y-3.0
X7.6Y-3.2
X7.6Y-3.4
X7.6Y-3.6
X7.6Y-3.8
X7.6Y-4.0
X7.6Y-4.2
X7.6Y-4.4
X7.6Y-4.5
X7.6Y-4.6
X7.6Y-4.7
X7.6Y-4.8
X7.6Y-4.9
X7.6Y-5.0
X7.6Y-5.2
X7.6Y-5.4
X7.6Y-5.6
X7.6Y-5.8
X7.6Y-6.0
X7.6Y-6.2
X7.6Y-6.4
X7.6Y-6.6
X7.6Y-6.8
X7.6Y-7.0
X7.6Y-7.4
X7.6Y-7.6
X7.6Y-7.6
X7.6Y-7.7
X7.6Y-7.8
X7.6Y-7.9
X7.7Y-1.8
X7.7Y-1.9
X7.7Y-2.1
X7.7Y-2.3
X7.7Y-2.7
X7.7Y-2.9
X7.7Y-3.1
X7.7Y-3.3
X7.7Y-3.5
X7.7Y-3.7
X7.7Y-3.9
X7.7Y-4.1
X7.7Y-4.3
X7.7Y-4.4
X7.7Y-4.9
X7.7Y-5.0
X7.7Y-5.1
X7.7Y-5.3
X7.7Y-5.5
X7.7Y-5.7
X7.7Y-5.9
X7.7Y-6.1
X7.7Y-6.3
X7.7Y-6.5
X7.7Y-6.7
X7.7Y-6.9
X7.7Y-7.1
X7.7Y-7.3
X7.7Y-7.5
X7.7Y-7.6
X7.8Y-1.8
X7.8Y-2.0
X7.8Y-2.2
X7.8Y-2.4
X7.8Y-2.6
X7.8Y-2.8
X7.8Y-3.0
X7.8Y-3.2
X7.8Y-3.4
X7.8Y-3.6
X7.8Y-3.8
X7.8Y-4.0
X7.8Y-4.2
X7.8Y-4.4
X7.8Y-5.0
X7.8Y-5.2
X7.8Y-5.4
X7.8Y-5.6
X7.8Y-5.8
X7.8Y-6.0
X7.8Y-6.2
X7.8Y-6.4
X7.8Y-6.6
X7.8Y-6.8
X7.8Y-7.0
X7.8Y-7.4
X7.8Y-7.6
X7.8Y-8.45
X7.85Y-8.4
X7.85Y-8.5
X7.9Y-1.8
X7.9Y-1.9
X7.9Y-2.1
X7.9Y-2.3
X7.9Y-2.7
X7.9Y-2.9
X7.9Y-3.1
X7.9Y-3.3
X7.9Y-3.5
X7.9Y-3.7
X7.9Y-3.9
X7.9Y-4.1
X7.9Y-4.4
X7.9Y-4.9
X7.9Y-5.0
X7.9Y-5.1
X7.9Y-5.3
X7.9Y-5.5
X7.9Y-5.7
X7.9Y-5.9
X7.9Y-6.1
X7.9Y-6.3
X7.9Y-6.5
X7.9Y-6.7
X7.9Y-6.9
X7.9Y-7.1
X7.9Y-7.3
X7.9Y-8.1
X7.9Y-8.2
X7.9Y-8.45
X7.95Y-8.05
X7.95Y-8.15
X7.95Y-8.4
X7.95Y-8.5
X8.0Y-1.5
X8.0Y-1.6
X8.0Y-1.7
X8.0Y-1.8
X8.0Y-2.0
X8.0Y-2.2
X8.0Y-2.4
X8.0Y-2.6
X8.0Y-2.8
X8.0Y-3.0
X8.0Y-3.2
X8.0Y-3.4
X8.0Y-3.6
X8.0Y-3.8
X8.0Y-4.0
X8.0Y-4.2
X8.0Y-4.4
X8.0Y-4.5
X8.0Y-4.6
X8.0Y-4.7
X8.0Y-4.8
X8.0Y-4.9
X8.0Y-5.0
X8.0Y-5.2
X8.0Y-5.4
X8.0Y-5.6
X8.0Y-5.8
X8.0Y-6.0
X8.0Y-6.2
X8.0Y-6.4
X8.0Y-6.6
X8.0Y-6.8
X8.0Y-7.0
X8.0Y-7.2
X8.0Y-7.4
X8.0Y-7.6
X8.0Y-7.8
X8.0Y-8.0
X8.0Y-8.1
X8.0Y-8.2
X8.0Y-8.45
X8.05Y-8.05
X8.05Y-8.15
X8.05Y-8.3
X8.05Y-8.4
X8.05Y-8.5
X8.05Y-8.6
X8.1Y-1.6
X8.1Y-1.7
X8.1Y-1.8
X8.1Y-1.9
X8.1Y-2.1
X8.1Y-2.3
X8.1Y-2.7
X8.1Y-2.9
X8.1Y-3.1
X8.1Y-3.3
X8.1Y-3.5
X8.1Y-3.7
X8.1Y-3.9
X8.1Y-4.1
X8.1Y-4.3
X8.1Y-4.4
X8.1Y-4.5
X8.1Y-4.6
X8.1Y-4.7
X8.1Y-4.8
X8.1Y-4.9
X8.1Y-5.0
X8.1Y-5.1
X8.1Y-5.3
X8.1Y-5.5
X8.1Y-5.7
X8.1Y-5.9
X8.1Y-6.1
X8.1Y-6.3
X8.1Y-6.5
X8.1Y-6.7
X8.1Y-6.9
X8.1Y-7.1
X8.1Y-7.3
X8.1Y-7.5
X8.1Y-7.7
X8.1Y-7.9
X8.1Y-8.1
X8.1Y-8.2
X8.1Y-8.45
X8.15Y-8.05
X8.15Y-8.15
X8.15Y-8.4
X8.15Y-8.5
X8.2Y-1.5
X8.2Y-1.6
X8.2Y-1.7
X8.2Y-1.8
X8.2Y-2.0
X8.2Y-2.2
X8.2Y-2.4
X8.2Y-2.6
X8.2Y-2.8
X8.2Y-3.0
X8.2Y-3.2
X8.2Y-3.4
X8.2Y-3.6
X8.2Y-3.8
X8.2Y-4.0
X8.2Y-4.2
X8.2Y-4.4
X8.2Y-4.5
X8.2Y-4.6
X8.2Y-4.7
X8.2Y-4.8
X8.2Y-4.9
X8.2Y-5.0
X8.2Y-5.2
X8.2Y-5.4
X8.2Y-5.6
X8.2Y-5.8
X8.2Y-6.0
X8.2Y-6.2
X8.2Y-6.4
X8.2Y-6.6
X8.2Y-6.8
X8.2Y-7.0
X8.2Y-7.2
X8.2Y-7.4
X8.2Y-7.6
X8.2Y-7.8
X8.2Y-8.0
X8.2Y-8.1
X8.2Y-8.2
X8.2Y-8.45
T3
X8.0055Y-1.38
X8.0332Y-1.3132
X8.0332Y-1.4468
X8.1Y-1.2855
X8.1Y-1.4745
X8.1668Y-1.3132
X8.1668Y-1.4468
X8.1945Y-1.38
X3.1845Y-9.71
X3.2122Y-9.6432
X3.2122Y-9.7768
X3.279Y-9.6155
X3.279Y-9.8045
X3.3458Y-9.6432
X3.3458Y-9.7768
X3.3735Y-9.71
X7.9805Y-9.718
X8.0082Y-9.6512
X8.0082Y-9.7848
X8.075Y-9.6235
X8.075Y-9.8125
X8.1418Y-9.6512
X8.1418Y-9.7848
X8.1695Y-9.718
X3.1645Y-1.375
X3.1922Y-1.3082
X3.1922Y-1.4418
X3.259Y-1.2805
X3.259Y-1.4695
X3.3258Y-1.3082
X3.3258Y-1.4418
X3.3535Y-1.375
T4
X3.1693Y-9.065
X3.1693Y-9.115
X3.1693Y-9.165
X3.2193Y-9.065
X3.2193Y-9.115
X3.2193Y-9.165
T5
X5.18Y-8.505
X4.9725Y-8.505
T6
X7.884Y-9.302
X7.884Y-9.4201
X7.884Y-8.88
X7.884Y-8.9981
T7
X3.2031Y-8.24
X3.2031Y-8.516
X3.4Y-8.24
X3.4Y-8.516
X7.9488Y-8.3106
X7.9488Y-8.5866
X8.1457Y-8.3106
X8.1457Y-8.5866
T8
X8.1Y-1.38
X3.279Y-9.71
X8.075Y-9.718
X3.259Y-1.375
T0
M30
