M48
; DRILL file {KiCad (5.1.4)-1} date 2021-01-17 8:03:34 PM
; FORMAT={-:-/ absolute / inch / decimal}
; #@! TF.CreationDate,2021-01-17T20:03:34-03:30
; #@! TF.GenerationSoftware,Kicad,Pcbnew,(5.1.4)-1
; #@! TF.FileFunction,Plated,1,4,PTH
FMAT,2
INCH
T1C0.0079
T2C0.0157
T3C0.0236
T4C0.0315
T5C0.0354
T6C0.0394
T7C0.0669
T8C0.1260
%
G90
G05
T1
X2.0673Y-3.7106
X2.1885Y-3.6455
X2.1985Y-3.7055
X2.4185Y-3.6855
X2.5585Y-3.9855
X2.5585Y-4.0555
X2.565Y-4.3091
X2.6177Y-4.3976
X2.6185Y-4.2618
X2.6339Y-4.0937
X2.6535Y-4.2988
X2.698Y-4.3323
X2.7012Y-5.2268
X2.7051Y-4.215
X2.7067Y-4.2547
X2.7169Y-4.0291
X2.7307Y-4.1972
X2.7413Y-4.0269
X2.7559Y-4.2567
X2.7689Y-3.7295
X2.772Y-4.337
X2.778Y-4.189
X2.793Y-4.1156
X2.8168Y-4.115
X2.8346Y-4.1949
X2.8366Y-4.2528
X2.8772Y-4.2988
X2.9138Y-4.2866
X2.9248Y-4.3107
X2.9256Y-3.6303
X2.9314Y-4.0336
X2.9839Y-3.7157
X2.9894Y-4.0827
X3.0118Y-4.2941
X3.0335Y-4.1268
X3.0787Y-5.2217
X3.0858Y-4.0744
X3.0909Y-3.6866
X3.1185Y-3.6843
X3.1634Y-3.6673
X3.2004Y-3.6945
X3.2173Y-3.7647
X3.2229Y-3.7123
X3.2256Y-3.6303
X3.2313Y-3.7345
X3.2316Y-4.2037
X3.2496Y-4.1665
X3.252Y-4.0988
X3.2587Y-4.3516
X3.266Y-4.298
X3.2669Y-4.3217
X3.2756Y-4.137
X3.2838Y-4.2743
X3.2992Y-3.6831
X3.3539Y-4.2157
X3.3571Y-4.2421
X3.3613Y-4.3201
X3.3626Y-4.3941
X3.3713Y-3.7193
X3.3723Y-3.6685
X3.378Y-4.3409
X3.3977Y-4.2051
X3.4127Y-3.6793
X3.4131Y-4.1005
X3.4295Y-4.4154
X3.4354Y-4.1154
X3.437Y-4.4921
X3.4466Y-3.9773
X3.4693Y-3.9843
X3.4807Y-4.085
X3.5331Y-4.665
X3.5587Y-4.5882
X3.565Y-4.5276
X3.5806Y-4.346
X3.5885Y-4.2499
X3.5908Y-4.2735
X3.5933Y-4.326
X3.6091Y-4.302
X3.6116Y-4.1762
X3.6531Y-3.4972
X3.6902Y-3.7484
X3.7437Y-4.0669
X3.7646Y-3.9846
X3.7997Y-4.1539
X3.8116Y-4.1252
X3.8236Y-4.1046
X3.8543Y-4.5366
X3.9752Y-3.6744
X4.002Y-3.7075
X4.2039Y-3.6512
X4.3689Y-4.7783
X4.3744Y-4.9547
X4.437Y-4.2106
X5.0433Y-4.7323
X5.063Y-4.2008
X5.5165Y-4.1028
X5.6272Y-4.3799
X5.7882Y-3.9484
X5.8094Y-3.6815
X5.8114Y-3.8433
X5.8126Y-3.7618
T2
X2.0039Y-3.6043
X2.0059Y-3.7146
X2.0157Y-5.1732
X2.0157Y-5.2126
X2.0157Y-5.252
X2.0157Y-5.2913
X2.0157Y-5.3307
X2.0157Y-5.3701
X2.0157Y-5.4094
X2.0157Y-5.4488
X2.0157Y-5.4882
X2.0157Y-5.5276
X2.0157Y-5.5669
X2.0157Y-5.6063
X2.0551Y-5.1732
X2.0551Y-5.2126
X2.0551Y-5.4882
X2.0551Y-5.5276
X2.0551Y-5.5669
X2.0551Y-5.6063
X2.0945Y-5.1732
X2.0945Y-5.2126
X2.0945Y-5.4882
X2.0945Y-5.5276
X2.0945Y-5.5669
X2.0945Y-5.6063
X2.1339Y-5.1732
X2.1339Y-5.2126
X2.1339Y-5.4882
X2.1339Y-5.5276
X2.1339Y-5.5669
X2.1339Y-5.6063
X2.1575Y-4.0496
X2.1614Y-3.7539
X2.1634Y-3.6772
X2.1732Y-5.1732
X2.1732Y-5.2126
X2.1732Y-5.4882
X2.1732Y-5.5276
X2.1732Y-5.5669
X2.1732Y-5.6063
X2.1886Y-4.0465
X2.2126Y-5.4882
X2.2185Y-4.0496
X2.252Y-5.4882
X2.2913Y-5.4882
X2.3819Y-4.437
X2.3819Y-4.4764
X2.4114Y-5.0984
X2.4114Y-5.1378
X2.4114Y-5.1772
X2.4114Y-5.2165
X2.4213Y-4.437
X2.4213Y-4.4764
X2.4508Y-5.1378
X2.4508Y-5.1772
X2.4508Y-5.2165
X2.452Y-3.663
X2.4606Y-4.437
X2.4606Y-4.4764
X2.4646Y-4.7795
X2.4646Y-4.8189
X2.4646Y-4.8583
X2.4646Y-4.8976
X2.4882Y-4.2598
X2.4902Y-5.1378
X2.4902Y-5.1772
X2.4902Y-5.2165
X2.5Y-4.5945
X2.5Y-4.6339
X2.5Y-4.6732
X2.5039Y-4.7795
X2.5039Y-4.8189
X2.5039Y-4.8583
X2.5039Y-4.8976
X2.5205Y-4.2598
X2.5205Y-4.2992
X2.5205Y-4.3386
X2.5205Y-4.378
X2.5295Y-5.1378
X2.5295Y-5.1772
X2.5295Y-5.2165
X2.5394Y-4.5551
X2.5433Y-4.7795
X2.5433Y-4.8189
X2.5433Y-4.8583
X2.5433Y-4.8976
X2.5689Y-5.0591
X2.5689Y-5.0984
X2.5689Y-5.1378
X2.5689Y-5.1772
X2.5689Y-5.2165
X2.5768Y-4.1232
X2.5787Y-4.5551
X2.5827Y-4.7795
X2.5827Y-4.8189
X2.5827Y-4.8583
X2.5827Y-4.8976
X2.6047Y-3.7453
X2.6181Y-4.5551
X2.6496Y-5.5551
X2.6496Y-5.5945
X2.6575Y-4.5551
X2.6882Y-3.6287
X2.689Y-5.5551
X2.689Y-5.5945
X2.7244Y-4.4409
X2.7244Y-4.4803
X2.7244Y-4.5197
X2.7244Y-4.5591
X2.7244Y-4.5984
X2.7244Y-4.6378
X2.7283Y-5.5551
X2.7283Y-5.5945
X2.7638Y-4.5591
X2.7638Y-4.5984
X2.7638Y-4.6378
X2.7764Y-3.4898
X2.8031Y-4.5591
X2.8031Y-4.5984
X2.8031Y-4.6378
X2.8031Y-4.9606
X2.8031Y-5.0984
X2.8031Y-5.1378
X2.8031Y-5.1732
X2.8031Y-5.2087
X2.8189Y-5.0197
X2.8189Y-5.0591
X2.8358Y-4.0319
X2.8425Y-4.5591
X2.8425Y-4.8031
X2.8425Y-4.8425
X2.8425Y-4.8819
X2.8425Y-4.9213
X2.8425Y-4.9606
X2.8583Y-5.0197
X2.8583Y-5.0591
X2.8583Y-5.0984
X2.8583Y-5.1378
X2.8583Y-5.1772
X2.8583Y-5.2165
X2.8819Y-4.5591
X2.8819Y-4.8031
X2.8819Y-4.8425
X2.8819Y-4.8819
X2.8819Y-4.9213
X2.8819Y-4.9606
X2.8976Y-5.0197
X2.8976Y-5.0591
X2.8976Y-5.0984
X2.8976Y-5.1378
X2.8976Y-5.1772
X2.8976Y-5.2165
X2.9213Y-4.5591
X2.9213Y-4.8031
X2.9213Y-4.8425
X2.9213Y-4.8819
X2.9213Y-4.9213
X2.9213Y-4.9606
X2.937Y-5.0197
X2.937Y-5.0591
X2.937Y-5.0984
X2.937Y-5.1378
X2.937Y-5.1772
X2.937Y-5.2165
X2.9559Y-4.1835
X2.9606Y-4.4409
X2.9606Y-4.4803
X2.9606Y-4.5197
X2.9606Y-4.5591
X2.9606Y-4.8031
X2.9606Y-4.8425
X2.9606Y-4.8819
X2.9606Y-4.9213
X2.9606Y-4.9606
X2.9764Y-5.0197
X2.9764Y-5.0591
X2.9764Y-5.0984
X2.9764Y-5.1378
X2.9764Y-5.1772
X2.9764Y-5.2165
X3.0Y-4.8031
X3.0Y-4.8425
X3.0Y-4.8819
X3.0Y-4.9213
X3.0Y-4.9606
X3.0157Y-5.0197
X3.0157Y-5.0591
X3.0157Y-5.0984
X3.0157Y-5.1378
X3.0157Y-5.1772
X3.0157Y-5.2165
X3.0409Y-3.6303
X3.0768Y-4.2083
X3.0768Y-4.3724
X3.0925Y-3.4905
X3.1307Y-4.4272
X3.1929Y-5.5551
X3.1929Y-5.5945
X3.2323Y-5.5551
X3.2323Y-5.5945
X3.2717Y-5.5551
X3.2717Y-5.5945
X3.4035Y-3.4905
X3.6043Y-4.4465
X3.6508Y-3.6303
X3.6941Y-4.5323
X3.6947Y-4.5057
X3.6953Y-4.565
X3.722Y-3.4465
X3.7248Y-4.8547
X3.7335Y-4.4484
X3.7362Y-5.5551
X3.7362Y-5.5945
X3.7634Y-4.8563
X3.7638Y-4.4482
X3.7638Y-4.7028
X3.7642Y-4.1031
X3.7642Y-4.5677
X3.7689Y-4.3126
X3.7693Y-4.2354
X3.7756Y-5.5551
X3.7756Y-5.5945
X3.7937Y-4.8555
X3.798Y-4.448
X3.815Y-5.5551
X3.815Y-5.5945
X3.8236Y-4.2965
X3.8543Y-4.6957
X3.8713Y-4.0461
X3.8961Y-4.748
X3.8976Y-4.6984
X3.9469Y-3.6303
X3.9488Y-4.9602
X3.9579Y-4.1091
X3.9598Y-4.2626
X3.985Y-4.9598
X4.0354Y-3.6343
X4.0362Y-3.4862
X4.0528Y-4.3272
X4.126Y-3.7681
X4.1618Y-4.2012
X4.1717Y-4.5657
X4.1992Y-4.6984
X4.2043Y-4.4705
X4.2795Y-5.5551
X4.2795Y-5.5945
X4.3051Y-4.6114
X4.3173Y-5.0311
X4.3177Y-4.9791
X4.3189Y-5.5551
X4.3189Y-5.5945
X4.3417Y-4.6327
X4.3583Y-5.5551
X4.3583Y-5.5945
X4.3689Y-4.7783
X4.3819Y-4.6339
X4.3965Y-4.4409
X4.3996Y-4.3315
X4.4291Y-4.4406
X4.4295Y-4.3323
X4.4803Y-4.3295
X4.4819Y-4.4425
X4.5138Y-4.3295
X4.5157Y-4.4409
X4.5484Y-4.5039
X4.6303Y-4.6583
X4.7823Y-4.737
X4.7839Y-4.4563
X4.7933Y-4.8228
X4.7933Y-4.8618
X4.8228Y-5.5551
X4.8228Y-5.5945
X4.8528Y-4.5291
X4.8622Y-5.5551
X4.8622Y-5.5945
X4.9016Y-4.8228
X4.9016Y-4.8622
X4.9016Y-5.5551
X4.9016Y-5.5945
X4.9087Y-4.7831
X4.9098Y-4.7429
X4.9461Y-4.7425
X4.948Y-4.7803
X5.0799Y-4.2894
X5.0803Y-4.3283
X5.1157Y-4.2917
X5.1165Y-4.3272
X5.1626Y-4.2988
X5.163Y-4.3291
X5.1941Y-4.2965
X5.1965Y-4.3283
X5.3661Y-5.5551
X5.3661Y-5.5945
X5.4055Y-5.5551
X5.4055Y-5.5945
X5.4449Y-5.5551
X5.4449Y-5.5945
X5.4972Y-3.6933
X5.4972Y-3.8874
X5.4992Y-3.7882
X5.5571Y-4.0311
X5.6736Y-3.8413
X5.7189Y-3.7972
X5.7248Y-3.7079
X5.7752Y-4.1287
X5.8417Y-3.6587
X5.8425Y-4.0697
X5.8445Y-3.9287
T3
X2.3287Y-3.5354
X2.378Y-3.5354
X2.4272Y-3.5354
X2.4764Y-3.5354
T4
X3.0945Y-4.5118
X3.1945Y-4.5118
X3.2945Y-4.5118
T5
X5.1126Y-4.6394
X5.1126Y-4.7394
X5.1126Y-4.8394
X5.1126Y-4.9394
X5.2126Y-4.6894
X5.2126Y-4.7894
X5.2126Y-4.8894
X5.2126Y-4.9894
X4.2937Y-4.1315
X4.3437Y-4.0315
X4.3937Y-4.1315
X4.4437Y-4.0315
X4.4937Y-4.1315
X4.5437Y-4.0315
X4.5937Y-4.1315
X4.6437Y-4.0315
X4.9787Y-4.1315
X5.0287Y-4.0315
X5.0787Y-4.1315
X5.1287Y-4.0315
X5.1787Y-4.1315
X5.2287Y-4.0315
X5.2787Y-4.1315
X5.3287Y-4.0315
T6
X3.4488Y-5.7382
X3.8819Y-5.7382
X2.9075Y-5.7382
X3.3406Y-5.7382
X5.4488Y-4.2854
X5.4488Y-4.3854
X4.5315Y-5.7382
X4.9646Y-5.7382
X3.9902Y-5.7382
X4.4232Y-5.7382
X2.0984Y-3.837
X2.0984Y-3.937
X2.1984Y-3.837
X2.1984Y-3.937
X2.2984Y-3.837
X2.2984Y-3.937
X2.3984Y-3.837
X2.3984Y-3.937
X2.4984Y-3.837
X2.4984Y-3.937
X2.5984Y-3.837
X2.5984Y-3.937
X2.6984Y-3.837
X2.6984Y-3.937
X2.7984Y-3.837
X2.7984Y-3.937
X2.8984Y-3.837
X2.8984Y-3.937
X2.9984Y-3.837
X2.9984Y-3.937
X3.0984Y-3.837
X3.0984Y-3.937
X3.1984Y-3.837
X3.1984Y-3.937
X3.2984Y-3.837
X3.2984Y-3.937
X3.3984Y-3.837
X3.3984Y-3.937
X3.4984Y-3.837
X3.4984Y-3.937
X3.5984Y-3.837
X3.5984Y-3.937
X3.6984Y-3.837
X3.6984Y-3.937
X3.7984Y-3.837
X3.7984Y-3.937
X3.8984Y-3.837
X3.8984Y-3.937
X3.9984Y-3.837
X3.9984Y-3.937
X2.3661Y-5.7362
X2.7992Y-5.7362
X5.0728Y-5.7382
X5.5059Y-5.7382
T7
X5.1909Y-5.3445
X5.3878Y-5.3445
X3.5669Y-5.3445
X3.7638Y-5.3445
X3.0256Y-5.3445
X3.2224Y-5.3445
X4.6496Y-5.3445
X4.8465Y-5.3445
X4.1083Y-5.3445
X4.3051Y-5.3445
X2.4843Y-5.3425
X2.6811Y-5.3425
T8
X5.7677Y-3.4764
X5.7677Y-5.7677
X2.1063Y-3.4764
X2.1063Y-5.7677
T0
M30
