G04 #@! TF.GenerationSoftware,KiCad,Pcbnew,(5.1.4)-1*
G04 #@! TF.CreationDate,2021-01-17T20:13:50-03:30*
G04 #@! TF.ProjectId,RGB_Breakout,5247425f-4272-4656-916b-6f75742e6b69,V1.0*
G04 #@! TF.SameCoordinates,Original*
G04 #@! TF.FileFunction,Copper,L1,Top*
G04 #@! TF.FilePolarity,Positive*
%FSLAX46Y46*%
G04 Gerber Fmt 4.6, Leading zero omitted, Abs format (unit mm)*
G04 Created by KiCad (PCBNEW (5.1.4)-1) date 2021-01-17 20:13:50*
%MOMM*%
%LPD*%
G04 APERTURE LIST*
%ADD10C,0.100000*%
%ADD11C,0.875000*%
%ADD12C,6.400000*%
%ADD13C,0.600000*%
%ADD14C,1.200000*%
%ADD15R,1.500000X1.000000*%
%ADD16C,0.800000*%
%ADD17C,0.304800*%
%ADD18C,0.406400*%
%ADD19C,0.635000*%
%ADD20C,0.128000*%
G04 APERTURE END LIST*
D10*
G36*
X65277691Y-141313553D02*
G01*
X65298926Y-141316703D01*
X65319750Y-141321919D01*
X65339962Y-141329151D01*
X65359368Y-141338330D01*
X65377781Y-141349366D01*
X65395024Y-141362154D01*
X65410930Y-141376570D01*
X65425346Y-141392476D01*
X65438134Y-141409719D01*
X65449170Y-141428132D01*
X65458349Y-141447538D01*
X65465581Y-141467750D01*
X65470797Y-141488574D01*
X65473947Y-141509809D01*
X65475000Y-141531250D01*
X65475000Y-141968750D01*
X65473947Y-141990191D01*
X65470797Y-142011426D01*
X65465581Y-142032250D01*
X65458349Y-142052462D01*
X65449170Y-142071868D01*
X65438134Y-142090281D01*
X65425346Y-142107524D01*
X65410930Y-142123430D01*
X65395024Y-142137846D01*
X65377781Y-142150634D01*
X65359368Y-142161670D01*
X65339962Y-142170849D01*
X65319750Y-142178081D01*
X65298926Y-142183297D01*
X65277691Y-142186447D01*
X65256250Y-142187500D01*
X64743750Y-142187500D01*
X64722309Y-142186447D01*
X64701074Y-142183297D01*
X64680250Y-142178081D01*
X64660038Y-142170849D01*
X64640632Y-142161670D01*
X64622219Y-142150634D01*
X64604976Y-142137846D01*
X64589070Y-142123430D01*
X64574654Y-142107524D01*
X64561866Y-142090281D01*
X64550830Y-142071868D01*
X64541651Y-142052462D01*
X64534419Y-142032250D01*
X64529203Y-142011426D01*
X64526053Y-141990191D01*
X64525000Y-141968750D01*
X64525000Y-141531250D01*
X64526053Y-141509809D01*
X64529203Y-141488574D01*
X64534419Y-141467750D01*
X64541651Y-141447538D01*
X64550830Y-141428132D01*
X64561866Y-141409719D01*
X64574654Y-141392476D01*
X64589070Y-141376570D01*
X64604976Y-141362154D01*
X64622219Y-141349366D01*
X64640632Y-141338330D01*
X64660038Y-141329151D01*
X64680250Y-141321919D01*
X64701074Y-141316703D01*
X64722309Y-141313553D01*
X64743750Y-141312500D01*
X65256250Y-141312500D01*
X65277691Y-141313553D01*
X65277691Y-141313553D01*
G37*
D11*
X65000000Y-141750000D03*
D10*
G36*
X65277691Y-139738553D02*
G01*
X65298926Y-139741703D01*
X65319750Y-139746919D01*
X65339962Y-139754151D01*
X65359368Y-139763330D01*
X65377781Y-139774366D01*
X65395024Y-139787154D01*
X65410930Y-139801570D01*
X65425346Y-139817476D01*
X65438134Y-139834719D01*
X65449170Y-139853132D01*
X65458349Y-139872538D01*
X65465581Y-139892750D01*
X65470797Y-139913574D01*
X65473947Y-139934809D01*
X65475000Y-139956250D01*
X65475000Y-140393750D01*
X65473947Y-140415191D01*
X65470797Y-140436426D01*
X65465581Y-140457250D01*
X65458349Y-140477462D01*
X65449170Y-140496868D01*
X65438134Y-140515281D01*
X65425346Y-140532524D01*
X65410930Y-140548430D01*
X65395024Y-140562846D01*
X65377781Y-140575634D01*
X65359368Y-140586670D01*
X65339962Y-140595849D01*
X65319750Y-140603081D01*
X65298926Y-140608297D01*
X65277691Y-140611447D01*
X65256250Y-140612500D01*
X64743750Y-140612500D01*
X64722309Y-140611447D01*
X64701074Y-140608297D01*
X64680250Y-140603081D01*
X64660038Y-140595849D01*
X64640632Y-140586670D01*
X64622219Y-140575634D01*
X64604976Y-140562846D01*
X64589070Y-140548430D01*
X64574654Y-140532524D01*
X64561866Y-140515281D01*
X64550830Y-140496868D01*
X64541651Y-140477462D01*
X64534419Y-140457250D01*
X64529203Y-140436426D01*
X64526053Y-140415191D01*
X64525000Y-140393750D01*
X64525000Y-139956250D01*
X64526053Y-139934809D01*
X64529203Y-139913574D01*
X64534419Y-139892750D01*
X64541651Y-139872538D01*
X64550830Y-139853132D01*
X64561866Y-139834719D01*
X64574654Y-139817476D01*
X64589070Y-139801570D01*
X64604976Y-139787154D01*
X64622219Y-139774366D01*
X64640632Y-139763330D01*
X64660038Y-139754151D01*
X64680250Y-139746919D01*
X64701074Y-139741703D01*
X64722309Y-139738553D01*
X64743750Y-139737500D01*
X65256250Y-139737500D01*
X65277691Y-139738553D01*
X65277691Y-139738553D01*
G37*
D11*
X65000000Y-140175000D03*
D10*
G36*
X74277691Y-139738553D02*
G01*
X74298926Y-139741703D01*
X74319750Y-139746919D01*
X74339962Y-139754151D01*
X74359368Y-139763330D01*
X74377781Y-139774366D01*
X74395024Y-139787154D01*
X74410930Y-139801570D01*
X74425346Y-139817476D01*
X74438134Y-139834719D01*
X74449170Y-139853132D01*
X74458349Y-139872538D01*
X74465581Y-139892750D01*
X74470797Y-139913574D01*
X74473947Y-139934809D01*
X74475000Y-139956250D01*
X74475000Y-140393750D01*
X74473947Y-140415191D01*
X74470797Y-140436426D01*
X74465581Y-140457250D01*
X74458349Y-140477462D01*
X74449170Y-140496868D01*
X74438134Y-140515281D01*
X74425346Y-140532524D01*
X74410930Y-140548430D01*
X74395024Y-140562846D01*
X74377781Y-140575634D01*
X74359368Y-140586670D01*
X74339962Y-140595849D01*
X74319750Y-140603081D01*
X74298926Y-140608297D01*
X74277691Y-140611447D01*
X74256250Y-140612500D01*
X73743750Y-140612500D01*
X73722309Y-140611447D01*
X73701074Y-140608297D01*
X73680250Y-140603081D01*
X73660038Y-140595849D01*
X73640632Y-140586670D01*
X73622219Y-140575634D01*
X73604976Y-140562846D01*
X73589070Y-140548430D01*
X73574654Y-140532524D01*
X73561866Y-140515281D01*
X73550830Y-140496868D01*
X73541651Y-140477462D01*
X73534419Y-140457250D01*
X73529203Y-140436426D01*
X73526053Y-140415191D01*
X73525000Y-140393750D01*
X73525000Y-139956250D01*
X73526053Y-139934809D01*
X73529203Y-139913574D01*
X73534419Y-139892750D01*
X73541651Y-139872538D01*
X73550830Y-139853132D01*
X73561866Y-139834719D01*
X73574654Y-139817476D01*
X73589070Y-139801570D01*
X73604976Y-139787154D01*
X73622219Y-139774366D01*
X73640632Y-139763330D01*
X73660038Y-139754151D01*
X73680250Y-139746919D01*
X73701074Y-139741703D01*
X73722309Y-139738553D01*
X73743750Y-139737500D01*
X74256250Y-139737500D01*
X74277691Y-139738553D01*
X74277691Y-139738553D01*
G37*
D11*
X74000000Y-140175000D03*
D10*
G36*
X74277691Y-141313553D02*
G01*
X74298926Y-141316703D01*
X74319750Y-141321919D01*
X74339962Y-141329151D01*
X74359368Y-141338330D01*
X74377781Y-141349366D01*
X74395024Y-141362154D01*
X74410930Y-141376570D01*
X74425346Y-141392476D01*
X74438134Y-141409719D01*
X74449170Y-141428132D01*
X74458349Y-141447538D01*
X74465581Y-141467750D01*
X74470797Y-141488574D01*
X74473947Y-141509809D01*
X74475000Y-141531250D01*
X74475000Y-141968750D01*
X74473947Y-141990191D01*
X74470797Y-142011426D01*
X74465581Y-142032250D01*
X74458349Y-142052462D01*
X74449170Y-142071868D01*
X74438134Y-142090281D01*
X74425346Y-142107524D01*
X74410930Y-142123430D01*
X74395024Y-142137846D01*
X74377781Y-142150634D01*
X74359368Y-142161670D01*
X74339962Y-142170849D01*
X74319750Y-142178081D01*
X74298926Y-142183297D01*
X74277691Y-142186447D01*
X74256250Y-142187500D01*
X73743750Y-142187500D01*
X73722309Y-142186447D01*
X73701074Y-142183297D01*
X73680250Y-142178081D01*
X73660038Y-142170849D01*
X73640632Y-142161670D01*
X73622219Y-142150634D01*
X73604976Y-142137846D01*
X73589070Y-142123430D01*
X73574654Y-142107524D01*
X73561866Y-142090281D01*
X73550830Y-142071868D01*
X73541651Y-142052462D01*
X73534419Y-142032250D01*
X73529203Y-142011426D01*
X73526053Y-141990191D01*
X73525000Y-141968750D01*
X73525000Y-141531250D01*
X73526053Y-141509809D01*
X73529203Y-141488574D01*
X73534419Y-141467750D01*
X73541651Y-141447538D01*
X73550830Y-141428132D01*
X73561866Y-141409719D01*
X73574654Y-141392476D01*
X73589070Y-141376570D01*
X73604976Y-141362154D01*
X73622219Y-141349366D01*
X73640632Y-141338330D01*
X73660038Y-141329151D01*
X73680250Y-141321919D01*
X73701074Y-141316703D01*
X73722309Y-141313553D01*
X73743750Y-141312500D01*
X74256250Y-141312500D01*
X74277691Y-141313553D01*
X74277691Y-141313553D01*
G37*
D11*
X74000000Y-141750000D03*
D10*
G36*
X74277691Y-134638553D02*
G01*
X74298926Y-134641703D01*
X74319750Y-134646919D01*
X74339962Y-134654151D01*
X74359368Y-134663330D01*
X74377781Y-134674366D01*
X74395024Y-134687154D01*
X74410930Y-134701570D01*
X74425346Y-134717476D01*
X74438134Y-134734719D01*
X74449170Y-134753132D01*
X74458349Y-134772538D01*
X74465581Y-134792750D01*
X74470797Y-134813574D01*
X74473947Y-134834809D01*
X74475000Y-134856250D01*
X74475000Y-135293750D01*
X74473947Y-135315191D01*
X74470797Y-135336426D01*
X74465581Y-135357250D01*
X74458349Y-135377462D01*
X74449170Y-135396868D01*
X74438134Y-135415281D01*
X74425346Y-135432524D01*
X74410930Y-135448430D01*
X74395024Y-135462846D01*
X74377781Y-135475634D01*
X74359368Y-135486670D01*
X74339962Y-135495849D01*
X74319750Y-135503081D01*
X74298926Y-135508297D01*
X74277691Y-135511447D01*
X74256250Y-135512500D01*
X73743750Y-135512500D01*
X73722309Y-135511447D01*
X73701074Y-135508297D01*
X73680250Y-135503081D01*
X73660038Y-135495849D01*
X73640632Y-135486670D01*
X73622219Y-135475634D01*
X73604976Y-135462846D01*
X73589070Y-135448430D01*
X73574654Y-135432524D01*
X73561866Y-135415281D01*
X73550830Y-135396868D01*
X73541651Y-135377462D01*
X73534419Y-135357250D01*
X73529203Y-135336426D01*
X73526053Y-135315191D01*
X73525000Y-135293750D01*
X73525000Y-134856250D01*
X73526053Y-134834809D01*
X73529203Y-134813574D01*
X73534419Y-134792750D01*
X73541651Y-134772538D01*
X73550830Y-134753132D01*
X73561866Y-134734719D01*
X73574654Y-134717476D01*
X73589070Y-134701570D01*
X73604976Y-134687154D01*
X73622219Y-134674366D01*
X73640632Y-134663330D01*
X73660038Y-134654151D01*
X73680250Y-134646919D01*
X73701074Y-134641703D01*
X73722309Y-134638553D01*
X73743750Y-134637500D01*
X74256250Y-134637500D01*
X74277691Y-134638553D01*
X74277691Y-134638553D01*
G37*
D11*
X74000000Y-135075000D03*
D10*
G36*
X74277691Y-133063553D02*
G01*
X74298926Y-133066703D01*
X74319750Y-133071919D01*
X74339962Y-133079151D01*
X74359368Y-133088330D01*
X74377781Y-133099366D01*
X74395024Y-133112154D01*
X74410930Y-133126570D01*
X74425346Y-133142476D01*
X74438134Y-133159719D01*
X74449170Y-133178132D01*
X74458349Y-133197538D01*
X74465581Y-133217750D01*
X74470797Y-133238574D01*
X74473947Y-133259809D01*
X74475000Y-133281250D01*
X74475000Y-133718750D01*
X74473947Y-133740191D01*
X74470797Y-133761426D01*
X74465581Y-133782250D01*
X74458349Y-133802462D01*
X74449170Y-133821868D01*
X74438134Y-133840281D01*
X74425346Y-133857524D01*
X74410930Y-133873430D01*
X74395024Y-133887846D01*
X74377781Y-133900634D01*
X74359368Y-133911670D01*
X74339962Y-133920849D01*
X74319750Y-133928081D01*
X74298926Y-133933297D01*
X74277691Y-133936447D01*
X74256250Y-133937500D01*
X73743750Y-133937500D01*
X73722309Y-133936447D01*
X73701074Y-133933297D01*
X73680250Y-133928081D01*
X73660038Y-133920849D01*
X73640632Y-133911670D01*
X73622219Y-133900634D01*
X73604976Y-133887846D01*
X73589070Y-133873430D01*
X73574654Y-133857524D01*
X73561866Y-133840281D01*
X73550830Y-133821868D01*
X73541651Y-133802462D01*
X73534419Y-133782250D01*
X73529203Y-133761426D01*
X73526053Y-133740191D01*
X73525000Y-133718750D01*
X73525000Y-133281250D01*
X73526053Y-133259809D01*
X73529203Y-133238574D01*
X73534419Y-133217750D01*
X73541651Y-133197538D01*
X73550830Y-133178132D01*
X73561866Y-133159719D01*
X73574654Y-133142476D01*
X73589070Y-133126570D01*
X73604976Y-133112154D01*
X73622219Y-133099366D01*
X73640632Y-133088330D01*
X73660038Y-133079151D01*
X73680250Y-133071919D01*
X73701074Y-133066703D01*
X73722309Y-133063553D01*
X73743750Y-133062500D01*
X74256250Y-133062500D01*
X74277691Y-133063553D01*
X74277691Y-133063553D01*
G37*
D11*
X74000000Y-133500000D03*
D10*
G36*
X65277691Y-133026053D02*
G01*
X65298926Y-133029203D01*
X65319750Y-133034419D01*
X65339962Y-133041651D01*
X65359368Y-133050830D01*
X65377781Y-133061866D01*
X65395024Y-133074654D01*
X65410930Y-133089070D01*
X65425346Y-133104976D01*
X65438134Y-133122219D01*
X65449170Y-133140632D01*
X65458349Y-133160038D01*
X65465581Y-133180250D01*
X65470797Y-133201074D01*
X65473947Y-133222309D01*
X65475000Y-133243750D01*
X65475000Y-133681250D01*
X65473947Y-133702691D01*
X65470797Y-133723926D01*
X65465581Y-133744750D01*
X65458349Y-133764962D01*
X65449170Y-133784368D01*
X65438134Y-133802781D01*
X65425346Y-133820024D01*
X65410930Y-133835930D01*
X65395024Y-133850346D01*
X65377781Y-133863134D01*
X65359368Y-133874170D01*
X65339962Y-133883349D01*
X65319750Y-133890581D01*
X65298926Y-133895797D01*
X65277691Y-133898947D01*
X65256250Y-133900000D01*
X64743750Y-133900000D01*
X64722309Y-133898947D01*
X64701074Y-133895797D01*
X64680250Y-133890581D01*
X64660038Y-133883349D01*
X64640632Y-133874170D01*
X64622219Y-133863134D01*
X64604976Y-133850346D01*
X64589070Y-133835930D01*
X64574654Y-133820024D01*
X64561866Y-133802781D01*
X64550830Y-133784368D01*
X64541651Y-133764962D01*
X64534419Y-133744750D01*
X64529203Y-133723926D01*
X64526053Y-133702691D01*
X64525000Y-133681250D01*
X64525000Y-133243750D01*
X64526053Y-133222309D01*
X64529203Y-133201074D01*
X64534419Y-133180250D01*
X64541651Y-133160038D01*
X64550830Y-133140632D01*
X64561866Y-133122219D01*
X64574654Y-133104976D01*
X64589070Y-133089070D01*
X64604976Y-133074654D01*
X64622219Y-133061866D01*
X64640632Y-133050830D01*
X64660038Y-133041651D01*
X64680250Y-133034419D01*
X64701074Y-133029203D01*
X64722309Y-133026053D01*
X64743750Y-133025000D01*
X65256250Y-133025000D01*
X65277691Y-133026053D01*
X65277691Y-133026053D01*
G37*
D11*
X65000000Y-133462500D03*
D10*
G36*
X65277691Y-134601053D02*
G01*
X65298926Y-134604203D01*
X65319750Y-134609419D01*
X65339962Y-134616651D01*
X65359368Y-134625830D01*
X65377781Y-134636866D01*
X65395024Y-134649654D01*
X65410930Y-134664070D01*
X65425346Y-134679976D01*
X65438134Y-134697219D01*
X65449170Y-134715632D01*
X65458349Y-134735038D01*
X65465581Y-134755250D01*
X65470797Y-134776074D01*
X65473947Y-134797309D01*
X65475000Y-134818750D01*
X65475000Y-135256250D01*
X65473947Y-135277691D01*
X65470797Y-135298926D01*
X65465581Y-135319750D01*
X65458349Y-135339962D01*
X65449170Y-135359368D01*
X65438134Y-135377781D01*
X65425346Y-135395024D01*
X65410930Y-135410930D01*
X65395024Y-135425346D01*
X65377781Y-135438134D01*
X65359368Y-135449170D01*
X65339962Y-135458349D01*
X65319750Y-135465581D01*
X65298926Y-135470797D01*
X65277691Y-135473947D01*
X65256250Y-135475000D01*
X64743750Y-135475000D01*
X64722309Y-135473947D01*
X64701074Y-135470797D01*
X64680250Y-135465581D01*
X64660038Y-135458349D01*
X64640632Y-135449170D01*
X64622219Y-135438134D01*
X64604976Y-135425346D01*
X64589070Y-135410930D01*
X64574654Y-135395024D01*
X64561866Y-135377781D01*
X64550830Y-135359368D01*
X64541651Y-135339962D01*
X64534419Y-135319750D01*
X64529203Y-135298926D01*
X64526053Y-135277691D01*
X64525000Y-135256250D01*
X64525000Y-134818750D01*
X64526053Y-134797309D01*
X64529203Y-134776074D01*
X64534419Y-134755250D01*
X64541651Y-134735038D01*
X64550830Y-134715632D01*
X64561866Y-134697219D01*
X64574654Y-134679976D01*
X64589070Y-134664070D01*
X64604976Y-134649654D01*
X64622219Y-134636866D01*
X64640632Y-134625830D01*
X64660038Y-134616651D01*
X64680250Y-134609419D01*
X64701074Y-134604203D01*
X64722309Y-134601053D01*
X64743750Y-134600000D01*
X65256250Y-134600000D01*
X65277691Y-134601053D01*
X65277691Y-134601053D01*
G37*
D11*
X65000000Y-135037500D03*
D12*
X76500000Y-128500000D03*
X53500000Y-146500000D03*
D10*
G36*
X64164703Y-144475722D02*
G01*
X64179264Y-144477882D01*
X64193543Y-144481459D01*
X64207403Y-144486418D01*
X64220710Y-144492712D01*
X64233336Y-144500280D01*
X64245159Y-144509048D01*
X64256066Y-144518934D01*
X64265952Y-144529841D01*
X64274720Y-144541664D01*
X64282288Y-144554290D01*
X64288582Y-144567597D01*
X64293541Y-144581457D01*
X64297118Y-144595736D01*
X64299278Y-144610297D01*
X64300000Y-144625000D01*
X64300000Y-145875000D01*
X64299278Y-145889703D01*
X64297118Y-145904264D01*
X64293541Y-145918543D01*
X64288582Y-145932403D01*
X64282288Y-145945710D01*
X64274720Y-145958336D01*
X64265952Y-145970159D01*
X64256066Y-145981066D01*
X64245159Y-145990952D01*
X64233336Y-145999720D01*
X64220710Y-146007288D01*
X64207403Y-146013582D01*
X64193543Y-146018541D01*
X64179264Y-146022118D01*
X64164703Y-146024278D01*
X64150000Y-146025000D01*
X63850000Y-146025000D01*
X63835297Y-146024278D01*
X63820736Y-146022118D01*
X63806457Y-146018541D01*
X63792597Y-146013582D01*
X63779290Y-146007288D01*
X63766664Y-145999720D01*
X63754841Y-145990952D01*
X63743934Y-145981066D01*
X63734048Y-145970159D01*
X63725280Y-145958336D01*
X63717712Y-145945710D01*
X63711418Y-145932403D01*
X63706459Y-145918543D01*
X63702882Y-145904264D01*
X63700722Y-145889703D01*
X63700000Y-145875000D01*
X63700000Y-144625000D01*
X63700722Y-144610297D01*
X63702882Y-144595736D01*
X63706459Y-144581457D01*
X63711418Y-144567597D01*
X63717712Y-144554290D01*
X63725280Y-144541664D01*
X63734048Y-144529841D01*
X63743934Y-144518934D01*
X63754841Y-144509048D01*
X63766664Y-144500280D01*
X63779290Y-144492712D01*
X63792597Y-144486418D01*
X63806457Y-144481459D01*
X63820736Y-144477882D01*
X63835297Y-144475722D01*
X63850000Y-144475000D01*
X64150000Y-144475000D01*
X64164703Y-144475722D01*
X64164703Y-144475722D01*
G37*
D13*
X64000000Y-145250000D03*
D10*
G36*
X65164703Y-144475722D02*
G01*
X65179264Y-144477882D01*
X65193543Y-144481459D01*
X65207403Y-144486418D01*
X65220710Y-144492712D01*
X65233336Y-144500280D01*
X65245159Y-144509048D01*
X65256066Y-144518934D01*
X65265952Y-144529841D01*
X65274720Y-144541664D01*
X65282288Y-144554290D01*
X65288582Y-144567597D01*
X65293541Y-144581457D01*
X65297118Y-144595736D01*
X65299278Y-144610297D01*
X65300000Y-144625000D01*
X65300000Y-145875000D01*
X65299278Y-145889703D01*
X65297118Y-145904264D01*
X65293541Y-145918543D01*
X65288582Y-145932403D01*
X65282288Y-145945710D01*
X65274720Y-145958336D01*
X65265952Y-145970159D01*
X65256066Y-145981066D01*
X65245159Y-145990952D01*
X65233336Y-145999720D01*
X65220710Y-146007288D01*
X65207403Y-146013582D01*
X65193543Y-146018541D01*
X65179264Y-146022118D01*
X65164703Y-146024278D01*
X65150000Y-146025000D01*
X64850000Y-146025000D01*
X64835297Y-146024278D01*
X64820736Y-146022118D01*
X64806457Y-146018541D01*
X64792597Y-146013582D01*
X64779290Y-146007288D01*
X64766664Y-145999720D01*
X64754841Y-145990952D01*
X64743934Y-145981066D01*
X64734048Y-145970159D01*
X64725280Y-145958336D01*
X64717712Y-145945710D01*
X64711418Y-145932403D01*
X64706459Y-145918543D01*
X64702882Y-145904264D01*
X64700722Y-145889703D01*
X64700000Y-145875000D01*
X64700000Y-144625000D01*
X64700722Y-144610297D01*
X64702882Y-144595736D01*
X64706459Y-144581457D01*
X64711418Y-144567597D01*
X64717712Y-144554290D01*
X64725280Y-144541664D01*
X64734048Y-144529841D01*
X64743934Y-144518934D01*
X64754841Y-144509048D01*
X64766664Y-144500280D01*
X64779290Y-144492712D01*
X64792597Y-144486418D01*
X64806457Y-144481459D01*
X64820736Y-144477882D01*
X64835297Y-144475722D01*
X64850000Y-144475000D01*
X65150000Y-144475000D01*
X65164703Y-144475722D01*
X65164703Y-144475722D01*
G37*
D13*
X65000000Y-145250000D03*
D10*
G36*
X66164703Y-144475722D02*
G01*
X66179264Y-144477882D01*
X66193543Y-144481459D01*
X66207403Y-144486418D01*
X66220710Y-144492712D01*
X66233336Y-144500280D01*
X66245159Y-144509048D01*
X66256066Y-144518934D01*
X66265952Y-144529841D01*
X66274720Y-144541664D01*
X66282288Y-144554290D01*
X66288582Y-144567597D01*
X66293541Y-144581457D01*
X66297118Y-144595736D01*
X66299278Y-144610297D01*
X66300000Y-144625000D01*
X66300000Y-145875000D01*
X66299278Y-145889703D01*
X66297118Y-145904264D01*
X66293541Y-145918543D01*
X66288582Y-145932403D01*
X66282288Y-145945710D01*
X66274720Y-145958336D01*
X66265952Y-145970159D01*
X66256066Y-145981066D01*
X66245159Y-145990952D01*
X66233336Y-145999720D01*
X66220710Y-146007288D01*
X66207403Y-146013582D01*
X66193543Y-146018541D01*
X66179264Y-146022118D01*
X66164703Y-146024278D01*
X66150000Y-146025000D01*
X65850000Y-146025000D01*
X65835297Y-146024278D01*
X65820736Y-146022118D01*
X65806457Y-146018541D01*
X65792597Y-146013582D01*
X65779290Y-146007288D01*
X65766664Y-145999720D01*
X65754841Y-145990952D01*
X65743934Y-145981066D01*
X65734048Y-145970159D01*
X65725280Y-145958336D01*
X65717712Y-145945710D01*
X65711418Y-145932403D01*
X65706459Y-145918543D01*
X65702882Y-145904264D01*
X65700722Y-145889703D01*
X65700000Y-145875000D01*
X65700000Y-144625000D01*
X65700722Y-144610297D01*
X65702882Y-144595736D01*
X65706459Y-144581457D01*
X65711418Y-144567597D01*
X65717712Y-144554290D01*
X65725280Y-144541664D01*
X65734048Y-144529841D01*
X65743934Y-144518934D01*
X65754841Y-144509048D01*
X65766664Y-144500280D01*
X65779290Y-144492712D01*
X65792597Y-144486418D01*
X65806457Y-144481459D01*
X65820736Y-144477882D01*
X65835297Y-144475722D01*
X65850000Y-144475000D01*
X66150000Y-144475000D01*
X66164703Y-144475722D01*
X66164703Y-144475722D01*
G37*
D13*
X66000000Y-145250000D03*
D10*
G36*
X63074505Y-148226204D02*
G01*
X63098773Y-148229804D01*
X63122572Y-148235765D01*
X63145671Y-148244030D01*
X63167850Y-148254520D01*
X63188893Y-148267132D01*
X63208599Y-148281747D01*
X63226777Y-148298223D01*
X63243253Y-148316401D01*
X63257868Y-148336107D01*
X63270480Y-148357150D01*
X63280970Y-148379329D01*
X63289235Y-148402428D01*
X63295196Y-148426227D01*
X63298796Y-148450495D01*
X63300000Y-148474999D01*
X63300000Y-149775001D01*
X63298796Y-149799505D01*
X63295196Y-149823773D01*
X63289235Y-149847572D01*
X63280970Y-149870671D01*
X63270480Y-149892850D01*
X63257868Y-149913893D01*
X63243253Y-149933599D01*
X63226777Y-149951777D01*
X63208599Y-149968253D01*
X63188893Y-149982868D01*
X63167850Y-149995480D01*
X63145671Y-150005970D01*
X63122572Y-150014235D01*
X63098773Y-150020196D01*
X63074505Y-150023796D01*
X63050001Y-150025000D01*
X62349999Y-150025000D01*
X62325495Y-150023796D01*
X62301227Y-150020196D01*
X62277428Y-150014235D01*
X62254329Y-150005970D01*
X62232150Y-149995480D01*
X62211107Y-149982868D01*
X62191401Y-149968253D01*
X62173223Y-149951777D01*
X62156747Y-149933599D01*
X62142132Y-149913893D01*
X62129520Y-149892850D01*
X62119030Y-149870671D01*
X62110765Y-149847572D01*
X62104804Y-149823773D01*
X62101204Y-149799505D01*
X62100000Y-149775001D01*
X62100000Y-148474999D01*
X62101204Y-148450495D01*
X62104804Y-148426227D01*
X62110765Y-148402428D01*
X62119030Y-148379329D01*
X62129520Y-148357150D01*
X62142132Y-148336107D01*
X62156747Y-148316401D01*
X62173223Y-148298223D01*
X62191401Y-148281747D01*
X62211107Y-148267132D01*
X62232150Y-148254520D01*
X62254329Y-148244030D01*
X62277428Y-148235765D01*
X62301227Y-148229804D01*
X62325495Y-148226204D01*
X62349999Y-148225000D01*
X63050001Y-148225000D01*
X63074505Y-148226204D01*
X63074505Y-148226204D01*
G37*
D14*
X62700000Y-149125000D03*
D10*
G36*
X67674505Y-148226204D02*
G01*
X67698773Y-148229804D01*
X67722572Y-148235765D01*
X67745671Y-148244030D01*
X67767850Y-148254520D01*
X67788893Y-148267132D01*
X67808599Y-148281747D01*
X67826777Y-148298223D01*
X67843253Y-148316401D01*
X67857868Y-148336107D01*
X67870480Y-148357150D01*
X67880970Y-148379329D01*
X67889235Y-148402428D01*
X67895196Y-148426227D01*
X67898796Y-148450495D01*
X67900000Y-148474999D01*
X67900000Y-149775001D01*
X67898796Y-149799505D01*
X67895196Y-149823773D01*
X67889235Y-149847572D01*
X67880970Y-149870671D01*
X67870480Y-149892850D01*
X67857868Y-149913893D01*
X67843253Y-149933599D01*
X67826777Y-149951777D01*
X67808599Y-149968253D01*
X67788893Y-149982868D01*
X67767850Y-149995480D01*
X67745671Y-150005970D01*
X67722572Y-150014235D01*
X67698773Y-150020196D01*
X67674505Y-150023796D01*
X67650001Y-150025000D01*
X66949999Y-150025000D01*
X66925495Y-150023796D01*
X66901227Y-150020196D01*
X66877428Y-150014235D01*
X66854329Y-150005970D01*
X66832150Y-149995480D01*
X66811107Y-149982868D01*
X66791401Y-149968253D01*
X66773223Y-149951777D01*
X66756747Y-149933599D01*
X66742132Y-149913893D01*
X66729520Y-149892850D01*
X66719030Y-149870671D01*
X66710765Y-149847572D01*
X66704804Y-149823773D01*
X66701204Y-149799505D01*
X66700000Y-149775001D01*
X66700000Y-148474999D01*
X66701204Y-148450495D01*
X66704804Y-148426227D01*
X66710765Y-148402428D01*
X66719030Y-148379329D01*
X66729520Y-148357150D01*
X66742132Y-148336107D01*
X66756747Y-148316401D01*
X66773223Y-148298223D01*
X66791401Y-148281747D01*
X66811107Y-148267132D01*
X66832150Y-148254520D01*
X66854329Y-148244030D01*
X66877428Y-148235765D01*
X66901227Y-148229804D01*
X66925495Y-148226204D01*
X66949999Y-148225000D01*
X67650001Y-148225000D01*
X67674505Y-148226204D01*
X67674505Y-148226204D01*
G37*
D14*
X67300000Y-149125000D03*
D15*
X58050000Y-139400000D03*
X58050000Y-142600000D03*
X62950000Y-139400000D03*
X62950000Y-142600000D03*
X71950000Y-142600000D03*
X71950000Y-139400000D03*
X67050000Y-142600000D03*
X67050000Y-139400000D03*
X67050000Y-132650000D03*
X67050000Y-135850000D03*
X71950000Y-132650000D03*
X71950000Y-135850000D03*
X62950000Y-135850000D03*
X62950000Y-132650000D03*
X58050000Y-135850000D03*
X58050000Y-132650000D03*
D16*
X63545200Y-140800000D03*
X66300000Y-140800002D03*
X69660000Y-147600000D03*
X77800000Y-139480000D03*
X77800000Y-147640001D03*
X52500000Y-127500000D03*
X62600000Y-145300000D03*
X62600000Y-146800000D03*
X63600000Y-146800000D03*
X56400000Y-139400000D03*
X65000000Y-139100000D03*
X74000000Y-139000000D03*
X74000000Y-132300000D03*
X65000000Y-132200000D03*
X56500000Y-132600000D03*
X60660000Y-127500000D03*
X68820000Y-127500000D03*
X52500000Y-135660000D03*
X67200000Y-145300000D03*
X66200000Y-146800000D03*
X67200000Y-146800000D03*
X65000000Y-142700000D03*
X74000000Y-142800000D03*
X74000000Y-136000000D03*
X65000000Y-136000000D03*
D17*
X62950000Y-140204800D02*
X63545200Y-140800000D01*
X62950000Y-139400000D02*
X62950000Y-140204800D01*
X67050000Y-141550002D02*
X67050000Y-142600000D01*
X66300000Y-140800002D02*
X67050000Y-141550002D01*
X71950000Y-138595200D02*
X71154800Y-137800000D01*
X71950000Y-139400000D02*
X71950000Y-138595200D01*
X71154800Y-137800000D02*
X67600000Y-137800000D01*
X67050000Y-137250000D02*
X67050000Y-135850000D01*
X67600000Y-137800000D02*
X67050000Y-137250000D01*
D18*
X64000000Y-145250000D02*
X64000000Y-146800000D01*
X64000000Y-145250000D02*
X62650000Y-145250000D01*
X62650000Y-145250000D02*
X62600000Y-145300000D01*
X62600000Y-145300000D02*
X62600000Y-146800000D01*
D19*
X58050000Y-139400000D02*
X56400000Y-139400000D01*
X65000000Y-140175000D02*
X65000000Y-139100000D01*
X65300000Y-139400000D02*
X65000000Y-139100000D01*
X67050000Y-139400000D02*
X65300000Y-139400000D01*
X74000000Y-140175000D02*
X74000000Y-139000000D01*
X74000000Y-133500000D02*
X74000000Y-132300000D01*
X65000000Y-133462500D02*
X65000000Y-132200000D01*
X65450000Y-132650000D02*
X65000000Y-132200000D01*
X67050000Y-132650000D02*
X65450000Y-132650000D01*
X58050000Y-132650000D02*
X56550000Y-132650000D01*
X56550000Y-132650000D02*
X56500000Y-132600000D01*
D17*
X59104800Y-135850000D02*
X60500000Y-134454800D01*
X58050000Y-135850000D02*
X59104800Y-135850000D01*
X60500000Y-134454800D02*
X60500000Y-132300000D01*
X60500000Y-132300000D02*
X61500000Y-131300000D01*
X61500000Y-131300000D02*
X68300000Y-131300000D01*
X69650000Y-132650000D02*
X71950000Y-132650000D01*
X68300000Y-131300000D02*
X69650000Y-132650000D01*
D18*
X67600000Y-145250000D02*
X67600000Y-146800000D01*
X67600000Y-145250000D02*
X66250000Y-145250000D01*
X66250000Y-145250000D02*
X66200000Y-145300000D01*
X66200000Y-145300000D02*
X66200000Y-146800000D01*
D19*
X62950000Y-142600000D02*
X64900000Y-142600000D01*
X64900000Y-142600000D02*
X65000000Y-142700000D01*
X65000000Y-142700000D02*
X65000000Y-141750000D01*
X71950000Y-142600000D02*
X73800000Y-142600000D01*
X73800000Y-142600000D02*
X74000000Y-142800000D01*
X74000000Y-142800000D02*
X74000000Y-141750000D01*
X71950000Y-135850000D02*
X73850000Y-135850000D01*
X73850000Y-135850000D02*
X74000000Y-136000000D01*
X74000000Y-136000000D02*
X74000000Y-135075000D01*
X62950000Y-135850000D02*
X64850000Y-135850000D01*
X64850000Y-135850000D02*
X65000000Y-136000000D01*
X65000000Y-136000000D02*
X65000000Y-135037500D01*
X71200000Y-145300000D02*
X67200000Y-145300000D01*
X71950000Y-142600000D02*
X71950000Y-144550000D01*
X71950000Y-144550000D02*
X71200000Y-145300000D01*
X74399999Y-136399999D02*
X74000000Y-136000000D01*
X75800000Y-137800000D02*
X74399999Y-136399999D01*
X75800000Y-140525000D02*
X75800000Y-137800000D01*
X74000000Y-141750000D02*
X74575000Y-141750000D01*
X74575000Y-141750000D02*
X75800000Y-140525000D01*
X70565000Y-135850000D02*
X71950000Y-135850000D01*
X69115000Y-134400000D02*
X70565000Y-135850000D01*
X66014308Y-134400000D02*
X69115000Y-134400000D01*
X65376808Y-135037500D02*
X66014308Y-134400000D01*
X65000000Y-135037500D02*
X65376808Y-135037500D01*
D17*
X59104800Y-142600000D02*
X58050000Y-142600000D01*
X60304800Y-143800000D02*
X59104800Y-142600000D01*
X64700000Y-143800000D02*
X60304800Y-143800000D01*
X65000000Y-145250000D02*
X65000000Y-144100000D01*
X65000000Y-144100000D02*
X64700000Y-143800000D01*
D20*
G36*
X64236000Y-147336000D02*
G01*
X62164000Y-147336000D01*
X62164000Y-144364000D01*
X64236000Y-144364000D01*
X64236000Y-147336000D01*
X64236000Y-147336000D01*
G37*
X64236000Y-147336000D02*
X62164000Y-147336000D01*
X62164000Y-144364000D01*
X64236000Y-144364000D01*
X64236000Y-147336000D01*
G36*
X67836000Y-147336000D02*
G01*
X65764000Y-147336000D01*
X65764000Y-146256372D01*
X65819597Y-146152356D01*
X65860841Y-146016395D01*
X65874767Y-145875000D01*
X65874767Y-144625000D01*
X65860841Y-144483605D01*
X65824559Y-144364000D01*
X67836000Y-144364000D01*
X67836000Y-147336000D01*
X67836000Y-147336000D01*
G37*
X67836000Y-147336000D02*
X65764000Y-147336000D01*
X65764000Y-146256372D01*
X65819597Y-146152356D01*
X65860841Y-146016395D01*
X65874767Y-145875000D01*
X65874767Y-144625000D01*
X65860841Y-144483605D01*
X65824559Y-144364000D01*
X67836000Y-144364000D01*
X67836000Y-147336000D01*
G36*
X74833602Y-125382389D02*
G01*
X74257406Y-125767391D01*
X73767391Y-126257406D01*
X73382389Y-126833602D01*
X73117195Y-127473837D01*
X72982000Y-128153507D01*
X72982000Y-128846493D01*
X73117195Y-129526163D01*
X73382389Y-130166398D01*
X73767391Y-130742594D01*
X74257406Y-131232609D01*
X74833602Y-131617611D01*
X75473837Y-131882805D01*
X76153507Y-132018000D01*
X76846493Y-132018000D01*
X77526163Y-131882805D01*
X78166398Y-131617611D01*
X78742594Y-131232609D01*
X79232609Y-130742594D01*
X79617611Y-130166398D01*
X79657000Y-130071304D01*
X79657001Y-146483214D01*
X79595262Y-147112876D01*
X79417270Y-147702413D01*
X79128162Y-148246146D01*
X78738947Y-148723373D01*
X78264455Y-149115906D01*
X77722746Y-149408807D01*
X77134470Y-149590908D01*
X76505863Y-149656977D01*
X76499382Y-149657000D01*
X68219538Y-149657000D01*
X68219538Y-148474999D01*
X68208595Y-148363888D01*
X68176185Y-148257047D01*
X68123554Y-148158581D01*
X68052724Y-148072276D01*
X67966419Y-148001446D01*
X67867953Y-147948815D01*
X67761112Y-147916405D01*
X67650001Y-147905462D01*
X66949999Y-147905462D01*
X66838888Y-147916405D01*
X66732047Y-147948815D01*
X66633581Y-148001446D01*
X66547276Y-148072276D01*
X66476446Y-148158581D01*
X66423815Y-148257047D01*
X66391405Y-148363888D01*
X66380462Y-148474999D01*
X66380462Y-149657000D01*
X63619538Y-149657000D01*
X63619538Y-148474999D01*
X63608595Y-148363888D01*
X63576185Y-148257047D01*
X63523554Y-148158581D01*
X63452724Y-148072276D01*
X63366419Y-148001446D01*
X63267953Y-147948815D01*
X63161112Y-147916405D01*
X63050001Y-147905462D01*
X62349999Y-147905462D01*
X62238888Y-147916405D01*
X62132047Y-147948815D01*
X62033581Y-148001446D01*
X61947276Y-148072276D01*
X61876446Y-148158581D01*
X61823815Y-148257047D01*
X61791405Y-148363888D01*
X61780462Y-148474999D01*
X61780462Y-149657000D01*
X55071305Y-149657000D01*
X55166398Y-149617611D01*
X55742594Y-149232609D01*
X56232609Y-148742594D01*
X56617611Y-148166398D01*
X56882805Y-147526163D01*
X57018000Y-146846493D01*
X57018000Y-146153507D01*
X56990661Y-146016063D01*
X63125301Y-146016063D01*
X63134601Y-146128352D01*
X63165628Y-146236671D01*
X63217190Y-146336854D01*
X63287307Y-146425054D01*
X63373283Y-146497879D01*
X63471815Y-146552532D01*
X63579116Y-146586912D01*
X63667000Y-146597000D01*
X63810000Y-146454000D01*
X63810000Y-145440000D01*
X63271000Y-145440000D01*
X63128000Y-145583000D01*
X63125301Y-146016063D01*
X56990661Y-146016063D01*
X56882805Y-145473837D01*
X56617611Y-144833602D01*
X56232609Y-144257406D01*
X55742594Y-143767391D01*
X55166398Y-143382389D01*
X54526163Y-143117195D01*
X53846493Y-142982000D01*
X53153507Y-142982000D01*
X52473837Y-143117195D01*
X51833602Y-143382389D01*
X51257406Y-143767391D01*
X50767391Y-144257406D01*
X50382389Y-144833602D01*
X50343000Y-144928695D01*
X50343000Y-139900000D01*
X56725232Y-139900000D01*
X56736276Y-140012132D01*
X56768984Y-140119954D01*
X56822098Y-140219324D01*
X56893578Y-140306422D01*
X56980676Y-140377902D01*
X57080046Y-140431016D01*
X57187868Y-140463724D01*
X57300000Y-140474768D01*
X57717000Y-140472000D01*
X57860000Y-140329000D01*
X57860000Y-139590000D01*
X58240000Y-139590000D01*
X58240000Y-140329000D01*
X58383000Y-140472000D01*
X58800000Y-140474768D01*
X58912132Y-140463724D01*
X59019954Y-140431016D01*
X59119324Y-140377902D01*
X59206422Y-140306422D01*
X59277902Y-140219324D01*
X59331016Y-140119954D01*
X59363724Y-140012132D01*
X59374768Y-139900000D01*
X59372000Y-139733000D01*
X59229000Y-139590000D01*
X58240000Y-139590000D01*
X57860000Y-139590000D01*
X56871000Y-139590000D01*
X56728000Y-139733000D01*
X56725232Y-139900000D01*
X50343000Y-139900000D01*
X50343000Y-138900000D01*
X56725232Y-138900000D01*
X56728000Y-139067000D01*
X56871000Y-139210000D01*
X57860000Y-139210000D01*
X57860000Y-138471000D01*
X58240000Y-138471000D01*
X58240000Y-139210000D01*
X59229000Y-139210000D01*
X59372000Y-139067000D01*
X59374768Y-138900000D01*
X59363724Y-138787868D01*
X59331016Y-138680046D01*
X59277902Y-138580676D01*
X59206422Y-138493578D01*
X59119324Y-138422098D01*
X59019954Y-138368984D01*
X58912132Y-138336276D01*
X58800000Y-138325232D01*
X58383000Y-138328000D01*
X58240000Y-138471000D01*
X57860000Y-138471000D01*
X57717000Y-138328000D01*
X57300000Y-138325232D01*
X57187868Y-138336276D01*
X57080046Y-138368984D01*
X56980676Y-138422098D01*
X56893578Y-138493578D01*
X56822098Y-138580676D01*
X56768984Y-138680046D01*
X56736276Y-138787868D01*
X56725232Y-138900000D01*
X50343000Y-138900000D01*
X50343000Y-135350000D01*
X56980462Y-135350000D01*
X56980462Y-136350000D01*
X56986602Y-136412339D01*
X57004785Y-136472282D01*
X57034314Y-136527526D01*
X57074053Y-136575947D01*
X57122474Y-136615686D01*
X57177718Y-136645215D01*
X57237661Y-136663398D01*
X57300000Y-136669538D01*
X58800000Y-136669538D01*
X58862339Y-136663398D01*
X58922282Y-136645215D01*
X58977526Y-136615686D01*
X59025947Y-136575947D01*
X59065686Y-136527526D01*
X59095215Y-136472282D01*
X59113398Y-136412339D01*
X59119538Y-136350000D01*
X59119538Y-136321224D01*
X59127902Y-136320400D01*
X59127910Y-136320400D01*
X59197015Y-136313594D01*
X59285685Y-136286696D01*
X59367405Y-136243016D01*
X59439032Y-136184232D01*
X59453766Y-136166279D01*
X60816285Y-134803761D01*
X60834232Y-134789032D01*
X60848961Y-134771085D01*
X60848964Y-134771082D01*
X60893016Y-134717405D01*
X60936695Y-134635686D01*
X60936696Y-134635685D01*
X60963594Y-134547015D01*
X60970400Y-134477910D01*
X60970400Y-134477902D01*
X60972675Y-134454800D01*
X60970400Y-134431698D01*
X60970400Y-132494845D01*
X61315245Y-132150000D01*
X61880462Y-132150000D01*
X61880462Y-133150000D01*
X61886602Y-133212339D01*
X61904785Y-133272282D01*
X61934314Y-133327526D01*
X61974053Y-133375947D01*
X62022474Y-133415686D01*
X62077718Y-133445215D01*
X62137661Y-133463398D01*
X62200000Y-133469538D01*
X63700000Y-133469538D01*
X63762339Y-133463398D01*
X63822282Y-133445215D01*
X63877526Y-133415686D01*
X63925947Y-133375947D01*
X63965686Y-133327526D01*
X63995215Y-133272282D01*
X64013398Y-133212339D01*
X64015410Y-133191910D01*
X64096000Y-133272500D01*
X64810000Y-133272500D01*
X64810000Y-132596000D01*
X64667000Y-132453000D01*
X64525000Y-132450232D01*
X64412868Y-132461276D01*
X64305046Y-132493984D01*
X64205676Y-132547098D01*
X64118578Y-132618578D01*
X64047098Y-132705676D01*
X64019538Y-132757237D01*
X64019538Y-132150000D01*
X64013398Y-132087661D01*
X63995215Y-132027718D01*
X63965686Y-131972474D01*
X63925947Y-131924053D01*
X63877526Y-131884314D01*
X63822282Y-131854785D01*
X63762339Y-131836602D01*
X63700000Y-131830462D01*
X62200000Y-131830462D01*
X62137661Y-131836602D01*
X62077718Y-131854785D01*
X62022474Y-131884314D01*
X61974053Y-131924053D01*
X61934314Y-131972474D01*
X61904785Y-132027718D01*
X61886602Y-132087661D01*
X61880462Y-132150000D01*
X61315245Y-132150000D01*
X61694846Y-131770400D01*
X65871566Y-131770400D01*
X65822098Y-131830676D01*
X65768984Y-131930046D01*
X65736276Y-132037868D01*
X65725232Y-132150000D01*
X65728000Y-132317000D01*
X65870998Y-132459998D01*
X65728000Y-132459998D01*
X65728000Y-132511647D01*
X65694954Y-132493984D01*
X65587132Y-132461276D01*
X65475000Y-132450232D01*
X65333000Y-132453000D01*
X65190000Y-132596000D01*
X65190000Y-133272500D01*
X65210000Y-133272500D01*
X65210000Y-133652500D01*
X65190000Y-133652500D01*
X65190000Y-133672500D01*
X64810000Y-133672500D01*
X64810000Y-133652500D01*
X64096000Y-133652500D01*
X63953000Y-133795500D01*
X63950232Y-133900000D01*
X63961276Y-134012132D01*
X63993984Y-134119954D01*
X64047098Y-134219324D01*
X64118578Y-134306422D01*
X64132945Y-134318213D01*
X64083965Y-134377896D01*
X64010636Y-134515084D01*
X63965480Y-134663943D01*
X63950233Y-134818750D01*
X63950233Y-134835170D01*
X63919954Y-134818985D01*
X63812131Y-134786277D01*
X63700000Y-134775233D01*
X62200000Y-134775233D01*
X62087869Y-134786277D01*
X61980046Y-134818985D01*
X61880677Y-134872099D01*
X61793578Y-134943578D01*
X61722099Y-135030677D01*
X61668985Y-135130046D01*
X61636277Y-135237869D01*
X61625233Y-135350000D01*
X61625233Y-136350000D01*
X61636277Y-136462131D01*
X61668985Y-136569954D01*
X61722099Y-136669323D01*
X61793578Y-136756422D01*
X61880677Y-136827901D01*
X61980046Y-136881015D01*
X62087869Y-136913723D01*
X62200000Y-136924767D01*
X63700000Y-136924767D01*
X63812131Y-136913723D01*
X63919954Y-136881015D01*
X64019323Y-136827901D01*
X64106422Y-136756422D01*
X64120309Y-136739500D01*
X64364884Y-136739500D01*
X64380386Y-136755002D01*
X64539585Y-136861375D01*
X64716478Y-136934646D01*
X64904266Y-136972000D01*
X65095734Y-136972000D01*
X65283522Y-136934646D01*
X65460415Y-136861375D01*
X65619614Y-136755002D01*
X65755002Y-136619614D01*
X65861375Y-136460415D01*
X65934646Y-136283522D01*
X65972000Y-136095734D01*
X65972000Y-135904266D01*
X65937025Y-135728436D01*
X65980462Y-135692788D01*
X65980462Y-136350000D01*
X65986602Y-136412339D01*
X66004785Y-136472282D01*
X66034314Y-136527526D01*
X66074053Y-136575947D01*
X66122474Y-136615686D01*
X66177718Y-136645215D01*
X66237661Y-136663398D01*
X66300000Y-136669538D01*
X66579600Y-136669538D01*
X66579600Y-137226898D01*
X66577325Y-137250000D01*
X66579600Y-137273102D01*
X66579600Y-137273109D01*
X66586406Y-137342214D01*
X66613304Y-137430884D01*
X66656984Y-137512605D01*
X66715768Y-137584232D01*
X66733720Y-137598966D01*
X67251039Y-138116285D01*
X67265768Y-138134232D01*
X67337395Y-138193016D01*
X67419115Y-138236696D01*
X67507785Y-138263594D01*
X67576890Y-138270400D01*
X67576900Y-138270400D01*
X67599999Y-138272675D01*
X67623098Y-138270400D01*
X70959955Y-138270400D01*
X71270016Y-138580462D01*
X71200000Y-138580462D01*
X71137661Y-138586602D01*
X71077718Y-138604785D01*
X71022474Y-138634314D01*
X70974053Y-138674053D01*
X70934314Y-138722474D01*
X70904785Y-138777718D01*
X70886602Y-138837661D01*
X70880462Y-138900000D01*
X70880462Y-139900000D01*
X70886602Y-139962339D01*
X70904785Y-140022282D01*
X70934314Y-140077526D01*
X70974053Y-140125947D01*
X71022474Y-140165686D01*
X71077718Y-140195215D01*
X71137661Y-140213398D01*
X71200000Y-140219538D01*
X72700000Y-140219538D01*
X72762339Y-140213398D01*
X72822282Y-140195215D01*
X72877526Y-140165686D01*
X72925947Y-140125947D01*
X72965686Y-140077526D01*
X72995215Y-140022282D01*
X73013398Y-139962339D01*
X73018772Y-139907772D01*
X73096000Y-139985000D01*
X73810000Y-139985000D01*
X73810000Y-139308500D01*
X73667000Y-139165500D01*
X73525000Y-139162732D01*
X73412868Y-139173776D01*
X73305046Y-139206484D01*
X73205676Y-139259598D01*
X73118578Y-139331078D01*
X73047098Y-139418176D01*
X73019538Y-139469737D01*
X73019538Y-138900000D01*
X73013398Y-138837661D01*
X72995215Y-138777718D01*
X72965686Y-138722474D01*
X72925947Y-138674053D01*
X72877526Y-138634314D01*
X72822282Y-138604785D01*
X72762339Y-138586602D01*
X72700000Y-138580462D01*
X72421224Y-138580462D01*
X72420400Y-138572098D01*
X72420400Y-138572090D01*
X72413594Y-138502985D01*
X72386696Y-138414315D01*
X72343016Y-138332595D01*
X72336973Y-138325232D01*
X72298964Y-138278918D01*
X72298961Y-138278915D01*
X72284232Y-138260968D01*
X72266285Y-138246239D01*
X71503766Y-137483721D01*
X71489032Y-137465768D01*
X71417405Y-137406984D01*
X71335685Y-137363304D01*
X71247015Y-137336406D01*
X71177910Y-137329600D01*
X71177902Y-137329600D01*
X71154800Y-137327325D01*
X71131698Y-137329600D01*
X67794846Y-137329600D01*
X67520400Y-137055155D01*
X67520400Y-136669538D01*
X67800000Y-136669538D01*
X67862339Y-136663398D01*
X67922282Y-136645215D01*
X67977526Y-136615686D01*
X68025947Y-136575947D01*
X68065686Y-136527526D01*
X68095215Y-136472282D01*
X68113398Y-136412339D01*
X68119538Y-136350000D01*
X68119538Y-135350000D01*
X68113579Y-135289500D01*
X68746558Y-135289500D01*
X69905135Y-136448078D01*
X69932986Y-136482014D01*
X69966919Y-136509862D01*
X69966921Y-136509864D01*
X70068429Y-136593170D01*
X70110554Y-136615686D01*
X70222956Y-136675766D01*
X70390628Y-136726629D01*
X70521311Y-136739500D01*
X70521313Y-136739500D01*
X70565000Y-136743803D01*
X70608687Y-136739500D01*
X70779691Y-136739500D01*
X70793578Y-136756422D01*
X70880677Y-136827901D01*
X70980046Y-136881015D01*
X71087869Y-136913723D01*
X71200000Y-136924767D01*
X72700000Y-136924767D01*
X72812131Y-136913723D01*
X72919954Y-136881015D01*
X73019323Y-136827901D01*
X73106422Y-136756422D01*
X73120309Y-136739500D01*
X73364884Y-136739500D01*
X73380386Y-136755002D01*
X73539585Y-136861375D01*
X73648580Y-136906522D01*
X74910501Y-138168443D01*
X74910500Y-139366510D01*
X74881422Y-139331078D01*
X74794324Y-139259598D01*
X74694954Y-139206484D01*
X74587132Y-139173776D01*
X74475000Y-139162732D01*
X74333000Y-139165500D01*
X74190000Y-139308500D01*
X74190000Y-139985000D01*
X74210000Y-139985000D01*
X74210000Y-140365000D01*
X74190000Y-140365000D01*
X74190000Y-140385000D01*
X73810000Y-140385000D01*
X73810000Y-140365000D01*
X73096000Y-140365000D01*
X72953000Y-140508000D01*
X72950232Y-140612500D01*
X72961276Y-140724632D01*
X72993984Y-140832454D01*
X73047098Y-140931824D01*
X73118578Y-141018922D01*
X73132945Y-141030713D01*
X73083965Y-141090396D01*
X73010636Y-141227584D01*
X72965480Y-141376443D01*
X72950233Y-141531250D01*
X72950233Y-141585170D01*
X72919954Y-141568985D01*
X72812131Y-141536277D01*
X72700000Y-141525233D01*
X71200000Y-141525233D01*
X71087869Y-141536277D01*
X70980046Y-141568985D01*
X70880677Y-141622099D01*
X70793578Y-141693578D01*
X70722099Y-141780677D01*
X70668985Y-141880046D01*
X70636277Y-141987869D01*
X70625233Y-142100000D01*
X70625233Y-143100000D01*
X70636277Y-143212131D01*
X70668985Y-143319954D01*
X70722099Y-143419323D01*
X70793578Y-143506422D01*
X70880677Y-143577901D01*
X70980046Y-143631015D01*
X71060501Y-143655421D01*
X71060501Y-144181557D01*
X70831558Y-144410500D01*
X67592515Y-144410500D01*
X67483522Y-144365354D01*
X67295734Y-144328000D01*
X67104266Y-144328000D01*
X66916478Y-144365354D01*
X66835184Y-144399027D01*
X66819597Y-144347644D01*
X66752622Y-144222341D01*
X66662488Y-144112512D01*
X66552659Y-144022378D01*
X66427356Y-143955403D01*
X66291395Y-143914159D01*
X66150000Y-143900233D01*
X65850000Y-143900233D01*
X65708605Y-143914159D01*
X65572644Y-143955403D01*
X65464147Y-144013395D01*
X65463594Y-144007785D01*
X65436696Y-143919115D01*
X65393016Y-143837395D01*
X65334232Y-143765768D01*
X65316279Y-143751034D01*
X65213766Y-143648521D01*
X65283522Y-143634646D01*
X65460415Y-143561375D01*
X65619614Y-143455002D01*
X65755002Y-143319614D01*
X65861375Y-143160415D01*
X65934646Y-142983522D01*
X65972000Y-142795734D01*
X65972000Y-142604266D01*
X65934646Y-142416478D01*
X65924916Y-142392988D01*
X65980462Y-142289070D01*
X65980462Y-143100000D01*
X65986602Y-143162339D01*
X66004785Y-143222282D01*
X66034314Y-143277526D01*
X66074053Y-143325947D01*
X66122474Y-143365686D01*
X66177718Y-143395215D01*
X66237661Y-143413398D01*
X66300000Y-143419538D01*
X67800000Y-143419538D01*
X67862339Y-143413398D01*
X67922282Y-143395215D01*
X67977526Y-143365686D01*
X68025947Y-143325947D01*
X68065686Y-143277526D01*
X68095215Y-143222282D01*
X68113398Y-143162339D01*
X68119538Y-143100000D01*
X68119538Y-142100000D01*
X68113398Y-142037661D01*
X68095215Y-141977718D01*
X68065686Y-141922474D01*
X68025947Y-141874053D01*
X67977526Y-141834314D01*
X67922282Y-141804785D01*
X67862339Y-141786602D01*
X67800000Y-141780462D01*
X67520400Y-141780462D01*
X67520400Y-141573100D01*
X67522675Y-141550001D01*
X67520400Y-141526902D01*
X67520400Y-141526892D01*
X67513594Y-141457787D01*
X67486696Y-141369117D01*
X67443016Y-141287397D01*
X67430934Y-141272675D01*
X67398964Y-141233720D01*
X67398961Y-141233717D01*
X67384232Y-141215770D01*
X67366285Y-141201041D01*
X67018000Y-140852756D01*
X67018000Y-140729285D01*
X66990408Y-140590569D01*
X66936283Y-140459902D01*
X66857707Y-140342304D01*
X66852202Y-140336799D01*
X66860000Y-140329000D01*
X66860000Y-139590000D01*
X67240000Y-139590000D01*
X67240000Y-140329000D01*
X67383000Y-140472000D01*
X67800000Y-140474768D01*
X67912132Y-140463724D01*
X68019954Y-140431016D01*
X68119324Y-140377902D01*
X68206422Y-140306422D01*
X68277902Y-140219324D01*
X68331016Y-140119954D01*
X68363724Y-140012132D01*
X68374768Y-139900000D01*
X68372000Y-139733000D01*
X68229000Y-139590000D01*
X67240000Y-139590000D01*
X66860000Y-139590000D01*
X66840000Y-139590000D01*
X66840000Y-139210000D01*
X66860000Y-139210000D01*
X66860000Y-138471000D01*
X67240000Y-138471000D01*
X67240000Y-139210000D01*
X68229000Y-139210000D01*
X68372000Y-139067000D01*
X68374768Y-138900000D01*
X68363724Y-138787868D01*
X68331016Y-138680046D01*
X68277902Y-138580676D01*
X68206422Y-138493578D01*
X68119324Y-138422098D01*
X68019954Y-138368984D01*
X67912132Y-138336276D01*
X67800000Y-138325232D01*
X67383000Y-138328000D01*
X67240000Y-138471000D01*
X66860000Y-138471000D01*
X66717000Y-138328000D01*
X66300000Y-138325232D01*
X66187868Y-138336276D01*
X66080046Y-138368984D01*
X65980676Y-138422098D01*
X65893578Y-138493578D01*
X65822098Y-138580676D01*
X65768984Y-138680046D01*
X65736276Y-138787868D01*
X65725232Y-138900000D01*
X65728000Y-139067000D01*
X65870998Y-139209998D01*
X65728000Y-139209998D01*
X65728000Y-139224147D01*
X65694954Y-139206484D01*
X65587132Y-139173776D01*
X65475000Y-139162732D01*
X65333000Y-139165500D01*
X65190000Y-139308500D01*
X65190000Y-139985000D01*
X65210000Y-139985000D01*
X65210000Y-140365000D01*
X65190000Y-140365000D01*
X65190000Y-140385000D01*
X64810000Y-140385000D01*
X64810000Y-140365000D01*
X64118073Y-140365000D01*
X64102907Y-140342302D01*
X64002898Y-140242293D01*
X63885300Y-140163717D01*
X63881728Y-140162237D01*
X63925947Y-140125947D01*
X63965686Y-140077526D01*
X63995215Y-140022282D01*
X64013398Y-139962339D01*
X64018772Y-139907772D01*
X64096000Y-139985000D01*
X64810000Y-139985000D01*
X64810000Y-139308500D01*
X64667000Y-139165500D01*
X64525000Y-139162732D01*
X64412868Y-139173776D01*
X64305046Y-139206484D01*
X64205676Y-139259598D01*
X64118578Y-139331078D01*
X64047098Y-139418176D01*
X64019538Y-139469737D01*
X64019538Y-138900000D01*
X64013398Y-138837661D01*
X63995215Y-138777718D01*
X63965686Y-138722474D01*
X63925947Y-138674053D01*
X63877526Y-138634314D01*
X63822282Y-138604785D01*
X63762339Y-138586602D01*
X63700000Y-138580462D01*
X62200000Y-138580462D01*
X62137661Y-138586602D01*
X62077718Y-138604785D01*
X62022474Y-138634314D01*
X61974053Y-138674053D01*
X61934314Y-138722474D01*
X61904785Y-138777718D01*
X61886602Y-138837661D01*
X61880462Y-138900000D01*
X61880462Y-139900000D01*
X61886602Y-139962339D01*
X61904785Y-140022282D01*
X61934314Y-140077526D01*
X61974053Y-140125947D01*
X62022474Y-140165686D01*
X62077718Y-140195215D01*
X62137661Y-140213398D01*
X62200000Y-140219538D01*
X62478776Y-140219538D01*
X62486406Y-140297014D01*
X62513305Y-140385685D01*
X62556984Y-140467404D01*
X62601036Y-140521081D01*
X62601040Y-140521085D01*
X62615769Y-140539032D01*
X62633716Y-140553761D01*
X62827200Y-140747245D01*
X62827200Y-140870717D01*
X62854792Y-141009433D01*
X62908917Y-141140100D01*
X62987493Y-141257698D01*
X63087502Y-141357707D01*
X63205100Y-141436283D01*
X63335767Y-141490408D01*
X63474483Y-141518000D01*
X63615917Y-141518000D01*
X63754633Y-141490408D01*
X63885300Y-141436283D01*
X63964819Y-141383150D01*
X63950233Y-141531250D01*
X63950233Y-141585170D01*
X63919954Y-141568985D01*
X63812131Y-141536277D01*
X63700000Y-141525233D01*
X62200000Y-141525233D01*
X62087869Y-141536277D01*
X61980046Y-141568985D01*
X61880677Y-141622099D01*
X61793578Y-141693578D01*
X61722099Y-141780677D01*
X61668985Y-141880046D01*
X61636277Y-141987869D01*
X61625233Y-142100000D01*
X61625233Y-143100000D01*
X61636277Y-143212131D01*
X61668985Y-143319954D01*
X61674141Y-143329600D01*
X60499646Y-143329600D01*
X59453766Y-142283721D01*
X59439032Y-142265768D01*
X59367405Y-142206984D01*
X59285685Y-142163304D01*
X59197015Y-142136406D01*
X59127910Y-142129600D01*
X59127902Y-142129600D01*
X59119538Y-142128776D01*
X59119538Y-142100000D01*
X59113398Y-142037661D01*
X59095215Y-141977718D01*
X59065686Y-141922474D01*
X59025947Y-141874053D01*
X58977526Y-141834314D01*
X58922282Y-141804785D01*
X58862339Y-141786602D01*
X58800000Y-141780462D01*
X57300000Y-141780462D01*
X57237661Y-141786602D01*
X57177718Y-141804785D01*
X57122474Y-141834314D01*
X57074053Y-141874053D01*
X57034314Y-141922474D01*
X57004785Y-141977718D01*
X56986602Y-142037661D01*
X56980462Y-142100000D01*
X56980462Y-143100000D01*
X56986602Y-143162339D01*
X57004785Y-143222282D01*
X57034314Y-143277526D01*
X57074053Y-143325947D01*
X57122474Y-143365686D01*
X57177718Y-143395215D01*
X57237661Y-143413398D01*
X57300000Y-143419538D01*
X58800000Y-143419538D01*
X58862339Y-143413398D01*
X58922282Y-143395215D01*
X58977526Y-143365686D01*
X59025947Y-143325947D01*
X59065686Y-143277526D01*
X59083588Y-143244034D01*
X59955839Y-144116285D01*
X59970568Y-144134232D01*
X59988515Y-144148961D01*
X59988518Y-144148964D01*
X59996436Y-144155462D01*
X60042195Y-144193016D01*
X60123915Y-144236696D01*
X60212585Y-144263594D01*
X60281690Y-144270400D01*
X60281700Y-144270400D01*
X60304799Y-144272675D01*
X60327898Y-144270400D01*
X63163603Y-144270400D01*
X63134601Y-144371648D01*
X63125301Y-144483937D01*
X63128000Y-144917000D01*
X63271000Y-145060000D01*
X63810000Y-145060000D01*
X63810000Y-145040000D01*
X64190000Y-145040000D01*
X64190000Y-145060000D01*
X64210000Y-145060000D01*
X64210000Y-145440000D01*
X64190000Y-145440000D01*
X64190000Y-146454000D01*
X64333000Y-146597000D01*
X64420884Y-146586912D01*
X64528185Y-146552532D01*
X64626717Y-146497879D01*
X64712693Y-146425054D01*
X64782024Y-146337843D01*
X64850000Y-146344538D01*
X65150000Y-146344538D01*
X65241602Y-146335516D01*
X65284244Y-146322581D01*
X65325065Y-146372321D01*
X65265354Y-146516478D01*
X65228000Y-146704266D01*
X65228000Y-146895734D01*
X65265354Y-147083522D01*
X65338625Y-147260415D01*
X65444998Y-147419614D01*
X65580386Y-147555002D01*
X65739585Y-147661375D01*
X65916478Y-147734646D01*
X66104266Y-147772000D01*
X66295734Y-147772000D01*
X66483522Y-147734646D01*
X66660415Y-147661375D01*
X66700000Y-147634925D01*
X66739585Y-147661375D01*
X66916478Y-147734646D01*
X67104266Y-147772000D01*
X67295734Y-147772000D01*
X67483522Y-147734646D01*
X67660415Y-147661375D01*
X67819614Y-147555002D01*
X67836179Y-147538437D01*
X67898091Y-147519656D01*
X68032761Y-147447673D01*
X68150801Y-147350801D01*
X68247673Y-147232761D01*
X68319656Y-147098091D01*
X68363983Y-146951966D01*
X68375200Y-146838075D01*
X68375200Y-146189500D01*
X71156321Y-146189500D01*
X71200000Y-146193802D01*
X71243679Y-146189500D01*
X71243689Y-146189500D01*
X71374372Y-146176629D01*
X71542044Y-146125766D01*
X71696570Y-146043170D01*
X71832014Y-145932014D01*
X71859867Y-145898075D01*
X72548080Y-145209863D01*
X72582014Y-145182014D01*
X72693170Y-145046570D01*
X72775766Y-144892044D01*
X72826629Y-144724372D01*
X72839500Y-144593689D01*
X72839500Y-144593680D01*
X72843802Y-144550001D01*
X72839500Y-144506321D01*
X72839500Y-143655421D01*
X72919954Y-143631015D01*
X73019323Y-143577901D01*
X73106422Y-143506422D01*
X73120309Y-143489500D01*
X73314884Y-143489500D01*
X73380386Y-143555002D01*
X73539585Y-143661375D01*
X73716478Y-143734646D01*
X73904266Y-143772000D01*
X74095734Y-143772000D01*
X74283522Y-143734646D01*
X74460415Y-143661375D01*
X74619614Y-143555002D01*
X74755002Y-143419614D01*
X74861375Y-143260415D01*
X74934646Y-143083522D01*
X74972000Y-142895734D01*
X74972000Y-142704266D01*
X74943614Y-142561564D01*
X75071570Y-142493170D01*
X75207014Y-142382014D01*
X75234867Y-142348075D01*
X76398081Y-141184862D01*
X76432014Y-141157014D01*
X76459864Y-141123079D01*
X76543170Y-141021571D01*
X76622384Y-140873371D01*
X76625766Y-140867044D01*
X76676629Y-140699372D01*
X76689500Y-140568689D01*
X76689500Y-140568687D01*
X76693803Y-140525000D01*
X76689500Y-140481313D01*
X76689500Y-137843679D01*
X76693802Y-137799999D01*
X76689500Y-137756320D01*
X76689500Y-137756311D01*
X76676629Y-137625628D01*
X76625766Y-137457956D01*
X76543170Y-137303430D01*
X76432014Y-137167986D01*
X76398075Y-137140133D01*
X74942686Y-135684744D01*
X74989364Y-135597416D01*
X75034520Y-135448557D01*
X75049767Y-135293750D01*
X75049767Y-134856250D01*
X75034520Y-134701443D01*
X74989364Y-134552584D01*
X74916035Y-134415396D01*
X74867055Y-134355713D01*
X74881422Y-134343922D01*
X74952902Y-134256824D01*
X75006016Y-134157454D01*
X75038724Y-134049632D01*
X75049768Y-133937500D01*
X75047000Y-133833000D01*
X74904000Y-133690000D01*
X74190000Y-133690000D01*
X74190000Y-133710000D01*
X73810000Y-133710000D01*
X73810000Y-133690000D01*
X73096000Y-133690000D01*
X72953000Y-133833000D01*
X72950232Y-133937500D01*
X72961276Y-134049632D01*
X72993984Y-134157454D01*
X73047098Y-134256824D01*
X73118578Y-134343922D01*
X73132945Y-134355713D01*
X73083965Y-134415396D01*
X73010636Y-134552584D01*
X72965480Y-134701443D01*
X72952205Y-134836224D01*
X72919954Y-134818985D01*
X72812131Y-134786277D01*
X72700000Y-134775233D01*
X71200000Y-134775233D01*
X71087869Y-134786277D01*
X70980046Y-134818985D01*
X70880677Y-134872099D01*
X70861104Y-134888162D01*
X69774867Y-133801925D01*
X69747014Y-133767986D01*
X69611570Y-133656830D01*
X69457044Y-133574234D01*
X69289372Y-133523371D01*
X69158689Y-133510500D01*
X69158679Y-133510500D01*
X69115000Y-133506198D01*
X69071321Y-133510500D01*
X68244109Y-133510500D01*
X68277902Y-133469324D01*
X68331016Y-133369954D01*
X68363724Y-133262132D01*
X68374768Y-133150000D01*
X68372000Y-132983000D01*
X68229000Y-132840000D01*
X67240000Y-132840000D01*
X67240000Y-132860000D01*
X66860000Y-132860000D01*
X66860000Y-132840000D01*
X66840000Y-132840000D01*
X66840000Y-132460000D01*
X66860000Y-132460000D01*
X66860000Y-132440000D01*
X67240000Y-132440000D01*
X67240000Y-132460000D01*
X68229000Y-132460000D01*
X68372000Y-132317000D01*
X68374768Y-132150000D01*
X68363724Y-132037868D01*
X68359849Y-132025095D01*
X69301043Y-132966290D01*
X69315768Y-132984232D01*
X69333710Y-132998957D01*
X69333717Y-132998964D01*
X69387395Y-133043016D01*
X69469115Y-133086696D01*
X69557785Y-133113594D01*
X69626890Y-133120400D01*
X69626900Y-133120400D01*
X69649999Y-133122675D01*
X69673098Y-133120400D01*
X70880462Y-133120400D01*
X70880462Y-133150000D01*
X70886602Y-133212339D01*
X70904785Y-133272282D01*
X70934314Y-133327526D01*
X70974053Y-133375947D01*
X71022474Y-133415686D01*
X71077718Y-133445215D01*
X71137661Y-133463398D01*
X71200000Y-133469538D01*
X72700000Y-133469538D01*
X72762339Y-133463398D01*
X72822282Y-133445215D01*
X72877526Y-133415686D01*
X72925947Y-133375947D01*
X72965686Y-133327526D01*
X72995215Y-133272282D01*
X73009893Y-133223893D01*
X73096000Y-133310000D01*
X73810000Y-133310000D01*
X73810000Y-132633500D01*
X74190000Y-132633500D01*
X74190000Y-133310000D01*
X74904000Y-133310000D01*
X75047000Y-133167000D01*
X75049768Y-133062500D01*
X75038724Y-132950368D01*
X75006016Y-132842546D01*
X74952902Y-132743176D01*
X74881422Y-132656078D01*
X74794324Y-132584598D01*
X74694954Y-132531484D01*
X74587132Y-132498776D01*
X74475000Y-132487732D01*
X74333000Y-132490500D01*
X74190000Y-132633500D01*
X73810000Y-132633500D01*
X73667000Y-132490500D01*
X73525000Y-132487732D01*
X73412868Y-132498776D01*
X73305046Y-132531484D01*
X73205676Y-132584598D01*
X73118578Y-132656078D01*
X73047098Y-132743176D01*
X73019538Y-132794737D01*
X73019538Y-132150000D01*
X73013398Y-132087661D01*
X72995215Y-132027718D01*
X72965686Y-131972474D01*
X72925947Y-131924053D01*
X72877526Y-131884314D01*
X72822282Y-131854785D01*
X72762339Y-131836602D01*
X72700000Y-131830462D01*
X71200000Y-131830462D01*
X71137661Y-131836602D01*
X71077718Y-131854785D01*
X71022474Y-131884314D01*
X70974053Y-131924053D01*
X70934314Y-131972474D01*
X70904785Y-132027718D01*
X70886602Y-132087661D01*
X70880462Y-132150000D01*
X70880462Y-132179600D01*
X69844847Y-132179600D01*
X68648966Y-130983720D01*
X68634232Y-130965768D01*
X68562605Y-130906984D01*
X68480885Y-130863304D01*
X68392215Y-130836406D01*
X68323110Y-130829600D01*
X68323102Y-130829600D01*
X68300000Y-130827325D01*
X68276898Y-130829600D01*
X61523102Y-130829600D01*
X61500000Y-130827325D01*
X61476898Y-130829600D01*
X61476890Y-130829600D01*
X61407785Y-130836406D01*
X61319114Y-130863304D01*
X61237395Y-130906984D01*
X61183718Y-130951036D01*
X61183715Y-130951039D01*
X61165768Y-130965768D01*
X61151039Y-130983715D01*
X60183716Y-131951039D01*
X60165769Y-131965768D01*
X60151040Y-131983715D01*
X60151036Y-131983719D01*
X60106984Y-132037396D01*
X60063305Y-132119115D01*
X60036406Y-132207786D01*
X60027325Y-132300000D01*
X60029601Y-132323112D01*
X60029600Y-134259954D01*
X59083588Y-135205966D01*
X59065686Y-135172474D01*
X59025947Y-135124053D01*
X58977526Y-135084314D01*
X58922282Y-135054785D01*
X58862339Y-135036602D01*
X58800000Y-135030462D01*
X57300000Y-135030462D01*
X57237661Y-135036602D01*
X57177718Y-135054785D01*
X57122474Y-135084314D01*
X57074053Y-135124053D01*
X57034314Y-135172474D01*
X57004785Y-135227718D01*
X56986602Y-135287661D01*
X56980462Y-135350000D01*
X50343000Y-135350000D01*
X50343000Y-133150000D01*
X56725232Y-133150000D01*
X56736276Y-133262132D01*
X56768984Y-133369954D01*
X56822098Y-133469324D01*
X56893578Y-133556422D01*
X56980676Y-133627902D01*
X57080046Y-133681016D01*
X57187868Y-133713724D01*
X57300000Y-133724768D01*
X57717000Y-133722000D01*
X57860000Y-133579000D01*
X57860000Y-132840000D01*
X58240000Y-132840000D01*
X58240000Y-133579000D01*
X58383000Y-133722000D01*
X58800000Y-133724768D01*
X58912132Y-133713724D01*
X59019954Y-133681016D01*
X59119324Y-133627902D01*
X59206422Y-133556422D01*
X59277902Y-133469324D01*
X59331016Y-133369954D01*
X59363724Y-133262132D01*
X59374768Y-133150000D01*
X59372000Y-132983000D01*
X59229000Y-132840000D01*
X58240000Y-132840000D01*
X57860000Y-132840000D01*
X56871000Y-132840000D01*
X56728000Y-132983000D01*
X56725232Y-133150000D01*
X50343000Y-133150000D01*
X50343000Y-132150000D01*
X56725232Y-132150000D01*
X56728000Y-132317000D01*
X56871000Y-132460000D01*
X57860000Y-132460000D01*
X57860000Y-131721000D01*
X58240000Y-131721000D01*
X58240000Y-132460000D01*
X59229000Y-132460000D01*
X59372000Y-132317000D01*
X59374768Y-132150000D01*
X59363724Y-132037868D01*
X59331016Y-131930046D01*
X59277902Y-131830676D01*
X59206422Y-131743578D01*
X59119324Y-131672098D01*
X59019954Y-131618984D01*
X58912132Y-131586276D01*
X58800000Y-131575232D01*
X58383000Y-131578000D01*
X58240000Y-131721000D01*
X57860000Y-131721000D01*
X57717000Y-131578000D01*
X57300000Y-131575232D01*
X57187868Y-131586276D01*
X57080046Y-131618984D01*
X56980676Y-131672098D01*
X56893578Y-131743578D01*
X56822098Y-131830676D01*
X56768984Y-131930046D01*
X56736276Y-132037868D01*
X56725232Y-132150000D01*
X50343000Y-132150000D01*
X50343000Y-128516776D01*
X50404738Y-127887124D01*
X50582730Y-127297587D01*
X50871838Y-126753853D01*
X51261053Y-126276627D01*
X51735545Y-125884094D01*
X52277246Y-125591196D01*
X52865529Y-125409092D01*
X53494137Y-125343023D01*
X53500618Y-125343000D01*
X74928695Y-125343000D01*
X74833602Y-125382389D01*
X74833602Y-125382389D01*
G37*
X74833602Y-125382389D02*
X74257406Y-125767391D01*
X73767391Y-126257406D01*
X73382389Y-126833602D01*
X73117195Y-127473837D01*
X72982000Y-128153507D01*
X72982000Y-128846493D01*
X73117195Y-129526163D01*
X73382389Y-130166398D01*
X73767391Y-130742594D01*
X74257406Y-131232609D01*
X74833602Y-131617611D01*
X75473837Y-131882805D01*
X76153507Y-132018000D01*
X76846493Y-132018000D01*
X77526163Y-131882805D01*
X78166398Y-131617611D01*
X78742594Y-131232609D01*
X79232609Y-130742594D01*
X79617611Y-130166398D01*
X79657000Y-130071304D01*
X79657001Y-146483214D01*
X79595262Y-147112876D01*
X79417270Y-147702413D01*
X79128162Y-148246146D01*
X78738947Y-148723373D01*
X78264455Y-149115906D01*
X77722746Y-149408807D01*
X77134470Y-149590908D01*
X76505863Y-149656977D01*
X76499382Y-149657000D01*
X68219538Y-149657000D01*
X68219538Y-148474999D01*
X68208595Y-148363888D01*
X68176185Y-148257047D01*
X68123554Y-148158581D01*
X68052724Y-148072276D01*
X67966419Y-148001446D01*
X67867953Y-147948815D01*
X67761112Y-147916405D01*
X67650001Y-147905462D01*
X66949999Y-147905462D01*
X66838888Y-147916405D01*
X66732047Y-147948815D01*
X66633581Y-148001446D01*
X66547276Y-148072276D01*
X66476446Y-148158581D01*
X66423815Y-148257047D01*
X66391405Y-148363888D01*
X66380462Y-148474999D01*
X66380462Y-149657000D01*
X63619538Y-149657000D01*
X63619538Y-148474999D01*
X63608595Y-148363888D01*
X63576185Y-148257047D01*
X63523554Y-148158581D01*
X63452724Y-148072276D01*
X63366419Y-148001446D01*
X63267953Y-147948815D01*
X63161112Y-147916405D01*
X63050001Y-147905462D01*
X62349999Y-147905462D01*
X62238888Y-147916405D01*
X62132047Y-147948815D01*
X62033581Y-148001446D01*
X61947276Y-148072276D01*
X61876446Y-148158581D01*
X61823815Y-148257047D01*
X61791405Y-148363888D01*
X61780462Y-148474999D01*
X61780462Y-149657000D01*
X55071305Y-149657000D01*
X55166398Y-149617611D01*
X55742594Y-149232609D01*
X56232609Y-148742594D01*
X56617611Y-148166398D01*
X56882805Y-147526163D01*
X57018000Y-146846493D01*
X57018000Y-146153507D01*
X56990661Y-146016063D01*
X63125301Y-146016063D01*
X63134601Y-146128352D01*
X63165628Y-146236671D01*
X63217190Y-146336854D01*
X63287307Y-146425054D01*
X63373283Y-146497879D01*
X63471815Y-146552532D01*
X63579116Y-146586912D01*
X63667000Y-146597000D01*
X63810000Y-146454000D01*
X63810000Y-145440000D01*
X63271000Y-145440000D01*
X63128000Y-145583000D01*
X63125301Y-146016063D01*
X56990661Y-146016063D01*
X56882805Y-145473837D01*
X56617611Y-144833602D01*
X56232609Y-144257406D01*
X55742594Y-143767391D01*
X55166398Y-143382389D01*
X54526163Y-143117195D01*
X53846493Y-142982000D01*
X53153507Y-142982000D01*
X52473837Y-143117195D01*
X51833602Y-143382389D01*
X51257406Y-143767391D01*
X50767391Y-144257406D01*
X50382389Y-144833602D01*
X50343000Y-144928695D01*
X50343000Y-139900000D01*
X56725232Y-139900000D01*
X56736276Y-140012132D01*
X56768984Y-140119954D01*
X56822098Y-140219324D01*
X56893578Y-140306422D01*
X56980676Y-140377902D01*
X57080046Y-140431016D01*
X57187868Y-140463724D01*
X57300000Y-140474768D01*
X57717000Y-140472000D01*
X57860000Y-140329000D01*
X57860000Y-139590000D01*
X58240000Y-139590000D01*
X58240000Y-140329000D01*
X58383000Y-140472000D01*
X58800000Y-140474768D01*
X58912132Y-140463724D01*
X59019954Y-140431016D01*
X59119324Y-140377902D01*
X59206422Y-140306422D01*
X59277902Y-140219324D01*
X59331016Y-140119954D01*
X59363724Y-140012132D01*
X59374768Y-139900000D01*
X59372000Y-139733000D01*
X59229000Y-139590000D01*
X58240000Y-139590000D01*
X57860000Y-139590000D01*
X56871000Y-139590000D01*
X56728000Y-139733000D01*
X56725232Y-139900000D01*
X50343000Y-139900000D01*
X50343000Y-138900000D01*
X56725232Y-138900000D01*
X56728000Y-139067000D01*
X56871000Y-139210000D01*
X57860000Y-139210000D01*
X57860000Y-138471000D01*
X58240000Y-138471000D01*
X58240000Y-139210000D01*
X59229000Y-139210000D01*
X59372000Y-139067000D01*
X59374768Y-138900000D01*
X59363724Y-138787868D01*
X59331016Y-138680046D01*
X59277902Y-138580676D01*
X59206422Y-138493578D01*
X59119324Y-138422098D01*
X59019954Y-138368984D01*
X58912132Y-138336276D01*
X58800000Y-138325232D01*
X58383000Y-138328000D01*
X58240000Y-138471000D01*
X57860000Y-138471000D01*
X57717000Y-138328000D01*
X57300000Y-138325232D01*
X57187868Y-138336276D01*
X57080046Y-138368984D01*
X56980676Y-138422098D01*
X56893578Y-138493578D01*
X56822098Y-138580676D01*
X56768984Y-138680046D01*
X56736276Y-138787868D01*
X56725232Y-138900000D01*
X50343000Y-138900000D01*
X50343000Y-135350000D01*
X56980462Y-135350000D01*
X56980462Y-136350000D01*
X56986602Y-136412339D01*
X57004785Y-136472282D01*
X57034314Y-136527526D01*
X57074053Y-136575947D01*
X57122474Y-136615686D01*
X57177718Y-136645215D01*
X57237661Y-136663398D01*
X57300000Y-136669538D01*
X58800000Y-136669538D01*
X58862339Y-136663398D01*
X58922282Y-136645215D01*
X58977526Y-136615686D01*
X59025947Y-136575947D01*
X59065686Y-136527526D01*
X59095215Y-136472282D01*
X59113398Y-136412339D01*
X59119538Y-136350000D01*
X59119538Y-136321224D01*
X59127902Y-136320400D01*
X59127910Y-136320400D01*
X59197015Y-136313594D01*
X59285685Y-136286696D01*
X59367405Y-136243016D01*
X59439032Y-136184232D01*
X59453766Y-136166279D01*
X60816285Y-134803761D01*
X60834232Y-134789032D01*
X60848961Y-134771085D01*
X60848964Y-134771082D01*
X60893016Y-134717405D01*
X60936695Y-134635686D01*
X60936696Y-134635685D01*
X60963594Y-134547015D01*
X60970400Y-134477910D01*
X60970400Y-134477902D01*
X60972675Y-134454800D01*
X60970400Y-134431698D01*
X60970400Y-132494845D01*
X61315245Y-132150000D01*
X61880462Y-132150000D01*
X61880462Y-133150000D01*
X61886602Y-133212339D01*
X61904785Y-133272282D01*
X61934314Y-133327526D01*
X61974053Y-133375947D01*
X62022474Y-133415686D01*
X62077718Y-133445215D01*
X62137661Y-133463398D01*
X62200000Y-133469538D01*
X63700000Y-133469538D01*
X63762339Y-133463398D01*
X63822282Y-133445215D01*
X63877526Y-133415686D01*
X63925947Y-133375947D01*
X63965686Y-133327526D01*
X63995215Y-133272282D01*
X64013398Y-133212339D01*
X64015410Y-133191910D01*
X64096000Y-133272500D01*
X64810000Y-133272500D01*
X64810000Y-132596000D01*
X64667000Y-132453000D01*
X64525000Y-132450232D01*
X64412868Y-132461276D01*
X64305046Y-132493984D01*
X64205676Y-132547098D01*
X64118578Y-132618578D01*
X64047098Y-132705676D01*
X64019538Y-132757237D01*
X64019538Y-132150000D01*
X64013398Y-132087661D01*
X63995215Y-132027718D01*
X63965686Y-131972474D01*
X63925947Y-131924053D01*
X63877526Y-131884314D01*
X63822282Y-131854785D01*
X63762339Y-131836602D01*
X63700000Y-131830462D01*
X62200000Y-131830462D01*
X62137661Y-131836602D01*
X62077718Y-131854785D01*
X62022474Y-131884314D01*
X61974053Y-131924053D01*
X61934314Y-131972474D01*
X61904785Y-132027718D01*
X61886602Y-132087661D01*
X61880462Y-132150000D01*
X61315245Y-132150000D01*
X61694846Y-131770400D01*
X65871566Y-131770400D01*
X65822098Y-131830676D01*
X65768984Y-131930046D01*
X65736276Y-132037868D01*
X65725232Y-132150000D01*
X65728000Y-132317000D01*
X65870998Y-132459998D01*
X65728000Y-132459998D01*
X65728000Y-132511647D01*
X65694954Y-132493984D01*
X65587132Y-132461276D01*
X65475000Y-132450232D01*
X65333000Y-132453000D01*
X65190000Y-132596000D01*
X65190000Y-133272500D01*
X65210000Y-133272500D01*
X65210000Y-133652500D01*
X65190000Y-133652500D01*
X65190000Y-133672500D01*
X64810000Y-133672500D01*
X64810000Y-133652500D01*
X64096000Y-133652500D01*
X63953000Y-133795500D01*
X63950232Y-133900000D01*
X63961276Y-134012132D01*
X63993984Y-134119954D01*
X64047098Y-134219324D01*
X64118578Y-134306422D01*
X64132945Y-134318213D01*
X64083965Y-134377896D01*
X64010636Y-134515084D01*
X63965480Y-134663943D01*
X63950233Y-134818750D01*
X63950233Y-134835170D01*
X63919954Y-134818985D01*
X63812131Y-134786277D01*
X63700000Y-134775233D01*
X62200000Y-134775233D01*
X62087869Y-134786277D01*
X61980046Y-134818985D01*
X61880677Y-134872099D01*
X61793578Y-134943578D01*
X61722099Y-135030677D01*
X61668985Y-135130046D01*
X61636277Y-135237869D01*
X61625233Y-135350000D01*
X61625233Y-136350000D01*
X61636277Y-136462131D01*
X61668985Y-136569954D01*
X61722099Y-136669323D01*
X61793578Y-136756422D01*
X61880677Y-136827901D01*
X61980046Y-136881015D01*
X62087869Y-136913723D01*
X62200000Y-136924767D01*
X63700000Y-136924767D01*
X63812131Y-136913723D01*
X63919954Y-136881015D01*
X64019323Y-136827901D01*
X64106422Y-136756422D01*
X64120309Y-136739500D01*
X64364884Y-136739500D01*
X64380386Y-136755002D01*
X64539585Y-136861375D01*
X64716478Y-136934646D01*
X64904266Y-136972000D01*
X65095734Y-136972000D01*
X65283522Y-136934646D01*
X65460415Y-136861375D01*
X65619614Y-136755002D01*
X65755002Y-136619614D01*
X65861375Y-136460415D01*
X65934646Y-136283522D01*
X65972000Y-136095734D01*
X65972000Y-135904266D01*
X65937025Y-135728436D01*
X65980462Y-135692788D01*
X65980462Y-136350000D01*
X65986602Y-136412339D01*
X66004785Y-136472282D01*
X66034314Y-136527526D01*
X66074053Y-136575947D01*
X66122474Y-136615686D01*
X66177718Y-136645215D01*
X66237661Y-136663398D01*
X66300000Y-136669538D01*
X66579600Y-136669538D01*
X66579600Y-137226898D01*
X66577325Y-137250000D01*
X66579600Y-137273102D01*
X66579600Y-137273109D01*
X66586406Y-137342214D01*
X66613304Y-137430884D01*
X66656984Y-137512605D01*
X66715768Y-137584232D01*
X66733720Y-137598966D01*
X67251039Y-138116285D01*
X67265768Y-138134232D01*
X67337395Y-138193016D01*
X67419115Y-138236696D01*
X67507785Y-138263594D01*
X67576890Y-138270400D01*
X67576900Y-138270400D01*
X67599999Y-138272675D01*
X67623098Y-138270400D01*
X70959955Y-138270400D01*
X71270016Y-138580462D01*
X71200000Y-138580462D01*
X71137661Y-138586602D01*
X71077718Y-138604785D01*
X71022474Y-138634314D01*
X70974053Y-138674053D01*
X70934314Y-138722474D01*
X70904785Y-138777718D01*
X70886602Y-138837661D01*
X70880462Y-138900000D01*
X70880462Y-139900000D01*
X70886602Y-139962339D01*
X70904785Y-140022282D01*
X70934314Y-140077526D01*
X70974053Y-140125947D01*
X71022474Y-140165686D01*
X71077718Y-140195215D01*
X71137661Y-140213398D01*
X71200000Y-140219538D01*
X72700000Y-140219538D01*
X72762339Y-140213398D01*
X72822282Y-140195215D01*
X72877526Y-140165686D01*
X72925947Y-140125947D01*
X72965686Y-140077526D01*
X72995215Y-140022282D01*
X73013398Y-139962339D01*
X73018772Y-139907772D01*
X73096000Y-139985000D01*
X73810000Y-139985000D01*
X73810000Y-139308500D01*
X73667000Y-139165500D01*
X73525000Y-139162732D01*
X73412868Y-139173776D01*
X73305046Y-139206484D01*
X73205676Y-139259598D01*
X73118578Y-139331078D01*
X73047098Y-139418176D01*
X73019538Y-139469737D01*
X73019538Y-138900000D01*
X73013398Y-138837661D01*
X72995215Y-138777718D01*
X72965686Y-138722474D01*
X72925947Y-138674053D01*
X72877526Y-138634314D01*
X72822282Y-138604785D01*
X72762339Y-138586602D01*
X72700000Y-138580462D01*
X72421224Y-138580462D01*
X72420400Y-138572098D01*
X72420400Y-138572090D01*
X72413594Y-138502985D01*
X72386696Y-138414315D01*
X72343016Y-138332595D01*
X72336973Y-138325232D01*
X72298964Y-138278918D01*
X72298961Y-138278915D01*
X72284232Y-138260968D01*
X72266285Y-138246239D01*
X71503766Y-137483721D01*
X71489032Y-137465768D01*
X71417405Y-137406984D01*
X71335685Y-137363304D01*
X71247015Y-137336406D01*
X71177910Y-137329600D01*
X71177902Y-137329600D01*
X71154800Y-137327325D01*
X71131698Y-137329600D01*
X67794846Y-137329600D01*
X67520400Y-137055155D01*
X67520400Y-136669538D01*
X67800000Y-136669538D01*
X67862339Y-136663398D01*
X67922282Y-136645215D01*
X67977526Y-136615686D01*
X68025947Y-136575947D01*
X68065686Y-136527526D01*
X68095215Y-136472282D01*
X68113398Y-136412339D01*
X68119538Y-136350000D01*
X68119538Y-135350000D01*
X68113579Y-135289500D01*
X68746558Y-135289500D01*
X69905135Y-136448078D01*
X69932986Y-136482014D01*
X69966919Y-136509862D01*
X69966921Y-136509864D01*
X70068429Y-136593170D01*
X70110554Y-136615686D01*
X70222956Y-136675766D01*
X70390628Y-136726629D01*
X70521311Y-136739500D01*
X70521313Y-136739500D01*
X70565000Y-136743803D01*
X70608687Y-136739500D01*
X70779691Y-136739500D01*
X70793578Y-136756422D01*
X70880677Y-136827901D01*
X70980046Y-136881015D01*
X71087869Y-136913723D01*
X71200000Y-136924767D01*
X72700000Y-136924767D01*
X72812131Y-136913723D01*
X72919954Y-136881015D01*
X73019323Y-136827901D01*
X73106422Y-136756422D01*
X73120309Y-136739500D01*
X73364884Y-136739500D01*
X73380386Y-136755002D01*
X73539585Y-136861375D01*
X73648580Y-136906522D01*
X74910501Y-138168443D01*
X74910500Y-139366510D01*
X74881422Y-139331078D01*
X74794324Y-139259598D01*
X74694954Y-139206484D01*
X74587132Y-139173776D01*
X74475000Y-139162732D01*
X74333000Y-139165500D01*
X74190000Y-139308500D01*
X74190000Y-139985000D01*
X74210000Y-139985000D01*
X74210000Y-140365000D01*
X74190000Y-140365000D01*
X74190000Y-140385000D01*
X73810000Y-140385000D01*
X73810000Y-140365000D01*
X73096000Y-140365000D01*
X72953000Y-140508000D01*
X72950232Y-140612500D01*
X72961276Y-140724632D01*
X72993984Y-140832454D01*
X73047098Y-140931824D01*
X73118578Y-141018922D01*
X73132945Y-141030713D01*
X73083965Y-141090396D01*
X73010636Y-141227584D01*
X72965480Y-141376443D01*
X72950233Y-141531250D01*
X72950233Y-141585170D01*
X72919954Y-141568985D01*
X72812131Y-141536277D01*
X72700000Y-141525233D01*
X71200000Y-141525233D01*
X71087869Y-141536277D01*
X70980046Y-141568985D01*
X70880677Y-141622099D01*
X70793578Y-141693578D01*
X70722099Y-141780677D01*
X70668985Y-141880046D01*
X70636277Y-141987869D01*
X70625233Y-142100000D01*
X70625233Y-143100000D01*
X70636277Y-143212131D01*
X70668985Y-143319954D01*
X70722099Y-143419323D01*
X70793578Y-143506422D01*
X70880677Y-143577901D01*
X70980046Y-143631015D01*
X71060501Y-143655421D01*
X71060501Y-144181557D01*
X70831558Y-144410500D01*
X67592515Y-144410500D01*
X67483522Y-144365354D01*
X67295734Y-144328000D01*
X67104266Y-144328000D01*
X66916478Y-144365354D01*
X66835184Y-144399027D01*
X66819597Y-144347644D01*
X66752622Y-144222341D01*
X66662488Y-144112512D01*
X66552659Y-144022378D01*
X66427356Y-143955403D01*
X66291395Y-143914159D01*
X66150000Y-143900233D01*
X65850000Y-143900233D01*
X65708605Y-143914159D01*
X65572644Y-143955403D01*
X65464147Y-144013395D01*
X65463594Y-144007785D01*
X65436696Y-143919115D01*
X65393016Y-143837395D01*
X65334232Y-143765768D01*
X65316279Y-143751034D01*
X65213766Y-143648521D01*
X65283522Y-143634646D01*
X65460415Y-143561375D01*
X65619614Y-143455002D01*
X65755002Y-143319614D01*
X65861375Y-143160415D01*
X65934646Y-142983522D01*
X65972000Y-142795734D01*
X65972000Y-142604266D01*
X65934646Y-142416478D01*
X65924916Y-142392988D01*
X65980462Y-142289070D01*
X65980462Y-143100000D01*
X65986602Y-143162339D01*
X66004785Y-143222282D01*
X66034314Y-143277526D01*
X66074053Y-143325947D01*
X66122474Y-143365686D01*
X66177718Y-143395215D01*
X66237661Y-143413398D01*
X66300000Y-143419538D01*
X67800000Y-143419538D01*
X67862339Y-143413398D01*
X67922282Y-143395215D01*
X67977526Y-143365686D01*
X68025947Y-143325947D01*
X68065686Y-143277526D01*
X68095215Y-143222282D01*
X68113398Y-143162339D01*
X68119538Y-143100000D01*
X68119538Y-142100000D01*
X68113398Y-142037661D01*
X68095215Y-141977718D01*
X68065686Y-141922474D01*
X68025947Y-141874053D01*
X67977526Y-141834314D01*
X67922282Y-141804785D01*
X67862339Y-141786602D01*
X67800000Y-141780462D01*
X67520400Y-141780462D01*
X67520400Y-141573100D01*
X67522675Y-141550001D01*
X67520400Y-141526902D01*
X67520400Y-141526892D01*
X67513594Y-141457787D01*
X67486696Y-141369117D01*
X67443016Y-141287397D01*
X67430934Y-141272675D01*
X67398964Y-141233720D01*
X67398961Y-141233717D01*
X67384232Y-141215770D01*
X67366285Y-141201041D01*
X67018000Y-140852756D01*
X67018000Y-140729285D01*
X66990408Y-140590569D01*
X66936283Y-140459902D01*
X66857707Y-140342304D01*
X66852202Y-140336799D01*
X66860000Y-140329000D01*
X66860000Y-139590000D01*
X67240000Y-139590000D01*
X67240000Y-140329000D01*
X67383000Y-140472000D01*
X67800000Y-140474768D01*
X67912132Y-140463724D01*
X68019954Y-140431016D01*
X68119324Y-140377902D01*
X68206422Y-140306422D01*
X68277902Y-140219324D01*
X68331016Y-140119954D01*
X68363724Y-140012132D01*
X68374768Y-139900000D01*
X68372000Y-139733000D01*
X68229000Y-139590000D01*
X67240000Y-139590000D01*
X66860000Y-139590000D01*
X66840000Y-139590000D01*
X66840000Y-139210000D01*
X66860000Y-139210000D01*
X66860000Y-138471000D01*
X67240000Y-138471000D01*
X67240000Y-139210000D01*
X68229000Y-139210000D01*
X68372000Y-139067000D01*
X68374768Y-138900000D01*
X68363724Y-138787868D01*
X68331016Y-138680046D01*
X68277902Y-138580676D01*
X68206422Y-138493578D01*
X68119324Y-138422098D01*
X68019954Y-138368984D01*
X67912132Y-138336276D01*
X67800000Y-138325232D01*
X67383000Y-138328000D01*
X67240000Y-138471000D01*
X66860000Y-138471000D01*
X66717000Y-138328000D01*
X66300000Y-138325232D01*
X66187868Y-138336276D01*
X66080046Y-138368984D01*
X65980676Y-138422098D01*
X65893578Y-138493578D01*
X65822098Y-138580676D01*
X65768984Y-138680046D01*
X65736276Y-138787868D01*
X65725232Y-138900000D01*
X65728000Y-139067000D01*
X65870998Y-139209998D01*
X65728000Y-139209998D01*
X65728000Y-139224147D01*
X65694954Y-139206484D01*
X65587132Y-139173776D01*
X65475000Y-139162732D01*
X65333000Y-139165500D01*
X65190000Y-139308500D01*
X65190000Y-139985000D01*
X65210000Y-139985000D01*
X65210000Y-140365000D01*
X65190000Y-140365000D01*
X65190000Y-140385000D01*
X64810000Y-140385000D01*
X64810000Y-140365000D01*
X64118073Y-140365000D01*
X64102907Y-140342302D01*
X64002898Y-140242293D01*
X63885300Y-140163717D01*
X63881728Y-140162237D01*
X63925947Y-140125947D01*
X63965686Y-140077526D01*
X63995215Y-140022282D01*
X64013398Y-139962339D01*
X64018772Y-139907772D01*
X64096000Y-139985000D01*
X64810000Y-139985000D01*
X64810000Y-139308500D01*
X64667000Y-139165500D01*
X64525000Y-139162732D01*
X64412868Y-139173776D01*
X64305046Y-139206484D01*
X64205676Y-139259598D01*
X64118578Y-139331078D01*
X64047098Y-139418176D01*
X64019538Y-139469737D01*
X64019538Y-138900000D01*
X64013398Y-138837661D01*
X63995215Y-138777718D01*
X63965686Y-138722474D01*
X63925947Y-138674053D01*
X63877526Y-138634314D01*
X63822282Y-138604785D01*
X63762339Y-138586602D01*
X63700000Y-138580462D01*
X62200000Y-138580462D01*
X62137661Y-138586602D01*
X62077718Y-138604785D01*
X62022474Y-138634314D01*
X61974053Y-138674053D01*
X61934314Y-138722474D01*
X61904785Y-138777718D01*
X61886602Y-138837661D01*
X61880462Y-138900000D01*
X61880462Y-139900000D01*
X61886602Y-139962339D01*
X61904785Y-140022282D01*
X61934314Y-140077526D01*
X61974053Y-140125947D01*
X62022474Y-140165686D01*
X62077718Y-140195215D01*
X62137661Y-140213398D01*
X62200000Y-140219538D01*
X62478776Y-140219538D01*
X62486406Y-140297014D01*
X62513305Y-140385685D01*
X62556984Y-140467404D01*
X62601036Y-140521081D01*
X62601040Y-140521085D01*
X62615769Y-140539032D01*
X62633716Y-140553761D01*
X62827200Y-140747245D01*
X62827200Y-140870717D01*
X62854792Y-141009433D01*
X62908917Y-141140100D01*
X62987493Y-141257698D01*
X63087502Y-141357707D01*
X63205100Y-141436283D01*
X63335767Y-141490408D01*
X63474483Y-141518000D01*
X63615917Y-141518000D01*
X63754633Y-141490408D01*
X63885300Y-141436283D01*
X63964819Y-141383150D01*
X63950233Y-141531250D01*
X63950233Y-141585170D01*
X63919954Y-141568985D01*
X63812131Y-141536277D01*
X63700000Y-141525233D01*
X62200000Y-141525233D01*
X62087869Y-141536277D01*
X61980046Y-141568985D01*
X61880677Y-141622099D01*
X61793578Y-141693578D01*
X61722099Y-141780677D01*
X61668985Y-141880046D01*
X61636277Y-141987869D01*
X61625233Y-142100000D01*
X61625233Y-143100000D01*
X61636277Y-143212131D01*
X61668985Y-143319954D01*
X61674141Y-143329600D01*
X60499646Y-143329600D01*
X59453766Y-142283721D01*
X59439032Y-142265768D01*
X59367405Y-142206984D01*
X59285685Y-142163304D01*
X59197015Y-142136406D01*
X59127910Y-142129600D01*
X59127902Y-142129600D01*
X59119538Y-142128776D01*
X59119538Y-142100000D01*
X59113398Y-142037661D01*
X59095215Y-141977718D01*
X59065686Y-141922474D01*
X59025947Y-141874053D01*
X58977526Y-141834314D01*
X58922282Y-141804785D01*
X58862339Y-141786602D01*
X58800000Y-141780462D01*
X57300000Y-141780462D01*
X57237661Y-141786602D01*
X57177718Y-141804785D01*
X57122474Y-141834314D01*
X57074053Y-141874053D01*
X57034314Y-141922474D01*
X57004785Y-141977718D01*
X56986602Y-142037661D01*
X56980462Y-142100000D01*
X56980462Y-143100000D01*
X56986602Y-143162339D01*
X57004785Y-143222282D01*
X57034314Y-143277526D01*
X57074053Y-143325947D01*
X57122474Y-143365686D01*
X57177718Y-143395215D01*
X57237661Y-143413398D01*
X57300000Y-143419538D01*
X58800000Y-143419538D01*
X58862339Y-143413398D01*
X58922282Y-143395215D01*
X58977526Y-143365686D01*
X59025947Y-143325947D01*
X59065686Y-143277526D01*
X59083588Y-143244034D01*
X59955839Y-144116285D01*
X59970568Y-144134232D01*
X59988515Y-144148961D01*
X59988518Y-144148964D01*
X59996436Y-144155462D01*
X60042195Y-144193016D01*
X60123915Y-144236696D01*
X60212585Y-144263594D01*
X60281690Y-144270400D01*
X60281700Y-144270400D01*
X60304799Y-144272675D01*
X60327898Y-144270400D01*
X63163603Y-144270400D01*
X63134601Y-144371648D01*
X63125301Y-144483937D01*
X63128000Y-144917000D01*
X63271000Y-145060000D01*
X63810000Y-145060000D01*
X63810000Y-145040000D01*
X64190000Y-145040000D01*
X64190000Y-145060000D01*
X64210000Y-145060000D01*
X64210000Y-145440000D01*
X64190000Y-145440000D01*
X64190000Y-146454000D01*
X64333000Y-146597000D01*
X64420884Y-146586912D01*
X64528185Y-146552532D01*
X64626717Y-146497879D01*
X64712693Y-146425054D01*
X64782024Y-146337843D01*
X64850000Y-146344538D01*
X65150000Y-146344538D01*
X65241602Y-146335516D01*
X65284244Y-146322581D01*
X65325065Y-146372321D01*
X65265354Y-146516478D01*
X65228000Y-146704266D01*
X65228000Y-146895734D01*
X65265354Y-147083522D01*
X65338625Y-147260415D01*
X65444998Y-147419614D01*
X65580386Y-147555002D01*
X65739585Y-147661375D01*
X65916478Y-147734646D01*
X66104266Y-147772000D01*
X66295734Y-147772000D01*
X66483522Y-147734646D01*
X66660415Y-147661375D01*
X66700000Y-147634925D01*
X66739585Y-147661375D01*
X66916478Y-147734646D01*
X67104266Y-147772000D01*
X67295734Y-147772000D01*
X67483522Y-147734646D01*
X67660415Y-147661375D01*
X67819614Y-147555002D01*
X67836179Y-147538437D01*
X67898091Y-147519656D01*
X68032761Y-147447673D01*
X68150801Y-147350801D01*
X68247673Y-147232761D01*
X68319656Y-147098091D01*
X68363983Y-146951966D01*
X68375200Y-146838075D01*
X68375200Y-146189500D01*
X71156321Y-146189500D01*
X71200000Y-146193802D01*
X71243679Y-146189500D01*
X71243689Y-146189500D01*
X71374372Y-146176629D01*
X71542044Y-146125766D01*
X71696570Y-146043170D01*
X71832014Y-145932014D01*
X71859867Y-145898075D01*
X72548080Y-145209863D01*
X72582014Y-145182014D01*
X72693170Y-145046570D01*
X72775766Y-144892044D01*
X72826629Y-144724372D01*
X72839500Y-144593689D01*
X72839500Y-144593680D01*
X72843802Y-144550001D01*
X72839500Y-144506321D01*
X72839500Y-143655421D01*
X72919954Y-143631015D01*
X73019323Y-143577901D01*
X73106422Y-143506422D01*
X73120309Y-143489500D01*
X73314884Y-143489500D01*
X73380386Y-143555002D01*
X73539585Y-143661375D01*
X73716478Y-143734646D01*
X73904266Y-143772000D01*
X74095734Y-143772000D01*
X74283522Y-143734646D01*
X74460415Y-143661375D01*
X74619614Y-143555002D01*
X74755002Y-143419614D01*
X74861375Y-143260415D01*
X74934646Y-143083522D01*
X74972000Y-142895734D01*
X74972000Y-142704266D01*
X74943614Y-142561564D01*
X75071570Y-142493170D01*
X75207014Y-142382014D01*
X75234867Y-142348075D01*
X76398081Y-141184862D01*
X76432014Y-141157014D01*
X76459864Y-141123079D01*
X76543170Y-141021571D01*
X76622384Y-140873371D01*
X76625766Y-140867044D01*
X76676629Y-140699372D01*
X76689500Y-140568689D01*
X76689500Y-140568687D01*
X76693803Y-140525000D01*
X76689500Y-140481313D01*
X76689500Y-137843679D01*
X76693802Y-137799999D01*
X76689500Y-137756320D01*
X76689500Y-137756311D01*
X76676629Y-137625628D01*
X76625766Y-137457956D01*
X76543170Y-137303430D01*
X76432014Y-137167986D01*
X76398075Y-137140133D01*
X74942686Y-135684744D01*
X74989364Y-135597416D01*
X75034520Y-135448557D01*
X75049767Y-135293750D01*
X75049767Y-134856250D01*
X75034520Y-134701443D01*
X74989364Y-134552584D01*
X74916035Y-134415396D01*
X74867055Y-134355713D01*
X74881422Y-134343922D01*
X74952902Y-134256824D01*
X75006016Y-134157454D01*
X75038724Y-134049632D01*
X75049768Y-133937500D01*
X75047000Y-133833000D01*
X74904000Y-133690000D01*
X74190000Y-133690000D01*
X74190000Y-133710000D01*
X73810000Y-133710000D01*
X73810000Y-133690000D01*
X73096000Y-133690000D01*
X72953000Y-133833000D01*
X72950232Y-133937500D01*
X72961276Y-134049632D01*
X72993984Y-134157454D01*
X73047098Y-134256824D01*
X73118578Y-134343922D01*
X73132945Y-134355713D01*
X73083965Y-134415396D01*
X73010636Y-134552584D01*
X72965480Y-134701443D01*
X72952205Y-134836224D01*
X72919954Y-134818985D01*
X72812131Y-134786277D01*
X72700000Y-134775233D01*
X71200000Y-134775233D01*
X71087869Y-134786277D01*
X70980046Y-134818985D01*
X70880677Y-134872099D01*
X70861104Y-134888162D01*
X69774867Y-133801925D01*
X69747014Y-133767986D01*
X69611570Y-133656830D01*
X69457044Y-133574234D01*
X69289372Y-133523371D01*
X69158689Y-133510500D01*
X69158679Y-133510500D01*
X69115000Y-133506198D01*
X69071321Y-133510500D01*
X68244109Y-133510500D01*
X68277902Y-133469324D01*
X68331016Y-133369954D01*
X68363724Y-133262132D01*
X68374768Y-133150000D01*
X68372000Y-132983000D01*
X68229000Y-132840000D01*
X67240000Y-132840000D01*
X67240000Y-132860000D01*
X66860000Y-132860000D01*
X66860000Y-132840000D01*
X66840000Y-132840000D01*
X66840000Y-132460000D01*
X66860000Y-132460000D01*
X66860000Y-132440000D01*
X67240000Y-132440000D01*
X67240000Y-132460000D01*
X68229000Y-132460000D01*
X68372000Y-132317000D01*
X68374768Y-132150000D01*
X68363724Y-132037868D01*
X68359849Y-132025095D01*
X69301043Y-132966290D01*
X69315768Y-132984232D01*
X69333710Y-132998957D01*
X69333717Y-132998964D01*
X69387395Y-133043016D01*
X69469115Y-133086696D01*
X69557785Y-133113594D01*
X69626890Y-133120400D01*
X69626900Y-133120400D01*
X69649999Y-133122675D01*
X69673098Y-133120400D01*
X70880462Y-133120400D01*
X70880462Y-133150000D01*
X70886602Y-133212339D01*
X70904785Y-133272282D01*
X70934314Y-133327526D01*
X70974053Y-133375947D01*
X71022474Y-133415686D01*
X71077718Y-133445215D01*
X71137661Y-133463398D01*
X71200000Y-133469538D01*
X72700000Y-133469538D01*
X72762339Y-133463398D01*
X72822282Y-133445215D01*
X72877526Y-133415686D01*
X72925947Y-133375947D01*
X72965686Y-133327526D01*
X72995215Y-133272282D01*
X73009893Y-133223893D01*
X73096000Y-133310000D01*
X73810000Y-133310000D01*
X73810000Y-132633500D01*
X74190000Y-132633500D01*
X74190000Y-133310000D01*
X74904000Y-133310000D01*
X75047000Y-133167000D01*
X75049768Y-133062500D01*
X75038724Y-132950368D01*
X75006016Y-132842546D01*
X74952902Y-132743176D01*
X74881422Y-132656078D01*
X74794324Y-132584598D01*
X74694954Y-132531484D01*
X74587132Y-132498776D01*
X74475000Y-132487732D01*
X74333000Y-132490500D01*
X74190000Y-132633500D01*
X73810000Y-132633500D01*
X73667000Y-132490500D01*
X73525000Y-132487732D01*
X73412868Y-132498776D01*
X73305046Y-132531484D01*
X73205676Y-132584598D01*
X73118578Y-132656078D01*
X73047098Y-132743176D01*
X73019538Y-132794737D01*
X73019538Y-132150000D01*
X73013398Y-132087661D01*
X72995215Y-132027718D01*
X72965686Y-131972474D01*
X72925947Y-131924053D01*
X72877526Y-131884314D01*
X72822282Y-131854785D01*
X72762339Y-131836602D01*
X72700000Y-131830462D01*
X71200000Y-131830462D01*
X71137661Y-131836602D01*
X71077718Y-131854785D01*
X71022474Y-131884314D01*
X70974053Y-131924053D01*
X70934314Y-131972474D01*
X70904785Y-132027718D01*
X70886602Y-132087661D01*
X70880462Y-132150000D01*
X70880462Y-132179600D01*
X69844847Y-132179600D01*
X68648966Y-130983720D01*
X68634232Y-130965768D01*
X68562605Y-130906984D01*
X68480885Y-130863304D01*
X68392215Y-130836406D01*
X68323110Y-130829600D01*
X68323102Y-130829600D01*
X68300000Y-130827325D01*
X68276898Y-130829600D01*
X61523102Y-130829600D01*
X61500000Y-130827325D01*
X61476898Y-130829600D01*
X61476890Y-130829600D01*
X61407785Y-130836406D01*
X61319114Y-130863304D01*
X61237395Y-130906984D01*
X61183718Y-130951036D01*
X61183715Y-130951039D01*
X61165768Y-130965768D01*
X61151039Y-130983715D01*
X60183716Y-131951039D01*
X60165769Y-131965768D01*
X60151040Y-131983715D01*
X60151036Y-131983719D01*
X60106984Y-132037396D01*
X60063305Y-132119115D01*
X60036406Y-132207786D01*
X60027325Y-132300000D01*
X60029601Y-132323112D01*
X60029600Y-134259954D01*
X59083588Y-135205966D01*
X59065686Y-135172474D01*
X59025947Y-135124053D01*
X58977526Y-135084314D01*
X58922282Y-135054785D01*
X58862339Y-135036602D01*
X58800000Y-135030462D01*
X57300000Y-135030462D01*
X57237661Y-135036602D01*
X57177718Y-135054785D01*
X57122474Y-135084314D01*
X57074053Y-135124053D01*
X57034314Y-135172474D01*
X57004785Y-135227718D01*
X56986602Y-135287661D01*
X56980462Y-135350000D01*
X50343000Y-135350000D01*
X50343000Y-133150000D01*
X56725232Y-133150000D01*
X56736276Y-133262132D01*
X56768984Y-133369954D01*
X56822098Y-133469324D01*
X56893578Y-133556422D01*
X56980676Y-133627902D01*
X57080046Y-133681016D01*
X57187868Y-133713724D01*
X57300000Y-133724768D01*
X57717000Y-133722000D01*
X57860000Y-133579000D01*
X57860000Y-132840000D01*
X58240000Y-132840000D01*
X58240000Y-133579000D01*
X58383000Y-133722000D01*
X58800000Y-133724768D01*
X58912132Y-133713724D01*
X59019954Y-133681016D01*
X59119324Y-133627902D01*
X59206422Y-133556422D01*
X59277902Y-133469324D01*
X59331016Y-133369954D01*
X59363724Y-133262132D01*
X59374768Y-133150000D01*
X59372000Y-132983000D01*
X59229000Y-132840000D01*
X58240000Y-132840000D01*
X57860000Y-132840000D01*
X56871000Y-132840000D01*
X56728000Y-132983000D01*
X56725232Y-133150000D01*
X50343000Y-133150000D01*
X50343000Y-132150000D01*
X56725232Y-132150000D01*
X56728000Y-132317000D01*
X56871000Y-132460000D01*
X57860000Y-132460000D01*
X57860000Y-131721000D01*
X58240000Y-131721000D01*
X58240000Y-132460000D01*
X59229000Y-132460000D01*
X59372000Y-132317000D01*
X59374768Y-132150000D01*
X59363724Y-132037868D01*
X59331016Y-131930046D01*
X59277902Y-131830676D01*
X59206422Y-131743578D01*
X59119324Y-131672098D01*
X59019954Y-131618984D01*
X58912132Y-131586276D01*
X58800000Y-131575232D01*
X58383000Y-131578000D01*
X58240000Y-131721000D01*
X57860000Y-131721000D01*
X57717000Y-131578000D01*
X57300000Y-131575232D01*
X57187868Y-131586276D01*
X57080046Y-131618984D01*
X56980676Y-131672098D01*
X56893578Y-131743578D01*
X56822098Y-131830676D01*
X56768984Y-131930046D01*
X56736276Y-132037868D01*
X56725232Y-132150000D01*
X50343000Y-132150000D01*
X50343000Y-128516776D01*
X50404738Y-127887124D01*
X50582730Y-127297587D01*
X50871838Y-126753853D01*
X51261053Y-126276627D01*
X51735545Y-125884094D01*
X52277246Y-125591196D01*
X52865529Y-125409092D01*
X53494137Y-125343023D01*
X53500618Y-125343000D01*
X74928695Y-125343000D01*
X74833602Y-125382389D01*
M02*
