G04 #@! TF.GenerationSoftware,KiCad,Pcbnew,(5.1.4)-1*
G04 #@! TF.CreationDate,2021-01-17T20:13:50-03:30*
G04 #@! TF.ProjectId,RGB_Breakout,5247425f-4272-4656-916b-6f75742e6b69,V1.0*
G04 #@! TF.SameCoordinates,Original*
G04 #@! TF.FileFunction,Copper,L2,Bot*
G04 #@! TF.FilePolarity,Positive*
%FSLAX46Y46*%
G04 Gerber Fmt 4.6, Leading zero omitted, Abs format (unit mm)*
G04 Created by KiCad (PCBNEW (5.1.4)-1) date 2021-01-17 20:13:50*
%MOMM*%
%LPD*%
G04 APERTURE LIST*
%ADD10C,6.400000*%
%ADD11C,0.800000*%
%ADD12C,0.304800*%
%ADD13C,0.635000*%
%ADD14C,0.128000*%
G04 APERTURE END LIST*
D10*
X76500000Y-128500000D03*
X53500000Y-146500000D03*
D11*
X63545200Y-140800000D03*
X66300000Y-140800002D03*
X69660000Y-147600000D03*
X77800000Y-139480000D03*
X77800000Y-147640001D03*
X52500000Y-127500000D03*
X62600000Y-145300000D03*
X62600000Y-146800000D03*
X63600000Y-146800000D03*
X56400000Y-139400000D03*
X65000000Y-139100000D03*
X74000000Y-139000000D03*
X74000000Y-132300000D03*
X65000000Y-132200000D03*
X56500000Y-132600000D03*
X60660000Y-127500000D03*
X68820000Y-127500000D03*
X52500000Y-135660000D03*
X67200000Y-145300000D03*
X66200000Y-146800000D03*
X67200000Y-146800000D03*
X65000000Y-142700000D03*
X74000000Y-142800000D03*
X74000000Y-136000000D03*
X65000000Y-136000000D03*
D12*
X66299998Y-140800000D02*
X66300000Y-140800002D01*
X63545200Y-140800000D02*
X66299998Y-140800000D01*
D13*
X65000000Y-142700000D02*
X66300000Y-142700000D01*
X67200000Y-143600000D02*
X67200000Y-145300000D01*
X66300000Y-142700000D02*
X67200000Y-143600000D01*
D14*
G36*
X74833602Y-125382389D02*
G01*
X74257406Y-125767391D01*
X73767391Y-126257406D01*
X73382389Y-126833602D01*
X73117195Y-127473837D01*
X72982000Y-128153507D01*
X72982000Y-128846493D01*
X73117195Y-129526163D01*
X73382389Y-130166398D01*
X73767391Y-130742594D01*
X74257406Y-131232609D01*
X74833602Y-131617611D01*
X75473837Y-131882805D01*
X76153507Y-132018000D01*
X76846493Y-132018000D01*
X77526163Y-131882805D01*
X78166398Y-131617611D01*
X78742594Y-131232609D01*
X79232609Y-130742594D01*
X79617611Y-130166398D01*
X79657000Y-130071304D01*
X79657001Y-146483214D01*
X79595262Y-147112876D01*
X79417270Y-147702413D01*
X79128162Y-148246146D01*
X78738947Y-148723373D01*
X78264455Y-149115906D01*
X77722746Y-149408807D01*
X77134470Y-149590908D01*
X76505863Y-149656977D01*
X76499382Y-149657000D01*
X55071305Y-149657000D01*
X55166398Y-149617611D01*
X55742594Y-149232609D01*
X56232609Y-148742594D01*
X56617611Y-148166398D01*
X56882805Y-147526163D01*
X57018000Y-146846493D01*
X57018000Y-146153507D01*
X56882805Y-145473837D01*
X56617611Y-144833602D01*
X56232609Y-144257406D01*
X55742594Y-143767391D01*
X55166398Y-143382389D01*
X54526163Y-143117195D01*
X53846493Y-142982000D01*
X53153507Y-142982000D01*
X52473837Y-143117195D01*
X51833602Y-143382389D01*
X51257406Y-143767391D01*
X50767391Y-144257406D01*
X50382389Y-144833602D01*
X50343000Y-144928695D01*
X50343000Y-142604266D01*
X64028000Y-142604266D01*
X64028000Y-142795734D01*
X64065354Y-142983522D01*
X64138625Y-143160415D01*
X64244998Y-143319614D01*
X64380386Y-143455002D01*
X64539585Y-143561375D01*
X64716478Y-143634646D01*
X64904266Y-143672000D01*
X65095734Y-143672000D01*
X65283522Y-143634646D01*
X65392515Y-143589500D01*
X65931558Y-143589500D01*
X66310500Y-143968443D01*
X66310501Y-144907483D01*
X66265354Y-145016478D01*
X66228000Y-145204266D01*
X66228000Y-145395734D01*
X66265354Y-145583522D01*
X66338625Y-145760415D01*
X66397280Y-145848199D01*
X66295734Y-145828000D01*
X66104266Y-145828000D01*
X65916478Y-145865354D01*
X65739585Y-145938625D01*
X65580386Y-146044998D01*
X65444998Y-146180386D01*
X65338625Y-146339585D01*
X65265354Y-146516478D01*
X65228000Y-146704266D01*
X65228000Y-146895734D01*
X65265354Y-147083522D01*
X65338625Y-147260415D01*
X65444998Y-147419614D01*
X65580386Y-147555002D01*
X65739585Y-147661375D01*
X65916478Y-147734646D01*
X66104266Y-147772000D01*
X66295734Y-147772000D01*
X66483522Y-147734646D01*
X66660415Y-147661375D01*
X66700000Y-147634925D01*
X66739585Y-147661375D01*
X66916478Y-147734646D01*
X67104266Y-147772000D01*
X67295734Y-147772000D01*
X67483522Y-147734646D01*
X67660415Y-147661375D01*
X67819614Y-147555002D01*
X67955002Y-147419614D01*
X68061375Y-147260415D01*
X68134646Y-147083522D01*
X68172000Y-146895734D01*
X68172000Y-146704266D01*
X68134646Y-146516478D01*
X68061375Y-146339585D01*
X67955002Y-146180386D01*
X67824616Y-146050000D01*
X67955002Y-145919614D01*
X68061375Y-145760415D01*
X68134646Y-145583522D01*
X68172000Y-145395734D01*
X68172000Y-145204266D01*
X68134646Y-145016478D01*
X68089500Y-144907485D01*
X68089500Y-143643679D01*
X68093802Y-143599999D01*
X68089500Y-143556320D01*
X68089500Y-143556311D01*
X68076629Y-143425628D01*
X68025766Y-143257956D01*
X67943170Y-143103430D01*
X67832014Y-142967986D01*
X67798081Y-142940138D01*
X67562209Y-142704266D01*
X73028000Y-142704266D01*
X73028000Y-142895734D01*
X73065354Y-143083522D01*
X73138625Y-143260415D01*
X73244998Y-143419614D01*
X73380386Y-143555002D01*
X73539585Y-143661375D01*
X73716478Y-143734646D01*
X73904266Y-143772000D01*
X74095734Y-143772000D01*
X74283522Y-143734646D01*
X74460415Y-143661375D01*
X74619614Y-143555002D01*
X74755002Y-143419614D01*
X74861375Y-143260415D01*
X74934646Y-143083522D01*
X74972000Y-142895734D01*
X74972000Y-142704266D01*
X74934646Y-142516478D01*
X74861375Y-142339585D01*
X74755002Y-142180386D01*
X74619614Y-142044998D01*
X74460415Y-141938625D01*
X74283522Y-141865354D01*
X74095734Y-141828000D01*
X73904266Y-141828000D01*
X73716478Y-141865354D01*
X73539585Y-141938625D01*
X73380386Y-142044998D01*
X73244998Y-142180386D01*
X73138625Y-142339585D01*
X73065354Y-142516478D01*
X73028000Y-142704266D01*
X67562209Y-142704266D01*
X66959867Y-142101925D01*
X66932014Y-142067986D01*
X66796570Y-141956830D01*
X66642044Y-141874234D01*
X66474372Y-141823371D01*
X66343689Y-141810500D01*
X66343679Y-141810500D01*
X66300000Y-141806198D01*
X66256321Y-141810500D01*
X65392515Y-141810500D01*
X65283522Y-141765354D01*
X65095734Y-141728000D01*
X64904266Y-141728000D01*
X64716478Y-141765354D01*
X64539585Y-141838625D01*
X64380386Y-141944998D01*
X64244998Y-142080386D01*
X64138625Y-142239585D01*
X64065354Y-142416478D01*
X64028000Y-142604266D01*
X50343000Y-142604266D01*
X50343000Y-140729283D01*
X62827200Y-140729283D01*
X62827200Y-140870717D01*
X62854792Y-141009433D01*
X62908917Y-141140100D01*
X62987493Y-141257698D01*
X63087502Y-141357707D01*
X63205100Y-141436283D01*
X63335767Y-141490408D01*
X63474483Y-141518000D01*
X63615917Y-141518000D01*
X63754633Y-141490408D01*
X63885300Y-141436283D01*
X64002898Y-141357707D01*
X64090205Y-141270400D01*
X65754993Y-141270400D01*
X65842302Y-141357709D01*
X65959900Y-141436285D01*
X66090567Y-141490410D01*
X66229283Y-141518002D01*
X66370717Y-141518002D01*
X66509433Y-141490410D01*
X66640100Y-141436285D01*
X66757698Y-141357709D01*
X66857707Y-141257700D01*
X66936283Y-141140102D01*
X66990408Y-141009435D01*
X67018000Y-140870719D01*
X67018000Y-140729285D01*
X66990408Y-140590569D01*
X66936283Y-140459902D01*
X66857707Y-140342304D01*
X66757698Y-140242295D01*
X66640100Y-140163719D01*
X66509433Y-140109594D01*
X66370717Y-140082002D01*
X66229283Y-140082002D01*
X66090567Y-140109594D01*
X65959900Y-140163719D01*
X65842302Y-140242295D01*
X65754997Y-140329600D01*
X64090205Y-140329600D01*
X64002898Y-140242293D01*
X63885300Y-140163717D01*
X63754633Y-140109592D01*
X63615917Y-140082000D01*
X63474483Y-140082000D01*
X63335767Y-140109592D01*
X63205100Y-140163717D01*
X63087502Y-140242293D01*
X62987493Y-140342302D01*
X62908917Y-140459900D01*
X62854792Y-140590567D01*
X62827200Y-140729283D01*
X50343000Y-140729283D01*
X50343000Y-135904266D01*
X64028000Y-135904266D01*
X64028000Y-136095734D01*
X64065354Y-136283522D01*
X64138625Y-136460415D01*
X64244998Y-136619614D01*
X64380386Y-136755002D01*
X64539585Y-136861375D01*
X64716478Y-136934646D01*
X64904266Y-136972000D01*
X65095734Y-136972000D01*
X65283522Y-136934646D01*
X65460415Y-136861375D01*
X65619614Y-136755002D01*
X65755002Y-136619614D01*
X65861375Y-136460415D01*
X65934646Y-136283522D01*
X65972000Y-136095734D01*
X65972000Y-135904266D01*
X73028000Y-135904266D01*
X73028000Y-136095734D01*
X73065354Y-136283522D01*
X73138625Y-136460415D01*
X73244998Y-136619614D01*
X73380386Y-136755002D01*
X73539585Y-136861375D01*
X73716478Y-136934646D01*
X73904266Y-136972000D01*
X74095734Y-136972000D01*
X74283522Y-136934646D01*
X74460415Y-136861375D01*
X74619614Y-136755002D01*
X74755002Y-136619614D01*
X74861375Y-136460415D01*
X74934646Y-136283522D01*
X74972000Y-136095734D01*
X74972000Y-135904266D01*
X74934646Y-135716478D01*
X74861375Y-135539585D01*
X74755002Y-135380386D01*
X74619614Y-135244998D01*
X74460415Y-135138625D01*
X74283522Y-135065354D01*
X74095734Y-135028000D01*
X73904266Y-135028000D01*
X73716478Y-135065354D01*
X73539585Y-135138625D01*
X73380386Y-135244998D01*
X73244998Y-135380386D01*
X73138625Y-135539585D01*
X73065354Y-135716478D01*
X73028000Y-135904266D01*
X65972000Y-135904266D01*
X65934646Y-135716478D01*
X65861375Y-135539585D01*
X65755002Y-135380386D01*
X65619614Y-135244998D01*
X65460415Y-135138625D01*
X65283522Y-135065354D01*
X65095734Y-135028000D01*
X64904266Y-135028000D01*
X64716478Y-135065354D01*
X64539585Y-135138625D01*
X64380386Y-135244998D01*
X64244998Y-135380386D01*
X64138625Y-135539585D01*
X64065354Y-135716478D01*
X64028000Y-135904266D01*
X50343000Y-135904266D01*
X50343000Y-128516776D01*
X50404738Y-127887124D01*
X50582730Y-127297587D01*
X50871838Y-126753853D01*
X51261053Y-126276627D01*
X51735545Y-125884094D01*
X52277246Y-125591196D01*
X52865529Y-125409092D01*
X53494137Y-125343023D01*
X53500618Y-125343000D01*
X74928695Y-125343000D01*
X74833602Y-125382389D01*
X74833602Y-125382389D01*
G37*
X74833602Y-125382389D02*
X74257406Y-125767391D01*
X73767391Y-126257406D01*
X73382389Y-126833602D01*
X73117195Y-127473837D01*
X72982000Y-128153507D01*
X72982000Y-128846493D01*
X73117195Y-129526163D01*
X73382389Y-130166398D01*
X73767391Y-130742594D01*
X74257406Y-131232609D01*
X74833602Y-131617611D01*
X75473837Y-131882805D01*
X76153507Y-132018000D01*
X76846493Y-132018000D01*
X77526163Y-131882805D01*
X78166398Y-131617611D01*
X78742594Y-131232609D01*
X79232609Y-130742594D01*
X79617611Y-130166398D01*
X79657000Y-130071304D01*
X79657001Y-146483214D01*
X79595262Y-147112876D01*
X79417270Y-147702413D01*
X79128162Y-148246146D01*
X78738947Y-148723373D01*
X78264455Y-149115906D01*
X77722746Y-149408807D01*
X77134470Y-149590908D01*
X76505863Y-149656977D01*
X76499382Y-149657000D01*
X55071305Y-149657000D01*
X55166398Y-149617611D01*
X55742594Y-149232609D01*
X56232609Y-148742594D01*
X56617611Y-148166398D01*
X56882805Y-147526163D01*
X57018000Y-146846493D01*
X57018000Y-146153507D01*
X56882805Y-145473837D01*
X56617611Y-144833602D01*
X56232609Y-144257406D01*
X55742594Y-143767391D01*
X55166398Y-143382389D01*
X54526163Y-143117195D01*
X53846493Y-142982000D01*
X53153507Y-142982000D01*
X52473837Y-143117195D01*
X51833602Y-143382389D01*
X51257406Y-143767391D01*
X50767391Y-144257406D01*
X50382389Y-144833602D01*
X50343000Y-144928695D01*
X50343000Y-142604266D01*
X64028000Y-142604266D01*
X64028000Y-142795734D01*
X64065354Y-142983522D01*
X64138625Y-143160415D01*
X64244998Y-143319614D01*
X64380386Y-143455002D01*
X64539585Y-143561375D01*
X64716478Y-143634646D01*
X64904266Y-143672000D01*
X65095734Y-143672000D01*
X65283522Y-143634646D01*
X65392515Y-143589500D01*
X65931558Y-143589500D01*
X66310500Y-143968443D01*
X66310501Y-144907483D01*
X66265354Y-145016478D01*
X66228000Y-145204266D01*
X66228000Y-145395734D01*
X66265354Y-145583522D01*
X66338625Y-145760415D01*
X66397280Y-145848199D01*
X66295734Y-145828000D01*
X66104266Y-145828000D01*
X65916478Y-145865354D01*
X65739585Y-145938625D01*
X65580386Y-146044998D01*
X65444998Y-146180386D01*
X65338625Y-146339585D01*
X65265354Y-146516478D01*
X65228000Y-146704266D01*
X65228000Y-146895734D01*
X65265354Y-147083522D01*
X65338625Y-147260415D01*
X65444998Y-147419614D01*
X65580386Y-147555002D01*
X65739585Y-147661375D01*
X65916478Y-147734646D01*
X66104266Y-147772000D01*
X66295734Y-147772000D01*
X66483522Y-147734646D01*
X66660415Y-147661375D01*
X66700000Y-147634925D01*
X66739585Y-147661375D01*
X66916478Y-147734646D01*
X67104266Y-147772000D01*
X67295734Y-147772000D01*
X67483522Y-147734646D01*
X67660415Y-147661375D01*
X67819614Y-147555002D01*
X67955002Y-147419614D01*
X68061375Y-147260415D01*
X68134646Y-147083522D01*
X68172000Y-146895734D01*
X68172000Y-146704266D01*
X68134646Y-146516478D01*
X68061375Y-146339585D01*
X67955002Y-146180386D01*
X67824616Y-146050000D01*
X67955002Y-145919614D01*
X68061375Y-145760415D01*
X68134646Y-145583522D01*
X68172000Y-145395734D01*
X68172000Y-145204266D01*
X68134646Y-145016478D01*
X68089500Y-144907485D01*
X68089500Y-143643679D01*
X68093802Y-143599999D01*
X68089500Y-143556320D01*
X68089500Y-143556311D01*
X68076629Y-143425628D01*
X68025766Y-143257956D01*
X67943170Y-143103430D01*
X67832014Y-142967986D01*
X67798081Y-142940138D01*
X67562209Y-142704266D01*
X73028000Y-142704266D01*
X73028000Y-142895734D01*
X73065354Y-143083522D01*
X73138625Y-143260415D01*
X73244998Y-143419614D01*
X73380386Y-143555002D01*
X73539585Y-143661375D01*
X73716478Y-143734646D01*
X73904266Y-143772000D01*
X74095734Y-143772000D01*
X74283522Y-143734646D01*
X74460415Y-143661375D01*
X74619614Y-143555002D01*
X74755002Y-143419614D01*
X74861375Y-143260415D01*
X74934646Y-143083522D01*
X74972000Y-142895734D01*
X74972000Y-142704266D01*
X74934646Y-142516478D01*
X74861375Y-142339585D01*
X74755002Y-142180386D01*
X74619614Y-142044998D01*
X74460415Y-141938625D01*
X74283522Y-141865354D01*
X74095734Y-141828000D01*
X73904266Y-141828000D01*
X73716478Y-141865354D01*
X73539585Y-141938625D01*
X73380386Y-142044998D01*
X73244998Y-142180386D01*
X73138625Y-142339585D01*
X73065354Y-142516478D01*
X73028000Y-142704266D01*
X67562209Y-142704266D01*
X66959867Y-142101925D01*
X66932014Y-142067986D01*
X66796570Y-141956830D01*
X66642044Y-141874234D01*
X66474372Y-141823371D01*
X66343689Y-141810500D01*
X66343679Y-141810500D01*
X66300000Y-141806198D01*
X66256321Y-141810500D01*
X65392515Y-141810500D01*
X65283522Y-141765354D01*
X65095734Y-141728000D01*
X64904266Y-141728000D01*
X64716478Y-141765354D01*
X64539585Y-141838625D01*
X64380386Y-141944998D01*
X64244998Y-142080386D01*
X64138625Y-142239585D01*
X64065354Y-142416478D01*
X64028000Y-142604266D01*
X50343000Y-142604266D01*
X50343000Y-140729283D01*
X62827200Y-140729283D01*
X62827200Y-140870717D01*
X62854792Y-141009433D01*
X62908917Y-141140100D01*
X62987493Y-141257698D01*
X63087502Y-141357707D01*
X63205100Y-141436283D01*
X63335767Y-141490408D01*
X63474483Y-141518000D01*
X63615917Y-141518000D01*
X63754633Y-141490408D01*
X63885300Y-141436283D01*
X64002898Y-141357707D01*
X64090205Y-141270400D01*
X65754993Y-141270400D01*
X65842302Y-141357709D01*
X65959900Y-141436285D01*
X66090567Y-141490410D01*
X66229283Y-141518002D01*
X66370717Y-141518002D01*
X66509433Y-141490410D01*
X66640100Y-141436285D01*
X66757698Y-141357709D01*
X66857707Y-141257700D01*
X66936283Y-141140102D01*
X66990408Y-141009435D01*
X67018000Y-140870719D01*
X67018000Y-140729285D01*
X66990408Y-140590569D01*
X66936283Y-140459902D01*
X66857707Y-140342304D01*
X66757698Y-140242295D01*
X66640100Y-140163719D01*
X66509433Y-140109594D01*
X66370717Y-140082002D01*
X66229283Y-140082002D01*
X66090567Y-140109594D01*
X65959900Y-140163719D01*
X65842302Y-140242295D01*
X65754997Y-140329600D01*
X64090205Y-140329600D01*
X64002898Y-140242293D01*
X63885300Y-140163717D01*
X63754633Y-140109592D01*
X63615917Y-140082000D01*
X63474483Y-140082000D01*
X63335767Y-140109592D01*
X63205100Y-140163717D01*
X63087502Y-140242293D01*
X62987493Y-140342302D01*
X62908917Y-140459900D01*
X62854792Y-140590567D01*
X62827200Y-140729283D01*
X50343000Y-140729283D01*
X50343000Y-135904266D01*
X64028000Y-135904266D01*
X64028000Y-136095734D01*
X64065354Y-136283522D01*
X64138625Y-136460415D01*
X64244998Y-136619614D01*
X64380386Y-136755002D01*
X64539585Y-136861375D01*
X64716478Y-136934646D01*
X64904266Y-136972000D01*
X65095734Y-136972000D01*
X65283522Y-136934646D01*
X65460415Y-136861375D01*
X65619614Y-136755002D01*
X65755002Y-136619614D01*
X65861375Y-136460415D01*
X65934646Y-136283522D01*
X65972000Y-136095734D01*
X65972000Y-135904266D01*
X73028000Y-135904266D01*
X73028000Y-136095734D01*
X73065354Y-136283522D01*
X73138625Y-136460415D01*
X73244998Y-136619614D01*
X73380386Y-136755002D01*
X73539585Y-136861375D01*
X73716478Y-136934646D01*
X73904266Y-136972000D01*
X74095734Y-136972000D01*
X74283522Y-136934646D01*
X74460415Y-136861375D01*
X74619614Y-136755002D01*
X74755002Y-136619614D01*
X74861375Y-136460415D01*
X74934646Y-136283522D01*
X74972000Y-136095734D01*
X74972000Y-135904266D01*
X74934646Y-135716478D01*
X74861375Y-135539585D01*
X74755002Y-135380386D01*
X74619614Y-135244998D01*
X74460415Y-135138625D01*
X74283522Y-135065354D01*
X74095734Y-135028000D01*
X73904266Y-135028000D01*
X73716478Y-135065354D01*
X73539585Y-135138625D01*
X73380386Y-135244998D01*
X73244998Y-135380386D01*
X73138625Y-135539585D01*
X73065354Y-135716478D01*
X73028000Y-135904266D01*
X65972000Y-135904266D01*
X65934646Y-135716478D01*
X65861375Y-135539585D01*
X65755002Y-135380386D01*
X65619614Y-135244998D01*
X65460415Y-135138625D01*
X65283522Y-135065354D01*
X65095734Y-135028000D01*
X64904266Y-135028000D01*
X64716478Y-135065354D01*
X64539585Y-135138625D01*
X64380386Y-135244998D01*
X64244998Y-135380386D01*
X64138625Y-135539585D01*
X64065354Y-135716478D01*
X64028000Y-135904266D01*
X50343000Y-135904266D01*
X50343000Y-128516776D01*
X50404738Y-127887124D01*
X50582730Y-127297587D01*
X50871838Y-126753853D01*
X51261053Y-126276627D01*
X51735545Y-125884094D01*
X52277246Y-125591196D01*
X52865529Y-125409092D01*
X53494137Y-125343023D01*
X53500618Y-125343000D01*
X74928695Y-125343000D01*
X74833602Y-125382389D01*
M02*
