M48
; DRILL file {KiCad (5.1.4)-1} date 2021-01-17 8:13:53 PM
; FORMAT={-:-/ absolute / inch / decimal}
; #@! TF.CreationDate,2021-01-17T20:13:53-03:30
; #@! TF.GenerationSoftware,Kicad,Pcbnew,(5.1.4)-1
; #@! TF.FileFunction,Plated,1,2,PTH
FMAT,2
INCH
T1C0.0157
T2C0.1260
%
G90
G05
T1
X2.0669Y-5.0197
X2.0669Y-5.3409
X2.2205Y-5.4882
X2.2244Y-5.2205
X2.3882Y-5.0197
X2.4646Y-5.7205
X2.4646Y-5.7795
X2.5018Y-5.5433
X2.5039Y-5.7795
X2.5591Y-5.2047
X2.5591Y-5.3543
X2.5591Y-5.4764
X2.5591Y-5.6181
X2.6063Y-5.7795
X2.6102Y-5.5433
X2.6457Y-5.7205
X2.6457Y-5.7795
X2.7094Y-5.0197
X2.7425Y-5.811
X2.9134Y-5.2087
X2.9134Y-5.3543
X2.9134Y-5.4724
X2.9134Y-5.622
X3.063Y-5.4913
X3.063Y-5.8126
T2
X2.1063Y-5.7677
X3.0118Y-5.0591
T0
M30
