G04 #@! TF.GenerationSoftware,KiCad,Pcbnew,(5.1.4)-1*
G04 #@! TF.CreationDate,2021-01-17T18:18:24-03:30*
G04 #@! TF.ProjectId,RGB_Breakout,5247425f-4272-4656-916b-6f75742e6b69,V1.0*
G04 #@! TF.SameCoordinates,Original*
G04 #@! TF.FileFunction,Paste,Top*
G04 #@! TF.FilePolarity,Positive*
%FSLAX46Y46*%
G04 Gerber Fmt 4.6, Leading zero omitted, Abs format (unit mm)*
G04 Created by KiCad (PCBNEW (5.1.4)-1) date 2021-01-17 18:18:24*
%MOMM*%
%LPD*%
G04 APERTURE LIST*
%ADD10C,0.100000*%
%ADD11C,0.875000*%
%ADD12C,0.600000*%
%ADD13C,1.200000*%
%ADD14R,1.500000X1.000000*%
G04 APERTURE END LIST*
D10*
G36*
X65277691Y-141313553D02*
G01*
X65298926Y-141316703D01*
X65319750Y-141321919D01*
X65339962Y-141329151D01*
X65359368Y-141338330D01*
X65377781Y-141349366D01*
X65395024Y-141362154D01*
X65410930Y-141376570D01*
X65425346Y-141392476D01*
X65438134Y-141409719D01*
X65449170Y-141428132D01*
X65458349Y-141447538D01*
X65465581Y-141467750D01*
X65470797Y-141488574D01*
X65473947Y-141509809D01*
X65475000Y-141531250D01*
X65475000Y-141968750D01*
X65473947Y-141990191D01*
X65470797Y-142011426D01*
X65465581Y-142032250D01*
X65458349Y-142052462D01*
X65449170Y-142071868D01*
X65438134Y-142090281D01*
X65425346Y-142107524D01*
X65410930Y-142123430D01*
X65395024Y-142137846D01*
X65377781Y-142150634D01*
X65359368Y-142161670D01*
X65339962Y-142170849D01*
X65319750Y-142178081D01*
X65298926Y-142183297D01*
X65277691Y-142186447D01*
X65256250Y-142187500D01*
X64743750Y-142187500D01*
X64722309Y-142186447D01*
X64701074Y-142183297D01*
X64680250Y-142178081D01*
X64660038Y-142170849D01*
X64640632Y-142161670D01*
X64622219Y-142150634D01*
X64604976Y-142137846D01*
X64589070Y-142123430D01*
X64574654Y-142107524D01*
X64561866Y-142090281D01*
X64550830Y-142071868D01*
X64541651Y-142052462D01*
X64534419Y-142032250D01*
X64529203Y-142011426D01*
X64526053Y-141990191D01*
X64525000Y-141968750D01*
X64525000Y-141531250D01*
X64526053Y-141509809D01*
X64529203Y-141488574D01*
X64534419Y-141467750D01*
X64541651Y-141447538D01*
X64550830Y-141428132D01*
X64561866Y-141409719D01*
X64574654Y-141392476D01*
X64589070Y-141376570D01*
X64604976Y-141362154D01*
X64622219Y-141349366D01*
X64640632Y-141338330D01*
X64660038Y-141329151D01*
X64680250Y-141321919D01*
X64701074Y-141316703D01*
X64722309Y-141313553D01*
X64743750Y-141312500D01*
X65256250Y-141312500D01*
X65277691Y-141313553D01*
X65277691Y-141313553D01*
G37*
D11*
X65000000Y-141750000D03*
D10*
G36*
X65277691Y-139738553D02*
G01*
X65298926Y-139741703D01*
X65319750Y-139746919D01*
X65339962Y-139754151D01*
X65359368Y-139763330D01*
X65377781Y-139774366D01*
X65395024Y-139787154D01*
X65410930Y-139801570D01*
X65425346Y-139817476D01*
X65438134Y-139834719D01*
X65449170Y-139853132D01*
X65458349Y-139872538D01*
X65465581Y-139892750D01*
X65470797Y-139913574D01*
X65473947Y-139934809D01*
X65475000Y-139956250D01*
X65475000Y-140393750D01*
X65473947Y-140415191D01*
X65470797Y-140436426D01*
X65465581Y-140457250D01*
X65458349Y-140477462D01*
X65449170Y-140496868D01*
X65438134Y-140515281D01*
X65425346Y-140532524D01*
X65410930Y-140548430D01*
X65395024Y-140562846D01*
X65377781Y-140575634D01*
X65359368Y-140586670D01*
X65339962Y-140595849D01*
X65319750Y-140603081D01*
X65298926Y-140608297D01*
X65277691Y-140611447D01*
X65256250Y-140612500D01*
X64743750Y-140612500D01*
X64722309Y-140611447D01*
X64701074Y-140608297D01*
X64680250Y-140603081D01*
X64660038Y-140595849D01*
X64640632Y-140586670D01*
X64622219Y-140575634D01*
X64604976Y-140562846D01*
X64589070Y-140548430D01*
X64574654Y-140532524D01*
X64561866Y-140515281D01*
X64550830Y-140496868D01*
X64541651Y-140477462D01*
X64534419Y-140457250D01*
X64529203Y-140436426D01*
X64526053Y-140415191D01*
X64525000Y-140393750D01*
X64525000Y-139956250D01*
X64526053Y-139934809D01*
X64529203Y-139913574D01*
X64534419Y-139892750D01*
X64541651Y-139872538D01*
X64550830Y-139853132D01*
X64561866Y-139834719D01*
X64574654Y-139817476D01*
X64589070Y-139801570D01*
X64604976Y-139787154D01*
X64622219Y-139774366D01*
X64640632Y-139763330D01*
X64660038Y-139754151D01*
X64680250Y-139746919D01*
X64701074Y-139741703D01*
X64722309Y-139738553D01*
X64743750Y-139737500D01*
X65256250Y-139737500D01*
X65277691Y-139738553D01*
X65277691Y-139738553D01*
G37*
D11*
X65000000Y-140175000D03*
D10*
G36*
X74277691Y-139738553D02*
G01*
X74298926Y-139741703D01*
X74319750Y-139746919D01*
X74339962Y-139754151D01*
X74359368Y-139763330D01*
X74377781Y-139774366D01*
X74395024Y-139787154D01*
X74410930Y-139801570D01*
X74425346Y-139817476D01*
X74438134Y-139834719D01*
X74449170Y-139853132D01*
X74458349Y-139872538D01*
X74465581Y-139892750D01*
X74470797Y-139913574D01*
X74473947Y-139934809D01*
X74475000Y-139956250D01*
X74475000Y-140393750D01*
X74473947Y-140415191D01*
X74470797Y-140436426D01*
X74465581Y-140457250D01*
X74458349Y-140477462D01*
X74449170Y-140496868D01*
X74438134Y-140515281D01*
X74425346Y-140532524D01*
X74410930Y-140548430D01*
X74395024Y-140562846D01*
X74377781Y-140575634D01*
X74359368Y-140586670D01*
X74339962Y-140595849D01*
X74319750Y-140603081D01*
X74298926Y-140608297D01*
X74277691Y-140611447D01*
X74256250Y-140612500D01*
X73743750Y-140612500D01*
X73722309Y-140611447D01*
X73701074Y-140608297D01*
X73680250Y-140603081D01*
X73660038Y-140595849D01*
X73640632Y-140586670D01*
X73622219Y-140575634D01*
X73604976Y-140562846D01*
X73589070Y-140548430D01*
X73574654Y-140532524D01*
X73561866Y-140515281D01*
X73550830Y-140496868D01*
X73541651Y-140477462D01*
X73534419Y-140457250D01*
X73529203Y-140436426D01*
X73526053Y-140415191D01*
X73525000Y-140393750D01*
X73525000Y-139956250D01*
X73526053Y-139934809D01*
X73529203Y-139913574D01*
X73534419Y-139892750D01*
X73541651Y-139872538D01*
X73550830Y-139853132D01*
X73561866Y-139834719D01*
X73574654Y-139817476D01*
X73589070Y-139801570D01*
X73604976Y-139787154D01*
X73622219Y-139774366D01*
X73640632Y-139763330D01*
X73660038Y-139754151D01*
X73680250Y-139746919D01*
X73701074Y-139741703D01*
X73722309Y-139738553D01*
X73743750Y-139737500D01*
X74256250Y-139737500D01*
X74277691Y-139738553D01*
X74277691Y-139738553D01*
G37*
D11*
X74000000Y-140175000D03*
D10*
G36*
X74277691Y-141313553D02*
G01*
X74298926Y-141316703D01*
X74319750Y-141321919D01*
X74339962Y-141329151D01*
X74359368Y-141338330D01*
X74377781Y-141349366D01*
X74395024Y-141362154D01*
X74410930Y-141376570D01*
X74425346Y-141392476D01*
X74438134Y-141409719D01*
X74449170Y-141428132D01*
X74458349Y-141447538D01*
X74465581Y-141467750D01*
X74470797Y-141488574D01*
X74473947Y-141509809D01*
X74475000Y-141531250D01*
X74475000Y-141968750D01*
X74473947Y-141990191D01*
X74470797Y-142011426D01*
X74465581Y-142032250D01*
X74458349Y-142052462D01*
X74449170Y-142071868D01*
X74438134Y-142090281D01*
X74425346Y-142107524D01*
X74410930Y-142123430D01*
X74395024Y-142137846D01*
X74377781Y-142150634D01*
X74359368Y-142161670D01*
X74339962Y-142170849D01*
X74319750Y-142178081D01*
X74298926Y-142183297D01*
X74277691Y-142186447D01*
X74256250Y-142187500D01*
X73743750Y-142187500D01*
X73722309Y-142186447D01*
X73701074Y-142183297D01*
X73680250Y-142178081D01*
X73660038Y-142170849D01*
X73640632Y-142161670D01*
X73622219Y-142150634D01*
X73604976Y-142137846D01*
X73589070Y-142123430D01*
X73574654Y-142107524D01*
X73561866Y-142090281D01*
X73550830Y-142071868D01*
X73541651Y-142052462D01*
X73534419Y-142032250D01*
X73529203Y-142011426D01*
X73526053Y-141990191D01*
X73525000Y-141968750D01*
X73525000Y-141531250D01*
X73526053Y-141509809D01*
X73529203Y-141488574D01*
X73534419Y-141467750D01*
X73541651Y-141447538D01*
X73550830Y-141428132D01*
X73561866Y-141409719D01*
X73574654Y-141392476D01*
X73589070Y-141376570D01*
X73604976Y-141362154D01*
X73622219Y-141349366D01*
X73640632Y-141338330D01*
X73660038Y-141329151D01*
X73680250Y-141321919D01*
X73701074Y-141316703D01*
X73722309Y-141313553D01*
X73743750Y-141312500D01*
X74256250Y-141312500D01*
X74277691Y-141313553D01*
X74277691Y-141313553D01*
G37*
D11*
X74000000Y-141750000D03*
D10*
G36*
X74277691Y-134638553D02*
G01*
X74298926Y-134641703D01*
X74319750Y-134646919D01*
X74339962Y-134654151D01*
X74359368Y-134663330D01*
X74377781Y-134674366D01*
X74395024Y-134687154D01*
X74410930Y-134701570D01*
X74425346Y-134717476D01*
X74438134Y-134734719D01*
X74449170Y-134753132D01*
X74458349Y-134772538D01*
X74465581Y-134792750D01*
X74470797Y-134813574D01*
X74473947Y-134834809D01*
X74475000Y-134856250D01*
X74475000Y-135293750D01*
X74473947Y-135315191D01*
X74470797Y-135336426D01*
X74465581Y-135357250D01*
X74458349Y-135377462D01*
X74449170Y-135396868D01*
X74438134Y-135415281D01*
X74425346Y-135432524D01*
X74410930Y-135448430D01*
X74395024Y-135462846D01*
X74377781Y-135475634D01*
X74359368Y-135486670D01*
X74339962Y-135495849D01*
X74319750Y-135503081D01*
X74298926Y-135508297D01*
X74277691Y-135511447D01*
X74256250Y-135512500D01*
X73743750Y-135512500D01*
X73722309Y-135511447D01*
X73701074Y-135508297D01*
X73680250Y-135503081D01*
X73660038Y-135495849D01*
X73640632Y-135486670D01*
X73622219Y-135475634D01*
X73604976Y-135462846D01*
X73589070Y-135448430D01*
X73574654Y-135432524D01*
X73561866Y-135415281D01*
X73550830Y-135396868D01*
X73541651Y-135377462D01*
X73534419Y-135357250D01*
X73529203Y-135336426D01*
X73526053Y-135315191D01*
X73525000Y-135293750D01*
X73525000Y-134856250D01*
X73526053Y-134834809D01*
X73529203Y-134813574D01*
X73534419Y-134792750D01*
X73541651Y-134772538D01*
X73550830Y-134753132D01*
X73561866Y-134734719D01*
X73574654Y-134717476D01*
X73589070Y-134701570D01*
X73604976Y-134687154D01*
X73622219Y-134674366D01*
X73640632Y-134663330D01*
X73660038Y-134654151D01*
X73680250Y-134646919D01*
X73701074Y-134641703D01*
X73722309Y-134638553D01*
X73743750Y-134637500D01*
X74256250Y-134637500D01*
X74277691Y-134638553D01*
X74277691Y-134638553D01*
G37*
D11*
X74000000Y-135075000D03*
D10*
G36*
X74277691Y-133063553D02*
G01*
X74298926Y-133066703D01*
X74319750Y-133071919D01*
X74339962Y-133079151D01*
X74359368Y-133088330D01*
X74377781Y-133099366D01*
X74395024Y-133112154D01*
X74410930Y-133126570D01*
X74425346Y-133142476D01*
X74438134Y-133159719D01*
X74449170Y-133178132D01*
X74458349Y-133197538D01*
X74465581Y-133217750D01*
X74470797Y-133238574D01*
X74473947Y-133259809D01*
X74475000Y-133281250D01*
X74475000Y-133718750D01*
X74473947Y-133740191D01*
X74470797Y-133761426D01*
X74465581Y-133782250D01*
X74458349Y-133802462D01*
X74449170Y-133821868D01*
X74438134Y-133840281D01*
X74425346Y-133857524D01*
X74410930Y-133873430D01*
X74395024Y-133887846D01*
X74377781Y-133900634D01*
X74359368Y-133911670D01*
X74339962Y-133920849D01*
X74319750Y-133928081D01*
X74298926Y-133933297D01*
X74277691Y-133936447D01*
X74256250Y-133937500D01*
X73743750Y-133937500D01*
X73722309Y-133936447D01*
X73701074Y-133933297D01*
X73680250Y-133928081D01*
X73660038Y-133920849D01*
X73640632Y-133911670D01*
X73622219Y-133900634D01*
X73604976Y-133887846D01*
X73589070Y-133873430D01*
X73574654Y-133857524D01*
X73561866Y-133840281D01*
X73550830Y-133821868D01*
X73541651Y-133802462D01*
X73534419Y-133782250D01*
X73529203Y-133761426D01*
X73526053Y-133740191D01*
X73525000Y-133718750D01*
X73525000Y-133281250D01*
X73526053Y-133259809D01*
X73529203Y-133238574D01*
X73534419Y-133217750D01*
X73541651Y-133197538D01*
X73550830Y-133178132D01*
X73561866Y-133159719D01*
X73574654Y-133142476D01*
X73589070Y-133126570D01*
X73604976Y-133112154D01*
X73622219Y-133099366D01*
X73640632Y-133088330D01*
X73660038Y-133079151D01*
X73680250Y-133071919D01*
X73701074Y-133066703D01*
X73722309Y-133063553D01*
X73743750Y-133062500D01*
X74256250Y-133062500D01*
X74277691Y-133063553D01*
X74277691Y-133063553D01*
G37*
D11*
X74000000Y-133500000D03*
D10*
G36*
X65277691Y-133026053D02*
G01*
X65298926Y-133029203D01*
X65319750Y-133034419D01*
X65339962Y-133041651D01*
X65359368Y-133050830D01*
X65377781Y-133061866D01*
X65395024Y-133074654D01*
X65410930Y-133089070D01*
X65425346Y-133104976D01*
X65438134Y-133122219D01*
X65449170Y-133140632D01*
X65458349Y-133160038D01*
X65465581Y-133180250D01*
X65470797Y-133201074D01*
X65473947Y-133222309D01*
X65475000Y-133243750D01*
X65475000Y-133681250D01*
X65473947Y-133702691D01*
X65470797Y-133723926D01*
X65465581Y-133744750D01*
X65458349Y-133764962D01*
X65449170Y-133784368D01*
X65438134Y-133802781D01*
X65425346Y-133820024D01*
X65410930Y-133835930D01*
X65395024Y-133850346D01*
X65377781Y-133863134D01*
X65359368Y-133874170D01*
X65339962Y-133883349D01*
X65319750Y-133890581D01*
X65298926Y-133895797D01*
X65277691Y-133898947D01*
X65256250Y-133900000D01*
X64743750Y-133900000D01*
X64722309Y-133898947D01*
X64701074Y-133895797D01*
X64680250Y-133890581D01*
X64660038Y-133883349D01*
X64640632Y-133874170D01*
X64622219Y-133863134D01*
X64604976Y-133850346D01*
X64589070Y-133835930D01*
X64574654Y-133820024D01*
X64561866Y-133802781D01*
X64550830Y-133784368D01*
X64541651Y-133764962D01*
X64534419Y-133744750D01*
X64529203Y-133723926D01*
X64526053Y-133702691D01*
X64525000Y-133681250D01*
X64525000Y-133243750D01*
X64526053Y-133222309D01*
X64529203Y-133201074D01*
X64534419Y-133180250D01*
X64541651Y-133160038D01*
X64550830Y-133140632D01*
X64561866Y-133122219D01*
X64574654Y-133104976D01*
X64589070Y-133089070D01*
X64604976Y-133074654D01*
X64622219Y-133061866D01*
X64640632Y-133050830D01*
X64660038Y-133041651D01*
X64680250Y-133034419D01*
X64701074Y-133029203D01*
X64722309Y-133026053D01*
X64743750Y-133025000D01*
X65256250Y-133025000D01*
X65277691Y-133026053D01*
X65277691Y-133026053D01*
G37*
D11*
X65000000Y-133462500D03*
D10*
G36*
X65277691Y-134601053D02*
G01*
X65298926Y-134604203D01*
X65319750Y-134609419D01*
X65339962Y-134616651D01*
X65359368Y-134625830D01*
X65377781Y-134636866D01*
X65395024Y-134649654D01*
X65410930Y-134664070D01*
X65425346Y-134679976D01*
X65438134Y-134697219D01*
X65449170Y-134715632D01*
X65458349Y-134735038D01*
X65465581Y-134755250D01*
X65470797Y-134776074D01*
X65473947Y-134797309D01*
X65475000Y-134818750D01*
X65475000Y-135256250D01*
X65473947Y-135277691D01*
X65470797Y-135298926D01*
X65465581Y-135319750D01*
X65458349Y-135339962D01*
X65449170Y-135359368D01*
X65438134Y-135377781D01*
X65425346Y-135395024D01*
X65410930Y-135410930D01*
X65395024Y-135425346D01*
X65377781Y-135438134D01*
X65359368Y-135449170D01*
X65339962Y-135458349D01*
X65319750Y-135465581D01*
X65298926Y-135470797D01*
X65277691Y-135473947D01*
X65256250Y-135475000D01*
X64743750Y-135475000D01*
X64722309Y-135473947D01*
X64701074Y-135470797D01*
X64680250Y-135465581D01*
X64660038Y-135458349D01*
X64640632Y-135449170D01*
X64622219Y-135438134D01*
X64604976Y-135425346D01*
X64589070Y-135410930D01*
X64574654Y-135395024D01*
X64561866Y-135377781D01*
X64550830Y-135359368D01*
X64541651Y-135339962D01*
X64534419Y-135319750D01*
X64529203Y-135298926D01*
X64526053Y-135277691D01*
X64525000Y-135256250D01*
X64525000Y-134818750D01*
X64526053Y-134797309D01*
X64529203Y-134776074D01*
X64534419Y-134755250D01*
X64541651Y-134735038D01*
X64550830Y-134715632D01*
X64561866Y-134697219D01*
X64574654Y-134679976D01*
X64589070Y-134664070D01*
X64604976Y-134649654D01*
X64622219Y-134636866D01*
X64640632Y-134625830D01*
X64660038Y-134616651D01*
X64680250Y-134609419D01*
X64701074Y-134604203D01*
X64722309Y-134601053D01*
X64743750Y-134600000D01*
X65256250Y-134600000D01*
X65277691Y-134601053D01*
X65277691Y-134601053D01*
G37*
D11*
X65000000Y-135037500D03*
D10*
G36*
X64164703Y-144475722D02*
G01*
X64179264Y-144477882D01*
X64193543Y-144481459D01*
X64207403Y-144486418D01*
X64220710Y-144492712D01*
X64233336Y-144500280D01*
X64245159Y-144509048D01*
X64256066Y-144518934D01*
X64265952Y-144529841D01*
X64274720Y-144541664D01*
X64282288Y-144554290D01*
X64288582Y-144567597D01*
X64293541Y-144581457D01*
X64297118Y-144595736D01*
X64299278Y-144610297D01*
X64300000Y-144625000D01*
X64300000Y-145875000D01*
X64299278Y-145889703D01*
X64297118Y-145904264D01*
X64293541Y-145918543D01*
X64288582Y-145932403D01*
X64282288Y-145945710D01*
X64274720Y-145958336D01*
X64265952Y-145970159D01*
X64256066Y-145981066D01*
X64245159Y-145990952D01*
X64233336Y-145999720D01*
X64220710Y-146007288D01*
X64207403Y-146013582D01*
X64193543Y-146018541D01*
X64179264Y-146022118D01*
X64164703Y-146024278D01*
X64150000Y-146025000D01*
X63850000Y-146025000D01*
X63835297Y-146024278D01*
X63820736Y-146022118D01*
X63806457Y-146018541D01*
X63792597Y-146013582D01*
X63779290Y-146007288D01*
X63766664Y-145999720D01*
X63754841Y-145990952D01*
X63743934Y-145981066D01*
X63734048Y-145970159D01*
X63725280Y-145958336D01*
X63717712Y-145945710D01*
X63711418Y-145932403D01*
X63706459Y-145918543D01*
X63702882Y-145904264D01*
X63700722Y-145889703D01*
X63700000Y-145875000D01*
X63700000Y-144625000D01*
X63700722Y-144610297D01*
X63702882Y-144595736D01*
X63706459Y-144581457D01*
X63711418Y-144567597D01*
X63717712Y-144554290D01*
X63725280Y-144541664D01*
X63734048Y-144529841D01*
X63743934Y-144518934D01*
X63754841Y-144509048D01*
X63766664Y-144500280D01*
X63779290Y-144492712D01*
X63792597Y-144486418D01*
X63806457Y-144481459D01*
X63820736Y-144477882D01*
X63835297Y-144475722D01*
X63850000Y-144475000D01*
X64150000Y-144475000D01*
X64164703Y-144475722D01*
X64164703Y-144475722D01*
G37*
D12*
X64000000Y-145250000D03*
D10*
G36*
X65164703Y-144475722D02*
G01*
X65179264Y-144477882D01*
X65193543Y-144481459D01*
X65207403Y-144486418D01*
X65220710Y-144492712D01*
X65233336Y-144500280D01*
X65245159Y-144509048D01*
X65256066Y-144518934D01*
X65265952Y-144529841D01*
X65274720Y-144541664D01*
X65282288Y-144554290D01*
X65288582Y-144567597D01*
X65293541Y-144581457D01*
X65297118Y-144595736D01*
X65299278Y-144610297D01*
X65300000Y-144625000D01*
X65300000Y-145875000D01*
X65299278Y-145889703D01*
X65297118Y-145904264D01*
X65293541Y-145918543D01*
X65288582Y-145932403D01*
X65282288Y-145945710D01*
X65274720Y-145958336D01*
X65265952Y-145970159D01*
X65256066Y-145981066D01*
X65245159Y-145990952D01*
X65233336Y-145999720D01*
X65220710Y-146007288D01*
X65207403Y-146013582D01*
X65193543Y-146018541D01*
X65179264Y-146022118D01*
X65164703Y-146024278D01*
X65150000Y-146025000D01*
X64850000Y-146025000D01*
X64835297Y-146024278D01*
X64820736Y-146022118D01*
X64806457Y-146018541D01*
X64792597Y-146013582D01*
X64779290Y-146007288D01*
X64766664Y-145999720D01*
X64754841Y-145990952D01*
X64743934Y-145981066D01*
X64734048Y-145970159D01*
X64725280Y-145958336D01*
X64717712Y-145945710D01*
X64711418Y-145932403D01*
X64706459Y-145918543D01*
X64702882Y-145904264D01*
X64700722Y-145889703D01*
X64700000Y-145875000D01*
X64700000Y-144625000D01*
X64700722Y-144610297D01*
X64702882Y-144595736D01*
X64706459Y-144581457D01*
X64711418Y-144567597D01*
X64717712Y-144554290D01*
X64725280Y-144541664D01*
X64734048Y-144529841D01*
X64743934Y-144518934D01*
X64754841Y-144509048D01*
X64766664Y-144500280D01*
X64779290Y-144492712D01*
X64792597Y-144486418D01*
X64806457Y-144481459D01*
X64820736Y-144477882D01*
X64835297Y-144475722D01*
X64850000Y-144475000D01*
X65150000Y-144475000D01*
X65164703Y-144475722D01*
X65164703Y-144475722D01*
G37*
D12*
X65000000Y-145250000D03*
D10*
G36*
X66164703Y-144475722D02*
G01*
X66179264Y-144477882D01*
X66193543Y-144481459D01*
X66207403Y-144486418D01*
X66220710Y-144492712D01*
X66233336Y-144500280D01*
X66245159Y-144509048D01*
X66256066Y-144518934D01*
X66265952Y-144529841D01*
X66274720Y-144541664D01*
X66282288Y-144554290D01*
X66288582Y-144567597D01*
X66293541Y-144581457D01*
X66297118Y-144595736D01*
X66299278Y-144610297D01*
X66300000Y-144625000D01*
X66300000Y-145875000D01*
X66299278Y-145889703D01*
X66297118Y-145904264D01*
X66293541Y-145918543D01*
X66288582Y-145932403D01*
X66282288Y-145945710D01*
X66274720Y-145958336D01*
X66265952Y-145970159D01*
X66256066Y-145981066D01*
X66245159Y-145990952D01*
X66233336Y-145999720D01*
X66220710Y-146007288D01*
X66207403Y-146013582D01*
X66193543Y-146018541D01*
X66179264Y-146022118D01*
X66164703Y-146024278D01*
X66150000Y-146025000D01*
X65850000Y-146025000D01*
X65835297Y-146024278D01*
X65820736Y-146022118D01*
X65806457Y-146018541D01*
X65792597Y-146013582D01*
X65779290Y-146007288D01*
X65766664Y-145999720D01*
X65754841Y-145990952D01*
X65743934Y-145981066D01*
X65734048Y-145970159D01*
X65725280Y-145958336D01*
X65717712Y-145945710D01*
X65711418Y-145932403D01*
X65706459Y-145918543D01*
X65702882Y-145904264D01*
X65700722Y-145889703D01*
X65700000Y-145875000D01*
X65700000Y-144625000D01*
X65700722Y-144610297D01*
X65702882Y-144595736D01*
X65706459Y-144581457D01*
X65711418Y-144567597D01*
X65717712Y-144554290D01*
X65725280Y-144541664D01*
X65734048Y-144529841D01*
X65743934Y-144518934D01*
X65754841Y-144509048D01*
X65766664Y-144500280D01*
X65779290Y-144492712D01*
X65792597Y-144486418D01*
X65806457Y-144481459D01*
X65820736Y-144477882D01*
X65835297Y-144475722D01*
X65850000Y-144475000D01*
X66150000Y-144475000D01*
X66164703Y-144475722D01*
X66164703Y-144475722D01*
G37*
D12*
X66000000Y-145250000D03*
D10*
G36*
X63074505Y-148226204D02*
G01*
X63098773Y-148229804D01*
X63122572Y-148235765D01*
X63145671Y-148244030D01*
X63167850Y-148254520D01*
X63188893Y-148267132D01*
X63208599Y-148281747D01*
X63226777Y-148298223D01*
X63243253Y-148316401D01*
X63257868Y-148336107D01*
X63270480Y-148357150D01*
X63280970Y-148379329D01*
X63289235Y-148402428D01*
X63295196Y-148426227D01*
X63298796Y-148450495D01*
X63300000Y-148474999D01*
X63300000Y-149775001D01*
X63298796Y-149799505D01*
X63295196Y-149823773D01*
X63289235Y-149847572D01*
X63280970Y-149870671D01*
X63270480Y-149892850D01*
X63257868Y-149913893D01*
X63243253Y-149933599D01*
X63226777Y-149951777D01*
X63208599Y-149968253D01*
X63188893Y-149982868D01*
X63167850Y-149995480D01*
X63145671Y-150005970D01*
X63122572Y-150014235D01*
X63098773Y-150020196D01*
X63074505Y-150023796D01*
X63050001Y-150025000D01*
X62349999Y-150025000D01*
X62325495Y-150023796D01*
X62301227Y-150020196D01*
X62277428Y-150014235D01*
X62254329Y-150005970D01*
X62232150Y-149995480D01*
X62211107Y-149982868D01*
X62191401Y-149968253D01*
X62173223Y-149951777D01*
X62156747Y-149933599D01*
X62142132Y-149913893D01*
X62129520Y-149892850D01*
X62119030Y-149870671D01*
X62110765Y-149847572D01*
X62104804Y-149823773D01*
X62101204Y-149799505D01*
X62100000Y-149775001D01*
X62100000Y-148474999D01*
X62101204Y-148450495D01*
X62104804Y-148426227D01*
X62110765Y-148402428D01*
X62119030Y-148379329D01*
X62129520Y-148357150D01*
X62142132Y-148336107D01*
X62156747Y-148316401D01*
X62173223Y-148298223D01*
X62191401Y-148281747D01*
X62211107Y-148267132D01*
X62232150Y-148254520D01*
X62254329Y-148244030D01*
X62277428Y-148235765D01*
X62301227Y-148229804D01*
X62325495Y-148226204D01*
X62349999Y-148225000D01*
X63050001Y-148225000D01*
X63074505Y-148226204D01*
X63074505Y-148226204D01*
G37*
D13*
X62700000Y-149125000D03*
D10*
G36*
X67674505Y-148226204D02*
G01*
X67698773Y-148229804D01*
X67722572Y-148235765D01*
X67745671Y-148244030D01*
X67767850Y-148254520D01*
X67788893Y-148267132D01*
X67808599Y-148281747D01*
X67826777Y-148298223D01*
X67843253Y-148316401D01*
X67857868Y-148336107D01*
X67870480Y-148357150D01*
X67880970Y-148379329D01*
X67889235Y-148402428D01*
X67895196Y-148426227D01*
X67898796Y-148450495D01*
X67900000Y-148474999D01*
X67900000Y-149775001D01*
X67898796Y-149799505D01*
X67895196Y-149823773D01*
X67889235Y-149847572D01*
X67880970Y-149870671D01*
X67870480Y-149892850D01*
X67857868Y-149913893D01*
X67843253Y-149933599D01*
X67826777Y-149951777D01*
X67808599Y-149968253D01*
X67788893Y-149982868D01*
X67767850Y-149995480D01*
X67745671Y-150005970D01*
X67722572Y-150014235D01*
X67698773Y-150020196D01*
X67674505Y-150023796D01*
X67650001Y-150025000D01*
X66949999Y-150025000D01*
X66925495Y-150023796D01*
X66901227Y-150020196D01*
X66877428Y-150014235D01*
X66854329Y-150005970D01*
X66832150Y-149995480D01*
X66811107Y-149982868D01*
X66791401Y-149968253D01*
X66773223Y-149951777D01*
X66756747Y-149933599D01*
X66742132Y-149913893D01*
X66729520Y-149892850D01*
X66719030Y-149870671D01*
X66710765Y-149847572D01*
X66704804Y-149823773D01*
X66701204Y-149799505D01*
X66700000Y-149775001D01*
X66700000Y-148474999D01*
X66701204Y-148450495D01*
X66704804Y-148426227D01*
X66710765Y-148402428D01*
X66719030Y-148379329D01*
X66729520Y-148357150D01*
X66742132Y-148336107D01*
X66756747Y-148316401D01*
X66773223Y-148298223D01*
X66791401Y-148281747D01*
X66811107Y-148267132D01*
X66832150Y-148254520D01*
X66854329Y-148244030D01*
X66877428Y-148235765D01*
X66901227Y-148229804D01*
X66925495Y-148226204D01*
X66949999Y-148225000D01*
X67650001Y-148225000D01*
X67674505Y-148226204D01*
X67674505Y-148226204D01*
G37*
D13*
X67300000Y-149125000D03*
D14*
X58050000Y-139400000D03*
X58050000Y-142600000D03*
X62950000Y-139400000D03*
X62950000Y-142600000D03*
X71950000Y-142600000D03*
X71950000Y-139400000D03*
X67050000Y-142600000D03*
X67050000Y-139400000D03*
X67050000Y-132650000D03*
X67050000Y-135850000D03*
X71950000Y-132650000D03*
X71950000Y-135850000D03*
X62950000Y-135850000D03*
X62950000Y-132650000D03*
X58050000Y-135850000D03*
X58050000Y-132650000D03*
M02*
